<?xml version="1.0" encoding="utf-8"?>
<!-- Generator: Adobe Illustrator 22.1.0, SVG Export Plug-In . SVG Version: 6.00 Build 0)  -->
<svg version="1.1" id="&#x421;&#x43B;&#x43E;&#x439;_1" xmlns="http://www.w3.org/2000/svg" xmlns:xlink="http://www.w3.org/1999/xlink" x="0px" y="0px" viewBox="0 0 36 36" xml:space="preserve">

<g>
	<path class="st0" d="M18,0C8.1,0,0,8.1,0,18c0,9.9,8.1,18,18,18c9.9,0,18-8.1,18-18C36,8.1,27.9,0,18,0z M18,35C8.6,35,1,27.4,1,18
		S8.6,1,18,1s17,7.6,17,17S27.4,35,18,35z"/>
	<path class="st0" d="M27,17.5h-8.5V4c0-0.3-0.2-0.5-0.5-0.5S17.5,3.7,17.5,4v14c0,0.3,0.2,0.5,0.5,0.5h9c0.3,0,0.5-0.2,0.5-0.5
		S27.3,17.5,27,17.5z"/>
</g>
</svg>
