<svg width="70" height="70" viewBox="0 0 70 70" xmlns="http://www.w3.org/2000/svg">
<path fill-rule="evenodd" clip-rule="evenodd" d="M1 1H69V69H1V1ZM0 70V0H70V70H0ZM53.765 53.723H55.205L55.204 53.719V50.039H58.004V48.759H55.204V45.519H53.804V48.759H47.725L54.884 39.719H53.284L45.865 48.999V50.039H53.765V53.723ZM49.548 31.072L54.339 35.861C54.3833 35.9287 54.4438 35.9843 54.515 36.0229C54.5861 36.0614 54.6658 36.0816 54.7467 36.0817C54.8277 36.0818 54.9074 36.0618 54.9787 36.0234C55.0499 35.9851 55.1105 35.9296 55.155 35.862L59.937 31.069C60.0396 30.9653 60.0969 30.825 60.0961 30.6791C60.0954 30.5332 60.0367 30.3936 59.933 30.291C59.8293 30.1883 59.6891 30.1311 59.5432 30.1318C59.3973 30.1326 59.2576 30.1913 59.155 30.295L55.284 34.164L55.25 33.49C54.9652 27.6988 52.4656 22.2387 48.268 18.2388C44.0705 14.2389 38.4962 12.0053 32.698 12H32.584C26.6007 12.0177 20.8674 14.402 16.636 18.6324C12.4046 22.8629 10.019 28.5956 10 34.579V34.644V34.692C9.99264 40.5469 12.2611 46.1754 16.3264 50.3889C20.3917 54.6024 25.9356 57.0708 31.787 57.2729C31.8592 57.2756 31.9313 57.2641 31.999 57.239C32.0668 57.2138 32.1289 57.1756 32.1819 57.1264C32.2349 57.0772 32.2776 57.0181 32.3078 56.9524C32.3379 56.8867 32.3548 56.8157 32.3575 56.7435C32.3602 56.6712 32.3486 56.5992 32.3234 56.5314C32.2983 56.4637 32.2601 56.4015 32.2109 56.3486C32.1617 56.2956 32.1026 56.2528 32.0369 56.2227C31.9712 56.1926 31.9002 56.1757 31.828 56.173C26.4133 55.9499 21.2798 53.7013 17.4445 49.8726C13.6091 46.0439 11.3515 40.9143 11.119 35.5L11.107 35.189H14.789C14.9349 35.189 15.0747 35.131 15.1779 35.0279C15.281 34.9247 15.339 34.7848 15.339 34.639C15.339 34.4931 15.281 34.3532 15.1779 34.2501C15.0747 34.1469 14.9349 34.089 14.789 34.089H11.107L11.119 33.777C11.3502 28.3726 13.6008 23.2517 17.4257 19.4268C21.2507 15.6018 26.3716 13.3512 31.776 13.12L32.088 13.108V15.939C32.088 16.0848 32.146 16.2247 32.2491 16.3279C32.3522 16.431 32.4921 16.489 32.638 16.489C32.7839 16.489 32.9237 16.431 33.0269 16.3279C33.13 16.2247 33.188 16.0848 33.188 15.939V13.106L33.499 13.119C38.8488 13.3069 43.9347 15.49 47.7561 19.2388C51.5774 22.9876 53.8575 28.0307 54.148 33.376L54.193 34.162L50.321 30.29C50.2713 30.238 50.2108 30.1977 50.1437 30.1718C50.0766 30.1458 50.0047 30.135 49.933 30.14C49.8609 30.1409 49.7896 30.1563 49.7235 30.1852C49.6574 30.214 49.5978 30.2558 49.548 30.308C49.4485 30.4103 49.3929 30.5473 49.3929 30.69C49.3929 30.8327 49.4485 30.9697 49.548 31.072ZM30.4337 34.5589C30.4181 34.8534 30.4611 35.1481 30.56 35.426H30.558C30.6562 35.7049 30.8088 35.9616 31.0071 36.181C31.2054 36.4004 31.4453 36.5782 31.713 36.704C32.1324 36.9027 32.603 36.9672 33.0604 36.8887C33.5179 36.8101 33.9399 36.5923 34.269 36.265C34.599 35.9381 34.8183 35.5161 34.8961 35.0582C34.974 34.6003 34.9065 34.1295 34.703 33.712L34.609 33.52L43.886 24.243C43.9892 24.1398 44.0471 23.9999 44.0471 23.854C44.0471 23.7081 43.9892 23.5681 43.886 23.465C43.7828 23.3618 43.6429 23.3038 43.497 23.3038C43.3511 23.3038 43.2112 23.3618 43.108 23.465L33.829 32.745L33.641 32.6609C33.3381 32.5257 33.0102 32.4559 32.6785 32.4559C32.3468 32.4559 32.0189 32.5257 31.716 32.6609L31.527 32.745L27.057 28.274C26.9559 28.1763 26.8206 28.1221 26.68 28.123C26.5717 28.1221 26.4655 28.1533 26.3748 28.2125C26.2842 28.2718 26.213 28.3565 26.1702 28.4561C26.1275 28.5556 26.1151 28.6655 26.1347 28.7721C26.1542 28.8786 26.2047 28.9771 26.28 29.055L30.743 33.518L30.651 33.71C30.5232 33.9758 30.4494 34.2644 30.4337 34.5589ZM33.484 35.491C33.2667 35.6996 32.9772 35.8161 32.676 35.816H32.674C32.3707 35.8194 32.0781 35.7046 31.858 35.496C31.7509 35.3889 31.6659 35.2617 31.6079 35.1218C31.5499 34.9819 31.5201 34.8319 31.5201 34.6805C31.5201 34.529 31.5499 34.3791 31.6079 34.2391C31.6659 34.0992 31.7509 33.9721 31.858 33.865C32.0769 33.6556 32.3681 33.5387 32.671 33.5387C32.9739 33.5387 33.2651 33.6556 33.484 33.865C33.6995 34.0806 33.8206 34.3731 33.8206 34.678C33.8206 34.9829 33.6995 35.2753 33.484 35.491ZM37.2769 41.2668C37.9382 40.9968 38.652 40.8792 39.365 40.923H39.363C41.503 40.923 42.639 41.923 42.639 43.543C42.639 44.503 42.339 45.443 40.759 47.003L34.939 52.703V53.723H44.765V52.443H37.065L41.825 47.763C43.705 45.923 44.125 44.723 44.125 43.383C44.125 41.043 42.325 39.603 39.485 39.603C38.5621 39.5514 37.6392 39.7039 36.7819 40.0496C35.9246 40.3952 35.154 40.9256 34.525 41.603L35.545 42.483C36.0236 41.9526 36.6155 41.5369 37.2769 41.2668Z"/>
</svg>
