<svg xmlns="http://www.w3.org/2000/svg" width="70" height="70" viewBox="0 0 70 70">
  <defs>
    
  </defs>
  <path id="_24" data-name="24" class="cls-1" d="M778.4,870.083a34.768,34.768,0,0,1-24.467,10.9C753.615,881,753.3,881,752.987,881A35,35,0,1,1,778.4,870.083Zm8.591-24.985A34,34,0,1,0,753.9,879.987,33.772,33.772,0,0,0,786.986,845.1Zm-11.425,19.986h-1.44V861.4h-7.9v-1.04l7.419-9.28h1.6l-7.159,9.04h6.079v-3.24h1.4v3.24h2.8v1.28h-2.8v3.68ZM774.7,847.222l-4.791-4.789a0.548,0.548,0,0,1,0-.764,0.542,0.542,0,0,1,.385-0.168,0.49,0.49,0,0,1,.388.15l3.872,3.872-0.045-.786A21.433,21.433,0,0,0,753.86,824.48l-0.311-.013V827.3a0.55,0.55,0,0,1-1.1,0v-2.831l-0.312.012a21.6,21.6,0,0,0-20.657,20.657l-0.012.312h3.682a0.55,0.55,0,0,1,0,1.1h-3.682l0.012,0.311a21.619,21.619,0,0,0,20.709,20.673,0.55,0.55,0,0,1-.041,1.1,22.566,22.566,0,0,1-21.787-22.581l0-.048,0-.065a22.651,22.651,0,0,1,22.584-22.579h0.114a22.6,22.6,0,0,1,22.552,21.49l0.034,0.674,3.871-3.869a0.55,0.55,0,0,1,.782.774l-4.782,4.793A0.488,0.488,0,0,1,774.7,847.222Zm-23.779-.435a2.232,2.232,0,0,1,.091-1.716l0.092-.192-4.463-4.463a0.55,0.55,0,0,1,.4-0.932,0.538,0.538,0,0,1,.377.151l4.47,4.471,0.189-.084a2.361,2.361,0,0,1,1.925,0l0.188,0.084,9.279-9.28a0.55,0.55,0,1,1,.778.778l-9.277,9.277,0.094,0.192a2.223,2.223,0,0,1-.434,2.553,2.255,2.255,0,0,1-2.556.439A2.23,2.23,0,0,1,750.919,846.787Zm2.116,0.39a1.166,1.166,0,0,0,.808-0.325l0,0a1.15,1.15,0,0,0,0-1.626,1.176,1.176,0,0,0-1.626,0,1.153,1.153,0,0,0,0,1.631A1.167,1.167,0,0,0,753.035,847.177Zm6.689,5.107a4.753,4.753,0,0,0-3.82,1.56l-1.02-.88a6.29,6.29,0,0,1,4.96-2c2.84,0,4.64,1.44,4.64,3.78,0,1.34-.42,2.54-2.3,4.38l-4.76,4.68h7.7v1.28H755.3v-1.02l5.82-5.7c1.58-1.56,1.88-2.5,1.88-3.46C763,853.284,761.864,852.284,759.724,852.284Z" transform="translate(-718 -811)"/>
</svg>
