<svg xmlns="http://www.w3.org/2000/svg" width="70" height="70" viewBox="0 0 70 70">
  <defs>
    
  </defs>
  <path id="allergic" class="cls-1" d="M978.987,731a35,35,0,0,1-.915-69.988h0a35,35,0,1,1,1.856,69.976C979.615,731,979.3,731,978.987,731ZM978.1,662.012a34,34,0,1,0,24.3,9.317,33.771,33.771,0,0,0-24.3-9.317h0Zm1.193,10.322a0.671,0.671,0,0,0-.49.216c-0.175.191-4.351,4.772-8.562,10.48-7.147,9.687-8.647,14.883-8.647,17.537v0.522a17.7,17.7,0,1,0,35.4,0v-0.523c0-.294-0.011-0.565-0.031-0.827a0.674,0.674,0,0,0-.715-0.607,0.665,0.665,0,0,0-.609.714c0.018,0.224.027,0.458,0.027,0.72v0.523a16.372,16.372,0,1,1-32.743,0v-0.523c0-4.441,4.551-11.545,8.369-16.722,2.642-3.584,5.3-6.759,7.069-8.791l0.937-1.079,0.945,1.073c1.626,1.847,4.8,5.567,7.8,9.727a0.664,0.664,0,0,0,1.078-.775,131.227,131.227,0,0,0-9.336-11.454A0.664,0.664,0,0,0,979.292,672.334Zm-4.3,22.969a0.664,0.664,0,0,0-.464,1.14l6.107,5.96a3.672,3.672,0,0,0,2.775,1.009h0.007a3.678,3.678,0,0,0,2.617-1.362l13.422-19a0.664,0.664,0,1,0-1.084-.766l-13.432,19.007a2.344,2.344,0,0,1-3.368.173l-6.117-5.97A0.664,0.664,0,0,0,974.99,695.3Z" transform="translate(-944 -661)"/>
</svg>
