<svg xmlns="http://www.w3.org/2000/svg" width="70" height="70" viewBox="0 0 70 70">

  <path id="baby" class="cls-1" d="M752.987,731a35,35,0,0,1-.915-69.988h0a35,35,0,0,1,1.856,69.976C753.615,731,753.3,731,752.987,731ZM752.1,662.012a34,34,0,1,0,24.3,9.317,33.771,33.771,0,0,0-24.3-9.317h0Zm-3.225,55.276a0.579,0.579,0,0,0-.207.039,0.566,0.566,0,0,0-.314.724,2.636,2.636,0,0,0,2.468,1.633h3.526a2.638,2.638,0,0,0,2.47-1.635,0.538,0.538,0,0,0,0-.424,0.553,0.553,0,0,0-.311-0.3l-0.007,0a0.565,0.565,0,0,0-.736.316,1.525,1.525,0,0,1-1.414.939h-3.526a1.526,1.526,0,0,1-1.414-.941A0.578,0.578,0,0,0,748.874,717.288Zm-4.254-11.519h15.929a0.872,0.872,0,0,1,.874.869v2.392l-0.21.113a4.359,4.359,0,0,0-1.955,2.173L758,714.4a3.853,3.853,0,0,0,1.664,4.774,3.937,3.937,0,0,0,5.012-.961l2.069-2.624a4.28,4.28,0,0,0,.858-3.485,4.324,4.324,0,0,0-2.1-2.916L765,708.9l0.453-.366a5.548,5.548,0,0,0,.565-0.544,4.3,4.3,0,0,0,1.01-3.487,11.547,11.547,0,0,0-2.68-5.829,11.881,11.881,0,0,0-3.85-2.944l-0.494-.237,0.376-.4a10.488,10.488,0,0,0,2.895-7.228,10.632,10.632,0,0,0-7.774-10.181l-0.6-.169,0.407-.476a3.657,3.657,0,0,0,.88-2.41,3.156,3.156,0,0,0-3.165-3.141,2.849,2.849,0,0,0-1.83.625,2.213,2.213,0,0,0-.813,1.722,0.566,0.566,0,0,0,1.132,0,1.1,1.1,0,0,1,.407-0.873,1.7,1.7,0,0,1,1.1-.36,2.027,2.027,0,0,1,2.033,2.017,2.665,2.665,0,0,1-2.68,2.659A10.7,10.7,0,0,0,741.9,687.851a10.45,10.45,0,0,0,2.895,7.228l0.38,0.4-0.5.237a11.707,11.707,0,0,0-3.859,2.952,11.563,11.563,0,0,0-2.68,5.828,4.307,4.307,0,0,0,1.017,3.5,3.933,3.933,0,0,0,.552.531l0.47,0.364-0.514.3a4.343,4.343,0,0,0-2.1,2.917,4.285,4.285,0,0,0,.849,3.485l2.067,2.622a3.938,3.938,0,0,0,5.013.964,3.853,3.853,0,0,0,1.664-4.776l-1.256-3.081a5.407,5.407,0,0,0-.269-0.551l-0.329-.594h7.76a0.557,0.557,0,1,0,0-1.113h-9.316v-2.42A0.871,0.871,0,0,1,744.62,705.769Zm16.994,12.8a2.746,2.746,0,0,1-2.556-3.76l1.257-3.083a3.228,3.228,0,0,1,1.951-1.835,3.343,3.343,0,0,1,2.674.251,3.2,3.2,0,0,1,.928,4.758h0l-2.068,2.623A2.8,2.8,0,0,1,761.614,718.574Zm-18.057-.009a2.8,2.8,0,0,1-2.187-1.045L739.3,714.9a3.221,3.221,0,0,1-.63-2.592,3.187,3.187,0,0,1,1.557-2.167,3.263,3.263,0,0,1,4.625,1.584h0l1.256,3.081A2.747,2.747,0,0,1,743.557,718.565Zm-0.943-10.144-0.441-.046a3.285,3.285,0,0,1-2.154-1.111,3.223,3.223,0,0,1-.76-2.61,10.576,10.576,0,0,1,6.7-8.276l0.2-.076,0.175,0.125a10.758,10.758,0,0,0,12.5,0L759,696.3l0.2,0.076a10.582,10.582,0,0,1,6.7,8.277,3.261,3.261,0,0,1-2.92,3.721l-0.437.04v-1.788a1.989,1.989,0,0,0-1.2-1.815l-0.239-.106v-1.419a0.535,0.535,0,0,0-.153-0.391,0.569,0.569,0,0,0-.969.391v1.358h-14.8v-1.358a0.566,0.566,0,0,0-1.132,0v1.42l-0.24.105a1.989,1.989,0,0,0-1.2,1.815v1.793Zm9.975-11.1a9.473,9.473,0,1,1,9.559-9.473A9.526,9.526,0,0,1,752.589,697.324Zm4.309,11.724a0.607,0.607,0,0,0-.413.169,0.536,0.536,0,0,0-.153.388,0.565,0.565,0,0,0,.978.387,0.534,0.534,0,0,0,.153-0.387,0.542,0.542,0,0,0-.161-0.4A0.565,0.565,0,0,0,756.9,709.048Zm-6.376-17.733a0.585,0.585,0,0,0-.362.125,0.561,0.561,0,0,0-.079.784,3.213,3.213,0,0,0,4.98,0,0.539,0.539,0,0,0,.14-0.4,0.548,0.548,0,0,0-.206-0.38h0a0.575,0.575,0,0,0-.8.086,2.144,2.144,0,0,1-3.228,0A0.572,0.572,0,0,0,750.522,691.315Zm-1.966-4.385a1.854,1.854,0,0,0-1.308.536,0.546,0.546,0,0,0,0,.781,0.571,0.571,0,0,0,.8,0,0.709,0.709,0,0,1,1.007,0,0.594,0.594,0,0,0,.816-0.007,0.546,0.546,0,0,0-.008-0.774h0A1.85,1.85,0,0,0,748.556,686.93Zm8.059,1.106a0.724,0.724,0,0,1,.507.21,0.566,0.566,0,0,0,.8,0,0.547,0.547,0,0,0,0-.781h0a1.864,1.864,0,0,0-2.615,0,0.547,0.547,0,0,0,0,.781,0.6,0.6,0,0,0,.818-0.007A0.69,0.69,0,0,1,756.615,688.036Z" transform="translate(-718 -661)"/>
</svg>
