<svg width="22" height="20" viewBox="0 0 22 20" xmlns="http://www.w3.org/2000/svg">
<path fill-rule="evenodd" clip-rule="evenodd" d="M9.21634 2.89903C9.21634 1.29791 12.0781 0 15.6082 0C19.1382 0 22 1.29791 22 2.89903V3.52775C22 5.12887 19.1382 6.42678 15.6082 6.42678C12.0781 6.42678 9.21634 5.12887 9.21634 3.52775V2.89903ZM8.17316 11.2226C7.60766 11.2969 7.01007 11.3369 6.39182 11.3369C2.86172 11.3369 0 10.0389 0 8.43781V7.80909C0 6.20798 2.86172 4.91007 6.39182 4.91007C7.01007 4.91007 7.60772 4.95001 8.17316 5.02429V11.2226ZM8.17316 14.4593C7.60766 14.5335 7.01007 14.5734 6.39182 14.5734C2.86172 14.5734 0 13.2755 0 11.6744V11.0457C0 10.8422 0.0464537 10.6436 0.134431 10.4519C0.738547 11.7682 3.31043 12.7572 6.39182 12.7572C7.01023 12.7572 7.60755 12.7167 8.17316 12.6424V14.4593ZM8.17316 16.0202V15.8789C7.60755 15.9532 7.01023 15.9937 6.39181 15.9937C3.31043 15.9937 0.738547 15.0047 0.134431 13.6884C0.0464537 13.8801 0 14.0786 0 14.2822V14.9109C0 16.512 2.86172 17.81 6.39181 17.81C7.09777 17.81 7.77677 17.7579 8.41173 17.6621C8.25434 17.3401 8.17316 17.0006 8.17316 16.6488V16.0202ZM15.6082 7.84711C12.5268 7.84711 9.95489 6.85816 9.35077 5.54185C9.2628 5.73352 9.21634 5.93205 9.21634 6.13561V6.76432C9.21634 8.36544 12.0781 9.66335 15.6082 9.66335C19.1382 9.66335 22 8.36544 22 6.76432V6.13561C22 5.93205 21.9535 5.73352 21.8656 5.54185C21.2614 6.85816 18.6896 7.84711 15.6082 7.84711ZM9.35077 8.77849C9.95489 10.0948 12.5268 11.0838 15.6082 11.0838C18.6896 11.0838 21.2614 10.0948 21.8656 8.77849C21.9535 8.97016 22 9.16869 22 9.37225V10.001C22 11.6021 19.1382 12.9001 15.6082 12.9001C12.0781 12.9001 9.21634 11.6021 9.21634 10.001V9.37225C9.21634 9.16869 9.2628 8.97016 9.35077 8.77849ZM15.6082 14.4952C12.5268 14.4952 9.95489 13.5062 9.35077 12.1899C9.2628 12.3816 9.21634 12.5801 9.21634 12.7836V13.4124C9.21634 15.0135 12.0781 16.3114 15.6082 16.3114C19.1382 16.3114 22 15.0135 22 13.4124V12.7836C22 12.5801 21.9535 12.3815 21.8656 12.1899C21.2614 13.5061 18.6896 14.4952 15.6082 14.4952ZM9.35077 15.4264C9.95489 16.7426 12.5268 17.7316 15.6082 17.7316C18.6896 17.7316 21.2614 16.7426 21.8656 15.4263C21.9535 15.618 22 15.8165 22 16.02V16.6488C22 18.2499 19.1382 19.5478 15.6082 19.5478C12.0781 19.5478 9.21634 18.2499 9.21634 16.6488V16.0201C9.21634 15.8167 9.2628 15.6181 9.35077 15.4264Z"/>
</svg>
