<?xml version="1.0" encoding="utf-8"?>
<!-- Generator: Adobe Illustrator 22.1.0, SVG Export Plug-In . SVG Version: 6.00 Build 0)  -->
<svg version="1.1" id="Слой_1" xmlns="http://www.w3.org/2000/svg" xmlns:xlink="http://www.w3.org/1999/xlink" x="0px" y="0px"
	 viewBox="0 0 60 60" style="enable-background:new 0 0 60 60;" xml:space="preserve">
<style type="text/css">
	.st0{fill:#FFFFFF;}
	.st1{fill:#FF70B6;}
</style>
<circle class="st0" cx="30" cy="30" r="30"/>
<g>
	<ellipse transform="matrix(0.7071 -0.7071 0.7071 0.7071 -2.948 23.7395)" class="st1" cx="27.2" cy="15.4" rx="8.4" ry="8.4"/>
	<path class="st1" d="M48.7,26.7c-2.1-5.7-9.8-8.6-19.2,0c-14.1-4.7-19,0.5-18.5,8.1C11.6,44,28,53,34,51.9
		C39.6,50.9,53.2,39,48.7,26.7z M22.5,42.3c3.5-0.2,5.2-1.3,3.8-5.1c-1.4-3.8-2-5.6-0.4-6.3c1.6-0.7,2.9,0.6,4.1,2.9
		c1.2,2.3,4,6.1,10.2,5.7C36.5,43.3,28.4,47.5,22.5,42.3z M39.1,37.7c-3.2,0-5.8-2.6-5.8-5.8c0-3.2,2.6-5.8,5.8-5.8
		c3.2,0,5.8,2.6,5.8,5.8C45,35.1,42.3,37.7,39.1,37.7z"/>
</g>
</svg>
