<svg width="60" height="60" viewBox="0 0 60 60" xmlns="http://www.w3.org/2000/svg">
<path fill-rule="evenodd" clip-rule="evenodd" d="M30 60C46.5685 60 60 46.5685 60 30C60 13.4315 46.5685 0 30 0C13.4315 0 0 13.4315 0 30C0 46.5685 13.4315 60 30 60ZM35.3239 15.4283C35.3239 20.0831 31.5504 23.8566 26.8956 23.8566C22.2407 23.8566 18.4673 20.0831 18.4673 15.4283C18.4673 10.7735 22.2407 7 26.8956 7C31.5504 7 35.3239 10.7735 35.3239 15.4283ZM29.2322 26.7355C38.5784 18.1821 46.2974 21.0611 48.3836 26.7355C52.8935 39.0024 39.3294 50.9435 33.7384 51.937C27.7301 53.0046 11.3442 44.0093 10.7483 34.8718C10.2476 27.1945 15.0876 22.0624 29.2322 26.7355ZM44.677 31.8677C44.677 35.0938 42.0618 37.709 38.8356 37.709C35.6095 37.709 32.9942 35.0938 32.9942 31.8677C32.9942 28.6415 35.6095 26.0263 38.8356 26.0263C42.0618 26.0263 44.677 28.6415 44.677 31.8677ZM26.0264 37.2085C27.4033 41.0472 25.7343 42.132 22.1877 42.3406C28.1126 47.4727 36.2488 43.342 39.9623 39.4616C33.7453 39.8372 30.9498 36.1237 29.7398 33.7871C28.5298 31.4506 27.1946 30.1571 25.6091 30.8664C24.0236 31.5757 24.6495 33.3699 26.0264 37.2085Z"/>
</svg>
