<?xml version="1.0" encoding="utf-8"?>
<!-- Generator: Adobe Illustrator 22.1.0, SVG Export Plug-In . SVG Version: 6.00 Build 0)  -->
<svg version="1.1" id="Слой_1" xmlns="http://www.w3.org/2000/svg" xmlns:xlink="http://www.w3.org/1999/xlink" x="0px" y="0px"
	 viewBox="0 0 60 60" style="enable-background:new 0 0 60 60;" xml:space="preserve">
<style type="text/css">
	.st0{fill:#FFFFFF;}
	.st1{fill:#FF70B6;}
</style>
<circle class="st0" cx="30" cy="30" r="30"/>
<path class="st1" d="M35.8,22c2.2-0.6,4.2-2,5.4-4c0.5-0.9,0.2-2-0.6-2.6c-2.9-2.1-6.7-5.4-6.7-9.4h-9.9c0,0-13.9,8-13.9,14
	s11.9,12,11.9,12c-7.9,10,2,16,2,16v6h9.9l2-6c0,0,11.9,0,13.9-10C52.4,24.3,35.8,22,35.8,22z M24.6,28c0,0-6.6-6.3-6.7-8
	c-0.1-2,6-4,6-4C25.9,18,25.6,26.3,24.6,28z"/>
<path class="st0" d="M40.5,34.3l2.3-2.5v-2h-8.1v2.4h4.4l-2,2.2v2h1.3c1.2,0,1.7,0.4,1.7,1.1c0,0.8-0.7,1.2-1.8,1.2
	c-1.1,0-2.2-0.3-3.1-0.9l-1.2,2.4c1.2,0.7,2.8,1.1,4.4,1.1c3.4,0,4.9-1.8,4.9-3.7C43.3,35.9,42.4,34.7,40.5,34.3z"/>
</svg>
