<svg width="60" height="60" viewBox="0 0 60 60" xmlns="http://www.w3.org/2000/svg">
<path fill-rule="evenodd" clip-rule="evenodd" d="M30 60C46.5685 60 60 46.5685 60 30C60 13.4315 46.5685 0 30 0C13.4315 0 0 13.4315 0 30C0 46.5685 13.4315 60 30 60ZM40.7252 19.4269C39.6927 16.262 40.4172 12.857 41.5281 9.71866C41.6576 9.353 41.6162 8.94523 41.409 8.61179C41.1736 8.2316 40.7594 8 40.3125 8H19.7064C19.2595 8 18.8453 8.2316 18.6099 8.61179C18.3745 8.99198 18.3531 9.46652 18.5533 9.86562C19.9834 12.7245 20.2779 16.0771 19.393 19.1198C18.5407 21.8087 17.2932 24.2597 16.086 26.6288C15.7143 27.358 15.3502 28.0765 14.9995 28.7925L20.808 31.697C26.488 34.537 33.5123 34.537 39.1923 31.697L45.0151 28.7858C44.6689 28.0812 44.3094 27.3746 43.9432 26.6579C42.7778 24.38 41.5718 22.0221 40.7252 19.4269ZM30 31.2891C29.2881 31.2891 28.7109 30.7119 28.7109 30C28.7109 29.2879 29.2881 28.7109 30 28.7109C30.7119 28.7109 31.2891 29.2879 31.2891 30C31.2891 30.7119 30.7119 31.2891 30 31.2891ZM9.28906 18.3984H11.4194L11.0417 18.7761C10.5382 19.2796 10.5382 20.0954 11.0417 20.5989C11.5452 21.1024 12.361 21.1024 12.8645 20.5989L15.4426 18.0208C15.9461 17.5173 15.9461 16.7014 15.4426 16.1979L12.8645 13.6198C12.361 13.1163 11.5452 13.1163 11.0417 13.6198C10.5382 14.1233 10.5382 14.9391 11.0417 15.4426L11.4194 15.8202H9.28906C8.57655 15.8202 8 16.3968 8 17.1093C8 17.8218 8.57655 18.3984 9.28906 18.3984ZM48.5806 15.8203H50.7109C51.4234 15.8203 51.9999 16.3969 51.9999 17.1094C51.9999 17.8219 51.4234 18.3985 50.7109 18.3985H48.5806L48.9583 18.7761C49.4618 19.2796 49.4618 20.0954 48.9583 20.5989C48.4548 21.1024 47.6389 21.1024 47.1354 20.5989L44.5573 18.0208C44.0538 17.5173 44.0538 16.7015 44.5573 16.1979L47.1354 13.6198C47.6389 13.1163 48.4548 13.1163 48.9583 13.6198C49.4618 14.1233 49.4618 14.9391 48.9583 15.4426L48.5806 15.8203ZM46.0868 31.1326L40.3451 34.0032C37.1489 35.6007 33.5726 36.4454 30 36.4454C26.4274 36.4454 22.851 35.6007 19.6547 34.0032L13.9295 31.1405C13.3986 32.3937 12.9367 33.6613 12.6203 34.9914C12.2867 36.3927 12.0724 37.8103 11.9484 39.2329C18.0612 37.8982 23.4429 39.6665 28.3332 44.5574C28.8418 44.969 31.1593 44.9703 31.6755 44.5485C35.1218 41.1005 40.2207 37.4769 48.0707 39.2448C47.9469 37.8181 47.7331 36.3963 47.3985 34.9913C47.0799 33.6516 46.6174 32.383 46.0868 31.1326ZM32.5781 46.9447C32.9345 46.7898 33.2587 46.6111 33.4895 46.3802C36.7541 43.1157 41.2038 40.1345 48.1378 41.9251C48.1216 45.0122 47.6736 48.1774 46.6849 51.1371C46.5124 51.6538 46.0133 52.0001 45.4688 52.0001H33.8672C33.1553 52.0001 32.5781 51.423 32.5781 50.711V46.9447ZM11.8818 41.8933C11.8946 44.991 12.3418 48.1672 13.3339 51.1372C13.5065 51.6538 14.0054 52.0001 14.5501 52.0001H26.1328C26.8447 52.0001 27.4218 51.423 27.4218 50.7111V46.9447C27.0654 46.7898 26.7413 46.6111 26.5105 46.3802C23.1816 43.0515 18.7273 40.1394 11.8818 41.8933Z"/>
</svg>
