<svg width="60" height="60" viewBox="0 0 60 60" xmlns="http://www.w3.org/2000/svg">
<path fill-rule="evenodd" clip-rule="evenodd" d="M60 30C60 46.5685 46.5685 60 30 60C13.4315 60 0 46.5685 0 30C0 13.4315 13.4315 0 30 0C46.5685 0 60 13.4315 60 30ZM36.8045 21.9998C39.0412 21.4233 40.9649 19.9875 42.1639 17.9998C42.6282 17.1164 42.374 16.0232 41.5685 15.4397C38.6506 13.3198 34.8195 9.99979 34.8195 5.99976H24.8947C24.8947 5.99976 11 13.9997 11 19.9997C11 25.9997 22.9098 31.9997 22.9098 31.9997C14.9699 41.9998 24.8947 47.9998 24.8947 47.9998V53.9998H34.8195L37.8044 44.9998C37.8044 44.9998 41 42.9998 41 37.4998C41 35.0131 40.2845 33.5485 39.4363 31.8121C38.4084 29.7079 37.1856 27.2046 36.8045 21.9998ZM25.6093 27.9998C25.6093 27.9998 19.0589 21.7198 18.9398 19.9998C18.8009 17.9998 24.8947 15.9998 24.8947 15.9998C26.8797 17.9998 26.6415 26.3198 25.6093 27.9998ZM29.3538 33.2478V30.7998H34.6018V41.9998H31.4338V33.2478H29.3538Z"/>
</svg>
