<?xml version="1.0" encoding="utf-8"?>
<!-- Generator: Adobe Illustrator 22.1.0, SVG Export Plug-In . SVG Version: 6.00 Build 0)  -->
<svg version="1.1" id="Слой_1" xmlns="http://www.w3.org/2000/svg" xmlns:xlink="http://www.w3.org/1999/xlink" x="0px" y="0px"
	 viewBox="0 0 60 60" style="enable-background:new 0 0 60 60;" xml:space="preserve">
<style type="text/css">
	.st0{fill:#FFFFFF;}
	.st1{fill:#FF70B6;}
</style>
<circle class="st0" cx="30" cy="30" r="30"/>
<path class="st1" d="M34.8,22c2.2-0.6,4.2-2,5.4-4c0.5-0.9,0.2-2-0.6-2.6c-2.9-2.1-6.7-5.4-6.7-9.4h-9.9C22.9,6,9,14,9,20
	s11.9,12,11.9,12c-7.9,10,2,16,2,16v6h9.9l2-6c0,0,8.2-3,8.2-11S34.8,22,34.8,22z M23.6,28c0,0-6.6-6.3-6.7-8c-0.1-2,6-4,6-4
	C24.9,18,24.6,26.3,23.6,28z"/>
<path class="st0" d="M33.1,38.5l2.1-2c1.6-1.5,1.9-2.5,1.9-3.6c0-2.1-1.8-3.4-4.4-3.4c-2.2,0-3.8,0.9-4.6,2.3l2.4,1.3
	c0.4-0.7,1.2-1.1,2-1.1c1,0,1.4,0.4,1.4,1.2c0,0.5-0.1,1-1,1.8L28.7,39v2h8.7v-2.5H33.1z"/>
</svg>
