<?xml version="1.0" encoding="utf-8"?>
<!-- Generator: Adobe Illustrator 22.1.0, SVG Export Plug-In . SVG Version: 6.00 Build 0)  -->
<svg version="1.1" id="Слой_1" xmlns="http://www.w3.org/2000/svg" xmlns:xlink="http://www.w3.org/1999/xlink" x="0px" y="0px"
	 viewBox="0 0 60 60" style="enable-background:new 0 0 60 60;" xml:space="preserve">
<style type="text/css">
	.st0{fill:#FFFFFF;}
	.st1{fill:#FF70B6;}
</style>
<circle class="st0" cx="30" cy="30" r="30"/>
<path class="st1" d="M36.8,22.1c2.2-0.6,4.2-2,5.4-4c0.5-0.9,0.2-2-0.6-2.6c-2.9-2.1-6.7-5.5-6.7-9.5h-9.9c0,0-13.9,8-13.9,14.1
	c0,6,11.9,12.1,11.9,12.1c-7.9,10.1,2,16.1,2,16.1v6h9.9l3-9c0,0,3.2-2,3.2-7.5C41,32.1,37.5,31.6,36.8,22.1z M25.6,28.1
	c0,0-6.6-6.3-6.7-8c-0.1-2,6-4,6-4C26.9,18.1,26.6,26.4,25.6,28.1z"/>
<path class="st0" d="M29.4,30.9v2.4h2.1v8.8h3.2V30.9H29.4z"/>
</svg>
