<svg width="60" height="60" viewBox="0 0 60 60" xmlns="http://www.w3.org/2000/svg">
<path fill-rule="evenodd" clip-rule="evenodd" d="M60 30C60 46.5685 46.5685 60 30 60C13.4315 60 0 46.5685 0 30C0 13.4315 13.4315 0 30 0C46.5685 0 60 13.4315 60 30ZM34.8045 21.9998C37.0412 21.4233 38.9649 19.9875 40.1639 17.9998C40.6282 17.1164 40.374 16.0232 39.5685 15.4397C36.6506 13.3198 32.8195 9.99979 32.8195 5.99976H22.8947C22.8947 5.99976 9 13.9997 9 19.9997C9 25.9997 20.9098 31.9997 20.9098 31.9997C12.9699 41.9998 22.8947 47.9998 22.8947 47.9998V53.9998H32.8195L34.8044 47.9998C34.8044 47.9998 43 44.9998 43 36.9998C43 28.9998 34.8045 21.9998 34.8045 21.9998ZM23.6093 27.9998C23.6093 27.9998 17.0589 21.7198 16.9398 19.9998C16.8009 17.9998 22.8947 15.9998 22.8947 15.9998C24.8797 17.9998 24.6415 26.3198 23.6093 27.9998ZM35.2029 36.5358L33.0909 38.4878H37.4109V40.9998H28.6909V39.0158L32.8829 35.0958C33.7789 34.2638 33.9069 33.7518 33.9069 33.2878C33.9069 32.5678 33.4269 32.1358 32.4669 32.1358C31.6509 32.1358 30.9149 32.5038 30.4669 33.2238L28.1149 31.9118C28.9629 30.5038 30.5469 29.5758 32.7549 29.5758C35.3309 29.5758 37.1069 30.9038 37.1069 32.9838C37.1069 34.0718 36.8029 35.0638 35.2029 36.5358Z"/>
</svg>
