<svg width="60" height="60" viewBox="0 0 60 60" xmlns="http://www.w3.org/2000/svg">
<path fill-rule="evenodd" clip-rule="evenodd" d="M60 30C60 46.5685 46.5685 60 30 60C13.4315 60 0 46.5685 0 30C0 13.4315 13.4315 0 30 0C46.5685 0 60 13.4315 60 30ZM35.8045 21.9998C38.0412 21.4233 39.9649 19.9875 41.1639 17.9998C41.6282 17.1164 41.374 16.0232 40.5685 15.4397C37.6506 13.3198 33.8195 9.99979 33.8195 5.99976H23.8947C23.8947 5.99976 10 13.9997 10 19.9997C10 25.9997 21.9098 31.9997 21.9098 31.9997C13.9699 41.9998 23.8947 47.9998 23.8947 47.9998V53.9998H33.8195L35.8044 47.9998C35.8044 47.9998 47.7142 47.9998 49.6992 37.9997C52.4187 24.2798 35.8045 21.9998 35.8045 21.9998ZM24.6093 27.9998C24.6093 27.9998 18.0589 21.7198 17.9398 19.9998C17.8009 17.9998 23.8947 15.9998 23.8947 15.9998C25.8797 17.9998 25.6415 26.3198 24.6093 27.9998ZM42.7877 31.7838L40.4677 34.2798C42.3557 34.6798 43.3477 35.8958 43.3477 37.4958C43.3477 39.3998 41.8437 41.2238 38.4677 41.2238C36.9157 41.2238 35.2677 40.8398 34.1157 40.1198L35.2677 37.7358C36.1637 38.3438 37.3157 38.6638 38.3717 38.6638C39.4437 38.6638 40.1477 38.2478 40.1477 37.4958C40.1477 36.8238 39.6517 36.4078 38.4357 36.4078H37.1077V34.4078L39.1077 32.2478H34.6917V29.7998H42.7877V31.7838Z"/>
</svg>
