<?xml version="1.0" encoding="utf-8"?>
<!-- Generator: Adobe Illustrator 22.1.0, SVG Export Plug-In . SVG Version: 6.00 Build 0)  -->
<svg version="1.1" id="Слой_1" xmlns="http://www.w3.org/2000/svg" xmlns:xlink="http://www.w3.org/1999/xlink" x="0px" y="0px"
	 viewBox="0 0 60 60" style="enable-background:new 0 0 60 60;" xml:space="preserve">
<style type="text/css">
	.st0{fill:#FFFFFF;}
	.st1{fill:#FF70B6;}
</style>
<circle class="st0" cx="30" cy="30" r="30"/>
<path class="st1" d="M41.5,9.7c-1.1,3.1-1.8,6.5-0.8,9.7c0.8,2.6,2.1,5,3.2,7.2c0.4,0.7,0.7,1.4,1.1,2.1l-5.8,2.9
	c-5.7,2.8-12.7,2.8-18.4,0L15,28.8c0.4-0.7,0.7-1.4,1.1-2.2c1.2-2.4,2.5-4.8,3.3-7.5c0.9-3,0.6-6.4-0.8-9.3
	c-0.2-0.4-0.2-0.9,0.1-1.3C18.8,8.2,19.3,8,19.7,8h20.6c0.4,0,0.9,0.2,1.1,0.6C41.6,8.9,41.7,9.4,41.5,9.7z M28.7,30
	c0,0.7,0.6,1.3,1.3,1.3s1.3-0.6,1.3-1.3c0-0.7-0.6-1.3-1.3-1.3S28.7,29.3,28.7,30z M11.4,18.4H9.3c-0.7,0-1.3-0.6-1.3-1.3
	c0-0.7,0.6-1.3,1.3-1.3h2.1L11,15.4c-0.5-0.5-0.5-1.3,0-1.8s1.3-0.5,1.8,0l2.6,2.6c0.5,0.5,0.5,1.3,0,1.8l-2.6,2.6
	c-0.5,0.5-1.3,0.5-1.8,0s-0.5-1.3,0-1.8L11.4,18.4z M50.7,15.8h-2.1l0.4-0.4c0.5-0.5,0.5-1.3,0-1.8c-0.5-0.5-1.3-0.5-1.8,0l-2.6,2.6
	c-0.5,0.5-0.5,1.3,0,1.8l2.6,2.6c0.5,0.5,1.3,0.5,1.8,0c0.5-0.5,0.5-1.3,0-1.8l-0.4-0.4h2.1c0.7,0,1.3-0.6,1.3-1.3
	S51.4,15.8,50.7,15.8z M40.3,34l5.7-2.9c0.5,1.3,1,2.5,1.3,3.9c0.3,1.4,0.5,2.8,0.7,4.3c-7.9-1.8-12.9,1.9-16.4,5.3
	c-0.5,0.4-2.8,0.4-3.3,0c-4.9-4.9-10.3-6.7-16.4-5.3c0.1-1.4,0.3-2.8,0.7-4.2c0.3-1.3,0.8-2.6,1.3-3.9l5.7,2.9
	c3.2,1.6,6.8,2.4,10.3,2.4S37.1,35.6,40.3,34z M33.5,46.4c-0.2,0.2-0.6,0.4-0.9,0.6v3.8c0,0.7,0.6,1.3,1.3,1.3h11.6
	c0.5,0,1-0.3,1.2-0.9c1-3,1.4-6.1,1.5-9.2C41.2,40.1,36.8,43.1,33.5,46.4z M13.3,51.1c-1-3-1.4-6.1-1.5-9.2
	c6.8-1.8,11.3,1.2,14.6,4.5c0.2,0.2,0.6,0.4,0.9,0.6v3.8c0,0.7-0.6,1.3-1.3,1.3H14.6C14,52,13.5,51.7,13.3,51.1z"/>
</svg>
