<svg width="52" height="35" viewBox="0 0 52 35" xmlns="http://www.w3.org/2000/svg">
<path d="M42.5127 25.5914C41.2421 25.5914 40.035 26.0827 39.1244 26.9713C38.2138 27.8704 37.7056 29.0412 37.7056 30.2957C37.7056 31.5502 38.2032 32.721 39.1244 33.6201C40.0456 34.5087 41.2421 35 42.5127 35C45.1175 35 47.2352 32.8883 47.2352 30.2957C47.2352 27.7031 45.1175 25.5914 42.5127 25.5914ZM42.5127 32.9092C41.0515 32.9092 39.8233 31.7174 39.8233 30.2957C39.8233 28.874 41.0515 27.6822 42.5127 27.6822C43.9528 27.6822 45.1175 28.853 45.1175 30.2957C45.1175 31.7384 43.9528 32.9092 42.5127 32.9092ZM43.741 9.92085C43.5504 9.74313 43.2963 9.64904 43.0316 9.64904H37.5997C37.0173 9.64904 36.5408 10.1195 36.5408 10.6944V19.2667C36.5408 19.8417 37.0173 20.3121 37.5997 20.3121H46.2187C46.8011 20.3121 47.2775 19.8417 47.2775 19.2667V13.5275C47.2775 13.2348 47.1505 12.9525 46.9281 12.7539L43.741 9.92085ZM45.1598 18.2213H38.6585V11.7294H42.6186L45.1598 13.9875V18.2213ZM16.6557 25.5914C15.3851 25.5914 14.178 26.0827 13.2674 26.9713C12.3568 27.8704 11.8485 29.0412 11.8485 30.2957C11.8485 31.5502 12.3462 32.721 13.2674 33.6201C14.1886 34.5087 15.3851 35 16.6557 35C19.2604 35 21.3781 32.8883 21.3781 30.2957C21.3781 27.7031 19.2604 25.5914 16.6557 25.5914ZM16.6557 32.9092C15.1945 32.9092 13.9662 31.7174 13.9662 30.2957C13.9662 28.874 15.1945 27.6822 16.6557 27.6822C18.0957 27.6822 19.2604 28.853 19.2604 30.2957C19.2604 31.7384 18.0957 32.9092 16.6557 32.9092ZM9.59316 26.8772H7.46487V24.0965C7.46487 23.5215 6.98839 23.0511 6.40603 23.0511C5.82366 23.0511 5.34718 23.5215 5.34718 24.0965V27.9226C5.34718 28.4976 5.82366 28.968 6.40603 28.968H9.59316C10.1755 28.968 10.652 28.4976 10.652 27.9226C10.652 27.3477 10.1755 26.8772 9.59316 26.8772ZM14.9615 21.1798C14.9615 20.6048 14.485 20.1344 13.9027 20.1344H1.05885C0.476481 20.1344 0 20.6048 0 21.1798C0 21.7548 0.476481 22.2252 1.05885 22.2252H13.9027C14.485 22.2252 14.9615 21.7652 14.9615 21.1798ZM3.20831 17.4059L16.0521 17.4791C16.6345 17.4791 17.111 17.0191 17.1216 16.4441C17.1322 15.8587 16.6557 15.3883 16.0733 15.3883L3.22948 15.3151C3.2189 15.3151 3.2189 15.3151 3.2189 15.3151C2.63653 15.3151 2.16005 15.7751 2.16005 16.3501C2.14946 16.9355 2.62594 17.4059 3.20831 17.4059ZM5.36836 12.6598H18.2122C18.7945 12.6598 19.271 12.1894 19.271 11.6144C19.271 11.0394 18.7945 10.569 18.2122 10.569H5.36836C4.78599 10.569 4.30951 11.0394 4.30951 11.6144C4.30951 12.1894 4.78599 12.6598 5.36836 12.6598ZM51.6082 11.2485L44.0269 5.04928C43.8363 4.89247 43.6033 4.80884 43.3492 4.80884H34.4337V1.0454C34.4337 0.47043 33.9572 0 33.3749 0H6.40603C5.82366 0 5.34718 0.47043 5.34718 1.0454V8.69773C5.34718 9.2727 5.82366 9.74313 6.40603 9.74313C6.98839 9.74313 7.46487 9.2727 7.46487 8.69773V2.0908H32.3266V26.8772H23.6441C23.0617 26.8772 22.5852 27.3477 22.5852 27.9226C22.5852 28.4976 23.0617 28.968 23.6441 28.968H36.5726C37.155 28.968 37.6314 28.4976 37.6314 27.9226C37.6314 27.3477 37.155 26.8772 36.5726 26.8772H34.4443V6.89964H42.9786L49.8823 12.5448L49.8082 26.8563H48.707C48.1246 26.8563 47.6481 27.3268 47.6481 27.9017C47.6481 28.4767 48.1246 28.9471 48.707 28.9471H50.8564C51.4388 28.9471 51.9153 28.4872 51.9153 27.9122L52 12.0639C51.9894 11.7503 51.8518 11.4471 51.6082 11.2485Z"/>
</svg>
