<svg width="68" height="60" viewBox="0 0 68 60" xmlns="http://www.w3.org/2000/svg">
<path fill-rule="evenodd" clip-rule="evenodd" d="M1.77844 15.8351C-0.560717 13.4922 -0.550341 9.71243 1.7801 7.38199L7.41426 1.74783C9.74512 -0.582611 13.5348 -0.582611 15.8661 1.74783C18.1962 4.07869 18.1962 7.87049 15.8661 10.2009L10.2311 15.8351C7.88948 18.1772 4.10848 18.1655 1.77844 15.8351ZM34.85 59.6921H22.1797C21.0636 59.6921 20.1875 58.8156 20.1875 57.7V55.0703C22.1 55.5086 24.132 55.7078 26.1641 55.7078H31.2242C32.2203 57.2222 33.4559 58.5765 34.85 59.6921ZM44.1336 59.5336L43.018 58.418C39.6313 55.0308 37.7586 50.5285 37.7586 45.7472C37.7586 43.6754 38.1172 41.6832 38.7941 39.811C38.5555 39.7707 38.3563 39.7707 38.1172 39.7707H34.1328C33.0168 39.7707 32.1406 40.6473 32.1406 41.7629V45.7472C32.1406 52.7602 37.3602 58.6172 44.1336 59.5336ZM68 41.7629V45.7472C68 52.7602 62.7805 58.6168 56.007 59.5336L57.1227 58.418C60.5094 55.0308 62.382 50.5285 62.382 45.7472C62.382 43.6754 62.0234 41.6832 61.3465 39.811C61.5852 39.7707 61.7844 39.7707 62.0234 39.7707H66.0078C67.1239 39.7707 68 40.6473 68 41.7629ZM50.0703 59.0095C50.5995 59.0095 51.1054 58.7995 51.479 58.426L54.2958 55.607C56.9305 52.9744 58.3815 49.4728 58.3815 45.747C58.3815 42.0216 56.9305 38.5199 54.2958 35.8873L51.479 33.0683C50.7319 32.3213 49.4088 32.3213 48.6617 33.0683L45.8448 35.8873C43.2106 38.5199 41.7592 42.0216 41.7592 45.747C41.7592 49.4728 43.2106 52.9744 45.8448 55.607L48.6617 58.426C49.0352 58.7995 49.5412 59.0095 50.0703 59.0095ZM31.2375 19.8482H11.5547C12.0731 19.5295 12.5906 19.0916 13.0289 18.6529L18.6867 13.0349C19.3242 12.3979 19.8422 11.6803 20.2805 10.9631L31.2375 19.8482ZM1.99219 23.8332H66.0078C67.1239 23.8332 68 24.7098 68 25.8254C68 29.2922 67.3231 32.6785 66.0078 35.7863H59.3502C58.7023 34.8209 57.9552 33.9116 57.1139 33.0711L54.2958 30.2514C53.1989 29.1536 51.6583 28.5244 50.0703 28.5244C48.4824 28.5244 46.9417 29.1536 45.8436 30.2526L43.0288 33.0695C42.1866 33.9103 41.4396 34.8205 40.7909 35.7863H34.1328C30.8254 35.7863 28.1562 38.4563 28.1562 41.7629C28.1655 42.9824 28.1611 43.8699 28.1577 44.5684C28.1506 46.0125 28.1475 46.6485 28.2762 47.7394C28.4352 49.0941 28.7539 50.4492 29.232 51.7238H26.1641C24.0922 51.7238 22.1 51.4847 20.1875 51.007C8.79219 48.2972 0 38.018 0 25.8254C0 24.7098 0.876148 23.8332 1.99219 23.8332Z"/>
</svg>
