<svg width="60" height="60" viewBox="0 0 60 60" xmlns="http://www.w3.org/2000/svg">
<path fill-rule="evenodd" clip-rule="evenodd" d="M30 60C46.5685 60 60 46.5685 60 30C60 13.4315 46.5685 0 30 0C13.4315 0 0 13.4315 0 30C0 46.5685 13.4315 60 30 60ZM30.4412 18.4447V30.196H33.9601V15.3346C33.9601 14.3647 33.1665 13.5711 32.1966 13.5711C31.2267 13.5711 30.4331 14.3647 30.4331 15.3346V15.9759H26.7138C26.1928 13.6994 24.1567 12 21.7279 12H10.2332C9.55187 12 8.99878 12.5531 8.99878 13.2344V21.1781C8.99878 21.8595 9.55187 22.4126 10.2332 22.4126H21.7279C24.1567 22.4126 26.1928 20.7132 26.7138 18.4367H30.4412V18.4447ZM22.4253 17.2103C22.4253 17.8916 21.8722 18.4447 21.1909 18.4447H13.9526C13.2712 18.4447 12.7181 17.8916 12.7181 17.2103C12.7181 16.529 13.2712 15.9759 13.9526 15.9759H21.1829C21.8722 15.9759 22.4253 16.529 22.4253 17.2103ZM46.4648 23.8795C47.058 23.8795 47.539 24.3605 47.539 24.9537V32.4645C47.539 33.0016 47.1061 33.4344 46.569 33.4344H46.4568C45.9198 33.4344 45.4869 33.0016 45.4869 32.4645V23.8795H46.4648ZM38.4891 23.8874V30.2119C38.3849 30.2039 38.2807 30.2039 38.1765 30.2039H36.437V23.8874H38.4891ZM46.4568 35.9113H46.5691C48.4493 35.9113 49.984 34.4037 49.9998 32.531V43.8069C49.9998 45.7868 48.6532 47.4621 46.8175 47.9911V51.8147C46.8175 52.496 46.2645 53.0491 45.5831 53.0491H34.1525C33.4712 53.0491 32.9181 52.496 32.9181 51.8147V48.2076C31.5634 48.1194 30.377 47.6304 29.3831 46.7487C26.5695 44.2477 26.4252 39.4142 26.4252 38.4683V32.6809H38.1684C39.3227 32.6809 40.2686 33.4504 40.2686 34.4043C40.2686 35.3582 39.3227 36.1277 38.1684 36.1277H32.6455C31.9642 36.1277 31.4111 36.6808 31.4111 37.3621C31.4111 38.0435 31.9642 38.5966 32.6455 38.5966H38.1765C40.2446 38.5966 42 37.322 42.5611 35.5826C43.01 35.5265 43.4749 35.4063 43.9078 35.1898L43.9079 35.1898L43.9079 35.1898C43.9961 35.1417 44.0842 35.0936 44.1643 35.0375C44.7735 35.5826 45.5751 35.9113 46.4568 35.9113ZM49.9998 32.4725V32.531C50 32.5115 50 32.492 49.9998 32.4725ZM43.018 23.8874H40.966V31.0776C41.6794 31.5826 42.2245 32.28 42.521 33.0816C43.018 32.9613 43.018 32.7289 43.018 32.4163V23.8874Z"/>
</svg>
