<svg width="70" height="70" viewBox="0 0 70 70" xmlns="http://www.w3.org/2000/svg">
<path fill-rule="evenodd" clip-rule="evenodd" d="M1 1H69V69H1V1ZM0 70V0H70V70H0ZM53.1846 34.3018H55.3044C55.42 34.2994 55.5342 34.3264 55.6362 34.3802C55.7381 34.434 55.8242 34.5128 55.8862 34.6091C55.9503 34.7047 55.9888 34.8148 55.9979 34.9291C56.007 35.0434 55.9864 35.1581 55.9382 35.2624L54.1094 39.0996C54.1098 39.103 54.1089 39.1064 54.107 39.1092C54.1051 39.112 54.1023 39.1141 54.099 39.115C53.732 39.8493 53.1945 40.4878 52.53 40.9789C53.1208 41.2473 53.6296 41.664 54.0055 42.1873C54.1072 42.3301 54.1499 42.5058 54.1248 42.6785C54.0997 42.8513 54.0087 43.0081 53.8705 43.1171L41.4329 52.9903C41.4079 53.0124 41.38 53.031 41.3498 53.0455C39.5188 54.1141 37.3884 54.5761 35.2714 54.3636C35.254 54.3625 35.2366 54.3604 35.2194 54.3574L25.7536 52.7558C25.0613 52.6373 24.3494 52.7894 23.769 53.1797L22.2832 54.169L22.3352 54.8172C22.342 54.9072 22.3307 54.9976 22.302 55.0833C22.2733 55.169 22.2276 55.2483 22.1678 55.3166C22.108 55.3849 22.035 55.4408 21.9532 55.4813C21.8714 55.5218 21.7822 55.546 21.6909 55.5525L15.7475 56H15.6957C15.5203 55.9996 15.3515 55.9343 15.2226 55.8171C15.0937 55.6999 15.014 55.5394 14.9995 55.3671L14.002 42.5047C13.9951 42.4147 14.0062 42.3242 14.0349 42.2384C14.0635 42.1527 14.1091 42.0734 14.1689 42.0051C14.2288 41.9367 14.3018 41.8807 14.3837 41.8403C14.4656 41.7999 14.5548 41.7758 14.6462 41.7694L20.5896 41.3219C20.7736 41.308 20.9557 41.3666 21.0959 41.4849C21.2361 41.6031 21.3231 41.7714 21.3377 41.9527L21.4415 43.284C22.2618 42.7352 23.1624 42.3132 24.112 42.0326C23.1633 41.9871 22.2442 41.6928 21.4496 41.1801C20.655 40.6673 20.0138 39.9548 19.5921 39.116C19.5921 39.1109 19.5817 39.1006 19.5817 39.1006L17.7634 35.2655C17.711 35.1623 17.6872 35.0474 17.6945 34.9323C17.7018 34.8172 17.7398 34.706 17.8048 34.6101C17.8668 34.5138 17.9529 34.4349 18.0548 34.3811C18.1568 34.3273 18.2711 34.3003 18.3868 34.3028H20.5065C20.689 30.4697 22.4081 26.8647 25.2861 24.2802C27.474 22.2811 30.1707 20.9037 33.0894 20.2945V18.5536C33.0894 17.6111 33.4693 16.7072 34.1455 16.0408C34.8216 15.3744 35.7386 15 36.6949 15C37.6511 15 38.5682 15.3744 39.2443 16.0408C39.9205 16.7072 40.3004 17.6111 40.3004 18.5536V20.2371C43.3235 20.8187 46.1226 22.2183 48.3842 24.2792C51.2678 26.8618 52.9941 30.4663 53.1846 34.3018ZM35.13 17.0112C34.7149 17.4202 34.4817 17.9751 34.4817 18.5536V20.0538C35.95 19.8613 37.4369 19.85 38.9081 20.0201V18.5536C38.9081 17.9751 38.6749 17.4202 38.2598 17.0112C37.8448 16.6021 37.2819 16.3723 36.6949 16.3723C36.1079 16.3723 35.545 16.6021 35.13 17.0112ZM36.8456 21.2725C32.9298 21.2725 29.1525 22.701 26.2419 25.2828C23.6426 27.6029 22.0811 30.843 21.8988 34.2947H51.7924C51.6106 30.8429 50.0489 27.6026 47.4491 25.2828C44.5385 22.701 40.7613 21.2725 36.8456 21.2725ZM33.5881 42.9082L39.012 42.4985C39.8502 42.4328 40.6911 42.5892 41.4475 42.9515C42.2038 43.3138 42.8481 43.8688 43.3136 44.559L47.5529 42.0101H29.6813C29.941 42.0961 30.2008 42.1872 30.4606 42.2896L31.0321 42.5313C31.8447 42.8442 32.7182 42.973 33.5881 42.9082ZM15.4463 43.0864L16.3295 54.5827L20.8909 54.2396L20.0076 42.7433L15.4463 43.0864ZM35.4377 53.0036C37.2348 53.1787 39.0421 52.7898 40.6017 51.8924L52.4262 42.515C52.0393 42.2115 51.5657 42.0349 51.0719 42.0101C50.5781 41.9853 50.0888 42.1135 49.6726 42.3767C49.6726 42.3798 49.6622 42.3859 49.6622 42.3859L43.9058 45.8227C44.0094 46.1401 44.0723 46.469 44.0929 46.8017C44.107 46.9818 44.0483 47.16 43.9296 47.2976C43.8108 47.4351 43.6417 47.5208 43.4591 47.536L34.5441 48.2068H34.4817C34.3021 48.2063 34.1298 48.1374 34.0006 48.0145C33.8714 47.8916 33.7955 47.7241 33.7888 47.5473C33.7821 47.3704 33.8451 47.1979 33.9646 47.0658C34.0841 46.9337 34.2507 46.8523 34.4297 46.8386L42.5864 46.2241C42.3695 45.4984 41.9066 44.8679 41.275 44.4379C40.6434 44.008 39.8813 43.8046 39.1158 43.8616L33.692 44.2712C32.6134 44.3513 31.5303 44.1914 30.5228 43.8033L29.9514 43.579C28.562 43.0372 27.0501 42.8741 25.5747 43.1069C24.0992 43.3397 22.7146 43.9598 21.5662 44.9021L22.1585 52.597L22.9794 52.0471C23.8619 51.4574 24.942 51.2279 25.9926 51.407L35.4377 53.0036ZM51.386 40.0705C52.0142 39.6928 52.5222 39.1488 52.8522 38.5005L54.2133 35.67H19.4778L20.8389 38.5005C21.1689 39.1488 21.6769 39.6928 22.3052 40.0705C22.9334 40.4481 23.6567 40.6443 24.3925 40.6368H49.2986C50.0345 40.6443 50.7577 40.4481 51.386 40.0705Z"/>
</svg>
