<svg xmlns="http://www.w3.org/2000/svg" width="70" height="70" viewBox="0 0 70 70">
  <defs>
    
  </defs>
  <path id="diet" class="cls-1" d="M1217.93,880.988a35,35,0,1,1,34.06-35.916A35,35,0,0,1,1217.93,880.988Zm33.06-35.889a34,34,0,1,0-33.09,34.889A34,34,0,0,0,1250.99,845.1Zm-14.95-3.271H1234a14.16,14.16,0,0,0-4.62-9.787,15.965,15.965,0,0,0-7.78-3.947V826.45a3.47,3.47,0,1,0-6.94,0v1.7a15.888,15.888,0,0,0-7.51,3.892,14.137,14.137,0,0,0-4.6,9.787h-2.04a0.646,0.646,0,0,0-.56.3,0.638,0.638,0,0,0-.04.64l1.75,3.745s0.01,0.01.01,0.015a5.133,5.133,0,0,0,4.35,2.848,9.364,9.364,0,0,0-2.57,1.222l-0.1-1.3a0.671,0.671,0,0,0-.72-0.616l-5.72.437a0.669,0.669,0,0,0-.62.718l0.96,12.56a0.674,0.674,0,0,0,.67.618l0.05,0,5.72-.437a0.67,0.67,0,0,0,.62-0.718l-0.05-.633,1.43-.966a2.6,2.6,0,0,1,1.91-.414l9.11,1.564a0.426,0.426,0,0,0,.05.006,9.577,9.577,0,0,0,5.85-1.287,0.349,0.349,0,0,0,.08-0.054l11.97-9.641a0.67,0.67,0,0,0,.13-0.908,3.574,3.574,0,0,0-1.42-1.18,5.081,5.081,0,0,0,1.51-1.82,0.014,0.014,0,0,0,.01-0.015l1.76-3.747a0.66,0.66,0,0,0-.05-0.638A0.647,0.647,0,0,0,1236.04,841.828ZM1216,826.45a2.13,2.13,0,1,1,4.26,0v1.432a17.152,17.152,0,0,0-4.26.033V826.45Zm-7.93,6.571a15.255,15.255,0,0,1,20.41,0,12.763,12.763,0,0,1,4.18,8.8h-28.77A12.768,12.768,0,0,1,1208.07,833.021Zm12.29,16.811-5.22.4a5.6,5.6,0,0,1-2.46-.368l-0.55-.236c-0.25-.1-0.5-0.189-0.75-0.273h17.2l-4.08,2.489A4.539,4.539,0,0,0,1220.36,849.832Zm-21.83,11.8-0.85-11.226,4.39-.335,0.85,11.226Zm23.36-2.627a8.248,8.248,0,0,1-4.97,1.085l-9.09-1.559a3.964,3.964,0,0,0-2.9.625l-0.79.537-0.57-7.514a8.008,8.008,0,0,1,8.07-1.292l0.55,0.219a6.944,6.944,0,0,0,3.05.457l5.22-.4a3.228,3.228,0,0,1,3.34,2.307l-7.85.6a0.669,0.669,0,0,0,.05,1.336c0.02,0,.04,0,0.06,0l8.58-.655a0.668,0.668,0,0,0,.61-0.717,3.9,3.9,0,0,0-.18-0.956l5.54-3.356s0.01-.006.01-0.009a2.279,2.279,0,0,1,2.65.135Zm11.79-13.077a3.782,3.782,0,0,1-3.42,2.086h-23.97a3.782,3.782,0,0,1-3.42-2.086l-1.31-2.764h33.43Z" transform="translate(-1182 -811)"/>
</svg>
