<svg width="30" height="30" viewBox="0 0 30 30" xmlns="http://www.w3.org/2000/svg">
<path fill-rule="evenodd" clip-rule="evenodd" d="M15 30C23.2843 30 30 23.2843 30 15C30 6.71573 23.2843 0 15 0C6.71573 0 0 6.71573 0 15C0 23.2843 6.71573 30 15 30ZM15.9857 12.95H19L18.6075 16.3466L15.9857 16.3475V24H12.5653V16.3492L10 16.35V12.95H12.5653V10.9942C12.5653 8.4085 14.2584 7.00005 16.5783 7.00005C17.3608 6.99835 18.1423 7.03745 18.9196 7.11735V9.82034H17.3223C16.0576 9.82034 15.9857 10.3728 15.9857 11.25V12.95Z"/>
</svg>
