<svg width="30" height="17" viewBox="0 0 30 17" xmlns="http://www.w3.org/2000/svg">
<path d="M30 10.0635V12.7653C30 13.4393 29.4486 13.9856 28.7683 13.9856H27.4504C27.2124 12.3666 25.8041 11.1218 24.1044 11.1218C22.4088 11.1218 21.0006 12.3666 20.7625 13.9856H9.56676C9.32868 12.3666 7.92044 11.1218 6.22485 11.1218C4.52926 11.1218 3.12103 12.3666 2.88294 13.9856H1.2325C0.552304 13.9856 0.000882353 13.4393 0.000882353 12.7653V10.0635H30ZM8.48368 3.54366H7.78206L7.52426 4.86262H8.20784C8.66333 4.86262 9.04098 4.55356 9.04098 4.03671C9.04098 3.72207 8.83132 3.54366 8.48368 3.54366ZM26.6614 14.4697C26.6614 15.8651 25.5159 17 24.1077 17C22.6954 17 21.55 15.865 21.55 14.4697C21.55 13.0703 22.6954 11.9354 24.1077 11.9354C25.5159 11.9354 26.6614 13.0704 26.6614 14.4697ZM25.3846 14.4697C25.3846 13.7701 24.8098 13.2046 24.1077 13.2046C23.4016 13.2046 22.8309 13.7701 22.8309 14.4697C22.8309 15.1654 23.4016 15.735 24.1077 15.735C24.8098 15.735 25.3846 15.1654 25.3846 14.4697ZM8.7776 14.4697C8.7776 15.8651 7.63627 17 6.22397 17C4.81167 17 3.67034 15.865 3.67034 14.4697C3.67034 13.0703 4.81172 11.9354 6.22397 11.9354C7.63623 11.9354 8.7776 13.0704 8.7776 14.4697ZM7.50083 14.4697C7.50083 13.7701 6.93015 13.2046 6.22407 13.2046C5.51789 13.2046 4.94726 13.7701 4.94726 14.4697C4.94726 15.1654 5.51794 15.735 6.22407 15.735C6.93015 15.735 7.50083 15.1654 7.50083 14.4697ZM29.9991 9.38893H0V1.22035C0 0.545067 0.554265 0 1.23162 0H19.8461C20.5276 0 21.0778 0.545116 21.0778 1.22035V2.12757H23.5206C23.9517 2.12757 24.3663 2.29844 24.6742 2.59944L29.5147 7.34272C29.8225 7.64784 29.9991 8.06274 29.9991 8.49803V9.38893ZM4.37176 4.73789L4.59951 3.54371H6.27819L6.40407 2.88426H3.96402L3.13652 7.10205H3.90392L4.2399 5.397H5.65476L5.78064 4.73794H4.37176V4.73789ZM8.86137 5.32579V5.31384C9.50284 5.10606 9.83245 4.4824 9.83245 3.90596C9.83245 3.47256 9.61677 3.14557 9.25672 2.99102C9.08314 2.91399 8.87299 2.88416 8.64529 2.88416H7.14059L6.31343 7.1019H7.08642L7.39235 5.52756H8.15975L8.69941 7.1019H9.52657L8.95726 5.53946C8.90309 5.38539 8.86137 5.32579 8.86137 5.32579ZM13.584 2.88421H11.0421L10.209 7.102H12.8527L12.9786 6.44254H11.1082L11.33 5.30797H12.7628L12.8948 4.64852H11.4619L11.6775 3.54371H13.4521L13.584 2.88421ZM17.0183 2.88421H14.4764L13.6433 7.102H16.2871L16.4129 6.44254H14.5425L14.7643 5.30797H16.1972L16.3291 4.64852H14.8961L15.1119 3.54371H16.8864L17.0183 2.88421ZM27.5358 7.17179L23.7464 3.58786C23.7094 3.55537 23.6601 3.53502 23.6109 3.53502H22.72C22.6132 3.53502 22.527 3.62046 22.527 3.72624V7.31017C22.527 7.41596 22.6132 7.50135 22.72 7.50135H27.4044C27.5769 7.5013 27.6631 7.28977 27.5358 7.17179Z"/>
</svg>
