<svg width="42" height="41" viewBox="0 0 42 41" fill="none" xmlns="http://www.w3.org/2000/svg">
<path fill-rule="evenodd" clip-rule="evenodd" d="M20.5145 0.0795898C12.7389 0.0795898 8.3354 4.20737 4.884 10.5975C3.33682 13.4552 1.55161 16.9876 1.55161 20.4804C1.55161 23.8937 0.956544 27.1086 2.46405 29.9663C2.74175 30.4823 3.05912 31.038 3.37649 31.5539C7.02625 37.1503 13.334 40.8811 20.5145 40.8811C31.7811 40.8811 40.9055 31.7524 40.9055 20.4804C40.9055 9.24803 31.7811 0.0795898 20.5145 0.0795898Z" fill="#FEFEFE"/>
<path fill-rule="evenodd" clip-rule="evenodd" d="M32.9315 36.9517C32.4952 36.2769 30.0752 34.0146 29.5595 33.7368C27.9726 32.9827 21.0302 35.0862 17.1027 27.1879C13.6116 20.2024 16.3886 11.9071 21.1492 8.81131C27.933 4.32632 35.1531 8.37472 37.5334 13.8917C38.8426 16.9478 39.1599 21.155 38.1682 24.6477C36.74 29.6884 30.5909 32.5461 35.6689 34.2527C37.5334 32.7445 39.7947 28.2595 40.5088 25.0843C43.008 13.7329 35.7879 2.34181 24.0055 0.317604C14.8414 -1.27 7.8593 3.41344 4.24922 8.0572C0.678805 12.6613 -1.30476 20.9168 1.11519 27.3466C1.43256 28.2198 1.82927 29.0533 2.30533 29.8471C5.20133 30.9585 7.93865 29.8074 8.65273 26.791C8.85108 26.0766 8.9701 25.2828 8.9701 24.5286V7.93813C8.9701 7.6603 9.16846 7.42215 9.44615 7.42215H12.3818C12.6595 7.42215 12.8579 7.6603 12.8579 7.93813V24.5286C12.8579 30.0853 10.1206 32.9033 4.84429 33.578C6.74851 36.8723 12.8579 40.0475 17.3407 40.7619C20.2764 41.1985 23.4104 41.0001 26.1874 40.2063C29.4008 39.2934 30.5909 38.1027 32.9315 36.9517Z" fill="#1B2230"/>
<path fill-rule="evenodd" clip-rule="evenodd" d="M32.9315 36.9518C33.844 35.9992 34.9548 35.2451 35.6689 34.2528C33.6059 33.4194 33.1299 32.5462 34.5581 30.6807C35.4308 29.5297 37.0573 28.6168 38.1681 24.6478C39.1599 21.1551 38.8426 16.9479 37.5334 13.8918C35.1531 8.37482 27.933 4.32642 21.1492 8.81141C16.3886 11.9073 13.6116 20.2025 17.1027 27.188C21.0302 35.0863 27.9726 32.9828 29.5595 33.7369C30.7496 35.4436 31.9398 36.6343 32.9315 36.9518Z" fill="#F2D649"/>
<path d="M27.2983 30.2041C31.6802 30.2041 35.2325 25.726 35.2325 20.2021C35.2325 14.6782 31.6802 10.2002 27.2983 10.2002C22.9163 10.2002 19.364 14.6782 19.364 20.2021C19.364 25.726 22.9163 30.2041 27.2983 30.2041Z" fill="#1B2230"/>
</svg>
