<svg width="60" height="60" viewBox="0 0 60 60" fill="none" xmlns="http://www.w3.org/2000/svg">
<path fill-rule="evenodd" clip-rule="evenodd" d="M30 60C46.5685 60 60 46.5685 60 30C60 13.4315 46.5685 0 30 0C13.4315 0 0 13.4315 0 30C0 44.5228 10.3194 56.6354 24.0257 59.4051C15.9418 49.1106 14.4548 39.0296 15.5207 31.9951C16.2973 26.8695 20.3184 24.5987 23.8008 22.6322L23.8008 22.6322C25.1898 21.8478 26.4931 21.1118 27.4706 20.2624C23.777 21.7833 19.7773 20.6699 19.2143 15.6997C18.6229 10.478 26.3659 5.49001 36.596 9.39882C45.1619 12.6717 51.4837 23.8841 47.4596 37.6441C43.5446 51.0311 37.0306 52.8531 28.7743 50.6804C23.777 48.9422 22.6907 41.555 23.777 39.5995C24.8634 37.6441 26.6015 37.8614 28.7743 39.5995C28.4533 39.078 28.1916 38.5935 27.9536 38.1529C26.9028 36.2072 26.314 35.1171 23.1252 35.4714C19.2232 35.9049 16.5122 43.9633 27.4251 59.891C28.2738 59.9632 29.1326 60 30 60ZM32.0334 27.867C31.1643 26.3461 30.7297 25.0425 30.7297 23.3043C28.1225 23.9561 25.5152 25.9115 26.167 27.2152C26.7519 28.3849 29.086 28.1552 31.2859 27.9387C31.5378 27.9139 31.7879 27.8893 32.0334 27.867ZM31.5988 35.0369C31.5988 33.7333 31.8161 32.6469 32.4679 31.3433C30.2952 30.6915 25.9498 30.9088 25.9498 32.4297C25.9498 33.9506 28.557 35.0369 31.5988 35.0369Z" fill="#3CB44A"/>
</svg>
