<svg width="60" height="60" viewBox="0 0 60 60" xmlns="http://www.w3.org/2000/svg">
<path fill-rule="evenodd" clip-rule="evenodd" d="M30 60C46.5685 60 60 46.5685 60 30C60 13.4315 46.5685 0 30 0C13.4315 0 0 13.4315 0 30C0 46.5685 13.4315 60 30 60ZM30.4965 6.46436C25.3823 6.46436 21.2226 10.6251 21.2226 15.7394V20.5445C21.2226 25.6591 25.3823 29.8199 30.4965 29.8199C35.6111 29.8199 39.7704 25.6591 39.7704 20.5445V15.7394C39.7705 10.6251 35.6111 6.46436 30.4965 6.46436ZM50.9488 41.9062C47.9792 36.8455 43.2325 33.0937 37.5833 31.3417C37.4523 31.3011 37.3107 31.3357 37.2131 31.4321C34.5851 34.0232 31.3197 36.0447 30.5033 36.533C29.6319 35.976 25.9613 33.5835 23.7792 31.4321C23.682 31.3357 23.5392 31.3011 23.4089 31.3417C17.759 33.0941 13.0127 36.8459 10.0441 41.9066C9.97617 42.0224 9.97617 42.1663 10.0441 42.2821C14.2596 49.4654 22.0963 53.9276 30.4961 53.9276C38.8963 53.9276 46.7334 49.4654 50.9488 42.2821C51.0172 42.166 51.0172 42.022 50.9488 41.9062ZM43.1095 44.6728C43.1095 44.8774 42.9147 45.0339 42.7104 45.0339H40.1987C39.994 45.0339 39.7708 45.2097 39.7708 45.4147V48.0122C39.7708 48.2165 39.6614 48.3726 39.4567 48.3726H37.2009C36.9963 48.3726 36.8034 48.2165 36.8034 48.0122V45.4147C36.8026 45.21 36.6629 45.0339 36.4582 45.0339H33.8383C33.6336 45.0339 33.4643 44.877 33.4643 44.6728V42.4363C33.4643 42.2316 33.6336 42.0665 33.8383 42.0665H36.4582C36.6629 42.0665 36.8026 41.8994 36.8026 41.6944V39.0938C36.8026 38.8891 36.9955 38.7277 37.2002 38.7277H39.4317C39.636 38.7277 39.7704 38.8891 39.7704 39.0938V41.702C39.7704 41.907 39.9686 42.0661 40.1736 42.0661H42.7104C42.9147 42.0661 43.1095 42.2392 43.1095 42.4439V44.6728Z"/>
</svg>
