<svg width="70" height="70" viewBox="0 0 70 70" xmlns="http://www.w3.org/2000/svg">
<path fill-rule="evenodd" clip-rule="evenodd" d="M0 70V0H70V70H0ZM69 1.70801L36.372 34.335H46.079C46.3168 34.3351 46.5504 34.3979 46.7562 34.5172C46.9619 34.6364 47.1326 34.8077 47.251 35.014C47.3968 35.2776 47.4483 35.5831 47.397 35.88C47.3873 35.943 47.3914 36.0073 47.4089 36.0685C47.4265 36.1298 47.457 36.1866 47.4985 36.2349C47.54 36.2833 47.5915 36.322 47.6494 36.3486C47.7073 36.3752 47.7703 36.389 47.834 36.389H63.353C63.7039 36.3821 64.0527 36.4454 64.379 36.575C64.7052 36.7045 65.0023 36.8979 65.2529 37.1437C65.5035 37.3895 65.7026 37.6827 65.8385 38.0063C65.9744 38.33 66.0444 38.6775 66.0444 39.0285C66.0444 39.3795 65.9744 39.727 65.8385 40.0507C65.7026 40.3743 65.5035 40.6676 65.2529 40.9133C65.0023 41.1591 64.7052 41.3525 64.379 41.4821C64.0527 41.6116 63.7039 41.6749 63.353 41.668H45.361C45.2461 41.6677 45.1356 41.7122 45.053 41.7922C44.9705 41.8721 44.9224 41.9811 44.919 42.096C44.876 43.6353 44.2328 45.0968 43.1269 46.1683C42.0209 47.2399 40.5399 47.8366 39 47.831H22.877L17.328 53.38C17.6859 53.8685 17.8559 54.4694 17.807 55.073C17.668 56.073 16.695 56.956 15.059 58.146L14.473 58.573L14.126 58.127C13.879 57.815 13.656 57.541 13.436 57.271L11.761 58.946H44.4C44.4732 58.9396 44.5469 58.9485 44.6165 58.9722C44.6861 58.9958 44.75 59.0337 44.8041 59.0833C44.8583 59.133 44.9015 59.1933 44.9311 59.2606C44.9607 59.3278 44.976 59.4005 44.976 59.474C44.976 59.5475 44.9607 59.6202 44.9311 59.6874C44.9015 59.7547 44.8583 59.815 44.8041 59.8647C44.75 59.9143 44.6861 59.9522 44.6165 59.9758C44.5469 59.9995 44.4732 60.0084 44.4 60.002H10.71L1.70999 69.002H69V1.70801ZM19.268 41.668H10.14C10.0799 41.6675 10.0203 41.6793 9.96497 41.7028C9.9096 41.7262 9.85959 41.7607 9.81808 41.8041C9.77657 41.8476 9.74443 41.8991 9.7236 41.9555C9.70277 42.0119 9.69371 42.072 9.69699 42.132C9.71791 42.5167 9.78507 42.8974 9.897 43.266C9.92468 43.3571 9.98093 43.437 10.0575 43.4937C10.134 43.5504 10.2267 43.581 10.322 43.581H23.1C23.2549 43.581 23.4034 43.6426 23.5129 43.7521C23.6225 43.8616 23.684 44.0101 23.684 44.165C23.684 44.3199 23.6225 44.4684 23.5129 44.5779C23.4034 44.6875 23.2549 44.749 23.1 44.749H11.669C11.5783 44.7491 11.4898 44.777 11.4155 44.829C11.3411 44.881 11.2846 44.9545 11.2534 45.0397C11.2222 45.1248 11.2179 45.2175 11.2411 45.3052C11.2643 45.3929 11.3138 45.4714 11.383 45.53C12.229 46.2585 13.3076 46.6603 14.424 46.663H22.63L33.788 35.505H7.82501C7.74687 35.5054 7.67018 35.5264 7.60275 35.5659C7.53532 35.6054 7.47953 35.662 7.44098 35.73C7.40243 35.798 7.38247 35.8749 7.38318 35.953C7.38389 36.0311 7.40523 36.1077 7.44501 36.175L8.88699 38.575C9.17667 39.0663 9.38916 39.5992 9.517 40.155C9.53992 40.2519 9.59484 40.3382 9.67285 40.4001C9.75087 40.462 9.84742 40.4957 9.94699 40.496H19.268C19.4234 40.496 19.5725 40.5578 19.6824 40.6677C19.7923 40.7776 19.854 40.9266 19.854 41.082C19.854 41.2374 19.7923 41.3864 19.6824 41.4963C19.5725 41.6062 19.4234 41.668 19.268 41.668V41.668ZM24.045 46.668H39C40.2146 46.6494 41.3771 46.1718 42.2541 45.3314C43.1311 44.4909 43.6577 43.3497 43.728 42.137C43.8501 40.9244 44.1211 39.7314 44.535 38.585L45.978 36.18C46.0181 36.1129 46.0397 36.0363 46.0406 35.9581C46.0415 35.88 46.0216 35.8029 45.9832 35.7349C45.9447 35.6668 45.8889 35.6102 45.8214 35.5707C45.7539 35.5312 45.6772 35.5103 45.599 35.51H35.2L24.045 46.668ZM45.262 40.31C45.3021 40.3708 45.3566 40.4209 45.4206 40.4557C45.4846 40.4906 45.5561 40.5093 45.629 40.51H63.353C63.5493 40.5151 63.7447 40.4809 63.9276 40.4093C64.1105 40.3377 64.2772 40.2302 64.4178 40.0931C64.5585 39.9561 64.6703 39.7922 64.7467 39.6113C64.823 39.4303 64.8623 39.2359 64.8623 39.0395C64.8623 38.8431 64.823 38.6487 64.7467 38.4677C64.6703 38.2868 64.5585 38.123 64.4178 37.9859C64.2772 37.8488 64.1105 37.7413 63.9276 37.6697C63.7447 37.5981 63.5493 37.5638 63.353 37.569H46.774C46.6972 37.5687 46.6217 37.5887 46.555 37.6268C46.4883 37.6648 46.4328 37.7198 46.394 37.786L45.545 39.203C45.4138 39.4253 45.3043 39.6597 45.218 39.903C45.1926 39.9686 45.1833 40.0394 45.1909 40.1094C45.1986 40.1793 45.223 40.2464 45.262 40.305V40.31ZM14.226 56.487L14.247 56.513L14.698 57.073L15.043 56.804C16.121 55.968 16.607 55.412 16.673 54.944C16.6812 54.6907 16.6181 54.4402 16.491 54.221L14.226 56.487ZM15.944 53.353C15.667 52.979 15.344 52.567 14.926 52.053L14.476 51.493L14.131 51.762C13.053 52.597 12.567 53.154 12.501 53.622C12.433 54.122 12.848 54.753 13.601 55.7L15.944 53.353ZM1 68.292L9.47101 59.822C9.37752 59.7304 9.32368 59.6058 9.32101 59.475C9.327 59.3291 9.39054 59.1915 9.49774 59.0923C9.60495 58.9932 9.74708 58.9406 9.89301 58.946H10.346L12.804 56.488C11.812 55.247 11.242 54.408 11.369 53.488C11.51 52.469 12.486 51.588 14.236 50.33L14.702 49.993L15.05 50.433C15.358 50.825 15.65 51.18 15.912 51.504C16.222 51.887 16.501 52.231 16.746 52.551L21.462 47.835H14.424C12.8526 47.8337 11.3458 47.209 10.2344 46.098C9.12306 44.987 8.49786 43.4804 8.496 41.909V41.432C8.49579 40.639 8.28084 39.8607 7.87399 39.18L6.19101 36.375C6.06831 36.1707 6.00211 35.9375 5.99924 35.6992C5.99636 35.4609 6.05692 35.2262 6.17465 35.019C6.29239 34.8118 6.4631 34.6396 6.66928 34.5201C6.87546 34.4007 7.10969 34.3381 7.34799 34.339H34.957L68.292 1H1V68.292ZM34.969 21.39C34.8441 22.4811 34.4265 23.5181 33.7606 24.3914C33.0947 25.2647 32.2051 25.9418 31.186 26.351C30.4367 26.6563 29.6351 26.8128 28.826 26.812H28.8C27.9838 26.8226 27.1741 26.6657 26.421 26.351C25.6701 26.0474 24.9864 25.5989 24.409 25.031C23.4186 24.0602 22.7936 22.7772 22.6399 21.3988C22.4861 20.0204 22.8129 18.6313 23.565 17.466L28.237 10.296C28.2984 10.2042 28.3816 10.129 28.479 10.077C28.5785 10.0243 28.6894 9.9967 28.802 9.9967C28.9146 9.9967 29.0255 10.0243 29.125 10.077C29.2215 10.1297 29.3038 10.2048 29.365 10.296L34.038 17.463C34.7888 18.6268 35.1174 20.013 34.969 21.39V21.39ZM32.914 18.153L29.176 12.417C29.1331 12.3589 29.0773 12.3117 29.0128 12.2791C28.9484 12.2466 28.8772 12.2296 28.805 12.2296C28.7328 12.2296 28.6616 12.2466 28.5972 12.2791C28.5328 12.3117 28.4768 12.3589 28.434 12.417L24.695 18.153C24.1019 19.0723 23.8442 20.1681 23.9654 21.2554C24.0865 22.3426 24.5791 23.3548 25.36 24.121C25.814 24.5668 26.3512 24.9192 26.941 25.158C28.1369 25.642 29.4741 25.642 30.67 25.158C31.2608 24.9195 31.7987 24.5668 32.253 24.12C33.0335 23.3537 33.5256 22.3414 33.646 21.2542C33.7664 20.167 33.5079 19.0716 32.914 18.153ZM39.16 58.146L38.576 58.571L38.227 58.129C37.927 57.747 37.642 57.398 37.365 57.056C36.093 55.488 35.325 54.543 35.471 53.484C35.612 52.466 36.585 51.584 38.336 50.326L38.803 49.989L39.151 50.429C39.46 50.821 39.751 51.176 40.014 51.5C41.285 53.069 42.054 54.017 41.908 55.073C41.768 56.072 40.8 56.956 39.16 58.146V58.146ZM39.029 52.046L38.577 51.486L38.234 51.755C37.156 52.59 36.668 53.147 36.604 53.615C36.52 54.223 37.089 54.955 38.35 56.505L38.8 57.065L39.143 56.796C40.222 55.962 40.71 55.405 40.774 54.935C40.857 54.332 40.288 53.6 39.029 52.049V52.046ZM27.236 58.146L26.649 58.573L26.304 58.127C25.994 57.737 25.7067 57.38 25.442 57.056C24.169 55.488 23.4 54.543 23.548 53.484C23.689 52.465 24.662 51.584 26.414 50.326L26.88 49.989L27.228 50.429C27.537 50.821 27.828 51.176 28.089 51.5C29.362 53.069 30.131 54.016 29.989 55.073C29.845 56.072 28.871 56.956 27.236 58.146V58.146ZM27.104 52.046L26.653 51.486L26.309 51.755C25.232 52.59 24.744 53.147 24.68 53.615C24.592 54.248 25.257 55.067 26.425 56.505L26.877 57.065L27.22 56.796C28.298 55.96 28.785 55.404 28.85 54.936C28.937 54.306 28.273 53.489 27.1 52.049L27.104 52.046Z"/>
</svg>
