<svg xmlns="http://www.w3.org/2000/svg" width="69.72" height="70" viewBox="0 0 69.72 70">
  <defs>
    
  </defs>
  <path id="no_oil" class="cls-1" d="M1242.33,700.021a34.638,34.638,0,0,1-24.39,10.905c-0.31.007-.63,0.012-0.94,0.012a35.024,35.024,0,0,1-25.3-59.085A34.941,34.941,0,0,1,1242.33,700.021Zm-26.21-58.071a34,34,0,0,0-23.81,57.228l2.26-2.254h-0.39a0.5,0.5,0,0,1,0-1h1.39l1.99-1.991c-0.01-.006-0.01-0.013-0.02-0.019-1.28-1.664-1.99-2.581-1.85-3.66,0.14-1.036,1.09-1.934,2.8-3.23l0.39-.3,0.3,0.4c0.31,0.4.59,0.771,0.85,1.105a19.9,19.9,0,0,1,1.35,1.882l6.59-6.586h-9.22a5.68,5.68,0,0,1-5.65-5.7v-0.463a4.359,4.359,0,0,0-.61-2.227l-1.63-2.732a1.243,1.243,0,0,1,1.06-1.877h29.05l19.31-19.307A33.64,33.64,0,0,0,1216.12,641.95Zm-15.48,48.9a14.712,14.712,0,0,0-1.4-2.009l-0.55-.719-0.4.325c-1.07.87-1.55,1.451-1.62,1.942-0.08.639,0.54,1.462,1.6,2.836Zm-1.75,3.169,0.39-.319a5.814,5.814,0,0,0,1.49-1.559Zm30.4-21.737a0.5,0.5,0,0,0,0-.5,0.494,0.494,0,0,0-.43-0.253h-7.48l-11,11h12.11a4.666,4.666,0,0,0,4.63-4.477c0.01-.049.15-1.758,0.15-1.758a4.763,4.763,0,0,1,.12-0.5l0.1-.283a3.163,3.163,0,0,1,.11-0.3,4.361,4.361,0,0,1,.3-0.585Zm-0.81,4.034a0.488,0.488,0,0,0,.41.21H1246a1.5,1.5,0,0,0,0-3h-16.01a0.509,0.509,0,0,0-.43.244l-0.82,1.381a5.6,5.6,0,0,0-.33.71A0.523,0.523,0,0,0,1228.48,676.312Zm-8.51-4.79h-27.59a0.483,0.483,0,0,0-.43.253,0.5,0.5,0,0,0,0,.5l1.39,2.341a5.291,5.291,0,0,1,.6,1.518,0.512,0.512,0,0,0,.49.385h9a0.5,0.5,0,0,1,0,1h-8.82a0.517,0.517,0,0,0-.36.155,0.5,0.5,0,0,0-.13.369,4.4,4.4,0,0,0,.19,1.12,0.5,0.5,0,0,0,.48.356h12.34a0.5,0.5,0,0,1,0,1h-11.04a0.5,0.5,0,0,0-.32.882,4.556,4.556,0,0,0,2.98,1.118h10.22Zm30.92,3.514a33.835,33.835,0,0,0-9.9-23.117l-18.61,18.6h6.94a1.236,1.236,0,0,1,1.07.626,1.212,1.212,0,0,1,.13.8,0.492,0.492,0,0,0,.12.4,0.486,0.486,0,0,0,.38.174H1246a2.5,2.5,0,0,1,0,5h-17.37a0.5,0.5,0,0,0-.5.484,5.649,5.649,0,0,1-5.64,5.516h-13.11l-7.55,7.554a2.009,2.009,0,0,1,.05.809c-0.13,1.017-1.08,1.921-2.68,3.141l-0.51.4-0.3-.4c-0.08-.1-0.14-0.185-0.22-0.284l-1.19,1.19h31.08a0.5,0.5,0,0,1,0,1h-32.08l-2.97,2.972A33.84,33.84,0,0,0,1250.89,675.036Zm-28.02,19.99-0.51.393-0.3-.4c-0.28-.374-0.55-0.715-0.85-1.105-1.29-1.664-1.99-2.581-1.85-3.659,0.13-1.036,1.09-1.934,2.8-3.23l0.39-.3,0.3,0.4c0.3,0.4.58,0.762,0.85,1.11,1.29,1.661,2,2.577,1.85,3.654C1225.42,692.9,1224.47,693.806,1222.87,695.026Zm0.04-6.189-0.55-.719-0.4.325c-1.07.87-1.55,1.451-1.62,1.942-0.08.637,0.48,1.4,1.72,2.989l0.49,0.647,0.4-.325c1.07-.871,1.55-1.452,1.62-1.943C1224.65,691.09,1224,690.242,1222.91,688.837Zm-11.75,6.189-0.51.4-0.3-.4c-0.31-.4-0.59-0.77-0.85-1.1-1.28-1.664-1.99-2.581-1.85-3.66,0.13-1.036,1.09-1.934,2.8-3.23l0.39-.3,0.3,0.4c0.31,0.4.59,0.771,0.85,1.105,1.29,1.664,2,2.581,1.85,3.659C1213.71,692.9,1212.76,693.806,1211.16,695.026Zm0.04-6.189-0.55-.719-0.4.325c-1.07.87-1.55,1.451-1.62,1.942-0.08.664,0.57,1.512,1.72,2.989l0.49,0.647,0.4-.325c1.07-.871,1.55-1.451,1.62-1.942C1212.94,691.09,1212.29,690.242,1211.2,688.837Zm5.66-27.008a6,6,0,0,1-1.95,1.255,6.066,6.066,0,0,1-2.28.438,0.134,0.134,0,0,0-.02,0,6.608,6.608,0,0,1-2.3-.438,5.991,5.991,0,0,1-1.94-1.254,5.769,5.769,0,0,1-1.7-3.45,5.624,5.624,0,0,1,.89-3.715l4.56-6.884a0.536,0.536,0,0,1,.21-0.189,0.623,0.623,0,0,1,.57,0,0.536,0.536,0,0,1,.21.189l4.56,6.882a5.693,5.693,0,0,1,.89,3.717A5.761,5.761,0,0,1,1216.86,661.829Zm-0.19-6.593-3.64-5.508a0.516,0.516,0,0,0-.83,0l-3.65,5.509v0a4.575,4.575,0,0,0-.72,3.029,4.628,4.628,0,0,0,1.38,2.8,4.9,4.9,0,0,0,1.56,1.01,4.973,4.973,0,0,0,1.84.352,4.878,4.878,0,0,0,1.84-.353,4.794,4.794,0,0,0,1.57-1.011,4.673,4.673,0,0,0,1.38-2.8A4.6,4.6,0,0,0,1216.67,655.236Z" transform="translate(-1182.16 -640.938)"/>
</svg>
