<svg width="60" height="60" viewBox="0 0 60 60" fill="none" xmlns="http://www.w3.org/2000/svg">
<path fill-rule="evenodd" clip-rule="evenodd" d="M30 60C46.5685 60 60 46.5685 60 30C60 13.4315 46.5685 0 30 0C13.4315 0 0 13.4315 0 30C0 46.5685 13.4315 60 30 60ZM51.3922 15.6897C49.5968 14.1662 47.6055 15.4722 46.2997 16.6689C44.994 17.866 40.0973 19.7703 33.7535 19.8572C30.5758 19.9009 29.0308 19.5596 27.7303 19.2722C26.4346 18.9858 25.3817 18.7532 23.1985 19.0085C19.5097 19.4438 17.4423 19.9988 15.2225 20.8039C15.2333 21.707 15.0919 22.8713 14.7437 24.4709C14.254 26.6907 14.0908 29.3567 14.3846 31.6853C15.8971 30.7822 17.2899 30.0205 18.6175 29.3894C18.291 27.5395 19.1506 25.7659 19.5968 24.8518C19.8579 24.3078 20.5108 24.0901 21.0549 24.3513C21.599 24.6123 21.8166 25.2654 21.5555 25.8093L21.5421 25.8369C21.2364 26.47 20.7498 27.4778 20.7176 28.4536C22.056 27.8987 23.34 27.4634 24.6458 27.0933C24.5696 25.7114 25.0701 24.2641 25.6686 22.8713C25.908 22.3164 26.55 22.0662 27.0941 22.2947C27.649 22.5342 27.8993 23.176 27.6708 23.7202C27.2573 24.6885 26.8982 25.668 26.8329 26.5166C28.0843 26.2229 29.3792 25.9726 30.7611 25.7331C30.6523 24.3403 31.1419 22.904 31.686 21.6308C31.9254 21.0759 32.5674 20.8257 33.1115 21.0542C33.6664 21.2937 33.9167 21.9355 33.6882 22.4797C33.2856 23.4263 32.9047 24.4602 32.9265 25.3633C32.9809 25.3523 33.0353 25.3415 33.1006 25.3306C40.4782 24.1118 43.3944 22.3164 46.2018 20.2707C46.6914 19.9116 47.3661 20.0205 47.7252 20.5102C48.0843 20.9997 47.9754 21.6745 47.4858 22.0334C44.0146 24.5688 40.8046 26.1902 34.1452 27.3655C34.5478 27.6157 35.0375 27.8332 35.636 28.0183C36.2127 28.1924 36.5282 28.8127 36.3541 29.3784C36.2127 29.8464 35.7774 30.1401 35.3204 30.1401C35.2628 30.1401 35.2052 30.1372 35.1476 30.1279C35.0963 30.1196 35.0451 30.1062 34.994 30.0857C33.3618 29.5742 32.1975 28.8127 31.501 27.8008C30.1735 28.0293 28.933 28.2685 27.7252 28.5405C28.1713 28.8669 28.7807 29.1282 29.5641 29.3349C30.1408 29.4873 30.4999 30.0749 30.3476 30.6626C30.217 31.1521 29.7818 31.4785 29.2921 31.4785C29.205 31.4785 29.1071 31.4678 29.0201 31.446C27.2682 30.9997 26.0386 30.2273 25.3313 29.1499C24.1017 29.498 22.8939 29.9116 21.6425 30.4231C22.1321 30.8367 22.8068 31.1738 23.6773 31.4568C24.254 31.6418 24.5587 32.2512 24.3846 32.8279C24.2323 33.2849 23.8079 33.5786 23.3509 33.5786C23.2919 33.5786 23.233 33.5723 23.1723 33.5613C23.121 33.5517 23.0684 33.5391 23.0136 33.5242C21.4466 33.0237 20.2823 32.2947 19.5315 31.3589C18.0843 32.0552 16.55 32.8931 14.8634 33.9377C15.1681 34.939 15.5924 35.7876 16.1583 36.397C18.4543 38.8996 20.3694 39.0303 22.0995 38.8017C22.5021 38.7473 22.9482 38.6604 23.4053 38.5622C24.994 38.2358 26.9308 37.8442 29.1071 38.6384C29.6729 38.1924 31.1528 37.1152 33.7535 35.9399C35.2399 35.2653 36.3416 34.8689 37.3656 34.5004L37.3674 34.4997L37.3687 34.4993C38.7048 34.0185 39.9092 33.5851 41.6642 32.6428C44.7654 30.978 46.9744 27.9639 48.7915 25.2436C50.6087 22.5232 53.1876 17.2131 51.3922 15.6897ZM30.4999 42.6536C29.1397 41.0759 28.291 40.6951 28.291 40.6951H28.2801C26.7023 40.1401 25.2442 40.4338 23.8187 40.7275C23.3399 40.8257 22.8394 40.9236 22.3606 40.9888C20.2932 41.2607 17.5293 41.1521 14.5369 37.8984C11.8057 34.906 11.6316 28.6057 12.6327 24.0139C13.0244 22.2402 13.1223 21.1955 13.0352 20.4665C12.8285 19.7156 12.3171 18.6711 11.0548 18.2793C8.9874 17.6265 7.32254 18.4209 6.3432 21.0542C4.87421 25.0041 4.43897 32.2075 5.90796 37.5393C7.37696 42.8713 11.8383 46.571 15.81 47.2239C17.3818 47.4822 18.7746 47.5276 20.0457 47.5688L20.0461 47.5688C21.987 47.6321 23.6444 47.6861 25.2224 48.4751C27.3908 49.5593 27.8338 50.1633 28.3265 50.8354C28.4272 50.9729 28.53 51.113 28.6501 51.2607C29.3574 52.1313 30.7828 53.2629 32.4912 52.1423C34.1996 51.0215 33.7534 49.3567 33.5031 48.6601C33.2529 47.9639 31.8601 44.2314 30.4999 42.6536Z" fill="#3CB44A"/>
</svg>
