<svg width="60" height="60" viewBox="0 0 60 60" xmlns="http://www.w3.org/2000/svg">
<path fill-rule="evenodd" clip-rule="evenodd" d="M30 60C46.5685 60 60 46.5685 60 30C60 13.4315 46.5685 0 30 0C13.4315 0 0 13.4315 0 30C0 46.5685 13.4315 60 30 60ZM51.3922 15.6897C49.5968 14.1663 47.6055 15.4721 46.2997 16.669C44.9939 17.866 40.0973 19.7702 33.7535 19.8573C30.5758 19.9009 29.0308 19.5595 27.7303 19.2722C26.4346 18.9859 25.3817 18.7533 23.1985 19.0085C19.5097 19.4438 17.4423 19.9987 15.2225 20.8039C15.2333 21.7071 15.0919 22.8714 14.7437 24.471C14.254 26.6908 14.0908 29.3567 14.3846 31.6853C15.8971 30.7822 17.2899 30.0205 18.6175 29.3894C18.291 27.5395 19.1506 25.7659 19.5968 24.8518C19.8579 24.3077 20.5108 24.0901 21.0549 24.3513C21.599 24.6124 21.8166 25.2653 21.5554 25.8094L21.542 25.8373C21.2362 26.4703 20.7497 27.4778 20.7176 28.4536C22.056 27.8986 23.34 27.4633 24.6458 27.0934C24.5696 25.7114 25.0701 24.2642 25.6686 22.8714C25.908 22.3165 26.55 22.0662 27.0941 22.2947C27.649 22.5341 27.8993 23.1761 27.6708 23.7201C27.2573 24.6886 26.8982 25.6679 26.8329 26.5167C28.0843 26.2229 29.3792 25.9726 30.7611 25.7332C30.6523 24.3404 31.1419 22.904 31.686 21.6309C31.9254 21.076 32.5674 20.8257 33.1115 21.0542C33.6664 21.2936 33.9167 21.9356 33.6882 22.4797C33.2856 23.4264 32.9047 24.4601 32.9265 25.3632C32.9809 25.3524 33.0353 25.3415 33.1006 25.3306C40.4782 24.1119 43.3944 22.3165 46.2018 20.2708C46.6914 19.9117 47.3661 20.0205 47.7252 20.5101C48.0843 20.9998 47.9754 21.6744 47.4858 22.0335C44.0146 24.5689 40.8046 26.1902 34.1452 27.3654C34.5478 27.6157 35.0375 27.8333 35.636 28.0183C36.2127 28.1924 36.5282 28.8126 36.3541 29.3785C36.2127 29.8464 35.7774 30.1402 35.3204 30.1402C35.2116 30.1402 35.1028 30.1293 34.9939 30.0858C33.3617 29.5743 32.1974 28.8126 31.501 27.8007C30.1735 28.0292 28.933 28.2686 27.7252 28.5406C28.1713 28.867 28.7807 29.1282 29.5641 29.3349C30.1409 29.4873 30.4999 30.0749 30.3476 30.6625C30.217 31.1521 29.7818 31.4786 29.2921 31.4786C29.2051 31.4786 29.1071 31.4677 29.0201 31.4459C27.2682 30.9998 26.0386 30.2272 25.3313 29.15C24.1017 29.4982 22.8938 29.9117 21.6425 30.4231C22.1321 30.8366 22.8068 31.1739 23.6773 31.4568C24.254 31.6418 24.5587 32.2512 24.3846 32.8279C24.2323 33.2849 23.8079 33.5787 23.3509 33.5787C23.2421 33.5787 23.1332 33.5569 23.0135 33.5243C21.4466 33.0237 20.2823 32.2947 19.5315 31.3589C18.0843 32.0553 16.55 32.8932 14.8634 33.9378C15.1681 34.9389 15.5924 35.7876 16.1583 36.397C18.4542 38.8997 20.3694 39.0303 22.0995 38.8018C22.5021 38.7473 22.9483 38.6603 23.4053 38.5624C24.994 38.2359 26.9308 37.8442 29.1071 38.6385C29.673 38.1924 31.1528 37.1151 33.7535 35.9399C35.241 35.2646 36.3433 34.8681 37.368 34.4994L37.368 34.4994C38.7044 34.0186 39.9089 33.5852 41.6642 32.6429C44.7654 30.978 46.9744 27.9639 48.7915 25.2435C50.6087 22.5232 53.1876 17.2131 51.3922 15.6897ZM30.4999 42.6537C29.1397 41.0759 28.291 40.695 28.291 40.695H28.2801C26.7023 40.1401 25.2442 40.4339 23.8187 40.7277C23.3399 40.8256 22.8394 40.9235 22.3606 40.9888C20.2931 41.2608 17.5293 41.152 14.5369 37.8985C11.8057 34.9061 11.6316 28.6058 12.6327 24.0138C13.0244 22.2402 13.1223 21.1956 13.0353 20.4665C12.8285 19.7157 12.3171 18.6711 11.0548 18.2793C8.98738 17.6265 7.32253 18.4208 6.34321 21.0541C4.87422 25.004 4.43896 32.2075 5.90795 37.5394C7.37694 42.8713 11.8383 46.571 15.81 47.2238C17.3817 47.4822 18.7745 47.5276 20.0457 47.569C21.9868 47.6322 23.6443 47.6862 25.2224 48.4752C27.3909 49.5595 27.8338 50.1635 28.3266 50.8357L28.3266 50.8357C28.4273 50.973 28.5301 51.1132 28.6501 51.2608C29.3573 52.1314 30.7828 53.263 32.4912 52.1422C34.1996 51.0214 33.7534 49.3566 33.5032 48.6602C33.2529 47.9638 31.8601 44.2315 30.4999 42.6537Z"/>
</svg>
