<svg width="20" height="21" viewBox="0 0 20 21" xmlns="http://www.w3.org/2000/svg">
<path d="M19.9104 16.0893L19.8105 15.7842C19.5761 15.0825 18.8036 14.3502 18.0919 14.1541L15.4641 13.4327C14.7524 13.2388 13.7368 13.5003 13.214 14.0255L12.2635 14.98C8.8089 14.0407 6.09864 11.3188 5.16552 7.84932L6.116 6.89475C6.63679 6.37171 6.89718 5.35179 6.70408 4.63481L5.98788 1.99565C5.79477 1.28083 5.06129 0.504993 4.3626 0.269627L4.06311 0.169343C3.3622 -0.0660227 2.36186 0.171506 1.84107 0.696773L0.417575 2.1264C0.163707 2.3792 0.000942183 3.10713 0.000942183 3.10713C-0.0468317 7.6445 1.72393 12.014 4.91811 15.2241C8.10361 18.4234 12.4392 20.1996 16.9419 20.1603C16.9657 20.1603 17.7101 20.0012 17.9639 19.7462L19.3874 18.3165C19.9082 17.7957 20.1425 16.791 19.9104 16.0893Z"/>
</svg>
