<svg width="30" height="30" viewBox="0 0 30 30" xmlns="http://www.w3.org/2000/svg">
<path d="M15 1.875C22.2363 1.875 28.125 7.76367 28.125 15C28.125 22.2363 22.2363 28.125 15 28.125C7.76367 28.125 1.875 22.2363 1.875 15C1.875 7.76367 7.76367 1.875 15 1.875ZM15 0C6.71631 0 0 6.71631 0 15C0 23.2837 6.71631 30 15 30C23.2837 30 30 23.2837 30 15C30 6.71631 23.2837 0 15 0ZM23.3624 20.0153L23.2782 19.7589C23.0804 19.1694 22.4286 18.5541 21.828 18.3893L19.6106 17.7832C19.01 17.6203 18.1531 17.84 17.7119 18.2812L16.9099 19.0833C13.9948 18.2941 11.7079 16.0071 10.9205 13.0921L11.7225 12.29C12.162 11.8506 12.3817 10.9937 12.2187 10.3912L11.6144 8.17383C11.4514 7.57324 10.8325 6.92139 10.2429 6.72363L9.99023 6.63937C9.39879 6.44162 8.55469 6.64119 8.11523 7.08252L6.91406 8.28369C6.69984 8.49609 6.5625 9.10582 6.5625 9.1077C6.52219 12.92 8.01639 16.5912 10.7117 19.2884C13.3997 21.9763 17.0582 23.4687 20.8576 23.4357C20.8777 23.4357 21.5058 23.302 21.72 23.0878L22.9212 21.8866C23.3606 21.4489 23.5583 20.6048 23.3624 20.0153Z"/>
</svg>
