<svg width="70" height="70" viewBox="0 0 70 70" xmlns="http://www.w3.org/2000/svg">
<path fill-rule="evenodd" clip-rule="evenodd" d="M1 1H69V69H1V1ZM0 70V0H70V70H0ZM17.22 29.351C19.296 24.639 22.2368 20.3577 25.89 16.729V16.732C26.7773 15.8409 27.8324 15.1346 28.9945 14.654C30.1566 14.1733 31.4025 13.928 32.66 13.932C33.7807 13.9325 34.8763 14.2633 35.8099 14.883L38.24 16.506C38.4299 16.632 38.5894 16.7987 38.707 16.994C38.8246 17.1892 38.8974 17.4082 38.92 17.635L38.9299 17.789C38.9304 17.9919 38.89 18.1927 38.8109 18.3795C38.7319 18.5663 38.6159 18.7352 38.47 18.8761L35.27 22.076C35.0253 22.3228 34.7087 22.4861 34.3657 22.5423C34.0227 22.5985 33.6707 22.5449 33.36 22.3891C33.1215 22.2742 32.9148 22.1026 32.7579 21.8894C32.601 21.6762 32.4987 21.4279 32.46 21.166L32.4399 20.8951C32.439 20.6783 32.4809 20.4636 32.5632 20.2631C32.6456 20.0626 32.767 19.8804 32.92 19.727L33.85 18.804C33.9327 18.7155 33.9791 18.5992 33.98 18.4781C33.9798 18.4165 33.9673 18.3556 33.9432 18.2989C33.9192 18.2423 33.8841 18.1909 33.84 18.148C33.7986 18.105 33.7489 18.071 33.6938 18.0479C33.6388 18.0249 33.5797 18.0134 33.52 18.0141C33.4589 18.0133 33.3981 18.0248 33.3414 18.0478C33.2848 18.0708 33.2333 18.1049 33.1899 18.148L32.27 19.068C32.0296 19.3063 31.8387 19.5898 31.7083 19.9021C31.5778 20.2145 31.5104 20.5495 31.51 20.888C31.5099 21.0312 31.52 21.1742 31.54 21.316C31.6061 21.721 31.7673 22.1045 32.0107 22.4349C32.2542 22.7653 32.5727 23.033 32.9399 23.216C33.2994 23.398 33.6971 23.4916 34.1 23.489C34.4399 23.4898 34.7767 23.4232 35.0908 23.2931C35.4049 23.163 35.69 22.9719 35.9299 22.731L38.12 20.5381C38.1699 20.4881 38.2291 20.4485 38.2943 20.4216C38.3595 20.3947 38.4294 20.3808 38.5 20.381C38.5167 20.38 38.5333 20.38 38.5499 20.381C38.6295 20.3874 38.7066 20.4114 38.7758 20.4511C38.8449 20.4909 38.9044 20.5455 38.95 20.6111C39.1304 20.8744 39.2279 21.1858 39.23 21.505C39.2305 21.7023 39.1919 21.8978 39.1163 22.0801C39.0408 22.2624 38.9299 22.4279 38.79 22.567L34.78 26.575C34.4913 26.8651 34.0992 27.0287 33.6899 27.0301H29.01C28.9143 27.0298 28.8202 27.004 28.7377 26.9555C28.6551 26.907 28.5869 26.8375 28.54 26.7541C28.4927 26.6743 28.4684 26.5828 28.47 26.49C28.4716 26.3913 28.4992 26.2948 28.5499 26.2101L28.5699 26.174C28.6458 26.0481 28.7328 25.9293 28.83 25.8191C28.8743 25.7766 28.9095 25.7256 28.9336 25.6691C28.9577 25.6126 28.9702 25.5519 28.9702 25.4905C28.9702 25.4291 28.9577 25.3684 28.9336 25.312C28.9095 25.2555 28.8743 25.2045 28.83 25.162C28.7886 25.119 28.7389 25.085 28.6838 25.0619C28.6288 25.0389 28.5697 25.0274 28.51 25.028C28.4487 25.0264 28.3877 25.0375 28.3309 25.0605C28.2741 25.0836 28.2227 25.1181 28.1799 25.162C27.8001 25.6008 27.5131 26.112 27.3361 26.6647C27.159 27.2174 27.0958 27.8002 27.15 28.378C27.1916 29.701 27.3251 31.0196 27.5499 32.3241C27.8359 34.0416 27.9997 35.7773 28.04 37.518C28.04 42.056 24.53 43.04 24.38 43.08C24.2807 43.1068 24.1927 43.1652 24.1295 43.2464C24.0664 43.3276 24.0315 43.4272 24.03 43.5301C24.0368 43.652 24.0887 43.7671 24.1755 43.853C24.2624 43.9389 24.378 43.9895 24.5 43.995C24.5371 43.9952 24.5741 43.9905 24.61 43.981C25.4612 43.7141 26.2426 43.2617 26.8979 42.6565C27.5533 42.0513 28.0663 41.3083 28.4 40.481C28.409 40.4396 28.4298 40.4017 28.46 40.372C28.4752 40.3537 28.492 40.3366 28.51 40.321C29.284 39.1308 30.3134 38.1281 31.5236 37.3857C32.7337 36.6432 34.094 36.1798 35.5057 36.029C36.9174 35.8783 38.345 36.044 39.6846 36.5142C41.0242 36.9843 42.2422 37.7471 43.25 38.747C43.2934 38.7901 43.3449 38.824 43.4016 38.8468C43.4583 38.8697 43.5189 38.8809 43.58 38.88C43.7037 38.8794 43.8222 38.8302 43.91 38.743C43.9926 38.6536 44.0389 38.5368 44.04 38.4151C44.0398 38.3537 44.0273 38.2929 44.0033 38.2364C43.9793 38.1799 43.9441 38.1287 43.9 38.086C43.4637 37.6558 42.9883 37.2672 42.48 36.925C42.373 36.8502 42.2969 36.7392 42.2656 36.6125C42.2344 36.4857 42.2501 36.352 42.3099 36.2361C43.2764 34.3467 44.7458 32.7609 46.5563 31.6537C48.3667 30.5464 50.4478 29.9607 52.5699 29.961H52.87C54.2917 30.0307 55.6312 30.6479 56.608 31.6832C57.5848 32.7185 58.1231 34.0917 58.11 35.515V47.213C58.1097 48.3784 57.7424 49.514 57.0603 50.4589C56.3782 51.4038 55.4159 52.1099 54.3099 52.477L53.61 52.711C48.88 54.289 43.9262 55.0927 38.9399 55.091H37.49C29.4191 55.0883 21.4884 52.9817 14.48 48.979C14.0141 48.7199 13.6252 48.342 13.3529 47.8837C13.0806 47.4254 12.9347 46.9031 12.9299 46.37C12.9312 46.1053 12.9683 45.8419 13.04 45.5871C13.3736 44.2594 13.525 42.8925 13.49 41.524C13.49 39.112 14.78 34.902 17.22 29.351ZM14.02 49.789C21.1691 53.8703 29.258 56.0189 37.49 56.023V56.021H38.9399C44.028 56.0227 49.0831 55.2032 53.91 53.594L54.61 53.3581C55.9007 52.9299 57.0235 52.1056 57.8188 51.0026C58.6142 49.8996 59.0415 48.5739 59.04 47.214V35.5201C59.0521 33.8574 58.4208 32.2545 57.2783 31.0464C56.1359 29.8384 54.5708 29.1188 52.91 29.0381H52.5599C50.2809 29.0397 48.0462 29.6671 46.0994 30.852C44.1525 32.0368 42.5685 33.7335 41.52 35.757C41.4562 35.879 41.3481 35.9719 41.2179 36.0168C41.0877 36.0616 40.9453 36.0548 40.8199 35.998C39.0357 35.1766 37.0543 34.8807 35.1079 35.145C33.1615 35.4092 31.3307 36.2227 29.83 37.49C29.7308 37.57 29.6074 37.6141 29.48 37.615C29.3395 37.6141 29.2048 37.5588 29.1041 37.4607C29.0035 37.3627 28.9446 37.2295 28.9399 37.089C28.8815 35.4494 28.7246 33.8148 28.47 32.1941C28.2693 30.9726 28.1391 29.7405 28.08 28.5041V28.497C28.082 28.3547 28.1397 28.2187 28.2406 28.1182C28.3415 28.0177 28.4776 27.9606 28.62 27.959H33.6899C34.0148 27.9598 34.3367 27.8964 34.637 27.7725C34.9373 27.6486 35.2101 27.4666 35.4399 27.237L39.4399 23.229C39.6664 23.0031 39.8458 22.7345 39.9677 22.4387C40.0895 22.1429 40.1515 21.8259 40.15 21.506C40.1529 20.8784 39.9169 20.2731 39.49 19.813C39.3968 19.7143 39.3465 19.5828 39.35 19.4471C39.3454 19.3398 39.377 19.2341 39.4399 19.1471C39.708 18.742 39.8506 18.2668 39.85 17.781L39.84 17.542C39.8055 17.1791 39.6907 16.8284 39.5039 16.5154C39.3171 16.2023 39.063 15.9347 38.76 15.732L36.3199 14.1081C35.2366 13.3843 33.9629 12.9987 32.66 13C31.2814 12.9966 29.9157 13.2667 28.6421 13.7945C27.3685 14.3223 26.2121 15.0974 25.24 16.075C21.5023 19.7841 18.4936 24.1615 16.37 28.98C13.84 34.734 12.5599 38.9541 12.5599 41.5271C12.5923 42.8096 12.4545 44.0908 12.15 45.3371C12.0504 45.6737 11.9998 46.023 12 46.3741C12.0056 47.0709 12.1953 47.7538 12.55 48.3535C12.9048 48.9533 13.412 49.4486 14.02 49.789Z"/>
</svg>
