<svg width="40" height="46" viewBox="0 0 40 46" xmlns="http://www.w3.org/2000/svg">
<path fill-rule="evenodd" clip-rule="evenodd" d="M37.6895 18.0681C36.4236 15.8298 34.661 13.8339 32.5496 12.2393C34.3234 10.5764 34.9956 8.59712 35.0279 8.50095C35.1705 8.0708 34.9721 7.60141 34.5686 7.41047C34.1661 7.22021 33.6861 7.37228 33.4575 7.76146C33.373 7.9038 32.767 8.84674 31.4164 8.84674C30.9477 8.84674 30.3886 8.73286 29.7313 8.43255C26.3964 6.90914 22.8662 7.49309 22.2252 7.61738H21.7218C20.9704 5.77249 18.6243 0.54644 15.9878 0.0496307C15.0384 -0.130207 14.2242 0.183641 13.7558 0.910628C13.1851 1.79697 13.1338 3.50056 14.141 5.04272C14.5139 5.61313 14.98 6.4231 15.5122 7.42366C14.0217 7.34659 11.8183 7.46115 9.69293 8.43255C7.14164 9.59698 6.08016 7.95449 5.96773 7.7632C5.74355 7.37748 5.27208 7.22299 4.86957 7.40422C4.46773 7.58475 4.26087 8.04406 4.38791 8.47422C4.41916 8.5801 5.08967 10.7986 6.87398 12.6917C4.90625 14.296 3.2697 16.2656 2.1053 18.4396C0.70856 21.05 0 23.8639 0 26.803C0 31.8142 2.09035 36.5212 5.88689 40.0558C9.66101 43.5703 14.6729 45.5051 20 45.5051C25.3271 45.5051 30.339 43.5703 34.1131 40.0558C37.9096 36.5212 40 31.8142 40 26.803C40 23.7597 39.2007 20.7396 37.6895 18.0681ZM10.4025 10.0556C12.7965 8.9613 15.3947 9.15329 16.4409 9.29563L16.5346 9.51505V9.51679L17.4983 11.7745C17.6895 12.2216 18.1967 12.4279 18.6355 12.2366C19.0747 12.0463 19.2816 11.5301 19.0992 11.0794C18.8601 10.4885 18.4416 9.51436 18.1332 8.8016C18.0183 8.53671 17.927 8.32597 17.8774 8.21418C17.8723 8.20168 17.8662 8.18918 17.8601 8.17773C17.8488 8.14648 17.8356 8.11628 17.821 8.08677C16.926 6.30922 16.1739 4.9528 15.587 4.05535C15.0329 3.20824 14.9939 2.22261 15.2086 1.88828L15.2088 1.88789C15.2395 1.84079 15.3121 1.72946 15.6722 1.79697C16.8601 2.02159 18.947 5.1743 20.3234 8.82556C20.4531 9.16857 20.7748 9.39493 21.1349 9.39493H22.3111C22.3723 9.39493 22.4338 9.38798 22.4932 9.37549L22.4947 9.37517C22.5396 9.366 23.4182 9.18627 24.6678 9.18627C25.9042 9.18627 27.5051 9.36229 29.0217 10.0556C30.0564 10.5281 30.946 10.6635 31.6868 10.618C31.3757 10.9461 31.0166 11.2669 30.6043 11.5547C28.801 12.8143 26.5408 13.0632 23.8862 12.2952C23.5618 12.2008 23.213 12.3077 22.9922 12.5681C22.7714 12.8285 22.7184 13.1965 22.8546 13.5117C22.9877 13.8158 23.2268 14.0574 23.5901 14.4246L23.5904 14.4248C24.2575 15.0973 25.3567 16.2083 25.9226 18.0528C25.0508 17.675 24.2244 17.6229 23.63 17.5855L23.6253 17.5852C23.3417 17.5675 23.0486 17.5487 22.9226 17.5025L22.8373 17.4723C20.8774 16.7648 20.5853 16.1232 20.5853 15.8031C20.5853 15.3126 20.1878 14.9143 19.7079 14.9143C19.2279 14.9143 18.8383 15.3126 18.8383 15.8031C18.8383 16.5666 16.6372 17.9542 15.7381 18.282C15.6563 18.3125 15.5711 18.341 15.483 18.3706L15.4829 18.3706L15.413 18.3941L15.4076 18.3959C14.9053 18.5625 14.3018 18.7627 13.5965 19.2242C14.2024 17.3664 15.2704 16.085 15.9304 15.2948L15.9423 15.2805L15.9423 15.2805C16.2512 14.9091 16.4563 14.6625 16.5686 14.4061C16.7052 14.0905 16.6522 13.7225 16.4314 13.4621C16.2636 13.2649 16.0228 13.1555 15.7738 13.1555C15.6946 13.1555 15.6148 13.1663 15.5367 13.1892C12.8618 13.9634 10.588 13.5885 8.77751 12.0741H8.77649C8.2303 11.6162 7.77989 11.1016 7.41202 10.5941C8.22792 10.7069 9.22181 10.5951 10.4025 10.0556ZM20 43.7276C9.93139 43.7276 1.73913 36.1355 1.73913 26.803C1.73913 21.7787 4.09307 17.0991 8.22079 13.87C9.44293 14.7335 10.8747 15.2292 12.355 15.332C12.7931 15.3622 13.2334 15.3598 13.6712 15.3285C12.6906 16.6895 11.5496 18.7558 11.4141 21.5822C11.3957 21.9627 11.6165 22.312 11.9626 22.4522C12.0662 22.4942 12.1749 22.5144 12.2826 22.5144C12.4236 22.5144 12.5618 22.48 12.6861 22.4134C12.7128 22.3987 12.7379 22.3825 12.7626 22.3666L12.766 22.3644C12.8312 22.3189 12.8913 22.2648 12.9443 22.2016C14.234 20.6542 15.1461 20.3511 15.9504 20.0845C16.0791 20.0418 16.2007 20.0008 16.3244 19.9564C16.3539 19.9449 18.4715 19.0739 19.7069 17.714C20.534 18.5257 21.7313 18.9583 22.2582 19.1485L22.3366 19.177C22.695 19.3073 23.0934 19.3324 23.5161 19.3591L23.5183 19.3592C24.4538 19.4179 25.5149 19.4846 26.4793 20.6417C26.7201 20.9316 27.1148 21.0319 27.4609 20.8924C27.8071 20.7518 28.0279 20.4025 28.0095 20.0223C27.8862 17.4439 26.9181 15.6698 26.001 14.4849C27.3757 14.5835 28.7741 14.4082 30.053 13.8686C30.4062 13.7197 30.751 13.5479 31.0802 13.3493C33.194 14.8487 34.9514 16.778 36.1844 18.9576C37.5425 21.359 38.2609 24.0715 38.2609 26.8027C38.2609 36.1355 30.0686 43.7276 20 43.7276ZM20 41.9428C11.0815 41.9428 3.82609 35.1513 3.82609 26.8035C3.82609 26.3126 4.21536 25.9147 4.69565 25.9147C5.17595 25.9147 5.56522 26.3126 5.56522 26.8035C5.56522 34.1713 12.0408 40.1653 20 40.1653C20.4803 40.1653 20.8695 40.5631 20.8695 41.054C20.8695 41.545 20.4803 41.9428 20 41.9428ZM22.7242 40.6624C22.7242 41.1533 23.1138 41.5511 23.5941 41.5511C24.0744 41.5511 24.4636 41.1533 24.4636 40.6624C24.4636 40.1716 24.0744 39.7738 23.5941 39.7738H23.5931C23.1131 39.7738 22.7242 40.1716 22.7242 40.6624Z"/>
</svg>
