<svg width="20" height="22" viewBox="0 0 20 22" xmlns="http://www.w3.org/2000/svg">
<path fill-rule="evenodd" clip-rule="evenodd" d="M16.1258 2.83145C16.1258 4.39522 14.8581 5.66291 13.2943 5.66291C11.7306 5.66291 10.4629 4.39522 10.4629 2.83145C10.4629 1.26768 11.7306 0 13.2943 0C14.8581 0 16.1258 1.26768 16.1258 2.83145ZM4.02551 6.04678C4.02551 4.48299 5.29318 3.21533 6.85697 3.21533C8.42076 3.21533 9.68842 4.48304 9.68842 6.04678C9.68842 6.16692 9.68004 6.28509 9.66554 6.40125H4.0484C4.03385 6.28505 4.02551 6.16692 4.02551 6.04678ZM12.4352 11.1235H18.53V8.78153C18.53 8.20586 18.0633 7.73926 17.4877 7.73926H1.04227C0.466606 7.73926 0 8.20595 0 8.78153V20.8553C0 21.4309 0.466606 21.8975 1.04227 21.8975H17.4877C18.0634 21.8975 18.53 21.4309 18.53 20.8553V18.5133H12.4352C11.1797 18.5133 10.1581 17.4918 10.1581 16.2362V13.4006C10.1581 12.145 11.1796 11.1235 12.4352 11.1235ZM12.4352 12.5468H19.1461C19.6176 12.5468 20 12.929 20 13.4006V16.2363C20 16.7079 19.6177 17.0901 19.1461 17.0901H12.4352C11.9636 17.0901 11.5813 16.7079 11.5813 16.2363V13.4006C11.5813 12.929 11.9636 12.5468 12.4352 12.5468ZM12.8455 14.8185C12.8455 15.372 13.2943 15.8207 13.8478 15.8207C14.4014 15.8207 14.8501 15.372 14.8501 14.8185C14.8501 14.2649 14.4014 13.8162 13.8478 13.8162C13.2943 13.8162 12.8455 14.2649 12.8455 14.8185Z"/>
</svg>
