<svg xmlns="http://www.w3.org/2000/svg" width="70" height="70" viewBox="0 0 70 70">
  <defs>
    
  </defs>
  <path id="rezault" class="cls-1" d="M1455.93,880.988a35,35,0,1,1,34.06-35.916A35,35,0,0,1,1455.93,880.988Zm33.06-35.889a34,34,0,1,0-33.09,34.889A34,34,0,0,0,1488.99,845.1Zm-41.25,5.146s0,0-.01.006l0.01-.006m-2.71-23.5a41.208,41.208,0,0,0-8.67,12.622c-2.44,5.551-3.73,9.761-3.73,12.173a15.092,15.092,0,0,1-.45,4.063,2.943,2.943,0,0,0-.11.783,3.016,3.016,0,0,0,1.55,2.609,46.428,46.428,0,0,0,23.01,6.112h1.45a46.308,46.308,0,0,0,14.67-2.38l0.7-.234a5.548,5.548,0,0,0,3.8-5.264V845.531a5.51,5.51,0,0,0-5.24-5.554l-0.3,0a11.522,11.522,0,0,0-10.26,6.275,0.539,0.539,0,0,0,.17.689,9.881,9.881,0,0,1,1.42,1.161,0.46,0.46,0,0,1,.14.329,0.49,0.49,0,0,1-.13.328,0.472,0.472,0,0,1-.33.137,0.459,0.459,0,0,1-.33-0.133,9.555,9.555,0,0,0-14.74,1.574,0.438,0.438,0,0,0-.05.051,0.217,0.217,0,0,0-.06.109,6.034,6.034,0,0,1-3.79,3.5,0.424,0.424,0,0,1-.11.014,0.493,0.493,0,0,1-.47-0.465,0.473,0.473,0,0,1,.35-0.45c0.15-.04,3.66-1.024,3.66-5.562a36.814,36.814,0,0,0-.49-5.194,28.5,28.5,0,0,1-.4-3.946,4.3,4.3,0,0,1,1.03-3.216,0.444,0.444,0,0,1,.33-0.134,0.437,0.437,0,0,1,.32.134,0.455,0.455,0,0,1,0,.657,2.446,2.446,0,0,0-.26.355l-0.02.036a0.563,0.563,0,0,0-.08.28,0.5,0.5,0,0,0,.07.264,0.541,0.541,0,0,0,.47.276l4.68,0a1.545,1.545,0,0,0,1.09-.455l4.01-4.008a1.493,1.493,0,0,0,.44-1.062,1.6,1.6,0,0,0-.28-0.894,0.54,0.54,0,0,0-.4-0.23,0.418,0.418,0,0,0-.05,0,0.535,0.535,0,0,0-.38.157l-2.19,2.193a2.575,2.575,0,0,1-1.83.758,2.532,2.532,0,0,1-1.16-.273,2.588,2.588,0,0,1-1.4-1.9,3.037,3.037,0,0,1-.03-0.428,2.567,2.567,0,0,1,.76-1.82l0.92-.92a0.46,0.46,0,0,1,.33-0.134,0.437,0.437,0,0,1,.32.134,0.462,0.462,0,0,1,.14.33,0.483,0.483,0,0,1-.13.326l-0.93.923a1.643,1.643,0,0,0-.48,1.168l0.02,0.271a1.621,1.621,0,0,0,.9,1.223,1.649,1.649,0,0,0,1.91-.313l3.2-3.2a1.506,1.506,0,0,0,.46-1.087l-0.01-.154a1.538,1.538,0,0,0-.68-1.129l-2.43-1.623a5.7,5.7,0,0,0-3.15-.951,9.51,9.51,0,0,0-6.77,2.8m11.6,39.291a47.387,47.387,0,0,1-23.47-6.234,3.95,3.95,0,0,1-2.02-3.415,3.648,3.648,0,0,1,.15-1.037,14.513,14.513,0,0,0,.41-3.81c0-2.573,1.28-6.793,3.81-12.547a42.1,42.1,0,0,1,8.87-12.905,10.428,10.428,0,0,1,7.42-3.075,6.576,6.576,0,0,1,3.66,1.108l2.44,1.624a2.457,2.457,0,0,1,1.08,1.81l0.01,0.239a2.47,2.47,0,0,1-.41,1.366,0.477,0.477,0,0,0-.09.3,0.514,0.514,0,0,0,.14.366,2.472,2.472,0,0,1,.66,1.693,2.418,2.418,0,0,1-.71,1.723l-4,4.008a2.468,2.468,0,0,1-1.75.722h-5.07a0.546,0.546,0,0,0-.54.538v0.007a32.285,32.285,0,0,0,.39,3.69,40.937,40.937,0,0,1,.47,4.895,0.544,0.544,0,0,0,.54.526,0.564,0.564,0,0,0,.35-0.125,10.335,10.335,0,0,1,10.99-1.492,0.539,0.539,0,0,0,.7-0.241,12.444,12.444,0,0,1,11.04-6.719l0.35,0a6.443,6.443,0,0,1,6.13,6.482v11.694a6.466,6.466,0,0,1-4.43,6.144l-0.7.236a47.286,47.286,0,0,1-14.97,2.427h-1.45" transform="translate(-1420 -811)"/>
</svg>
