<svg width="43" height="43" viewBox="0 0 43 43" xmlns="http://www.w3.org/2000/svg">
<path d="M42.1867 20.7424C40.2133 20.7424 38.24 20.7424 36.2673 20.7424C37.2718 19.0026 38.2763 17.2629 39.2809 15.5232C39.8235 14.5833 38.3693 13.7349 37.8273 14.6735C36.6591 16.6967 35.491 18.7192 34.3235 20.7424C30.5485 20.7424 26.7741 20.7424 22.9991 20.7424C24.9092 17.4339 26.8192 14.1254 28.7293 10.817C31.0279 10.817 33.3264 10.817 35.625 10.817C36.7083 10.817 36.7096 9.13378 35.625 9.13378C33.6503 9.13378 31.6756 9.13378 29.7015 9.13378C29.8126 8.9419 29.9237 8.74934 30.0341 8.55746C30.8999 7.05741 31.7658 5.55802 32.6316 4.05797C33.1743 3.11808 31.72 2.26975 31.178 3.2083C30.191 4.91841 29.2033 6.62853 28.2163 8.33865C27.2104 6.59621 26.2045 4.85378 25.1987 3.11135C24.6573 2.17347 23.2024 3.02045 23.7451 3.96102C24.9118 5.98151 26.078 8.00201 27.2447 10.0218C25.3596 13.2865 23.4751 16.5512 21.5899 19.8166C19.6872 16.5209 17.7846 13.2253 15.8812 9.92892C17.0298 7.9394 18.1784 5.95054 19.327 3.96102C19.8697 3.02113 18.4154 2.1728 17.8734 3.11135C16.8857 4.82281 15.8974 6.53427 14.9097 8.24506C14.7972 8.05049 14.6848 7.85591 14.5724 7.66066C13.7065 6.16061 12.8407 4.66122 11.9742 3.16117C11.4329 2.2233 9.97795 3.07028 10.5206 4.01084C11.5063 5.71826 12.4926 7.42569 13.4783 9.13378C11.4679 9.13378 9.45751 9.13378 7.44711 9.13378C6.36382 9.13378 6.36247 10.817 7.44711 10.817C9.78136 10.817 12.1156 10.817 14.4505 10.817C16.3606 14.1254 18.2707 17.4339 20.1807 20.7424C16.4044 20.7424 12.6273 20.7424 8.85089 20.7424C7.67334 18.703 6.49578 16.663 5.31822 14.6237C4.77691 13.6858 3.32196 14.5328 3.86462 15.4733C4.87857 17.2299 5.89253 18.9865 6.90715 20.7424C6.60754 20.7424 6.30794 20.7424 6.009 20.7424C4.27734 20.7424 2.54501 20.7424 0.813345 20.7424C-0.269953 20.7424 -0.2713 22.4256 0.813345 22.4256C2.80758 22.4256 4.80182 22.4256 6.79606 22.4256C5.81914 24.1175 4.84222 25.8101 3.8653 27.5021C3.32264 28.4419 4.77691 29.2903 5.3189 28.3517C6.45942 26.3763 7.59995 24.4009 8.74047 22.4256C12.5216 22.4256 16.3027 22.4256 20.0845 22.4256C18.2262 25.6445 16.368 28.8634 14.5091 32.0817C12.1553 32.0817 9.80223 32.0817 7.44846 32.0817C6.36516 32.0817 6.36382 33.7648 7.44846 33.7648C9.47771 33.7648 11.5076 33.7648 13.5376 33.7648C13.3888 34.0227 13.2393 34.2812 13.0905 34.5391C12.2247 36.0392 11.3588 37.5386 10.4923 39.0386C9.94967 39.9785 11.4039 40.8268 11.9459 39.8883C12.9437 38.16 13.9415 36.4317 14.9393 34.7034C15.9176 36.398 16.8965 38.0927 17.8748 39.7873C18.4161 40.7252 19.871 39.8782 19.3284 38.9376C18.1892 36.9649 17.0507 34.9922 15.9115 33.0195C17.8048 29.7407 19.6973 26.4618 21.5906 23.183C23.4562 26.414 25.3219 29.6458 27.1875 32.8768C26.0113 34.9135 24.8358 36.9508 23.6596 38.9874C23.1169 39.9273 24.5712 40.7757 25.1132 39.8371C26.1285 38.0778 27.1444 36.3193 28.1597 34.56C28.3105 34.8205 28.4607 35.0811 28.6108 35.3417C29.4766 36.8417 30.3425 38.3411 31.2083 39.8411C31.7496 40.779 33.2046 39.932 32.6619 38.9915C31.6655 37.2659 30.669 35.5396 29.6726 33.814C31.6278 33.814 33.5836 33.814 35.5388 33.814C36.6221 33.814 36.6235 32.1308 35.5388 32.1308C33.2598 32.1308 30.9801 32.1308 28.7004 32.1308C26.832 28.8951 24.9644 25.66 23.096 22.4242C26.8563 22.4242 30.6165 22.4242 34.3774 22.4242C35.5274 24.4164 36.6773 26.408 37.8273 28.4002C38.3686 29.3381 39.8235 28.4911 39.2809 27.5505C38.2945 25.8418 37.3075 24.133 36.3212 22.4242C36.5447 22.4242 36.7682 22.4242 36.9911 22.4242C38.7227 22.4242 40.4551 22.4242 42.1867 22.4242C43.27 22.4256 43.272 20.7424 42.1867 20.7424Z"/>
</svg>
