<svg width="70" height="70" viewBox="0 0 70 70" xmlns="http://www.w3.org/2000/svg">
<path fill-rule="evenodd" clip-rule="evenodd" d="M1 1H69V69H1V1ZM0 70V0H70V70H0ZM57.2972 35.1347C57.2823 35.7738 57.0921 36.3963 56.7478 36.9325C56.4415 37.3697 56.0347 37.7251 55.5624 37.9681C55.0902 38.2112 54.5666 38.3345 54.0368 38.3275C53.3539 38.3112 52.6842 38.1349 52.0801 37.8126C51.476 37.4902 50.9541 37.0305 50.5556 36.4696C49.4833 35.1707 48.1248 34.1439 46.5892 33.4715C46.5558 33.456 46.5193 33.4488 46.4826 33.4504C46.4459 33.4521 46.4101 33.4626 46.3783 33.4812C46.3482 33.4999 46.3236 33.5264 46.3069 33.5579C46.2902 33.5893 46.2822 33.6246 46.2834 33.6603C46.2774 34.2157 46.1812 34.7662 45.9985 35.29C44.6061 39.2341 21.4406 55.0466 13.8876 57.891C13.6364 57.9961 13.3607 58.0261 13.0932 57.9771C12.8257 57.9281 12.5779 57.8023 12.3792 57.6148C12.1951 57.4128 12.0717 57.1621 12.0231 56.8919C11.9745 56.6217 12.0029 56.3432 12.1049 56.0886C14.9003 48.5098 30.6181 25.1888 34.5845 23.749C35.11 23.5635 35.6631 23.4708 36.2197 23.4749C36.3462 23.4749 36.4834 23.4802 36.6205 23.4898C36.6579 23.4902 36.6948 23.4813 36.7279 23.4638C36.761 23.4463 36.7894 23.4208 36.8105 23.3895C36.8301 23.3575 36.8405 23.3206 36.8405 23.2829C36.8405 23.2452 36.8301 23.2083 36.8105 23.1763C35.9452 21.4991 34.6523 20.0862 33.0655 19.0839C32.5057 18.7592 32.05 18.2786 31.7526 17.6995C31.4552 17.1203 31.3288 16.4669 31.3883 15.8171C31.4277 15.2291 31.6378 14.6659 31.9925 14.1982C32.3472 13.7305 32.8306 13.3792 33.3821 13.1881C34.1898 12.9189 35.0608 12.9136 35.8716 13.1732C35.9058 13.1832 35.9419 13.1847 35.9768 13.1775C36.0117 13.1702 36.0444 13.1544 36.072 13.1316C36.348 12.8851 36.6526 12.6734 36.9791 12.5012C37.8351 12.0835 38.7913 11.9218 39.7351 12.0352C40.6789 12.1486 41.5711 12.5323 42.3064 13.1412C43.0444 13.605 43.6783 14.22 44.167 14.9465C44.6557 15.673 44.9885 16.4949 45.144 17.3593C45.1537 17.3986 45.1734 17.4347 45.2012 17.4639C45.2289 17.4931 45.2638 17.5144 45.3022 17.5257C45.3425 17.5346 45.3844 17.5323 45.4234 17.5189C45.4624 17.5056 45.4972 17.4818 45.5239 17.45L45.5976 17.3434C45.6293 17.3028 45.6609 17.2623 45.6714 17.2442L45.7876 17.1279C45.9353 17.0159 49.448 14.4061 52.6021 16.5691C53.1439 17.0101 53.5942 17.5549 53.9273 18.1722C54.2604 18.7895 54.4696 19.4672 54.5431 20.1665C54.5427 20.9392 54.372 21.7021 54.0436 22.3998C53.7152 23.0975 53.2372 23.7125 52.6444 24.2001C52.4545 24.3772 52.254 24.5549 52.043 24.7334C52.0123 24.7604 51.99 24.7958 51.9788 24.8354C51.9675 24.8749 51.9679 24.917 51.9798 24.9563C51.9916 24.9966 52.0148 25.0325 52.0467 25.0594C52.0787 25.0864 52.1177 25.1032 52.159 25.1077L52.3279 25.127C52.4333 25.1376 52.5283 25.1483 52.6338 25.1686C53.6102 25.3461 54.5392 25.7272 55.3619 26.2876C56.1847 26.848 56.8829 27.5755 57.4124 28.4236C57.8504 29.0962 58.0531 29.8977 57.9881 30.7002C57.9231 31.5028 57.5941 32.2603 57.0537 32.8519C57.0319 32.8806 57.0072 32.9085 56.9826 32.9363C56.9597 32.9621 56.9369 32.9878 56.9166 33.014L56.8639 33.0737C56.8354 33.1057 56.8172 33.1456 56.8115 33.1882C56.8059 33.2309 56.8131 33.2742 56.8323 33.3126C57.1512 33.8647 57.3121 34.4955 57.2972 35.1347ZM54.7401 27.2691C54.0424 26.7894 53.253 26.4629 52.4228 26.3108C51.5018 26.1532 50.5621 26.1425 49.6378 26.2788C49.5112 26.2938 49.3952 26.3098 49.2686 26.329C49.0471 26.3652 48.8256 26.4072 48.6041 26.4548C48.4564 26.4847 48.2982 26.522 48.14 26.5614C47.9817 26.6009 47.8234 26.6425 47.6652 26.6873C47.645 26.6931 47.6245 26.699 47.6039 26.7049C47.4847 26.7391 47.3601 26.7748 47.2432 26.8121L46.8108 26.9528C46.5893 27.0296 46.3572 27.1107 46.1462 27.195L46.0723 27.2216C46.0409 27.234 46.0083 27.2463 45.9757 27.2587C45.9099 27.2837 45.844 27.3087 45.7876 27.3337C45.6399 27.3902 45.5027 27.4467 45.3656 27.5053L44.7221 27.7901C44.6747 27.8114 44.6366 27.8496 44.6153 27.8975C44.5939 27.9453 44.5908 27.9994 44.6065 28.0495C44.6222 28.0995 44.6556 28.1419 44.7002 28.1686C44.7449 28.1954 44.7978 28.2045 44.8487 28.1943C46.6548 27.774 48.5363 27.8193 50.3206 28.3261C52.1048 28.8328 53.7345 29.7846 55.06 31.0942L55.1971 31.235C55.3448 31.3875 55.4926 31.5454 55.6719 31.7502L55.9039 32.0168C55.9253 32.0407 55.9513 32.0599 55.9803 32.0731C56.0094 32.0864 56.0409 32.0933 56.0728 32.0936C56.1057 32.0933 56.1381 32.0853 56.1674 32.0701C56.1967 32.055 56.222 32.033 56.2415 32.0061C56.595 31.6163 56.8098 31.1184 56.8518 30.5911C56.8939 30.0639 56.7607 29.5376 56.4735 29.0956C56.0283 28.3709 55.4378 27.7487 54.7401 27.2691ZM44.5216 23.1528C44.4689 23.3224 44.4161 23.4909 44.3528 23.6583L44.2685 23.8599C43.8716 24.9257 43.4029 25.9626 42.8655 26.9635C42.8465 27.0036 42.8403 27.0487 42.8479 27.0925C42.8554 27.1363 42.8763 27.1766 42.9076 27.2078C42.9288 27.2278 42.9537 27.2434 42.9809 27.2537C43.0081 27.2639 43.0369 27.2686 43.0659 27.2675C43.1025 27.2672 43.1386 27.2584 43.1713 27.2419C43.7726 26.9315 44.4056 26.6371 45.0385 26.3694L45.355 26.2394C45.4337 26.2069 45.5165 26.1761 45.5982 26.1456C45.648 26.127 45.6974 26.1086 45.7453 26.0901L45.8297 26.058C45.9633 26.0068 46.1005 25.9567 46.2411 25.9077C46.3332 25.8785 46.4288 25.8464 46.5218 25.8153C46.5886 25.7929 46.654 25.771 46.7158 25.7509C46.8022 25.7228 46.896 25.6951 46.9884 25.6677C47.0539 25.6483 47.1188 25.6291 47.18 25.6101C47.3277 25.5642 47.4964 25.5162 47.6441 25.48C47.7869 25.4449 47.9298 25.4109 48.0726 25.3768L48.0872 25.3733L48.2665 25.3328L48.2689 25.3323C48.3736 25.3079 48.4783 25.2835 48.5935 25.2613C48.8045 25.2208 49.0154 25.1867 49.237 25.1547L49.3741 25.1313L49.5429 25.1035C49.5763 25.0996 49.6085 25.089 49.6378 25.0725C50.4272 24.5667 51.1689 23.9883 51.8532 23.3447C52.3224 22.9696 52.7044 22.495 52.9724 21.9543C53.2403 21.4136 53.3876 20.8201 53.4039 20.2156C53.2673 19.1428 52.7269 18.1645 51.8953 17.4841C49.68 15.9878 47.0534 17.6441 46.5576 17.9918C46.5388 18.0044 46.5211 18.0186 46.5048 18.0344C46.0559 18.61 45.6437 19.2138 45.2706 19.8422C45.2503 19.8672 45.2392 19.8985 45.239 19.9308C45.239 19.9512 45.2362 19.9699 45.2335 19.988C45.2309 20.0048 45.2285 20.021 45.2285 20.0375L45.2073 20.1441C45.1862 20.3403 45.1651 20.5355 45.1334 20.7328C45.1235 20.7942 45.1112 20.8552 45.0987 20.9168C45.0848 20.9857 45.0708 21.0554 45.0596 21.1274L44.9331 21.7194C44.9225 21.7684 44.9093 21.8172 44.8962 21.866C44.883 21.9148 44.8698 21.9636 44.8593 22.0127L44.817 22.147C44.7748 22.3315 44.7221 22.515 44.6693 22.6974C44.6588 22.7352 44.6456 22.7731 44.6324 22.811C44.6193 22.8488 44.6061 22.8867 44.5956 22.9245L44.5216 23.1528ZM42.549 20.5056L42.6439 21.008L42.6545 21.0922C42.7716 21.8512 42.814 22.62 42.781 23.3874C42.7821 23.4368 42.7994 23.4844 42.8298 23.5229C42.8603 23.5615 42.9025 23.5889 42.9499 23.6008H42.9921C43.0352 23.6005 43.0773 23.5873 43.113 23.5628C43.1487 23.5383 43.1763 23.5036 43.1925 23.4632C43.67 22.2441 43.9788 20.9643 44.1102 19.6599V19.5884C44.1694 18.9267 44.1411 18.2599 44.0259 17.6057C43.9004 16.8829 43.6238 16.1955 43.2145 15.5895C42.8052 14.9834 42.2726 14.4727 41.6524 14.0915C41.6257 14.0777 41.6008 14.0605 41.5785 14.0403C41.0182 13.5808 40.3425 13.2883 39.6271 13.1954C38.9116 13.1026 38.1846 13.213 37.5277 13.5145C37.4968 13.5364 37.4713 13.5653 37.453 13.5987C37.4347 13.6322 37.4242 13.6694 37.4222 13.7075C37.4245 13.749 37.4373 13.7892 37.4595 13.8241C37.4817 13.8591 37.5125 13.8876 37.5488 13.9069C37.8071 14.0631 38.0571 14.233 38.2978 14.4157H38.3083C38.4811 14.5477 38.6014 14.6514 38.6853 14.7236C38.6936 14.7308 38.7016 14.7377 38.7092 14.7442C38.9413 14.917 39.1628 15.0962 39.3738 15.2775C39.4205 15.3182 39.464 15.3593 39.5078 15.4007C39.5431 15.434 39.5787 15.4676 39.6164 15.5014L39.7535 15.6315C39.8052 15.6758 39.8545 15.7228 39.9012 15.7723C40.0489 15.9078 40.1755 16.0454 40.3021 16.184L40.376 16.2672C41.2013 17.1921 41.8359 18.2741 42.243 19.4498L42.2747 19.5287L42.4013 19.9446C42.421 20.0303 42.4458 20.1147 42.4752 20.1974C42.4963 20.2987 42.5174 20.399 42.549 20.5056ZM38.9729 16.4837C38.6671 16.1876 38.343 15.9115 38.0025 15.6571L37.9497 15.6113L37.8969 15.5687C37.6038 15.326 37.2935 15.1054 36.9686 14.9084L36.8526 14.8423C36.7785 14.7949 36.6981 14.7533 36.6163 14.711C36.5932 14.6991 36.57 14.6871 36.5467 14.6749L36.3568 14.5789C36.2302 14.5159 36.093 14.4583 35.9243 14.3933H35.9137C35.2372 14.0951 34.4772 14.0527 33.7724 14.2738C33.4291 14.3931 33.1281 14.6118 32.9068 14.9027C32.6855 15.1936 32.5535 15.5438 32.5275 15.9099C32.4912 16.3379 32.5761 16.7676 32.7722 17.1487C32.9683 17.5298 33.2677 17.8466 33.6352 18.0622C35.1859 18.9581 37.38 20.9461 39.11 25.3573L39.1734 25.5451C39.3211 25.9127 39.4582 26.297 39.5848 26.698L39.6586 26.9112C39.8063 27.3517 39.9434 27.805 40.07 28.286C40.0834 28.3277 40.1084 28.3647 40.1421 28.3923C40.1758 28.42 40.2167 28.4371 40.2598 28.4417H40.281C40.322 28.4418 40.3621 28.4293 40.396 28.4059C40.4298 28.3825 40.456 28.3492 40.4709 28.3106C40.9345 27.2001 41.2707 26.0396 41.473 24.8518C41.8042 23.1202 41.6731 21.3307 41.0932 19.6673L41.0406 19.5308C40.9231 19.2306 40.7856 18.9388 40.6292 18.6573C40.6002 18.5921 40.5612 18.5274 40.5226 18.4632C40.505 18.434 40.4874 18.4048 40.4709 18.3757C40.3443 18.1614 40.1966 17.9342 40.0172 17.6825L39.9435 17.5855C39.9161 17.5506 39.8916 17.5158 39.867 17.4808C39.8441 17.4483 39.8211 17.4157 39.7957 17.3828C39.6375 17.1898 39.4581 16.9893 39.2049 16.7333L39.1206 16.6362C39.0914 16.6109 39.0655 16.5823 39.0392 16.5533C39.018 16.5298 38.9965 16.5061 38.9729 16.4837ZM41.2198 31.4643C40.7873 31.3413 40.3443 31.2204 39.8907 31.1017C39.7852 31.0769 39.6892 31.0217 39.6143 30.9427C39.5394 30.8638 39.4888 30.7645 39.4687 30.657C39.3632 30.1472 39.2472 29.6512 39.1206 29.1638L39.0468 28.8929C39.0183 28.7923 38.9904 28.6921 38.9627 28.5925C38.8776 28.2868 38.7941 27.9867 38.6986 27.6962C38.6865 27.6336 38.6689 27.5722 38.646 27.5128C38.3699 26.6347 38.0494 25.7714 37.686 24.9265C37.6738 24.8973 37.6552 24.8713 37.6314 24.8507C37.6076 24.8302 37.5792 24.8156 37.5488 24.808C36.714 24.5368 35.8147 24.5458 34.9854 24.8336C34.2786 25.0896 32.9496 26.3929 31.0191 28.7073C30.9971 28.7332 30.9815 28.7641 30.9742 28.7974C30.9668 28.8307 30.9678 28.8654 30.9769 28.8982C30.9769 28.9025 30.9822 28.9164 30.9874 28.9302C30.9927 28.9441 30.998 28.958 30.998 28.9622C31.1419 30.5071 31.8853 31.9314 33.0655 32.9234C33.1881 33.0142 33.271 33.1497 33.2966 33.3011C33.3222 33.4526 33.2885 33.6082 33.2027 33.735C33.112 33.8575 32.9785 33.9402 32.8294 33.9662C32.6803 33.9922 32.5269 33.9595 32.401 33.8747C31.2756 32.9882 30.471 31.751 30.1118 30.3551C30.1014 30.3179 30.0812 30.2843 30.0533 30.2578C30.0255 30.2313 29.991 30.2129 29.9537 30.2047C29.915 30.1978 29.8753 30.2012 29.8383 30.2144C29.8013 30.2277 29.7683 30.2505 29.7426 30.2805C28.2341 32.1949 26.5041 34.5221 24.753 37.0114C24.7328 37.0361 24.7193 37.0658 24.7137 37.0973C24.7082 37.1289 24.7107 37.1614 24.7213 37.1917C24.7213 37.1961 24.7298 37.2187 24.738 37.2406C24.7456 37.261 24.753 37.2808 24.753 37.2844C24.7954 37.7728 24.9327 38.2479 25.1572 38.6824C25.3817 39.1169 25.6889 39.5023 26.0611 39.8164C26.1835 39.9076 26.2662 40.0433 26.2918 40.1948C26.3174 40.3464 26.2838 40.502 26.1982 40.6291C26.1072 40.7511 25.9737 40.8336 25.8248 40.8595C25.6758 40.8855 25.5226 40.8531 25.3965 40.7688C24.7296 40.2533 24.2241 39.5541 23.9407 38.7552C23.9263 38.7201 23.9033 38.6892 23.8738 38.6657C23.8442 38.6422 23.8091 38.6267 23.7719 38.6208C23.7335 38.6147 23.6942 38.6199 23.6587 38.6358C23.6232 38.6517 23.5929 38.6776 23.5715 38.7104C21.2297 42.1063 19.0461 45.4968 17.2739 48.5055C17.2551 48.5323 17.2433 48.5635 17.2396 48.5961C17.2359 48.6287 17.2404 48.6617 17.2527 48.6921C17.2654 48.7219 17.2841 48.7487 17.3077 48.7706C17.3314 48.7924 17.3594 48.809 17.3899 48.8191C17.4549 48.8333 17.5162 48.8617 17.5693 48.9022C18.0643 49.2648 18.5903 49.5822 19.141 49.8504C19.2784 49.9175 19.3843 50.0361 19.4363 50.1811C19.4876 50.3263 19.4801 50.4862 19.4153 50.6258C19.3457 50.7622 19.2272 50.8666 19.0841 50.9177C18.941 50.9688 18.784 50.9629 18.6451 50.901C18.025 50.6017 17.4351 50.2424 16.8836 49.828C16.8836 49.8241 16.8722 49.8107 16.8612 49.7979C16.8511 49.786 16.8413 49.7746 16.8413 49.7715C16.8168 49.75 16.7884 49.7337 16.7576 49.7234C16.7268 49.7132 16.6943 49.7092 16.6619 49.7118C16.6294 49.7166 16.5984 49.7287 16.571 49.7471C16.5437 49.7656 16.5208 49.7899 16.5038 49.8184C15.2274 51.9496 14.1198 54.1796 13.1914 56.4875C13.1797 56.5104 13.1726 56.5354 13.1703 56.5611C13.1653 56.5991 13.1704 56.6378 13.1853 56.6731C13.2001 56.7084 13.2241 56.7389 13.2547 56.7616C13.2976 56.7929 13.3494 56.8094 13.4024 56.8085C13.4313 56.8094 13.4601 56.804 13.4867 56.7925C17.8543 54.8105 22.0469 52.4556 26.0188 49.7534C26.0514 49.7306 26.0775 49.6993 26.0941 49.663C26.1108 49.6266 26.1177 49.5864 26.1138 49.5464C26.1093 49.5056 26.0928 49.4671 26.0665 49.4357C26.0402 49.4044 26.0053 49.3817 25.9661 49.3705C25.0767 49.1029 24.2938 48.5574 23.7298 47.8123C23.686 47.7498 23.6551 47.6792 23.6387 47.6044C23.6224 47.5297 23.6211 47.4524 23.6349 47.3771C23.6458 47.3017 23.6721 47.2294 23.712 47.1648C23.752 47.1002 23.8047 47.0447 23.8669 47.0017C23.9927 46.9127 24.1479 46.877 24.2993 46.9025C24.3735 46.9151 24.4445 46.9427 24.5079 46.9835C24.5714 47.0244 24.626 47.0777 24.6687 47.1404C25.2979 47.8957 26.1961 48.3701 27.1687 48.4607C27.287 48.4781 27.3973 48.5312 27.4851 48.6132C27.5195 48.6438 27.5629 48.6622 27.6086 48.6656C27.6543 48.6691 27.6998 48.6574 27.7383 48.6324C30.5548 46.7734 33.3398 44.8441 35.7977 43.0406C35.8331 43.0195 35.8607 42.9871 35.876 42.9485C35.8912 42.9099 35.8934 42.8672 35.8821 42.8273C35.8773 42.7873 35.8606 42.7499 35.8342 42.7198C35.8079 42.6897 35.7731 42.6684 35.7344 42.6587C34.3594 42.2944 33.1402 41.4844 32.2638 40.3529C32.22 40.2904 32.1891 40.2198 32.1728 40.145C32.1565 40.0703 32.1552 39.993 32.1689 39.9177C32.1796 39.8421 32.2058 39.7696 32.2458 39.7048C32.2857 39.64 32.3386 39.5843 32.401 39.5413C32.527 39.453 32.6823 39.4181 32.8335 39.4442C32.9076 39.457 32.9783 39.4847 33.0417 39.5255C33.1051 39.5663 33.1599 39.6195 33.2027 39.682C34.1869 40.8732 35.598 41.6215 37.1268 41.7629C37.1778 41.7747 37.2274 41.7922 37.2745 41.8151C37.3088 41.8301 37.3464 41.8356 37.3835 41.8312C37.4206 41.8267 37.4557 41.8122 37.4855 41.7895C40.5869 39.4399 44.4056 36.3363 44.9225 34.8879C45.1438 34.2506 45.2019 33.5671 45.0913 32.901C45.093 32.8567 45.0773 32.8136 45.0477 32.781C45.018 32.7484 44.9768 32.729 44.9331 32.7271C44.5955 32.5913 44.2474 32.4584 43.8887 32.3282L43.7305 32.2685C43.414 32.1544 43.0765 32.0424 42.7178 31.9261L42.4962 31.8526C42.1797 31.7491 41.8422 31.6488 41.5047 31.5486L41.2198 31.4643ZM55.0443 36.9315C55.3463 36.7766 55.6054 36.5482 55.7985 36.267C56.0507 35.8281 56.1627 35.3212 56.1193 34.8155C56.0758 34.3098 55.879 33.8301 55.5558 33.4417L55.4503 33.3063C54.9635 32.6539 54.4122 32.0535 53.8047 31.5145C53.7709 31.4823 53.7328 31.4528 53.6958 31.4243C53.6752 31.4083 53.6548 31.3926 53.6359 31.3769L53.5304 31.299C53.3406 31.1433 53.1506 30.9876 52.9608 30.8511C49.1737 28.1901 44.7642 29.2086 42.5068 30.0448C42.4711 30.0469 42.4358 30.0526 42.4013 30.0618L42.2009 30.1397C42.1606 30.1557 42.126 30.1839 42.102 30.2204C42.0781 30.257 42.0659 30.3001 42.067 30.3439C42.0682 30.3877 42.0826 30.4302 42.1085 30.4654C42.1343 30.5006 42.1703 30.5269 42.2115 30.5407C42.2853 30.5631 42.3486 30.5844 42.4119 30.6068L42.5912 30.6644C42.9394 30.7722 43.2769 30.8799 43.6039 30.9929C43.8355 31.0703 44.0576 31.1516 44.27 31.2293L44.3002 31.2404C44.5217 31.3214 44.7432 31.4057 44.9542 31.4899C45.2074 31.5859 45.4605 31.683 45.7348 31.7992L45.7665 31.812C45.7766 31.8185 45.787 31.8242 45.798 31.8291C48.0045 32.6142 49.9662 33.9757 51.4839 35.7753C51.7789 36.1926 52.1661 36.5345 52.6148 36.7739C53.0634 37.0133 53.5612 37.1436 54.0684 37.1543C54.407 37.1629 54.7423 37.0864 55.0443 36.9315Z"/>
</svg>
