<svg xmlns="http://www.w3.org/2000/svg" width="70" height="70" viewBox="0 0 70 70">
  <defs>
    
  </defs>
  <path id="sveg" class="cls-1" d="M1454.99,711a35,35,0,0,1-.92-69.988h0a35,35,0,1,1,1.86,69.975C1455.61,711,1455.3,711,1454.99,711Zm-0.89-68.988a34,34,0,1,0,24.3,9.318,33.778,33.778,0,0,0-24.3-9.318h0Zm21.6,35.906a3.236,3.236,0,0,0,.08-3.394,0.2,0.2,0,0,1,.03-0.224l0.05-.056c0.04-.051.09-0.1,0.13-0.152h0a3.38,3.38,0,0,0,.34-4.152,6.775,6.775,0,0,0-4.53-3.052c-0.1-.019-0.19-0.029-0.29-0.039l-0.16-.018a0.2,0.2,0,0,1-.17-0.142,0.2,0.2,0,0,1,.06-0.209q0.3-.251.57-0.5a4.879,4.879,0,0,0,1.8-3.782,5.01,5.01,0,0,0-1.84-3.373c-2.99-2.028-6.32.419-6.46,0.524l-0.11.109c-0.01.017-.04,0.055-0.07,0.093l-0.07.1a0.215,0.215,0,0,1-.21.071,0.217,0.217,0,0,1-.15-0.156,5.9,5.9,0,0,0-2.69-3.955,4.727,4.727,0,0,0-5.05-.6,4.308,4.308,0,0,0-.86.591,0.208,0.208,0,0,1-.19.039,3.837,3.837,0,0,0-2.36.014,2.806,2.806,0,0,0-1.89,2.465,3.192,3.192,0,0,0,1.59,3.063,9.95,9.95,0,0,1,3.55,3.837,0.19,0.19,0,0,1,0,.2,0.215,0.215,0,0,1-.18.094c-0.13-.009-0.26-0.014-0.38-0.014a4.6,4.6,0,0,0-1.55.257c-3.76,1.35-18.66,23.216-21.31,30.322a1.359,1.359,0,0,0,.26,1.431,1.343,1.343,0,0,0,1.43.259c7.16-2.667,29.12-17.493,30.44-21.191a4.748,4.748,0,0,0,.27-1.528,0.19,0.19,0,0,1,.09-0.168,0.218,0.218,0,0,1,.2-0.009,10.153,10.153,0,0,1,3.76,2.811,4.185,4.185,0,0,0,3.3,1.742A3.1,3.1,0,0,0,1475.7,677.918Zm-4.1-9.959a5.722,5.722,0,0,1,3.84,2.611,2.228,2.228,0,0,1-.22,2.729,0.2,0.2,0,0,1-.16.082h0a0.218,0.218,0,0,1-.16-0.072l-0.22-.25c-0.17-.192-0.31-0.34-0.45-0.483l-0.13-.132a10.485,10.485,0,0,0-9.68-2.719,0.2,0.2,0,0,1-.12-0.379l0.61-.267c0.13-.055.26-0.108,0.4-0.161,0.08-.035.18-0.07,0.27-0.105l0.07-.025c0.2-.079.42-0.155,0.63-0.227l0.41-.132c0.13-.041.27-0.08,0.4-0.117,0.15-.042.3-0.081,0.45-0.118s0.3-.072.44-0.1q0.315-.067.63-0.118c0.12-.018.23-0.033,0.35-0.047A8.481,8.481,0,0,1,1471.6,667.959Zm-7.65-2.487c0.06-.157.11-0.315,0.16-0.474l0.07-.214c0.02-.071.05-0.142,0.07-0.213,0.05-.171.1-0.343,0.14-0.516l0.04-.126c0.02-.092.05-0.183,0.07-0.275l0.12-.555c0.02-.128.05-0.248,0.07-0.37,0.03-.185.05-0.368,0.07-0.552l0.02-.1c0-.032.01-0.063,0.01-0.1a0.132,0.132,0,0,1,.03-0.083,16.208,16.208,0,0,1,1.17-1.695,0.35,0.35,0,0,1,.05-0.04c0.47-.326,2.96-1.879,5.06-0.476a3.942,3.942,0,0,1,1.43,2.561,3.875,3.875,0,0,1-1.47,2.934,14.415,14.415,0,0,1-2.1,1.62,0.243,0.243,0,0,1-.09.029l-0.16.026-0.13.022c-0.21.03-.41,0.062-0.61,0.1-0.11.021-.21,0.044-0.31,0.067l-0.17.038c-0.14.033-.28,0.066-0.42,0.1s-0.3.079-.44,0.122-0.3.087-.44,0.132-0.3.1-.45,0.147q-0.2.069-.39,0.141l-0.08.03c-0.12.046-.25,0.091-0.37,0.14l-0.3.122c-0.6.251-1.2,0.527-1.77,0.818a0.229,0.229,0,0,1-.1.024,0.208,0.208,0,0,1-.15-0.056,0.2,0.2,0,0,1-.04-0.229,23.338,23.338,0,0,0,1.33-2.91Zm-1.62-2.485-0.09-.471c-0.03-.1-0.05-0.194-0.07-0.289a2.124,2.124,0,0,1-.07-0.237l-0.12-.39-0.03-.074a8.793,8.793,0,0,0-1.77-2.984l-0.07-.078c-0.12-.13-0.24-0.259-0.38-0.386a1.8,1.8,0,0,0-.14-0.132l-0.13-.122c-0.08-.071-0.15-0.141-0.23-0.21-0.2-.17-0.41-0.338-0.63-0.5-0.08-.068-0.2-0.172-0.38-0.308-0.01,0-.01,0-0.01,0a8.13,8.13,0,0,0-.71-0.477,0.225,0.225,0,0,1-.12-0.187,0.236,0.236,0,0,1,.1-0.181,3.681,3.681,0,0,1,3.84.493,0.329,0.329,0,0,0,.07.048,4.834,4.834,0,0,1,2.25,3.295,7.006,7.006,0,0,1,.08,1.859v0.067a13.359,13.359,0,0,1-.87,3.566,0.206,0.206,0,0,1-.19.129l-0.04,0a0.211,0.211,0,0,1-.16-0.2,10.89,10.89,0,0,0-.12-2.152Zm-4.4-5.017a9.443,9.443,0,0,1,.92.775c0.05,0.047.09,0.1,0.14,0.143l0.08,0.091c0.24,0.24.41,0.428,0.56,0.609,0.05,0.064.09,0.127,0.14,0.19l0.07,0.091c0.17,0.236.31,0.449,0.43,0.65,0.05,0.087.11,0.175,0.15,0.264a6.719,6.719,0,0,1,.39.819l0.05,0.128a9.307,9.307,0,0,1,.36,4.861,14.791,14.791,0,0,1-.95,3.243,0.193,0.193,0,0,1-.18.123h-0.02a0.213,0.213,0,0,1-.18-0.146c-0.12-.451-0.25-0.876-0.39-1.289l-0.07-.2q-0.18-.564-0.39-1.081l-0.06-.176c-1.64-4.136-3.72-6-5.19-6.84a2.123,2.123,0,0,1-1.05-2.018,1.755,1.755,0,0,1,1.18-1.534,2.917,2.917,0,0,1,2.03.112s0.01,0,.01,0c0.16,0.061.29,0.115,0.41,0.174l0.18,0.09c0.1,0.052.2,0.1,0.29,0.157l0.11,0.062a7.377,7.377,0,0,1,.88.619l0.05,0.04Zm1.79,14.481q0.645,0.167,1.26.34l0.27,0.079c0.32,0.094.64,0.188,0.94,0.285l0.21,0.069c0.34,0.109.66,0.214,0.96,0.321l0.15,0.056q0.51,0.183.99,0.374a0.157,0.157,0,0,1,.15.163,3.751,3.751,0,0,1-.16,1.863c-0.49,1.358-4.11,4.268-7.05,6.471a0.2,0.2,0,0,1-.2.024,0.67,0.67,0,0,0-.14-0.049,5.5,5.5,0,0,1-3.72-1.951,0.536,0.536,0,0,0-.35-0.223,0.556,0.556,0,0,0-.41.091,0.516,0.516,0,0,0-.22.353,0.537,0.537,0,0,0,.09.408,6.163,6.163,0,0,0,3.29,2.162,0.186,0.186,0,0,1,.14.158,0.176,0.176,0,0,1-.08.2c-2.33,1.691-4.97,3.5-7.64,5.243a0.2,0.2,0,0,1-.24-0.018,0.561,0.561,0,0,0-.3-0.143,3.521,3.521,0,0,1-2.37-1.238,0.532,0.532,0,0,0-.35-0.223,0.556,0.556,0,0,0-.41.093,0.517,0.517,0,0,0-.22.352,0.537,0.537,0,0,0,.09.408,4.166,4.166,0,0,0,2.12,1.461,0.194,0.194,0,0,1,.14.165,0.211,0.211,0,0,1-.09.194,79.852,79.852,0,0,1-11.88,6.6,0.19,0.19,0,0,1-.08.015,0.233,0.233,0,0,1-.14-0.044,0.2,0.2,0,0,1-.08-0.188,0.186,0.186,0,0,1,.02-0.069,44.27,44.27,0,0,1,3.14-6.253,0.211,0.211,0,0,1,.15-0.1,0.232,0.232,0,0,1,.17.056c0,0.006.04,0.046,0.04,0.053a10.077,10.077,0,0,0,1.67,1.006,0.565,0.565,0,0,0,.73-0.258,0.548,0.548,0,0,0,.02-0.417,0.554,0.554,0,0,0-.28-0.31,9.764,9.764,0,0,1-1.49-.889,0.435,0.435,0,0,0-.17-0.078,0.214,0.214,0,0,1-.13-0.119,0.183,0.183,0,0,1,.02-0.175c1.68-2.821,3.75-6,5.97-9.184a0.192,0.192,0,0,1,.19-0.084,0.208,0.208,0,0,1,.16.126,4.133,4.133,0,0,0,1.38,1.888,0.563,0.563,0,0,0,.76-0.131,0.557,0.557,0,0,0-.13-0.762,3.49,3.49,0,0,1-1.24-2.374c0-.007-0.03-0.079-0.03-0.087a0.174,0.174,0,0,1,.03-0.169c1.66-2.334,3.3-4.516,4.73-6.311a0.215,0.215,0,0,1,.2-0.071,0.2,0.2,0,0,1,.15.141,6.145,6.145,0,0,0,2.17,3.3,0.561,0.561,0,0,0,.76-0.131,0.555,0.555,0,0,0-.13-0.761,5.5,5.5,0,0,1-1.96-3.714c0-.008-0.02-0.052-0.02-0.06a0.194,0.194,0,0,1,.04-0.179c1.83-2.17,3.09-3.392,3.76-3.632a3.853,3.853,0,0,1,2.43-.024,0.19,0.19,0,0,1,.13.111,25.284,25.284,0,0,1,.91,2.425,1,1,0,0,1,.05.172c0.12,0.361.22,0.738,0.33,1.122l0.07,0.254c0.12,0.457.23,0.922,0.33,1.4A0.529,0.529,0,0,0,1459.72,672.451Zm15.08,4.843a1.937,1.937,0,0,1-1.64.832,3.091,3.091,0,0,1-2.45-1.293,12.566,12.566,0,0,0-5.39-3.7,0.219,0.219,0,0,1-.03-0.016l-0.03-.012c-0.26-.109-0.5-0.2-0.74-0.29-0.2-.079-0.41-0.158-0.62-0.234s-0.43-.156-0.66-0.232c-0.31-.106-0.63-0.207-0.96-0.308l-0.17-.054c-0.06-.021-0.12-0.041-0.19-0.062a0.2,0.2,0,0,1-.01-0.376l0.19-.073a0.5,0.5,0,0,1,.1-0.016c2.14-.784,6.32-1.739,9.91.756,0.18,0.128.36,0.274,0.54,0.42l0.1,0.073c0.05,0.041.11,0.082,0.16,0.129a11.249,11.249,0,0,1,1.56,1.68l0.1,0.127A2.311,2.311,0,0,1,1474.8,677.294Z" transform="translate(-1420 -641)"/>
</svg>
