<svg width="49" height="47" viewBox="0 0 49 47" xmlns="http://www.w3.org/2000/svg">
<path fill-rule="evenodd" clip-rule="evenodd" d="M11.7988 46.2643C11.5539 46.2643 11.3094 46.1712 11.1225 45.9846L0.280755 35.1575C0.100938 34.9776 -0.000372809 34.7339 1.03095e-06 34.4793C0.000374871 34.2251 0.101686 33.9814 0.281876 33.8019L3.23559 30.8628C4.13916 29.9581 5.35675 29.499 6.60538 29.5637C8.18859 26.2006 11.1281 23.9 14.8343 23.122V1.67969C14.8343 1.15108 15.2631 0.722656 15.7914 0.722656H40.3882C40.9164 0.722656 41.3452 1.15108 41.3452 1.67969V20.3668L42.2712 19.4091C43.6376 17.824 46.0399 17.6296 47.6429 18.9806C49.2564 20.3444 49.4602 22.7647 48.0979 24.3767L39.5242 34.6722C39.5029 34.698 39.4805 34.7223 39.4566 34.7455C37.8401 36.3197 35.7066 37.1867 33.4493 37.1867H20.8487C19.689 37.1867 18.5896 37.6308 17.7533 38.4368L16.6994 39.4544C16.8325 40.7785 16.3716 42.0888 15.4142 43.0455L12.4754 45.9843C12.2885 46.1708 12.0436 46.2643 11.7988 46.2643ZM39.4311 22.346V2.63672H16.7488V22.8633C17.0662 22.8424 17.3854 22.8308 17.7058 22.8308C19.3279 22.8308 20.9066 23.1389 22.3975 23.7467C22.4644 23.7737 22.531 23.7879 22.5923 23.7879H33.6886C34.8621 23.7879 35.9485 24.3337 36.6614 25.2096L39.4311 22.346ZM21.6786 25.5206C19.8008 24.7554 17.8647 24.5909 15.9286 24.8709C12.5543 25.3614 9.94265 27.1995 8.48056 30.0833C8.86599 30.2893 9.22226 30.5503 9.53628 30.8643L15.4145 36.7425C15.6366 36.9642 15.8332 37.2069 16.0022 37.4667L16.4243 37.0592C17.6198 35.9066 19.1907 35.2726 20.8487 35.2726H33.4493C35.1888 35.2726 36.8337 34.6109 38.0864 33.4079L46.6313 23.1467C47.3169 22.3355 47.2149 21.1254 46.4085 20.4439C45.6029 19.765 44.392 19.8666 43.7101 20.6719C43.6967 20.688 43.6821 20.7037 43.6675 20.719C43.4671 20.9265 37.6823 26.9094 37.4827 27.1139C37.5044 27.2795 37.5167 27.4474 37.5167 27.6164C37.5167 29.7271 35.7997 31.4445 33.6886 31.4445H25.3621C24.8338 31.4445 24.405 31.0161 24.405 30.4874C24.405 29.9588 24.8338 29.5304 25.3621 29.5304H33.6886C34.7439 29.5304 35.6027 28.6717 35.6027 27.6164C35.6027 26.5487 34.7264 25.7023 33.6886 25.7023H22.5923C22.2846 25.7023 21.9769 25.641 21.6786 25.5206ZM8.18261 32.218C7.20053 31.2351 5.59339 31.2105 4.58777 32.2176L2.31258 34.4816L11.798 43.9543L14.0612 41.6914C15.0646 40.6892 15.0471 39.0802 14.0616 38.0966L8.18261 32.218ZM22.3953 8.4751V10.3892C22.3953 13.5616 24.965 16.1313 28.1374 16.1313C31.3039 16.1313 33.88 13.5556 33.88 10.3892V8.4751C34.4086 8.4751 34.837 8.04668 34.837 7.51807C34.837 6.98946 34.4086 6.56104 33.88 6.56104H31.9659C31.4373 6.56104 31.0089 6.98946 31.0089 7.51807C31.0089 8.04668 31.4373 8.4751 31.9659 8.4751V10.3892C31.9659 12.4999 30.2485 14.2173 28.1374 14.2173C26.0234 14.2173 24.3093 12.504 24.3093 10.3892V8.4751C24.8379 8.4751 25.2664 8.04668 25.2664 7.51807C25.2664 6.98946 24.8379 6.56104 24.3093 6.56104H22.3953C21.8667 6.56104 21.4382 6.98946 21.4382 7.51807C21.4382 8.04668 21.8667 8.4751 22.3953 8.4751ZM22.0468 31.0005C22.4203 30.6262 22.4203 30.0202 22.0468 29.646C21.6726 29.2729 21.067 29.2729 20.6928 29.646C20.3193 30.0202 20.3193 30.6262 20.6928 31.0005C21.067 31.3735 21.6726 31.3735 22.0468 31.0005Z"/>
</svg>
