<svg width="30" height="30" viewBox="0 0 30 30" xmlns="http://www.w3.org/2000/svg">
<path fill-rule="evenodd" clip-rule="evenodd" d="M15 30C23.2843 30 30 23.2843 30 15C30 6.71573 23.2843 0 15 0C6.71573 0 0 6.71573 0 15C0 23.2843 6.71573 30 15 30ZM9.21667 16.0956L5.30004 14.7128C4.90226 14.5745 4.89886 14.0407 5.29664 13.896L21.3711 8.03031C21.7111 7.9049 22.0647 8.18789 21.9899 8.52555L19.1034 21.6526C19.0354 21.9613 18.6512 22.1028 18.3793 21.9163L14.4422 19.2118C14.2008 19.0478 13.8745 19.0574 13.6467 19.2343L11.464 20.9162C11.2124 21.1123 10.8316 21.003 10.733 20.7072L9.21667 16.0956ZM18.1447 10.9021L10.4882 15.3624C10.1958 15.5329 10.0598 15.8673 10.155 16.1793L10.9812 18.9288C11.0424 19.125 11.3416 19.1057 11.3688 18.9031L11.583 17.3948C11.6238 17.1118 11.7666 16.8514 11.9875 16.6552L18.3045 11.1014C18.4234 10.9985 18.2807 10.8217 18.1447 10.9021Z"/>
</svg>
