<svg width="60" height="60" viewBox="0 0 60 60" fill="none" xmlns="http://www.w3.org/2000/svg">
<path fill-rule="evenodd" clip-rule="evenodd" d="M30 60C46.5685 60 60 46.5685 60 30C60 13.4315 46.5685 0 30 0C13.4315 0 0 13.4315 0 30C0 46.5685 13.4315 60 30 60ZM31.3477 9.04364C33.1777 8.88395 34.3712 9.04364 34.5303 11.5987C34.5566 12.0211 34.5677 12.4435 34.5786 12.8612C34.634 14.9701 34.6862 16.9596 36.6785 18.2258C39.5428 16.9483 47.897 16.1498 51.3183 19.8227C54.7396 23.4956 54.5009 29.6436 52.7505 33.556C51 37.4684 43.9984 48.966 30.5521 51.6009C17.1058 54.2358 14.4801 43.0575 14.321 40.5025C13.6049 42.0195 12.0137 43.4567 9.94499 42.818C7.87633 42.1792 6.20548 41.0614 7.39895 38.666C8.59241 36.2707 10.3428 33.3963 12.1728 32.3583C14.0028 31.3203 15.9123 31.1606 17.5831 31.9591C19.0063 32.6392 19.679 32.74 20.4372 32.8536C20.5692 32.8734 20.7037 32.8936 20.8453 32.9172C21.8 33.0769 23.0731 33.6358 24.0278 34.2746C24.9826 34.9133 26.6534 35.4723 28.0856 34.5141C29.5178 33.556 31.7455 32.0389 31.5864 29.2444C31.5601 28.7817 31.5272 28.3235 31.495 27.8747C31.3326 25.6124 31.1875 23.5902 31.9842 22.4576C32.3821 21.8987 32.6208 21.4994 31.9842 20.4615C31.3477 19.4235 28.8017 14.4731 28.7221 11.2793C28.7221 9.92196 29.0404 9.20331 31.3477 9.04364Z" fill="#3CB44A"/>
</svg>
