<svg width="30" height="30" viewBox="0 0 30 30" xmlns="http://www.w3.org/2000/svg">
<path fill-rule="evenodd" clip-rule="evenodd" d="M15 30C12.0333 30 9.13319 29.1203 6.66645 27.4721C4.19972 25.8238 2.27713 23.4812 1.14181 20.7403C0.00649929 17.9994 -0.290551 14.9834 0.288228 12.0737C0.867006 9.16394 2.29562 6.49119 4.3934 4.3934C6.49119 2.29562 9.16394 0.867006 12.0737 0.288228C14.9834 -0.290551 17.9994 0.00649929 20.7403 1.14181C23.4812 2.27713 25.8238 4.19972 27.4721 6.66645C29.1203 9.13319 30 12.0333 30 15C30 18.9783 28.4197 22.7936 25.6066 25.6066C22.7936 28.4197 18.9783 30 15 30ZM15 28C16.7775 27.9992 18.5359 27.6326 20.1656 26.9229C21.7953 26.2133 23.2615 25.1758 24.473 23.875C23.8204 21.8765 22.5528 20.1355 20.8514 18.9005C19.15 17.6656 17.1018 17 14.9995 16.9988C12.8972 16.9975 10.8482 17.6608 9.1454 18.8937C7.44257 20.1267 6.17298 21.8663 5.51801 23.864C6.7295 25.1679 8.19674 26.2081 9.82815 26.9198C11.4596 27.6314 13.2201 27.9991 15 28ZM19 11C19 10.2089 18.7654 9.43552 18.3259 8.77773C17.8864 8.11993 17.2616 7.60724 16.5307 7.30449C15.7998 7.00174 14.9956 6.92252 14.2196 7.07687C13.4437 7.23121 12.731 7.61217 12.1716 8.17158C11.6122 8.73099 11.2312 9.44372 11.0769 10.2196C10.9225 10.9956 11.0017 11.7998 11.3045 12.5307C11.6072 13.2616 12.1199 13.8864 12.7777 14.3259C13.4355 14.7654 14.2089 15 15 15C16.0609 15 17.0783 14.5786 17.8284 13.8284C18.5786 13.0783 19 12.0609 19 11ZM15 2.00001C12.664 1.99666 10.3703 2.62377 8.36091 3.81519C6.35152 5.00661 4.70087 6.7182 3.58305 8.76944C2.46522 10.8207 1.92164 13.1356 2.00963 15.47C2.09763 17.8043 2.81393 20.0717 4.08301 22.033C4.77012 20.5324 5.75869 19.1893 6.98721 18.0873C8.21573 16.9852 9.65791 16.1477 11.224 15.627C10.2604 14.8463 9.56241 13.7863 9.22599 12.5926C8.88958 11.399 8.93129 10.1305 9.34539 8.96151C9.75949 7.79255 10.5256 6.78063 11.5384 6.06495C12.5512 5.34928 13.7609 4.965 15.001 4.965C16.2411 4.965 17.4508 5.34928 18.4636 6.06495C19.4764 6.78063 20.2425 7.79255 20.6566 8.96151C21.0707 10.1305 21.1124 11.399 20.776 12.5926C20.4396 13.7863 19.7416 14.8463 18.778 15.627C20.344 16.1466 21.7864 16.983 23.0152 18.084C24.2441 19.185 25.2332 20.5272 25.921 22.027C27.1887 20.0655 27.9037 17.7984 27.9907 15.4646C28.0777 13.1307 27.5335 10.8167 26.4153 8.76625C25.2972 6.71584 23.6467 5.00506 21.6376 3.81423C19.6286 2.62341 17.3355 1.99664 15 2.00001Z"/>
</svg>
