<svg width="30" height="30" viewBox="0 0 30 30" xmlns="http://www.w3.org/2000/svg">
<path fill-rule="evenodd" clip-rule="evenodd" d="M15 30C23.2843 30 30 23.2843 30 15C30 6.71573 23.2843 0 15 0C6.71573 0 0 6.71573 0 15C0 23.2843 6.71573 30 15 30ZM14.8269 7.01438C18.8354 7.03329 20.6352 8.34602 21.0818 8.75658C22.5615 10.045 23.3793 12.9027 22.8278 17.4162C22.3426 21.4042 19.5721 22.1117 18.6427 22.349L18.6426 22.349L18.6424 22.3491C18.5515 22.3723 18.4783 22.391 18.4265 22.4078C18.1763 22.4889 15.9622 23.0453 13.0862 22.8022C12.7688 23.1722 12.3464 23.6584 12.0424 23.988C11.9507 24.0872 11.8648 24.1852 11.7827 24.2788L11.7826 24.2788L11.7826 24.2789L11.7824 24.2791L11.7824 24.2792C11.3663 24.7538 11.048 25.1169 10.5627 24.9658C10.0812 24.8172 10.1081 24.0825 10.1081 24.0825L10.1108 22.2701H10.1081C5.90044 21.0816 5.96231 16.7032 6.01074 14.364C6.05647 12.0249 6.50844 10.1395 7.79172 8.85112C10.0973 6.72807 14.8269 7.01438 14.8269 7.01438ZM18.1654 21.0865C18.9553 20.9025 21.1614 20.3885 21.5688 17.0921C22.0369 13.3214 21.3993 10.7473 20.1483 9.66955C19.7716 9.32651 18.1467 8.3028 14.7542 8.28659C14.7542 8.28659 10.7376 8.02189 8.78713 9.7938C7.70294 10.8688 7.33706 12.4679 7.2967 14.4207L7.2923 14.6197C7.24678 16.6168 7.16653 20.1365 10.6058 21.0951C10.6058 21.0951 10.5923 23.8637 10.5896 24.1068C10.5896 24.277 10.6165 24.3931 10.7134 24.4174C10.7833 24.4364 10.8883 24.3985 10.977 24.3094C11.5447 23.7341 13.366 21.53 13.366 21.53C15.8088 21.6921 17.7512 21.2059 17.9611 21.1383C18.0094 21.1229 18.0789 21.1067 18.1654 21.0865ZM16.476 14.4874C16.355 14.4874 16.2554 14.3929 16.25 14.2713C16.2124 13.4988 15.8492 13.1207 15.1093 13.0802C14.9856 13.0748 14.8887 12.9667 14.8941 12.8398C14.8995 12.7155 15.0071 12.6183 15.1336 12.6237C16.1128 12.675 16.6563 13.2368 16.7047 14.247C16.7101 14.3713 16.6132 14.4793 16.4895 14.4847C16.4841 14.4874 16.4787 14.4874 16.476 14.4874ZM17.6355 14.879H17.6409C17.7647 14.879 17.8642 14.7818 17.8669 14.6575C17.8884 13.7689 17.6194 13.0126 17.0706 12.4129C16.5218 11.8133 15.755 11.473 14.7919 11.4054C14.6654 11.3973 14.5578 11.4919 14.5498 11.6161C14.5417 11.7404 14.6359 11.8511 14.7596 11.8592C15.6151 11.9213 16.2635 12.2023 16.737 12.7209C17.2105 13.2395 17.4338 13.8688 17.4149 14.6467C17.4123 14.771 17.5091 14.8763 17.6355 14.879ZM18.8327 15.3491C18.709 15.3491 18.6067 15.2491 18.6067 15.1222C18.596 13.75 18.187 12.6561 17.3853 11.8728C16.5836 11.0895 15.5721 10.687 14.3749 10.6789C14.2485 10.6789 14.1489 10.5763 14.1489 10.4493C14.1489 10.3251 14.2511 10.2224 14.3749 10.2224H14.3776C15.6931 10.2305 16.8123 10.6762 17.7001 11.5459C18.5906 12.4184 19.0453 13.6204 19.056 15.1195C19.0614 15.2464 18.9592 15.3491 18.8327 15.3491ZM15.6555 17.1236C15.486 17.337 15.1658 17.3099 15.1658 17.3099C12.836 16.713 12.2119 14.3442 12.2119 14.3442C12.2119 14.3442 12.185 14.0254 12.3975 13.8526L12.8172 13.5176C13.0271 13.3556 13.1589 12.9639 12.9463 12.5804C12.828 12.367 12.5912 11.9861 12.4164 11.7457C12.2307 11.4918 11.8003 10.9732 11.7976 10.9705C11.5904 10.722 11.2837 10.6653 10.9609 10.8328C10.9609 10.8328 10.9582 10.8355 10.9555 10.8355C10.6488 11.0083 10.3637 11.2406 10.0973 11.535L10.0919 11.5404C9.89285 11.7808 9.77717 12.0185 9.75026 12.2508C9.74488 12.2778 9.74219 12.3129 9.74488 12.3535C9.74219 12.4561 9.75834 12.556 9.79062 12.656L9.80138 12.6641C9.90092 13.0233 10.1538 13.6203 10.6999 14.617C11.0551 15.2625 11.4183 15.8027 11.7788 16.2565C11.9671 16.4969 12.1823 16.7427 12.4298 16.9939L12.454 17.0182L12.4782 17.0425L12.5024 17.0668L12.5267 17.0912C12.7769 17.3397 13.0217 17.5557 13.2611 17.7448C13.7131 18.1068 14.2484 18.4714 14.8941 18.828C15.8868 19.3763 16.4814 19.6302 16.8392 19.7301L16.8473 19.7409C16.9468 19.7733 17.0464 19.7868 17.1486 19.7868C17.1889 19.7895 17.2239 19.7868 17.2508 19.7814C17.4822 19.7544 17.7189 19.6383 17.9584 19.4384L17.9638 19.433C18.257 19.1656 18.4884 18.8766 18.6605 18.5713C18.6605 18.5713 18.6614 18.5705 18.6622 18.5692C18.6628 18.5682 18.6632 18.5671 18.6632 18.5659C18.83 18.2418 18.7735 17.9339 18.526 17.7259C18.526 17.7259 18.0068 17.291 17.7539 17.1047C17.5172 16.9291 17.1351 16.6941 16.9226 16.5725C16.5406 16.3592 16.1505 16.4915 15.9891 16.7022L15.6555 17.1236Z"/>
</svg>
