<svg xmlns="http://www.w3.org/2000/svg" width="70" height="70" viewBox="0 0 70 70">
  <defs>
    
  </defs>
  <path id="vitamins" class="cls-1" d="M1639.93,710.988a35,35,0,1,1,34.06-35.916A35,35,0,0,1,1639.93,710.988Zm33.06-35.889a34,34,0,1,0-33.09,34.889A34,34,0,0,0,1672.99,675.1Zm-43.63-15.3h0a0.578,0.578,0,0,1-.11-0.031v0a0.427,0.427,0,0,1-.1-0.052,0.62,0.62,0,0,1-.09-0.071,0.763,0.763,0,0,1-.06-0.084,0.383,0.383,0,0,1-.05-0.1c-0.01,0-.01,0-0.01,0l-0.03-.1v-0.007a0.577,0.577,0,0,1,0-.214v-0.007c0.01-.032.02-0.067,0.03-0.1l0.06-.1v0a0.852,0.852,0,0,1,.06-0.083,0.7,0.7,0,0,1,.09-0.071s0,0,.01,0a0.267,0.267,0,0,1,.09-0.049,0.422,0.422,0,0,1,.11-0.034h-0.01a0.7,0.7,0,0,1,.12-0.011,0.586,0.586,0,0,1,.11.011,0.577,0.577,0,0,1,.1.033,0.468,0.468,0,0,1,.1.051v0a0.334,0.334,0,0,1,.08.068s0.01,0,.01,0a0.384,0.384,0,0,1,.06.079v0a0.511,0.511,0,0,1,.06.1c0.01,0.038.02,0.074,0.03,0.1a0.463,0.463,0,0,1,.01.114,0.418,0.418,0,0,1-.01.11c-0.01.034-.02,0.07-0.03,0.107s-0.03.067-.05,0.1c-0.01,0-.01,0-0.01.006a0.455,0.455,0,0,1-.06.081,0.676,0.676,0,0,1-.09.069,0.363,0.363,0,0,1-.1.052h0a0.644,0.644,0,0,1-.1.032,0.592,0.592,0,0,1-.11.012,0.586,0.586,0,0,1-.11-0.011m9.2,0h0a0.42,0.42,0,0,1-.1-0.032h-0.01c-0.03-.014-0.06-0.032-0.1-0.052-0.02-.019-0.05-0.043-0.08-0.069a0.514,0.514,0,0,1-.07-0.083,0.438,0.438,0,0,1-.05-0.1,0.207,0.207,0,0,1-.03-0.1v-0.01a0.3,0.3,0,0,1,0-.214v-0.011a0.227,0.227,0,0,1,.03-0.1v0a0.471,0.471,0,0,1,.05-0.1,0.557,0.557,0,0,1,.07-0.082,0.983,0.983,0,0,1,.08-0.069c0.01,0,.01,0,0.01,0a1,1,0,0,1,.09-0.049,0.582,0.582,0,0,1,.11-0.034h0a0.586,0.586,0,0,1,.11-0.011,0.511,0.511,0,0,1,.11.011,0.653,0.653,0,0,1,.11.033,1.011,1.011,0,0,1,.09.05s0,0,.01,0c0.03,0.021.05,0.044,0.08,0.069a0.412,0.412,0,0,1,.07.083,0.512,0.512,0,0,1,.05.1,0.221,0.221,0,0,1,.03.1,0.537,0.537,0,0,1,.02.114,0.485,0.485,0,0,1-.02.11,0.185,0.185,0,0,1-.03.1v0a0.361,0.361,0,0,1-.05.095v0a0.466,0.466,0,0,1-.07.081,0.638,0.638,0,0,1-.08.071c-0.04.021-.07,0.039-0.1,0.052h-0.01a0.42,0.42,0,0,1-.1.032,0.592,0.592,0,0,1-.11.012,0.68,0.68,0,0,1-.11-0.011m-11.91,8.212h0a0.416,0.416,0,0,1-.07-0.084,0.357,0.357,0,0,1-.05-0.1v0a0.2,0.2,0,0,1-.03-0.1s0-.007-0.01-0.01c0-.036-0.01-0.072-0.01-0.108s0.01-.072.01-0.107c0.01,0,.01-0.007.01-0.011a0.213,0.213,0,0,1,.03-0.1,0.272,0.272,0,0,1,.05-0.094v-0.006a0.412,0.412,0,0,1,.07-0.083,0.557,0.557,0,0,1,.4-0.167,0.574,0.574,0,0,1,.4.167,1.016,1.016,0,0,1,.07.083v0a0.414,0.414,0,0,1,.05.095,0.22,0.22,0,0,1,.03.107,0.493,0.493,0,0,1,.02.111,0.483,0.483,0,0,1-.02.111,0.193,0.193,0,0,1-.03.1v0a0.448,0.448,0,0,1-.05.1c-0.02.03-.05,0.059-0.07,0.084a0.578,0.578,0,0,1-.4.166,0.56,0.56,0,0,1-.4-0.166m5.98,0.166a0.566,0.566,0,1,1,0-1.132h8.36a0.566,0.566,0,1,1,0,1.132h-8.36m-5.69,4.4a0.662,0.662,0,0,1-.11-0.034,0.683,0.683,0,0,1-.1-0.052,0.32,0.32,0,0,1-.08-0.07,0.446,0.446,0,0,1-.07-0.084v0a0.272,0.272,0,0,1-.05-0.092v0a0.517,0.517,0,0,1-.04-0.1c0-.036-0.01-0.073-0.01-0.111s0.01-.076.01-0.112a0.576,0.576,0,0,1,.04-0.1,0.26,0.26,0,0,1,.05-0.1v0a0.575,0.575,0,0,1,.07-0.086c0.03-.024.05-0.048,0.08-0.069s0.07-.038.1-0.053a1.148,1.148,0,0,1,.11-0.033,0.689,0.689,0,0,1,.11-0.01,0.588,0.588,0,0,1,.11.012v0c0.03,0.009.07,0.02,0.11,0.034a0.6,0.6,0,0,1,.09.052c0.03,0.022.06,0.045,0.09,0.071s0.05,0.055.07,0.084a0.413,0.413,0,0,1,.05.1,0.221,0.221,0,0,1,.03.1,0.556,0.556,0,0,1,.02.115,0.493,0.493,0,0,1-.02.111,0.2,0.2,0,0,1-.03.1v0a0.355,0.355,0,0,1-.05.094c-0.02.032-.05,0.061-0.07,0.088s-0.05.047-.08,0.067l-0.01,0a0.469,0.469,0,0,1-.1.052,0.65,0.65,0,0,1-.1.033,0.556,0.556,0,0,1-.22,0m5.69,0.032a0.566,0.566,0,1,1,0-1.132h4.61a0.566,0.566,0,1,1,0,1.132h-4.61m8.22-.012h0a0.937,0.937,0,0,1-.11-0.034,0.463,0.463,0,0,1-.09-0.052,0.334,0.334,0,0,1-.08-0.068,0.455,0.455,0,0,1-.08-0.091v0c-0.02-.03-0.03-0.064-0.05-0.1v0q-0.015-.053-0.03-0.111v0a0.638,0.638,0,0,1,0-.225v0c0.01-.038.02-0.075,0.03-0.11v0c0.02-.039.03-0.073,0.05-0.105v0.009a0.668,0.668,0,0,1,.07-0.092,0.76,0.76,0,0,1,.09-0.068v0a0.426,0.426,0,0,1,.1-0.051,0.509,0.509,0,0,1,.11-0.034h-0.01a0.68,0.68,0,0,1,.11-0.011,0.511,0.511,0,0,1,.11.011,0.576,0.576,0,0,1,.11.032h0a0.59,0.59,0,0,1,.1.051v0a0.687,0.687,0,0,1,.09.07,0.662,0.662,0,0,1,.06.083c0.02,0.031.04,0.066,0.06,0.1v0c0.01,0.035.02,0.072,0.03,0.11v0a0.638,0.638,0,0,1,0,.225v0q-0.015.058-.03,0.111v0c-0.02.036-.04,0.071-0.06,0.1a0.426,0.426,0,0,1-.07.086,0.359,0.359,0,0,1-.08.068,0.479,0.479,0,0,1-.1.052,0.511,0.511,0,0,1-.11.033,0.452,0.452,0,0,1-.11.012,0.592,0.592,0,0,1-.11-0.012m-8.22,4.4a0.566,0.566,0,1,1,0-1.132h8.36a0.566,0.566,0,1,1,0,1.132h-8.36m-5.69-.012v0a0.919,0.919,0,0,1-.11-0.033c-0.03-.016-0.07-0.034-0.1-0.054a0.359,0.359,0,0,1-.08-0.068v0a0.611,0.611,0,0,1-.07-0.093v0a0.415,0.415,0,0,1-.05-0.1,0.534,0.534,0,0,1-.04-0.1c0-.036-0.01-0.074-0.01-0.112s0.01-.075.01-0.107,0.02-.073.03-0.1a0.737,0.737,0,0,1,.06-0.1,0.405,0.405,0,0,1,.07-0.087,0.325,0.325,0,0,1,.08-0.065s0,0,.01,0a0.684,0.684,0,0,1,.09-0.051,0.571,0.571,0,0,1,.11-0.032,0.515,0.515,0,0,1,.11-0.012,0.586,0.586,0,0,1,.11.011,0.42,0.42,0,0,1,.1.032l0.01,0a0.578,0.578,0,0,1,.09.05,0.042,0.042,0,0,0,.01,0c0.02,0.017.05,0.039,0.08,0.067a0.811,0.811,0,0,1,.07.086v0a0.485,0.485,0,0,1,.05.1,0.217,0.217,0,0,1,.03.107,0.485,0.485,0,0,1,.02.11,0.509,0.509,0,0,1-.02.113,0.192,0.192,0,0,1-.03.1,0.381,0.381,0,0,1-.05.1,0.714,0.714,0,0,1-.08.091l0.01-.007a0.834,0.834,0,0,1-.08.07,0.93,0.93,0,0,1-.11.054,0.533,0.533,0,0,1-.1.033,0.68,0.68,0,0,1-.11.011,0.525,0.525,0,0,1-.11-0.013m0,4.411h0a0.766,0.766,0,0,1-.11-0.033v0a0.506,0.506,0,0,1-.09-0.05,0.4,0.4,0,0,1-.09-0.071,0.412,0.412,0,0,1-.07-0.083,0.444,0.444,0,0,1-.05-0.1v0a0.668,0.668,0,0,1-.04-0.108c0-.035-0.01-0.072-0.01-0.111a0.559,0.559,0,0,1,.17-0.4,0.334,0.334,0,0,1,.08-0.068,0.683,0.683,0,0,1,.1-0.052s0,0,.01,0a0.421,0.421,0,0,1,.1-0.031,0.511,0.511,0,0,1,.11-0.011,0.567,0.567,0,0,1,.4.164,0.6,0.6,0,0,1,.17.4,0.511,0.511,0,0,1-.02.112,0.242,0.242,0,0,1-.03.107v0a0.366,0.366,0,0,1-.05.1c-0.02.031-.05,0.059-0.07,0.085a0.8,0.8,0,0,1-.09.071,0.513,0.513,0,0,1-.09.051,0.913,0.913,0,0,1-.11.033,0.586,0.586,0,0,1-.11.011,0.511,0.511,0,0,1-.11-0.011m0,4.41h-0.01a0.492,0.492,0,0,1-.1-0.032,0.684,0.684,0,0,1-.09-0.051c-0.01,0-.01,0-0.01,0a0.291,0.291,0,0,1-.08-0.067,0.441,0.441,0,0,1-.07-0.083,0.39,0.39,0,0,1-.05-0.1,0.22,0.22,0,0,1-.03-0.1s0-.007-0.01-0.01c0-.036-0.01-0.072-0.01-0.107s0.01-.071.01-0.107c0.01,0,.01-0.008.01-0.011a0.227,0.227,0,0,1,.03-0.1,0.363,0.363,0,0,1,.05-0.1,0.49,0.49,0,0,1,.07-0.086,0.463,0.463,0,0,1,.08-0.069,0.777,0.777,0,0,1,.1-0.05s0,0,.01,0a0.453,0.453,0,0,1,.09-0.03,0.609,0.609,0,0,1,.12-0.011,0.563,0.563,0,0,1,.4.165c0.02,0.025.05,0.054,0.07,0.083v0a0.372,0.372,0,0,1,.05.1,0.211,0.211,0,0,1,.03.1,0.556,0.556,0,0,1,.02.115,0.485,0.485,0,0,1-.02.11,0.208,0.208,0,0,1-.03.106,0.372,0.372,0,0,1-.05.1v0c-0.02.029-.05,0.058-0.07,0.083s-0.06.049-.08,0.067a0.042,0.042,0,0,0-.01,0,0.427,0.427,0,0,1-.1.052,0.384,0.384,0,0,1-.1.031,0.525,0.525,0,0,1-.11.013,0.515,0.515,0,0,1-.11-0.012m4.86-30.282a0.361,0.361,0,0,0,.36.364h3.72a0.37,0.37,0,0,0,.37-0.364,2.225,2.225,0,0,0-4.45,0m-5.58,3.719a2.227,2.227,0,0,0,2.22,2.223h11.16a2.223,2.223,0,0,0,0-4.446h-11.16a2.227,2.227,0,0,0-2.22,2.223m26.42,38.535h0a1.9,1.9,0,0,0,.66.115,2.925,2.925,0,0,0,2.07-1.087c0.24-.265.5-0.535,0.75-0.8a17.99,17.99,0,0,0,2.85-3.639,11.806,11.806,0,0,0,1.45-5.922,5.7,5.7,0,0,0-1.58-4.1,4.21,4.21,0,0,0-2.99-1.263h0a4.428,4.428,0,0,0-4.55,3.959,0.566,0.566,0,0,1-1.13,0,4.425,4.425,0,0,0-4.54-3.959h-0.01a4.153,4.153,0,0,0-2.94,1.273,5.757,5.757,0,0,0-1.63,4.093c0,5.324,2.93,8.24,4.68,9.982l0.35,0.358a3.012,3.012,0,0,0,2.1,1.105,0.824,0.824,0,0,0,.28-0.058,6.061,6.061,0,0,1,2.18-.4,5.9,5.9,0,0,1,2,.347m-31.98-37.605v32.586a0.37,0.37,0,0,0,.37.364h19.99a0.352,0.352,0,0,0,.31-0.174,0.332,0.332,0,0,0,.06-0.19,0.47,0.47,0,0,0-.04-0.164,13.44,13.44,0,0,1-1.43-6.147l0.01-.217v-0.05a0.388,0.388,0,0,0-.1-0.253,0.382,0.382,0,0,0-.27-0.11h-6.93a0.567,0.567,0,1,1,0-1.133h7.23a0.37,0.37,0,0,0,.35-0.262,6.757,6.757,0,0,1,1.28-2.446,0.348,0.348,0,0,0,.09-0.233,0.34,0.34,0,0,0-.06-0.192,0.36,0.36,0,0,0-.31-0.172,0.315,0.315,0,0,0-.08.011,0.668,0.668,0,0,1-.14.016h-8.36a0.566,0.566,0,1,1,0-1.132h8.36a0.565,0.565,0,0,1,.57.566,0.425,0.425,0,0,1-.01.114,0.2,0.2,0,0,0-.01.075,0.362,0.362,0,0,0,.36.364,0.38,0.38,0,0,0,.25-0.091,5.263,5.263,0,0,1,3.47-1.353h0.01a6.081,6.081,0,0,1,1.31.146,0.3,0.3,0,0,0,.08.009,0.338,0.338,0,0,0,.22-0.08,0.355,0.355,0,0,0,.14-0.284V660.172a0.361,0.361,0,0,0-.36-0.364h-3.82a0.365,0.365,0,0,0-.35.272,3.354,3.354,0,0,1-3.25,2.518h-11.16a3.363,3.363,0,0,1-3.25-2.517,0.356,0.356,0,0,0-.35-0.273h-3.81a0.37,0.37,0,0,0-.37.364m31.59,38.669a4.742,4.742,0,0,0-1.61-.28,4.949,4.949,0,0,0-1.78.33,1.909,1.909,0,0,1-.68.133,4.067,4.067,0,0,1-2.9-1.442l-0.35-.352a21.477,21.477,0,0,1-2.48-2.823,0.37,0.37,0,0,0-.3-0.153H1620.1a0.571,0.571,0,0,1-.57-0.566V659.242a0.571,0.571,0,0,1,.57-0.566h4.74a0.356,0.356,0,0,0,.35-0.273,3.363,3.363,0,0,1,3.25-2.516h1.86a0.37,0.37,0,0,0,.37-0.364,3.355,3.355,0,1,1,6.71,0,0.361,0.361,0,0,0,.36.364h1.86a3.354,3.354,0,0,1,3.25,2.517,0.365,0.365,0,0,0,.35.272h4.75a0.563,0.563,0,0,1,.56.566v21.243a0.366,0.366,0,0,0,.18.311,6.054,6.054,0,0,1,.88.655,0.353,0.353,0,0,0,.24.094,0.371,0.371,0,0,0,.37-0.364v-1.548a4.874,4.874,0,0,1,4.87-4.873,0.566,0.566,0,0,1,0,1.132,3.746,3.746,0,0,0-3.74,3.741v1.538a0.359,0.359,0,0,0,.21.332,0.368,0.368,0,0,0,.15.032,0.335,0.335,0,0,0,.24-0.094,5.89,5.89,0,0,1,3.93-1.492h0.01a5.334,5.334,0,0,1,3.79,1.594,6.835,6.835,0,0,1,1.91,4.9,12.911,12.911,0,0,1-1.57,6.444,18.619,18.619,0,0,1-3.04,3.9l-0.06.061c-0.24.249-.46,0.484-0.67,0.715a3.945,3.945,0,0,1-2.91,1.461,3.111,3.111,0,0,1-1.05-.183" transform="translate(-1604 -641)"/>
</svg>
