<svg width="30" height="30" viewBox="0 0 30 30" xmlns="http://www.w3.org/2000/svg">
<path fill-rule="evenodd" clip-rule="evenodd" d="M15 30C23.2843 30 30 23.2843 30 15C30 6.71573 23.2843 0 15 0C6.71573 0 0 6.71573 0 15C0 23.2843 6.71573 30 15 30ZM12.0532 10.2227C12.4899 10.0025 13.2662 9.9925 14.1783 10.0025C14.8866 10.0075 15.0904 10.0526 15.3669 10.1226C16.0124 10.2842 15.9922 10.795 15.9485 11.9031C15.9353 12.2359 15.92 12.6227 15.92 13.07C15.92 13.1688 15.9173 13.2742 15.9145 13.3827C15.8996 13.9501 15.8826 14.6028 16.2451 14.8465C16.4295 14.9716 16.8904 14.8615 18.0257 12.8699C18.5642 11.9241 18.9717 10.8132 18.9717 10.8132C18.9717 10.8132 19.0591 10.613 19.1949 10.5279C19.3356 10.4429 19.5248 10.4679 19.5248 10.4679L22.0817 10.4529C22.0817 10.4529 22.8482 10.3578 22.9744 10.7131C23.1054 11.0934 22.6881 11.9691 21.645 13.4053C20.6504 14.7703 20.1683 15.2709 20.2157 15.7149C20.2502 16.0376 20.5644 16.3303 21.1647 16.9031C22.4241 18.1093 22.7578 18.7435 22.8346 18.8894C22.8406 18.9009 22.8451 18.9093 22.8482 18.9148C23.411 19.8806 22.2272 19.9556 22.2272 19.9556L19.9566 19.9907C19.9566 19.9907 19.4666 20.0908 18.8213 19.6354C18.4849 19.3974 18.1568 19.0086 17.8444 18.6383C17.3684 18.0741 16.9286 17.5529 16.5508 17.6738C15.92 17.8839 15.9394 19.2901 15.9394 19.2901C15.9394 19.2901 15.9443 19.5903 15.7987 19.7505C15.6435 19.9206 15.3378 19.9556 15.3378 19.9556H14.319C14.319 19.9556 12.0775 20.0958 10.1029 17.974C7.9487 15.6621 6.04684 11.0734 6.04684 11.0734C6.04684 11.0734 5.93525 10.7781 6.05654 10.628C6.18754 10.4679 6.55142 10.4529 6.55142 10.4529L8.98211 10.4379C8.98211 10.4379 9.21014 10.4779 9.3751 10.603C9.51095 10.7031 9.58372 10.8932 9.58372 10.8932C9.58372 10.8932 9.97671 11.9191 10.4958 12.8498C11.5147 14.6563 11.9853 15.0516 12.3298 14.8565C12.8295 14.5712 12.684 12.2994 12.684 12.2994C12.684 12.2994 12.6937 11.4737 12.4317 11.1084C12.2279 10.8232 11.8446 10.7381 11.6748 10.7131C11.539 10.6981 11.7621 10.3678 12.0532 10.2227Z"/>
</svg>
