<svg width="70" height="70" viewBox="0 0 70 70" xmlns="http://www.w3.org/2000/svg">
<path fill-rule="evenodd" clip-rule="evenodd" d="M59.7382 51.3419C59.7027 51.4245 59.6622 51.5049 59.6168 51.5826C59.3903 51.9652 59.0761 52.2906 58.6991 52.533C58.3221 52.7753 57.8927 52.928 57.445 52.9788C57.3264 52.9926 57.2071 52.9996 57.0876 53C56.4312 53.0002 55.794 52.7828 55.2792 52.383C54.7643 51.9831 54.402 51.4243 54.251 50.797C54.2309 50.7109 54.2154 50.6239 54.2045 50.5362L50.2037 19.0654C50.1567 18.7118 50.2274 18.3527 50.4053 18.0418C50.5832 17.7309 50.8588 17.4849 51.1909 17.3404C51.4284 17.2295 51.688 17.1716 51.9511 17.171C52.1868 17.1711 52.42 17.2185 52.6363 17.3103C52.8527 17.4021 53.0477 17.5363 53.2094 17.7048L53.2945 17.7917C54.032 18.544 54.6733 19.3819 55.2041 20.2867C56.0614 21.7445 56.612 23.3564 56.8233 25.027L59.9765 49.8543C60.0319 50.2701 59.9892 50.693 59.8517 51.0901C59.8192 51.1763 59.7813 51.2604 59.7382 51.3419ZM57.3554 38.3879L55.6784 25.1552C55.4873 23.6275 54.9857 22.153 54.2033 20.8193C53.7183 19.9924 53.1323 19.2268 52.4583 18.5394L52.3743 18.4536C52.3212 18.3959 52.2565 18.3497 52.1842 18.3181C52.1119 18.2864 52.0336 18.27 51.9545 18.2698C51.864 18.2697 51.7748 18.2899 51.6935 18.3288C51.5768 18.3771 51.4799 18.4624 51.4182 18.571C51.3565 18.6797 51.3336 18.8054 51.3531 18.9283L53.8788 38.8046L53.922 39.1957L54.3134 39.1489L57.0139 38.8291L57.4087 38.7823L57.3554 38.3879ZM57.5903 40.2543L57.5415 39.8688L57.15 39.9156L54.4496 40.2365L54.0547 40.2833L54.1046 40.6722L55.3403 50.4014C55.3955 50.8166 55.603 51.1977 55.9238 51.4734C56.2446 51.7491 56.6568 51.9004 57.0831 51.8991C57.1546 51.8991 57.2272 51.899 57.2987 51.8857C57.6111 51.8493 57.9078 51.7312 58.1577 51.5436C58.4076 51.3559 58.6016 51.1058 58.7193 50.8193C58.828 50.5549 58.867 50.2678 58.8327 49.9846L57.5903 40.2543ZM35.5247 50.2075C32.2017 50.2074 28.9817 49.0741 26.415 47.0012C23.8484 44.9283 22.0942 42.0445 21.4523 38.8425C20.8103 35.6404 21.3204 32.3187 22.8954 29.445C24.4704 26.5713 27.0126 24.3239 30.0876 23.0866C33.1626 21.8494 36.5797 21.6991 39.7549 22.6615C42.9302 23.6239 45.6667 25.6392 47.497 28.3632C49.3272 31.0872 50.1375 34.3507 49.7895 37.5963C49.4415 40.8419 47.9568 43.8682 45.5891 46.158C42.9058 48.7533 39.2908 50.2079 35.5247 50.2075ZM44.7767 27.3136C43.2693 25.7949 41.4021 24.6669 39.3421 24.0306C37.2821 23.3942 35.0936 23.2694 32.9724 23.6673C30.8512 24.0652 28.8636 24.9733 27.1874 26.3105C25.5112 27.6476 24.1987 29.3721 23.3674 31.3295C22.5361 33.2868 22.2119 35.4161 22.4239 37.5267C22.6358 39.6373 23.3773 41.6633 24.5819 43.4235C25.7865 45.1837 27.4167 46.6231 29.3266 47.613C31.2365 48.6028 33.3664 49.1121 35.5258 49.0954C38.1204 49.1518 40.672 48.4386 42.8474 47.0488C45.0228 45.659 46.721 43.6573 47.7201 41.3051C48.7192 38.9528 48.9729 36.3594 48.448 33.8633C47.9231 31.3673 46.6429 29.0847 44.7767 27.3136ZM39.2884 45.1016C37.9875 45.6502 36.5785 45.9075 35.1638 45.8549C33.749 45.8023 32.364 45.441 31.109 44.7974C29.8541 44.1538 28.7608 43.244 27.9084 42.1338C27.056 41.0237 26.466 39.7411 26.181 38.3792C25.8961 37.0172 25.9233 35.6101 26.2609 34.2598C26.5984 32.9095 27.2379 31.6499 28.1327 30.5725C29.0275 29.495 30.1552 28.6266 31.4342 28.0304C32.7132 27.4342 34.1113 27.125 35.527 27.1254C36.0307 27.124 36.5337 27.1612 37.0316 27.2368C37.1068 27.2473 37.1791 27.2724 37.2444 27.3107C37.3096 27.349 37.3665 27.3996 37.4116 27.4596C37.4564 27.5212 37.4874 27.5915 37.5024 27.6658C37.518 27.7393 37.518 27.8152 37.5024 27.8887C37.4726 28.014 37.4001 28.1255 37.2969 28.2047C37.1937 28.284 37.0661 28.3262 36.9351 28.3244C36.9039 28.3244 36.8729 28.3221 36.8421 28.3176C36.4047 28.2508 35.9628 28.2174 35.5202 28.2174C33.8926 28.242 32.3087 28.7384 30.9676 29.6444C29.6264 30.5503 28.5877 31.8253 27.9821 33.3091C27.3765 34.793 27.2309 36.4195 27.5637 37.9843C27.8964 39.5492 28.6926 40.9826 29.8523 42.1044C31.012 43.2262 32.4834 43.9864 34.0817 44.2895C35.6799 44.5926 37.3337 44.425 38.8353 43.8078C40.3369 43.1907 41.6192 42.1515 42.5213 40.8208C43.4233 39.49 43.9048 37.9272 43.9053 36.3286C43.9051 34.97 43.5537 33.6338 42.884 32.4451C42.8143 32.3171 42.7991 32.1672 42.8416 32.0281C42.8841 31.889 42.981 31.7721 43.111 31.703C43.2455 31.6315 43.4033 31.615 43.5501 31.6573C43.697 31.6991 43.8214 31.7955 43.8973 31.9259C44.6574 33.2733 45.0572 34.7881 45.0592 36.3286C45.0925 38.1883 44.5615 40.0156 43.5338 41.5779C42.5062 43.1403 41.0283 44.3669 39.2884 45.1016ZM41.1038 29.6437C41.0006 29.6638 40.8936 29.6534 40.7965 29.6138C40.6993 29.5741 40.6163 29.5069 40.558 29.4209C40.4902 29.3204 40.4599 29.1999 40.4722 29.08C40.4845 28.96 40.5386 28.8479 40.6254 28.7627C40.7122 28.6775 40.8263 28.6242 40.9485 28.6122C41.0706 28.6001 41.1932 28.63 41.2956 28.6965C41.3838 28.753 41.4522 28.8347 41.4918 28.9306C41.5326 29.0258 41.5436 29.1308 41.5234 29.2322C41.5032 29.3336 41.4527 29.4268 41.3784 29.5C41.3035 29.575 41.2075 29.6262 41.1027 29.6471L41.1038 29.6437ZM21.2156 27.6803C20.693 28.2493 20.0044 28.6462 19.2436 28.8168L18.9667 28.8815L18.9406 29.1601L16.9845 49.8866C16.9485 50.2726 16.8326 50.6473 16.644 50.9878C16.4553 51.3283 16.1978 51.6274 15.8873 51.8667C15.3556 52.2833 14.6953 52.5098 14.0151 52.5086C13.8843 52.5077 13.7536 52.4995 13.6237 52.4841C13.2293 52.4396 12.8479 52.3181 12.5021 52.1267C12.1562 51.9353 11.8528 51.678 11.6097 51.3697C11.3682 51.0662 11.1925 50.7173 11.0934 50.3446C10.9942 49.9718 10.9738 49.5831 11.0333 49.2024L14.3396 28.6185L14.385 28.3388L14.1297 28.2096C13.4357 27.8666 12.8672 27.3205 12.5027 26.6466C12.1383 25.9727 11.996 25.2044 12.0953 24.4476L12.9803 17.4853C12.9986 17.3506 13.0664 17.2271 13.1708 17.138C13.2753 17.049 13.4093 17.0005 13.5476 17.0017C13.5718 16.9994 13.5961 16.9994 13.6203 17.0017C13.6961 17.0097 13.7695 17.0328 13.8359 17.0696C13.9669 17.1421 14.0638 17.2621 14.1059 17.4039C14.1254 17.4724 14.1307 17.544 14.1218 17.6145L13.2322 24.5813C13.1567 25.1977 13.305 25.8205 13.651 26.34C13.997 26.8596 14.5184 27.2426 15.1237 27.4218L15.1611 27.4307H15.1963L15.8419 27.5109L16.23 27.5577L16.2787 27.1721L17.4384 18.0235C17.4566 17.8888 17.5243 17.7654 17.6288 17.6763C17.7333 17.5872 17.8674 17.5387 18.0057 17.5399C18.0299 17.5376 18.0541 17.5376 18.0783 17.5399C18.1541 17.5477 18.2275 17.5709 18.2939 17.6079C18.3608 17.6446 18.4195 17.6942 18.4664 17.7538C18.511 17.8094 18.5442 17.873 18.564 17.9411C18.5834 18.0095 18.5888 18.0811 18.5798 18.1516L17.4202 27.317L17.3703 27.7003L17.7674 27.7471L18.4119 27.824H18.4822C19.1128 27.7898 19.7115 27.5405 20.1747 27.1189C20.638 26.6973 20.9367 26.1301 21.0194 25.5151L21.9043 18.5528C21.9225 18.4179 21.9904 18.2943 22.095 18.2052C22.1992 18.1157 22.3333 18.0673 22.4717 18.0692C22.4958 18.067 22.5202 18.067 22.5443 18.0692C22.6201 18.0772 22.6935 18.1003 22.7599 18.1372C22.8266 18.1743 22.8851 18.2238 22.9323 18.2831C22.9773 18.3386 23.0106 18.4024 23.0301 18.4708C23.0495 18.5391 23.0549 18.6106 23.0458 18.681L22.1631 25.6455C22.0672 26.4043 21.736 27.1158 21.2145 27.6836L21.2156 27.6803ZM17.4281 28.8068L16.6589 28.7154L15.8918 28.6241L15.5129 28.5795L15.4527 28.9506L12.1702 49.3629C12.1339 49.5978 12.1474 49.8375 12.2099 50.0671C12.2716 50.297 12.3801 50.5123 12.5287 50.7C12.6793 50.8906 12.8672 51.0498 13.0813 51.1681C13.2959 51.2868 13.5323 51.3625 13.7769 51.3909C13.8522 51.3998 13.9279 51.4043 14.0038 51.4043H14.0106C14.4271 51.405 14.8313 51.2663 15.1566 51.011C15.3486 50.8625 15.5079 50.6773 15.6249 50.4666C15.7419 50.2559 15.8142 50.0241 15.8374 49.7852L17.7663 29.2292L17.8015 28.8514L17.4281 28.8068ZM69 69V1H1V69H69ZM70 0H0V70H70V0Z"/>
</svg>
