<svg width="30" height="30" viewBox="0 0 30 30" xmlns="http://www.w3.org/2000/svg">
<path fill-rule="evenodd" clip-rule="evenodd" d="M15 30C23.2843 30 30 23.2843 30 15C30 6.71573 23.2843 0 15 0C6.71573 0 0 6.71573 0 15C0 23.2843 6.71573 30 15 30ZM15.16 23.52C20.04 23.52 24 19.6 24 14.76C24 9.92 20.04 6 15.16 6C10.28 6 6.32 9.92 6.34 14.78C6.34 16.42 6.8 17.98 7.6 19.3L6 24L10.88 22.42C12.16 23.12 13.62 23.52 15.16 23.52ZM7.74 14.76C7.74 10.7 11.06 7.4 15.16 7.4C19.26 7.4 22.6 10.68 22.6 14.76C22.6 18.84 19.26 22.14 15.18 22.14C13.68 22.14 12.28 21.7 11.1 20.92L8.24 21.82L9.16 19.08C8.26 17.86 7.74 16.38 7.74 14.76ZM19.335 16.5921C19.4783 16.6677 19.5734 16.7178 19.62 16.78C19.68 16.88 19.68 17.3 19.52 17.78C19.34 18.28 18.46 18.76 18.06 18.8C17.9929 18.8067 17.9371 18.8202 17.8803 18.8339C17.5982 18.9018 17.2912 18.9758 15.46 18.26C13.3882 17.4501 12.0259 15.4164 11.7906 15.0652C11.7761 15.0434 11.7658 15.0282 11.76 15.02C11.7553 15.0134 11.7491 15.005 11.7416 14.9946C11.5887 14.7844 10.88 13.8104 10.88 12.8C10.88 11.8138 11.3647 11.2951 11.5933 11.0504C11.6104 11.0321 11.6261 11.0153 11.64 11C11.84 10.8 12.08 10.74 12.22 10.74C12.2927 10.74 12.3708 10.7454 12.4459 10.7506C12.5154 10.7554 12.5823 10.76 12.64 10.76C12.6527 10.76 12.6661 10.7593 12.6802 10.7586C12.7982 10.7527 12.9591 10.7446 13.12 11.12C13.1684 11.2382 13.234 11.4012 13.3054 11.5782C13.4997 12.0602 13.7361 12.6469 13.78 12.72C13.84 12.84 13.88 12.96 13.8 13.1C13.7781 13.1383 13.7592 13.1737 13.7412 13.2073C13.6936 13.2963 13.6526 13.3729 13.58 13.46C13.5499 13.4961 13.518 13.5358 13.4854 13.5764C13.4096 13.6708 13.3299 13.7701 13.26 13.84C13.14 13.94 13.04 14.06 13.16 14.28C13.28 14.48 13.72 15.2 14.36 15.76C15.0774 16.3899 15.703 16.6525 15.9956 16.7752C16.0375 16.7928 16.0725 16.8075 16.1 16.82C16.3 16.92 16.44 16.9 16.56 16.76C16.573 16.7448 16.5895 16.7257 16.6089 16.7033C16.7678 16.519 17.1152 16.1162 17.24 15.92C17.38 15.72 17.52 15.74 17.72 15.82C17.8449 15.8699 18.3049 16.0914 18.6864 16.275C18.9161 16.3856 19.1173 16.4824 19.2 16.52C19.249 16.5467 19.294 16.5704 19.335 16.5921Z"/>
</svg>
