<svg width="86" height="44" viewBox="0 0 86 44" xmlns="http://www.w3.org/2000/svg">
<path d="M45.7 0.899902H29.3L23.2 10.7999L17.1 0.899902H0.9L14.7 21.5999L0 42.9999H16.2L23.2 32.0999L30.3 42.9999H47L32.1 20.9999L45.7 0.899902Z"/>
<path d="M62 13.5C62 12.1 63.3 10.9 67.5 10.9C71.2 10.9 75.1 11.9 79.2 14L83.4 3.7C79 1.2 73.1999 0 67.5999 0C54.5999 0 48 6.4 48 14.2C48 29.9 71.2 25.6 71.2 30.9C71.2 32.3 69.8 33.2 65.7 33.2C61.1 33.2 55.8 31.7 51.8 29.4L47.2 39.7C51.4 42.3 58.5 44 65.5 44C78.5 44 85.0999 37.5 85.0999 29.8C85.1999 14.3 62 18.5 62 13.5Z"/>
</svg>
