<svg width="20" height="20" viewBox="0 0 20 20" fill="none" xmlns="http://www.w3.org/2000/svg">
<path fill-rule="evenodd" clip-rule="evenodd" d="M19.8194 4.2283C19.579 3.98798 19.1898 3.98798 18.9494 4.2283L15.6294 7.54824C15.3153 7.86206 14.8064 7.86206 14.4923 7.54824C14.1795 7.23467 14.1795 6.72623 14.4923 6.41274L17.7959 3.10982C18.0455 2.85999 18.0455 2.45498 17.7959 2.20458C17.5451 1.95508 17.1403 1.95508 16.8907 2.20458L13.5884 5.50717C13.2743 5.82132 12.766 5.82132 12.4519 5.50717C12.1384 5.19372 12.1384 4.68492 12.4519 4.37171L15.7712 1.05209C16.0123 0.811407 16.0123 0.421552 15.7712 0.180543C15.5307 -0.0601809 15.1409 -0.0601809 14.8998 0.180543L11.1651 3.91546C10.2672 4.81395 9.98356 6.07515 10.2743 7.22274L12.7779 9.72652C13.9254 10.0162 15.1872 9.7324 16.0841 8.83463L19.8194 5.09992C20.0605 4.85924 20.0605 4.46898 19.8194 4.2283ZM6.3368 12.4364C6.25182 12.4435 6.16705 12.4472 6.08207 12.4472C5.84959 12.4472 5.62349 12.4134 5.40208 12.3622L0.27893 17.4855C0.0274662 17.7366 0.0274662 18.1445 0.27893 18.3956L1.60485 19.7218C1.85631 19.973 2.26373 19.973 2.5145 19.7218L8.67184 13.5657L7.53074 12.3345L6.3368 12.4364ZM1.19927 0.319824C1.37699 0.319824 1.55005 0.39002 1.67802 0.518038L18.4658 17.3056C18.5926 17.4326 18.6637 17.6051 18.6637 17.7846C18.6637 17.9643 18.5926 18.1366 18.4653 18.2636L17.0878 19.6415C16.9598 19.7685 16.7873 19.8397 16.6071 19.8397H16.5953C16.4111 19.8361 16.2361 19.7578 16.1112 19.6229L8.06788 10.9458L6.22331 11.1033C6.17631 11.1071 6.12919 11.1091 6.08219 11.1091C5.64264 11.1091 5.21881 10.9354 4.90536 10.6216L1.72833 7.44496C-0.0475091 5.66904 -0.504701 2.96338 0.589275 0.702205C0.684585 0.504645 0.870099 0.365846 1.08632 0.329257C1.12344 0.32305 1.16146 0.319824 1.19927 0.319824Z" fill="#C4C4C4"/>
</svg>
