<svg width="17" height="21" viewBox="0 0 17 21" fill="none" xmlns="http://www.w3.org/2000/svg">
<path fill-rule="evenodd" clip-rule="evenodd" d="M15.1786 2.62632C16.1458 2.62632 16.9296 3.44401 16.9879 4.47432H17V5.25001V5.90627C17 6.63077 16.456 7.21877 15.7857 7.21877V18.375C15.7857 19.8247 14.6983 21.0001 13.3571 21.0001H3.64286C2.30168 21.0001 1.21429 19.8247 1.21429 18.375V7.21877C0.544 7.21877 0 6.63077 0 5.90627V5.25001V4.47367H0.0115357C0.0698215 3.44335 0.853036 2.62566 1.82143 2.62566H3.64286V1.96941V1.96876C3.64286 0.881346 4.45825 0 5.46429 0H11.5357C12.5411 0 13.3571 0.881346 13.3571 1.96876V1.97007V2.62632H15.1786ZM5.46429 1.31316C5.12854 1.31316 4.85714 1.6065 4.85714 1.96941V2.62566H12.1429V1.96941C12.1429 1.6065 11.8715 1.31316 11.5357 1.31316H5.46429ZM13.3571 19.6882C14.0262 19.6882 14.5714 19.0989 14.5714 18.3757V7.21943H2.42857V18.3757C2.42857 19.0989 2.97318 19.6882 3.64286 19.6882H13.3571ZM15.7857 5.90627V5.25001V4.59442C15.7857 4.23151 15.5143 3.93817 15.1786 3.93817H1.82143C1.48568 3.93817 1.21429 4.23151 1.21429 4.59442V5.25001V5.90627H15.7857ZM6 9H5V18H6V9ZM8 9H9V18H8V9ZM12 9H11V18H12V9Z" fill="#C4C4C4"/>
</svg>
