<svg width="150" height="28" viewBox="0 0 150 28" fill="none" xmlns="http://www.w3.org/2000/svg">
<path fill-rule="evenodd" clip-rule="evenodd" d="M90.6519 7.23403C90.5296 7.33189 90.4072 7.42977 90.2115 7.57656C90.1136 7.35628 90.0646 7.2339 90.0157 7.08704C89.8443 6.69543 89.5996 6.40172 89.1835 6.27934C88.1555 5.93667 87.2254 6.57305 87.1765 7.64999C87.1602 8.18755 87.1656 8.71426 87.171 9.24457C87.1737 9.51107 87.1765 9.77848 87.1765 10.0486V19.1292C87.1765 20.0348 87.7639 20.6467 88.5716 20.6712C89.5017 20.6956 90.0646 20.2061 90.1625 19.276C90.187 19.0558 90.187 18.8355 90.187 18.6152C90.187 17.9045 90.1843 17.1965 90.1816 16.4894C90.1761 15.078 90.1707 13.6701 90.187 12.2515C90.187 11.7619 90.2115 11.2724 90.3094 10.8074C90.5786 9.4612 91.5821 8.62902 92.8549 8.60455C94.1276 8.58007 95.0822 9.3633 95.4004 10.734C95.4983 11.199 95.5472 11.6885 95.5472 12.1536C95.5595 13.3162 95.5595 14.4789 95.5595 15.6416C95.5595 16.8042 95.5595 17.9667 95.5717 19.1292C95.5717 19.9858 96.1346 20.5977 96.8934 20.6467C97.848 20.7201 98.4354 20.2551 98.5578 19.325C98.5822 19.1047 98.6067 18.8844 98.6067 18.6641C98.6067 18.0714 98.6052 17.4772 98.6037 16.8821C98.5991 15.0938 98.5945 13.2986 98.6312 11.5172C98.6312 11.0521 98.778 10.5381 98.9738 10.0976C99.4389 9.09407 100.247 8.58007 101.348 8.60455C102.449 8.62902 103.257 9.14302 103.649 10.171C103.869 10.734 103.991 11.3703 103.991 11.9822C104.028 13.7445 104.024 15.5068 104.019 17.2692C104.017 17.8565 104.016 18.4439 104.016 19.0313C104.016 20.2551 104.995 20.9649 106.096 20.5733C106.708 20.353 107.051 19.79 107.051 18.9089C107.075 16.5592 107.075 14.234 107.051 11.8843C107.051 11.2235 106.953 10.5626 106.806 9.92625C106.341 8.01713 105.264 6.59752 103.257 6.15696C101.25 5.71639 99.4878 6.25486 98.0927 7.79685C97.799 8.13951 97.6766 8.13951 97.4074 7.77237C96.8444 6.98914 96.1102 6.45067 95.1556 6.20591C93.4912 5.78982 91.9737 6.13248 90.652 7.2339L90.6519 7.23403ZM133.378 7.37092C133.299 7.42982 133.211 7.49481 133.118 7.57648C133.103 7.54221 133.089 7.51088 133.077 7.48268C133.028 7.3699 133 7.30725 133.02 7.30725C132.726 6.57297 132.163 6.23031 131.355 6.32821C130.695 6.42612 130.181 6.98906 130.132 7.69886V8.18838V18.9333C130.132 18.9913 130.129 19.0466 130.126 19.1009C130.121 19.2069 130.116 19.3095 130.132 19.4228C130.205 20.1571 130.719 20.6956 131.404 20.769C132.261 20.8424 132.897 20.4508 133.069 19.6921C133.142 19.3739 133.142 19.0557 133.142 18.7375C133.142 18.2583 133.141 17.7782 133.14 17.2975C133.136 15.3718 133.132 13.4366 133.191 11.5171C133.216 10.9542 133.436 10.3178 133.754 9.82826C134.733 8.26181 137.107 8.35971 138.037 9.97512C138.429 10.636 138.527 11.3947 138.527 12.1535V19.2025C138.527 20.0837 139.09 20.6956 139.873 20.7445C140.803 20.7935 141.391 20.3284 141.513 19.3983C141.562 19.1781 141.562 18.9578 141.562 18.7375V12.2514C141.562 11.8108 141.586 11.3702 141.66 10.9297C141.929 9.5835 142.908 8.72685 144.181 8.6779C145.478 8.62895 146.433 9.3877 146.775 10.7828C146.873 11.1989 146.922 11.6395 146.922 12.08V19.1046C146.947 20.3284 147.926 21.0382 149.027 20.6221C149.639 20.3774 149.982 19.8144 149.982 18.9333C150.006 16.6081 150.006 14.2829 149.982 11.9577C149.982 11.2723 149.908 10.587 149.737 9.95064C149.296 8.18838 148.342 6.79325 146.531 6.27926C144.45 5.69184 142.59 6.15688 141.072 7.77229C140.681 8.18838 140.632 8.18838 140.265 7.72334C140.093 7.50306 139.898 7.28277 139.677 7.08696C138.037 5.64289 135.321 5.69184 133.607 7.18487C133.543 7.24891 133.466 7.30625 133.378 7.37092Z" fill="#B6BCDA"/>
<path fill-rule="evenodd" clip-rule="evenodd" d="M0 1.97727V10.397C0 13.3096 0 16.2222 0.0244755 19.1349C0.0244755 20.0894 0.562946 20.7013 1.4196 20.7503C2.49654 20.7992 3.05949 20.3587 3.20634 19.3062C3.23082 19.1104 3.23082 18.9146 3.23082 18.7188V12.5264C3.23082 11.9634 3.40215 11.7431 3.91614 11.7431H9.57007C10.0596 11.7676 10.2554 11.9879 10.2554 12.4774V14.2886C10.2554 14.8287 10.2527 15.3661 10.2499 15.9017V15.9018V15.9019V15.9021V15.9022C10.2445 16.9683 10.2391 18.0271 10.2554 19.0859C10.2554 20.1873 10.8673 20.7748 11.9198 20.7503C12.8743 20.7258 13.4617 20.1139 13.4617 19.0859V1.6346C13.4617 0.337382 12.4582 -0.274515 11.21 0.1171C10.5736 0.312907 10.2554 0.900329 10.2554 1.78146V8.02281C10.2554 8.63471 10.0841 8.80604 9.47217 8.80604H4.01405C3.32872 8.80604 3.20634 8.70814 3.20634 7.99834V2.0507C3.20634 1.80594 3.18187 1.56118 3.15739 1.31642C3.03501 0.484238 2.49654 0.0191957 1.61541 0.0191957C0.734276 0.0191957 0.146855 0.484238 0.0244755 1.31642C0 1.5367 0 1.75698 0 1.97727ZM36.1418 7.81527C36.1074 7.8325 36.0693 7.85153 36.0285 7.87601C36.0141 7.82307 35.9996 7.77203 35.9856 7.72231L35.9853 7.72129L35.9851 7.72082C35.9278 7.51831 35.8768 7.33788 35.8572 7.14173C35.6124 6.50536 35.0739 6.18718 34.4376 6.21165C33.7522 6.2606 33.2627 6.62774 33.0914 7.28859C33.0424 7.53335 33.018 7.77811 33.018 8.02287V25.2049V25.5721C33.0914 26.4287 33.6299 26.9672 34.4376 27.0162C35.2208 27.0651 35.8327 26.5756 35.9795 25.7434C36.004 25.5476 36.0285 25.3273 36.0285 25.1315V19.7958C36.0285 19.7094 36.0539 19.6314 36.0798 19.552C36.098 19.4964 36.1163 19.4401 36.1264 19.3797C36.1652 19.3926 36.2057 19.4038 36.2466 19.4152L36.2466 19.4152C36.3604 19.4467 36.4769 19.479 36.567 19.551C37.5705 20.4321 38.7453 20.8482 40.067 20.8727C42.2454 20.9217 44.0811 20.1629 45.3538 18.3272C46.9937 15.9286 47.165 13.2852 46.3084 10.5928C44.7174 5.64871 39.1614 4.96338 36.2977 7.70468C36.2651 7.75363 36.2107 7.78083 36.1418 7.81527ZM42.637 16.9076C41.9272 17.8622 40.9971 18.3272 39.7978 18.3272C38.4027 18.3517 37.3502 17.7153 36.6649 16.5405C35.5635 14.6069 35.5145 12.5754 36.5914 10.6173C38.0355 8.04734 41.4621 8.07182 42.9552 10.6173C44.0321 12.4285 43.8608 15.2922 42.637 16.9076ZM52.2065 7.8008L52.2065 7.80078C52.2598 7.77605 52.3022 7.75638 52.3295 7.72914C55.1931 4.98784 60.7492 5.64869 62.3401 10.6173C63.1968 13.2852 63.0254 15.953 61.3855 18.3517C60.1128 20.1874 58.3016 20.9461 56.0988 20.8972C54.7771 20.8727 53.6022 20.4566 52.5987 19.5755C52.5087 19.5035 52.3922 19.4712 52.2784 19.4396L52.2783 19.4396C52.2375 19.4283 52.1969 19.4171 52.1581 19.4041C52.1481 19.4646 52.1297 19.5209 52.1116 19.5764C52.0857 19.6559 52.0602 19.7338 52.0602 19.8202V25.156C52.0602 25.3518 52.0358 25.5721 52.0113 25.7679C51.8644 26.6001 51.2525 27.0896 50.4693 27.0406C49.6616 26.9917 49.1231 26.4532 49.0252 25.621V25.2539V8.07181C49.0252 7.82705 49.0497 7.58229 49.0987 7.33753C49.27 6.67668 49.7595 6.30954 50.4448 6.26059C51.1057 6.21164 51.6441 6.57878 51.8889 7.21515C51.9134 7.41096 51.9623 7.60676 52.0602 7.876C52.1145 7.84344 52.164 7.82051 52.2065 7.8008ZM55.805 18.3272C57.0044 18.3272 57.91 17.8622 58.6443 16.9321C59.917 15.2922 60.0394 12.3551 58.9135 10.5439C57.4449 8.14524 54.1162 8.09628 52.6721 10.5194C51.4973 12.4775 51.5462 14.5579 52.6721 16.5405C53.3575 17.7153 54.4099 18.3272 55.805 18.3272ZM26.7766 19.2308C26.8225 19.2012 26.8714 19.1696 26.9235 19.1349C26.9456 19.2122 26.9677 19.2746 26.9853 19.3242L26.9853 19.3243C27.0066 19.3846 27.0214 19.4262 27.0214 19.4531C27.1438 19.9915 27.364 20.4321 27.927 20.6279C29.0039 20.995 29.983 20.3097 29.983 19.1349V7.82702C29.983 6.99484 29.4934 6.38294 28.7836 6.28504C28.0249 6.18713 27.2906 6.38294 27.0458 7.36198C26.9479 7.77807 26.7766 7.82702 26.4829 7.53331C24.1332 5.35495 19.8255 5.64866 17.8184 8.38996C15.738 11.2292 15.6401 14.3376 17.0842 17.446C18.9443 21.4356 24.1822 21.8272 26.5563 19.3796C26.6195 19.3322 26.693 19.2848 26.7766 19.2308ZM20.0947 16.5649C19.4828 15.6348 19.287 14.5824 19.3115 13.5544C19.287 12.3061 19.5317 11.2047 20.2415 10.2257C21.7101 8.21863 24.5983 8.16968 26.0913 10.1767C27.413 11.9145 27.4619 14.9495 26.1892 16.7362C24.6472 18.9146 21.5143 18.8412 20.0947 16.5649ZM69.7808 16.6138C70.6369 14.2654 71.4442 12.0148 72.2515 9.76426L72.2528 9.76053C72.5465 8.92835 72.8402 8.09618 73.1584 7.28847C73.4521 6.57867 74.0151 6.26048 74.7494 6.30944C75.3123 6.35839 75.8508 6.77448 75.9976 7.33742C76.1445 7.85142 76.0711 8.34094 75.8753 8.83045C75.5693 9.5892 75.2695 10.3479 74.9697 11.1067L74.9686 11.1094C74.6691 11.8672 74.3696 12.6251 74.064 13.383C72.3997 17.5928 70.7353 21.8027 69.0465 25.9881C68.9975 26.1349 68.9241 26.2818 68.8507 26.4286C68.4346 27.2608 67.6024 27.6279 66.8436 27.3098C66.1094 27.016 65.7667 26.1594 66.0849 25.2783C66.1453 25.1152 66.2053 24.9521 66.2653 24.7891C66.6914 23.6315 67.115 22.4808 67.6514 21.3866C68.1409 20.3831 68.0919 19.5019 67.6514 18.474C66.5466 15.8897 65.5214 13.2736 64.4987 10.6641L64.4978 10.6618C64.252 10.0344 64.0063 9.40751 63.7597 8.7815C63.5884 8.34093 63.5394 7.82694 63.5883 7.38637C63.6618 6.82343 64.0534 6.43182 64.6408 6.30944C65.2527 6.18706 65.7912 6.33391 66.1828 6.8479C66.3541 7.09266 66.501 7.3619 66.5989 7.65561C67.6024 10.4703 68.5814 13.2851 69.5605 16.1243C69.6584 16.2711 69.7073 16.3935 69.7808 16.6138ZM118.824 9.53462C118.824 5.93667 124.209 3.83174 126.95 7.38074C129.789 11.0521 126.999 17.4648 118.824 21.1851C110.649 17.4893 107.859 11.0521 110.698 7.38074C113.439 3.83174 118.824 5.93667 118.824 9.53462Z" fill="#EEA4C8"/>
</svg>
