<svg width="258" height="62" viewBox="0 0 258 62" fill="none" xmlns="http://www.w3.org/2000/svg">
<path d="M21.1894 19.4671H17.7666L15.7174 26.8756C15.2671 28.5194 14.8392 29.6228 14.4564 30.2083C14.0736 30.7938 13.5557 31.0865 12.9027 31.0865C12.4748 31.0865 12.1821 30.9739 12.0244 30.7713C11.8443 30.5686 11.7542 30.2759 11.7542 29.9156C11.7317 29.5553 11.7993 29.1049 11.9569 28.5645L16.2804 12.8692C16.4155 12.3738 16.5957 11.946 16.8434 11.5632C17.0911 11.1804 17.3613 10.8876 17.654 10.685C17.9693 10.4823 18.2845 10.3697 18.6223 10.3697C19.2753 10.3697 19.6131 10.685 19.6581 11.338C19.7032 11.991 19.478 13.2521 18.9376 15.1661H30.0616C31.3226 10.5949 31.3451 6.94694 30.1742 4.24475C28.9807 1.52004 26.0758 0.168945 21.4821 0.168945C18.4872 0.168945 15.8526 0.776941 13.5782 2.01545C11.3264 3.25395 9.5024 4.78519 8.12879 6.63169C6.75517 8.47819 5.8094 10.3697 5.26896 12.3063L0.630205 29.15C0.022212 31.3117 -0.135427 33.3158 0.112274 35.1623C0.359975 37.0088 1.08057 38.495 2.27404 39.6209C3.4675 40.7469 5.15637 41.3098 7.31812 41.3098C9.56995 41.3098 11.5516 40.2289 13.2855 38.0672C15.0194 35.9054 16.5281 32.7529 17.7666 28.6546H18.6223L15.2671 40.8144H22.9683L28.8456 19.4671H21.1894Z" fill="#F37321"/>
<path d="M54.832 20.2327C56.2056 18.3862 57.1739 16.4946 57.7143 14.558L58.1422 13.0268C58.6601 11.1353 58.7277 9.24374 58.2998 7.37472C57.872 5.5057 56.8586 3.95194 55.2373 2.71344C53.616 1.47493 51.3642 0.866943 48.4818 0.866943H36.322L25.3105 40.8143H36.4346L40.3302 26.7179H41.3661C41.7264 26.7179 42.0867 26.7179 42.4244 26.6954L41.0733 40.8143H51.0489L50.7562 24.0157C52.3775 22.9348 53.7286 21.6738 54.832 20.2327ZM45.3068 8.56819H46.3426C46.9956 8.56819 47.401 8.79337 47.5811 9.24373C47.7613 9.6941 47.7387 10.3021 47.5361 11.0677L46.0499 16.4946C45.8247 17.2828 45.5094 17.9133 45.1041 18.3411C44.6988 18.769 44.1583 18.9941 43.4603 18.9941H42.4244L45.3068 8.56819Z" fill="#F37321"/>
<path d="M69.0175 24.2634H77.4618L79.5786 16.5397H71.1342L73.341 8.56819H81.7853L83.9021 0.866943H75.4577H68.2744H64.3337L53.3223 40.8143H57.263H64.4463H72.8906L75.0074 33.0906H66.563L69.0175 24.2634Z" fill="#F37321"/>
<path d="M90.8612 24.2634H99.3056L101.445 16.5397H93.0005L95.1847 8.56819H103.629L105.768 0.866943H97.324H90.1181H86.1774L75.166 40.8143H79.1067H86.3126H94.7569L96.8736 33.0906H88.4293L90.8612 24.2634Z" fill="#F37321"/>
<path d="M128.422 0.866943L121.103 27.3935H120.18L123.783 0.866943H108.043L97.0312 40.8143H107.029L113.672 16.6748H114.821L110.722 40.8143H127.611L138.622 0.866943H128.422Z" fill="#F37321"/>
<path d="M198.453 55.6989C198.43 55.6313 198.408 55.5863 198.363 55.5413C198.25 55.4287 198.138 55.3386 198.002 55.2711C197.867 55.226 197.732 55.2035 197.597 55.2035V55.181C197.147 55.1134 196.696 55.0684 196.246 55.0234C195.773 54.9558 195.3 54.8882 194.85 54.7982C190.053 54.1451 185.235 53.7398 180.393 53.6047C176.385 53.4921 172.377 53.5597 168.368 53.8524C164.428 54.1226 160.51 54.618 156.614 55.3161C154.317 55.7439 152.02 56.2168 149.746 56.6897C148.552 56.9599 147.336 57.2076 146.143 57.4553C145.377 57.613 144.589 57.7481 143.823 57.8607C143.058 57.9733 142.27 57.9958 141.504 57.9282C140.761 57.9282 140.266 57.5679 139.973 56.8473C139.477 55.6088 138.757 54.7081 137.811 54.1001C136.865 53.4921 135.694 53.1769 134.321 53.1543C134.096 53.1769 133.87 53.1994 133.623 53.2219C133.127 53.2444 132.632 53.312 132.091 53.402C129.119 54.0776 126.282 55.136 123.557 56.5546C123.264 50.835 124.323 45.1604 125.629 39.6209C125.989 38.1121 126.372 36.6034 126.732 35.1172C126.912 34.3741 127.115 33.631 127.295 32.8879C127.385 32.5276 127.475 32.1898 127.565 31.8295C127.633 31.4918 127.768 31.154 127.813 30.7937C127.813 30.7036 127.813 30.6136 127.79 30.5235C127.7 30.2307 127.34 30.1407 127.092 30.0506C126.597 29.893 125.989 29.7353 125.584 30.1182C125.381 30.2983 125.268 30.546 125.133 30.7937C124.345 32.4375 123.872 34.1714 123.197 35.8603C122.319 37.9995 121.058 39.9586 119.842 41.8952C118.4 44.1921 116.982 46.5115 115.203 48.5831C113.536 50.5197 111.51 52.2311 109.123 53.1994C108.943 53.2669 108.785 53.3345 108.627 53.4246C108.537 53.4696 108.47 53.4921 108.38 53.4921C108.177 53.4921 108.177 53.2669 108.2 53.1093C108.245 52.6139 108.38 52.1185 108.357 51.6006C108.38 51.4204 108.447 51.2853 108.627 51.2403C108.74 51.2178 108.853 51.2178 108.943 51.2178C111.285 51.1953 113.176 49.3262 114.032 47.2771C114.37 46.4439 114.707 45.1153 113.604 44.71C111.285 43.8318 108.853 45.1153 107.366 46.8943C107.096 47.232 106.848 47.5698 106.623 47.9301C106.511 48.1102 106.398 48.2904 106.308 48.4705C106.263 48.5606 106.128 48.9885 106.038 49.0335C104.912 49.5514 103.561 50.2045 103.02 50.5422C102.885 50.6098 102.75 50.6773 102.638 50.6773C102.57 50.6773 102.457 50.6098 102.412 50.3621C102.03 48.1778 99.5751 45.926 97.2557 45.926C96.5126 45.926 95.7245 46.2412 94.9814 46.8042C94.9138 46.8717 94.7787 46.9393 94.7111 46.9843C94.6661 46.8492 94.6211 46.7366 94.6211 46.6691C95.4317 40.972 96.4676 35.3649 97.7511 29.7353C97.9538 28.9247 97.7061 28.3617 96.9179 28.114C96.4901 27.9789 96.2424 27.9339 96.0622 27.9339C95.6569 27.9339 95.5218 28.3617 95.4317 28.6995C95.2741 29.2399 95.094 29.7579 94.9363 30.2983C94.576 31.3567 94.1932 32.3925 93.7879 33.4283C92.9772 35.5 92.0765 37.5492 91.1758 39.5758C90.883 40.2289 90.6128 40.8819 90.3201 41.5349C89.0591 44.3497 87.8656 47.2996 86.1542 49.8892C86.1542 49.9567 86.0191 49.9568 85.9515 50.0243C85.9065 49.9568 85.8389 49.8892 85.8615 49.7766C86.0416 48.5831 86.2443 47.4122 86.4469 46.1512C86.492 45.6558 86.6946 45.0928 86.4694 44.71C86.2668 44.2821 85.8389 44.0795 85.3435 44.0795C84.9157 44.0795 84.4428 44.2596 84.105 44.6424C83.9699 44.8226 83.7447 45.0252 83.6096 45.2054C83.5196 45.3855 83.3845 45.4531 83.2719 45.4531C83.2043 45.4531 83.1367 45.4531 83.0242 45.3855C82.3036 45.1378 81.6505 44.8901 80.9074 44.755C79.106 44.755 78.0927 45.318 77.1019 46.9393C76.3137 48.1553 75.8183 49.3938 75.7057 50.7449C74.197 51.8933 72.6658 53.0192 71.0219 54.01C70.6166 54.2577 70.2113 54.4604 69.7834 54.6406C69.6708 54.6856 69.5357 54.7081 69.4231 54.6856C68.8377 54.528 68.7926 53.357 68.7476 52.8841C68.7025 52.141 68.7701 51.4204 68.7926 50.6773C68.8376 49.9117 68.8827 49.1461 68.9502 48.3805C69.0853 46.8492 69.2655 45.3405 69.4907 43.8318C69.6033 43.0436 69.6933 42.278 69.8059 41.5124C69.9861 40.3189 70.3013 39.193 70.549 38.0671C70.8193 36.6935 71.157 35.2523 71.4272 33.8787C71.6299 33.2482 71.7425 32.6177 71.9452 31.9421C72.1478 31.199 72.4856 30.3884 72.7108 29.5777C72.8234 29.1724 72.9585 28.6995 72.8234 28.2717C72.6883 27.8213 72.1478 27.3259 71.6524 27.4835C70.9093 27.7087 70.5716 29.0148 70.3464 29.6678C69.5357 31.9872 68.8827 34.3065 68.3197 36.716C68.0045 38.0221 67.7117 39.3506 67.464 40.6567C67.1488 42.233 66.9236 43.8318 66.6534 45.4306C66.4282 46.7817 66.2706 48.1328 66.2255 49.5064C66.1805 50.88 66.2255 52.3887 66.5633 53.7173C66.9236 55.1359 68.027 56.2619 69.5582 56.2619C70.0536 56.2619 70.7067 56.0817 71.2921 55.7665C72.5306 55.1134 74.3096 53.6272 75.8183 52.2986C76.1561 53.4246 77.3045 54.3253 78.498 54.3253C79.1961 54.3253 79.9166 54.01 80.412 53.3795C81.8307 51.7582 82.9566 50.1369 84.0825 48.3805C84.2176 48.8759 84.1726 49.3262 84.1951 49.7541C84.2852 50.6323 85.0058 51.5555 85.929 51.5555C87.5729 51.5555 88.6537 49.1236 89.2167 47.9076C89.7121 46.8943 91.9189 42.0528 91.9639 41.8727C91.6036 44.057 91.2433 46.2412 91.0181 48.448C90.7704 50.6323 90.7479 52.8166 90.6804 55.0008C90.7254 55.2485 90.9281 55.6313 91.0407 55.6989C91.5136 56.0142 92.0315 56.2619 92.9097 56.2619C93.0898 56.2619 93.3375 56.2619 93.6077 56.1943C94.1257 56.1268 94.0356 55.6989 94.0806 55.3837C94.1032 54.6856 94.1031 53.9425 94.1257 53.1994C94.1932 52.5013 94.2157 51.8258 94.3508 51.0827C94.5535 49.709 96.2874 47.0294 97.9087 47.0294C99.1698 47.0294 100.116 48.6507 100.296 49.709C100.431 50.1369 100.431 50.6999 100.521 51.1502C100.656 52.1635 100.588 52.2086 99.7778 52.7941C98.7419 53.5146 97.8187 54.3703 97.0305 55.3386C96.3099 56.2393 95.4317 57.4103 95.2516 58.5587C95.0039 59.9999 96.3099 61.0357 97.661 61.0357C99.53 61.0357 101.264 58.8515 101.94 57.2752C102.367 56.1493 102.593 55.2035 102.66 53.5822C102.683 53.2444 102.705 52.6815 102.705 52.3212C102.705 52.096 102.818 51.9158 102.998 51.7807C103.223 51.6456 103.538 51.4429 103.809 51.3078C104.394 51.0376 104.957 50.7449 105.52 50.4521C105.385 50.9025 105.295 51.3529 105.25 51.8032C105.047 53.6723 106.803 55.2936 108.627 55.2936C108.808 55.2936 109.01 55.226 109.19 55.226C109.753 55.226 110.384 54.8432 110.879 54.618C111.442 54.3478 111.983 54.0325 112.501 53.6723C114.46 52.3437 115.901 50.5873 117.252 48.6732C118.716 46.6015 121.463 41.9628 121.485 41.8502C120.585 46.3989 120.45 51.1052 121.103 55.6989C121.17 56.2168 121.26 56.7573 121.508 57.2302C121.756 57.703 122.161 58.1084 122.679 58.1984C122.972 58.2435 123.332 58.1759 123.512 57.9282C123.647 57.8832 123.782 57.8156 123.917 57.7706C126.034 56.7573 128.241 55.9016 130.515 55.2485C131.326 55.0008 132.159 54.7982 132.992 54.6406C133.825 54.4829 134.704 54.4154 135.582 54.4604C136.437 54.528 137.181 54.7531 137.811 55.1359C138.442 55.5188 138.914 56.1493 139.252 57.005C139.748 58.4912 140.761 59.3244 142.337 59.482C142.855 59.5495 143.351 59.5495 143.869 59.5045C145.22 59.3694 146.526 59.1667 147.832 58.919C149.408 58.6038 150.984 58.2885 152.561 57.9733C154.88 57.4779 157.199 57.0275 159.519 56.6222C163.504 55.9916 167.513 55.4962 171.543 55.181C173.818 54.9783 176.115 54.8432 178.412 54.8207C181.046 54.7757 183.703 54.8207 186.338 54.9108C189.806 55.0459 193.251 55.3161 196.674 55.6989C196.989 55.7439 197.282 55.789 197.552 55.8115C197.732 55.8565 197.912 55.8791 198.093 55.9016C198.16 55.9016 198.205 55.9016 198.273 55.9016C198.34 55.9016 198.385 55.8565 198.385 55.789C198.453 55.8115 198.475 55.7665 198.453 55.6989ZM108.763 50.1819C108.875 49.5289 109.753 48.0427 109.911 47.8175C110.541 46.9393 111.375 46.2412 112.343 45.8134C112.546 45.7458 112.658 45.6783 112.726 45.6783C113.176 45.6783 112.793 46.7366 112.726 46.9168C112.05 48.5606 110.699 49.7541 109.1 50.4521C109.033 50.4747 108.943 50.5197 108.853 50.4972C108.763 50.4747 108.74 50.3621 108.763 50.1819ZM82.2811 46.9393C81.2677 48.3129 80.2994 49.6865 79.2636 51.0601C79.196 51.0601 79.0835 50.9926 79.0384 50.925C79.1285 49.9793 79.6239 49.056 80.0743 48.1778C80.3895 47.6824 80.6823 47.232 81.02 46.8717C81.2452 46.6241 81.5605 46.4439 81.8757 46.3763H82.0108C82.3486 46.3763 82.4387 46.6916 82.2811 46.9393ZM100.093 55.181C99.7327 56.6897 98.8545 57.9282 97.7286 59.0541C96.9404 59.8648 97.2557 58.2435 97.4133 57.8381C98.0213 56.3519 99.0346 55.2485 100.138 54.1001C100.206 54.1001 100.251 54.1677 100.251 54.1677C100.228 54.5054 100.183 54.8657 100.093 55.181Z" fill="#108341"/>
<path d="M142.252 29.2297C143.284 29.2297 144.116 28.8537 144.66 28.1737L143.652 27.2617C143.3 27.6857 142.868 27.9177 142.332 27.9177C141.412 27.9177 140.772 27.2777 140.772 26.3177C140.772 25.3577 141.412 24.7177 142.332 24.7177C142.868 24.7177 143.3 24.9497 143.652 25.3737L144.66 24.4617C144.116 23.7817 143.284 23.4057 142.252 23.4057C140.476 23.4057 139.172 24.6137 139.172 26.3177C139.172 28.0217 140.476 29.2297 142.252 29.2297ZM145.775 29.1177H148.575C150.031 29.1177 150.887 28.4537 150.887 27.3177C150.887 26.2377 150.143 25.6457 148.783 25.6457H147.335V24.7417H150.455V23.5177H145.775V29.1177ZM147.335 27.9817V26.7737H148.471C149.015 26.7737 149.287 26.9657 149.287 27.3657C149.287 27.7657 148.999 27.9817 148.471 27.9817H147.335ZM156.347 29.1177H157.995L155.515 23.5177H153.955L151.483 29.1177H153.099L153.539 28.0297H155.907L156.347 29.1177ZM154.003 26.8617L154.723 25.0697L155.443 26.8617H154.003ZM159.811 23.5177L159.731 25.7497C159.683 27.0137 159.563 27.8457 158.915 27.8457C158.843 27.8457 158.771 27.8377 158.699 27.8217L158.611 29.1177C158.875 29.1817 159.115 29.2137 159.331 29.2137C160.755 29.2137 161.051 27.8697 161.123 25.6857L161.155 24.7737H162.763V29.1177H164.323V23.5177H159.811ZM170.225 29.1177H171.873L169.393 23.5177H167.833L165.361 29.1177H166.977L167.417 28.0297H169.785L170.225 29.1177ZM167.881 26.8617L168.601 25.0697L169.321 26.8617H167.881ZM176.658 23.5177V25.6217H174.498V23.5177H172.914V29.1177H174.498V26.9337H176.658V29.1177H178.242V23.5177H176.658ZM182.574 29.2297C183.606 29.2297 184.438 28.8537 184.982 28.1737L183.974 27.2617C183.622 27.6857 183.19 27.9177 182.654 27.9177C181.734 27.9177 181.094 27.2777 181.094 26.3177C181.094 25.3577 181.734 24.7177 182.654 24.7177C183.19 24.7177 183.622 24.9497 183.974 25.3737L184.982 24.4617C184.438 23.7817 183.606 23.4057 182.574 23.4057C180.798 23.4057 179.494 24.6137 179.494 26.3177C179.494 28.0217 180.798 29.2297 182.574 29.2297ZM186.097 29.1177H187.593L189.897 25.8377V29.1177H191.457V23.5177H189.969L187.657 26.8057V23.5177H186.097V29.1177ZM195.62 23.5177H193.06V29.1177H194.644V27.6537H195.62C197.148 27.6537 198.108 26.8617 198.108 25.5897C198.108 24.3097 197.148 23.5177 195.62 23.5177ZM195.524 26.4057H194.644V24.7657H195.524C196.18 24.7657 196.508 25.0697 196.508 25.5897C196.508 26.1017 196.18 26.4057 195.524 26.4057ZM202.056 29.2297C203.848 29.2297 205.168 27.9977 205.168 26.3177C205.168 24.6377 203.848 23.4057 202.056 23.4057C200.264 23.4057 198.944 24.6377 198.944 26.3177C198.944 27.9977 200.264 29.2297 202.056 29.2297ZM202.056 27.9177C201.208 27.9177 200.544 27.2857 200.544 26.3177C200.544 25.3497 201.208 24.7177 202.056 24.7177C202.904 24.7177 203.568 25.3497 203.568 26.3177C203.568 27.2857 202.904 27.9177 202.056 27.9177ZM210.494 26.1897C210.974 25.9497 211.254 25.5257 211.254 24.9737C211.254 24.0457 210.47 23.5177 209.134 23.5177H206.414V29.1177H209.286C210.726 29.1177 211.51 28.5017 211.51 27.5177C211.51 26.8457 211.142 26.3977 210.494 26.1897ZM207.974 24.6537H208.982C209.43 24.6537 209.654 24.8457 209.654 25.2057C209.654 25.5737 209.43 25.7577 208.982 25.7577H207.974V24.6537ZM209.222 27.9817H207.974V26.8297H209.222C209.678 26.8297 209.91 27.0137 209.91 27.3977C209.91 27.7817 209.678 27.9817 209.222 27.9817ZM217.072 29.1177H218.72L216.24 23.5177H214.68L212.208 29.1177H213.824L214.264 28.0297H216.632L217.072 29.1177ZM214.728 26.8617L215.448 25.0697L216.168 26.8617H214.728ZM223.505 23.5177V25.6217H221.345V23.5177H219.761V29.1177H221.345V26.9337H223.505V29.1177H225.089V23.5177H223.505ZM230.437 23.5177V25.6217H228.277V23.5177H226.693V29.1177H228.277V26.9337H230.437V29.1177H232.021V23.5177H230.437ZM236.376 29.2297C238.168 29.2297 239.488 27.9977 239.488 26.3177C239.488 24.6377 238.168 23.4057 236.376 23.4057C234.584 23.4057 233.264 24.6377 233.264 26.3177C233.264 27.9977 234.584 29.2297 236.376 29.2297ZM236.376 27.9177C235.528 27.9177 234.864 27.2857 234.864 26.3177C234.864 25.3497 235.528 24.7177 236.376 24.7177C237.224 24.7177 237.888 25.3497 237.888 26.3177C237.888 27.2857 237.224 27.9177 236.376 27.9177ZM242.303 27.8937V26.8697H244.791V25.6857H242.303V24.7417H245.127V23.5177H240.735V29.1177H245.231V27.8937H242.303ZM139.524 33.5177V39.1177H141.084V34.7737H143.212V39.1177H144.78V33.5177H139.524ZM146.377 39.1177H147.873L150.177 35.8377V39.1177H151.737V33.5177H150.249L147.937 36.8057V33.5177H146.377V39.1177ZM157.851 33.5177H152.859V34.7737H154.579V39.1177H156.139V34.7737H157.851V33.5177ZM163.004 39.1177H164.652L162.172 33.5177H160.612L158.14 39.1177H159.756L160.196 38.0297H162.564L163.004 39.1177ZM160.66 36.8617L161.38 35.0697L162.1 36.8617H160.66ZM169.438 33.5177V35.6217H167.278V33.5177H165.694V39.1177H167.278V36.9337H169.438V39.1177H171.022V33.5177H169.438ZM172.625 39.1177H174.121L176.425 35.8377V39.1177H177.985V33.5177H176.497L174.185 36.8057V33.5177H172.625V39.1177ZM181.156 37.8937V36.8697H183.644V35.6857H181.156V34.7417H183.98V33.5177H179.588V39.1177H184.084V37.8937H181.156Z" fill="#828282"/>
</svg>
