<?xml version="1.0" encoding="utf-8"?>
<!-- Generator: Adobe Illustrator 22.1.0, SVG Export Plug-In . SVG Version: 6.00 Build 0)  -->
<svg version="1.1" id="Слой_1" xmlns="http://www.w3.org/2000/svg" xmlns:xlink="http://www.w3.org/1999/xlink" x="0px" y="0px"
	 viewBox="0 0 80 78" style="enable-background:new 0 0 80 78;" xml:space="preserve">
<style type="text/css">
	.st0{fill:#FFFFFF;}
</style>
<path class="st0" d="M67.5,10.1c-5.3-4.4-11.6-7.4-18.3-8.6c-6.7-1.2-13.7-0.6-20,1.7C22.7,5.6,17,9.6,12.7,14.8
	C8.3,20,5.4,26.4,4.2,33.2c0.4-3.4,1.3-6.8,2.6-10c1.3-3.2,3.1-6.2,5.3-8.9c2.2-2.7,4.7-5.1,7.5-7.2c2.8-2,5.9-3.7,9.2-4.9
	c3.3-1.2,6.7-1.9,10.2-2.2c3.5-0.2,7,0,10.4,0.7C52.7,1.4,56,2.6,59,4.2C62.1,5.8,65,7.8,67.5,10.1z M46,6.5
	c0.2-0.3,0.3-0.7,0.3-1.2l0-0.3c0-0.5,0-0.9-0.2-1.2c-0.1-0.3-0.3-0.6-0.6-0.8c-0.3-0.2-0.6-0.3-1-0.3c-0.4,0-0.7,0-1,0.2
	c-0.3,0.2-0.6,0.4-0.7,0.8c-0.2,0.3-0.3,0.7-0.3,1.2l0,0.3c0,0.5,0,0.9,0.2,1.2c0.1,0.4,0.3,0.6,0.6,0.8c0.3,0.2,0.6,0.3,1,0.3
	c0.4,0,0.7,0,1-0.2C45.6,7.1,45.9,6.9,46,6.5z M45.3,3.8c0.2,0.3,0.2,0.7,0.2,1.2l0,0.3c0,0.5-0.1,0.9-0.4,1.2
	c-0.2,0.3-0.5,0.4-0.9,0.3c-0.3,0-0.6-0.2-0.8-0.5s-0.2-0.7-0.2-1.2l0-0.3c0-0.5,0.2-0.9,0.4-1.1c0.2-0.3,0.5-0.4,0.9-0.4
	C44.9,3.4,45.2,3.5,45.3,3.8z M40.4,7.4l-0.8,0.1l-0.2-2.1l-2.1,0.2l0.2,2.1l-0.8,0.1l-0.5-4.7L37,3L37.2,5l2.1-0.2l-0.2-1.9
	l0.8-0.1L40.4,7.4z M31.2,5l2.1-0.6l-0.2-0.6l-2.8,0.8l1.3,4.5l1.7-0.5c0.5-0.2,0.8-0.4,1-0.7c0.2-0.3,0.3-0.7,0.1-1.1
	c-0.1-0.3-0.2-0.5-0.4-0.7c-0.2-0.2-0.4-0.3-0.7-0.3s-0.6,0-0.9,0.1l-0.9,0.3L31.2,5z M32.2,8.3l-0.5-1.5l0.9-0.3
	c0.2-0.1,0.5-0.1,0.7,0c0.2,0.1,0.3,0.2,0.4,0.5c0.1,0.2,0,0.5-0.1,0.6c-0.1,0.2-0.3,0.3-0.6,0.4L32.2,8.3z M28.7,8L27,8.9l0.6,1.3
	l2-1l0.3,0.6l-2.8,1.3l-2-4.2l2.7-1.3l0.3,0.6l-2,1l0.6,1.2l1.7-0.8L28.7,8z M25.3,12.1l-2.7-3.8L22,8.7l1.2,1.8
	c-0.2,0.3-0.5,0.5-0.8,0.7c-0.3,0.2-0.5,0.3-0.7,0.2c-0.2,0-0.4-0.2-0.5-0.4l-0.9-1.2l-0.7,0.5l0.9,1.2c0.3,0.4,0.6,0.6,1,0.7
	s0.8-0.1,1.2-0.4c0.3-0.2,0.6-0.5,0.8-0.7l1.1,1.5L25.3,12.1z M19.3,14.1L18,15.4l1,1l1.6-1.6l0.5,0.5l-2.2,2.2l-3.3-3.3l2.2-2.1
	l0.5,0.5l-1.6,1.6l0.9,0.9l1.4-1.4L19.3,14.1z M76.7,21.4c0.1-0.3,0.2-0.6,0.3-0.9c0,0,0.1,0,0.1,0c0,0,0.1,0,0.1,0
	c0,0.3,0,0.5,0,0.8v0v0v0v0v0v0v0v0v0v0v0v0v0v0v0v0v0v0v0v0v0v0v0v0v0v0v0v0v0v0v0v0v0v0v0v0v0v0v0c0,0.8,0,1.6,0,2.4
	c0,1.8,0.1,1.8,1.8,1.7c1,0,1.1-0.2,1-1.2c0-0.4-0.1-0.7-0.1-1.1v0c-0.1-1.7-0.3-3.4-0.4-5.1c0-0.9,0-1.8,0.1-2.8l0,0
	c0-0.4,0.1-0.9,0.1-1.3c0-0.6-0.1-1-0.8-1.2c-0.9-0.2-1.5-0.1-1.6,1.1c-0.7-0.8-1.4-0.7-2-0.3c-1.9,1.2-3.4,3-3.9,5.3
	c-0.4,1.7,0.8,3.3,2.5,3.3c0.1,0,0.2,0,0.3,0c0.1,0,0.2,0,0.4,0c-0.1,0.1-0.2,0.3-0.2,0.4c-0.1,0.2-0.2,0.4-0.3,0.5
	c-0.2,0.3-0.4,0.5-0.6,0.8l0,0c-0.6,0.7-1.1,1.5-1.7,2.2l0,0.1c-1.1,1.2-1.1,1.3,0.3,2.1c0,0,0,0,0,0l0,0l0,0l0,0l0,0
	c0.6,0.5,1.1,0.4,1.5-0.3c0.1-0.2,0.2-0.3,0.3-0.5c0.7-1.2,1.4-2.3,1.9-3.5C76.1,23.1,76.4,22.2,76.7,21.4z M76.7,15.5
	c0.2-0.1,0.3-0.2,0.4-0.2c0,0.2,0,0.4,0,0.7v0c0,0.6,0,1.1-0.2,1.4c-0.6,0.8-1.4,1.5-2.3,2.1c-0.5,0.3-0.9-0.1-0.8-0.7
	c0.1-0.5,0.3-1.1,0.7-1.5c0.5-0.5,0.9-0.9,1.4-1.3C76.2,15.9,76.4,15.8,76.7,15.5C76.7,15.5,76.7,15.5,76.7,15.5z M39.7,31.5
	c-0.2-3-2.7-4.3-5.1-2.6c0-0.2,0-0.2-0.1-0.3c-0.1-1-0.7-1.3-2-1.1c-0.7,0.1-0.6,0.7-0.6,1.2l0,0l0,0l0,0c0,0,0,0.1,0,0.1
	c0.1,0.9-0.1,1.5-0.8,2.1c-0.5,0.4-0.6,0.9-0.2,1.6c0.1,0.2,0.3,0.4,0.4,0.6c0.3,0.4,0.7,0.8,0.6,1.6c-0.3,2-0.5,4.1-0.7,6.1l0,0v0
	l0,0h0v0l0,0v0l0,0v0l0,0v0l0,0v0l0,0l0,0v0l0,0v0l0,0v0h0v0l0,0v0l0,0v0l0,0l0,0v0l0,0v0l0,0v0l0,0c-0.1,1.1-0.2,2.2-0.3,3.3l0,0.1
	c-0.1,0.9-0.2,1.4,0,1.7c0.2,0.3,0.6,0.4,1.4,0.7l0.1,0c0.7,0.2,1,0,1-0.8c0.1-0.9,0.2-1.8,0.3-2.8c0-0.5,0.1-0.9,0.1-1.4
	c0-0.4,0.1-0.8,0.1-1.3l0,0l0,0c0-0.2,0-0.4,0.1-0.6c0.3,0.3,0.5,0.5,0.7,0.7l0,0c0.8,0.8,1.1,0.8,1.8-0.1c0.4-0.5,0.8-1,1.1-1.6
	C38.9,36.4,39.9,34.1,39.7,31.5z M37.5,32c0.2,2.2-1.3,5.2-3.3,6.5c0-0.5,0.1-1.1,0.1-1.6c0.1-1.6,0.2-3.2,0.3-4.7
	c0.1-0.7,1.2-1.5,1.9-1.5C37.3,30.7,37.5,31.3,37.5,32z M14.4,32.6c1.3,0.9,2,2.3,2.2,4.1c-0.1-0.1-0.3-0.1-0.4-0.2
	c-0.3-0.2-0.6-0.3-0.9-0.3c-0.5,0-1.1,0.1-1.4,0.4c-2.5,2.3-3.9,7.6-2.9,10.7c0.6,1.7,2.1,2.4,3.7,1.5c1.4-0.8,2.4-1.8,3.2-3.3
	c1.4-2.5,1.6-5.2,1.5-8c-0.1-3.2-1.4-5.6-3.8-7.3c-0.6-0.4-1.2-0.7-1.9-0.9c-0.8-0.2-1.3,0.4-1.6,1.1c-0.3,0.6,0.1,0.9,0.5,1.1
	c0,0,0.1,0.1,0.1,0.1c0.1,0.1,0.2,0.1,0.3,0.2l0,0C13.6,32,14,32.3,14.4,32.6z M14.8,39.2c0.5-0.6,1.8-1.6,1.9-1.6
	c0.2,2.7,0,5.4-1.7,7.8c-0.2,0.2-0.4,0.4-0.7,0.6c-0.4,0.2-0.9,0.1-1.1-0.3c-0.1-0.3-0.3-0.5-0.3-0.8C13,42.8,13.6,40.8,14.8,39.2z
	 M6.8,41.9c1.6,0.3,2.3,1.1,2.4,2.9c0.1,1.4-0.3,2.6-1,3.8c-1,1.7-2.3,3-4,3.9c-1.1,0.6-2.3,0.8-3.5,0.3c-0.3-0.2-0.8-0.7-0.7-1
	c0.1-0.6,0.4-1.2,0.7-1.8c0.1-0.1,0.5,0,0.8,0.1c1.4,0.6,2.2,0.5,3.1-0.8c0.7-1,1.2-2.2,1.6-3.4c0.3-1.1-0.5-1.8-1.6-1.4
	C4.1,44.7,3.6,45,3,45.2l0,0l0,0l0,0c-0.2,0.1-0.3,0.1-0.5,0.2c-0.9,0.4-1.1,0.3-1.1-0.7c0-1.7,0.1-2,1.7-2.6c0,0,0.1,0,0.1,0
	c0.2,0,0.3-0.1,0.4-0.2c1.1-1.2,2-2.4,2.3-4.1c0.2-0.9-0.3-1.4-1.2-1c-0.5,0.2-1,0.6-1.5,1c-0.1,0-0.1,0.1-0.2,0.1
	c-0.1,0.1-0.2,0.2-0.3,0.3c-0.1,0.1-0.1,0.2-0.2,0.3c-0.1,0.1-0.2,0.2-0.3,0.2c-0.3,0.3-0.6,0.6-1,0.6c-0.5,0-1-1.1-0.8-1.8
	c0.1-0.4,0.3-0.8,0.5-1.2c1.2-1.6,2.7-2.3,4.5-2.3c2.3,0,3.6,2.5,2.7,4.9c-0.3,0.7-0.6,1.3-1,1.9l0,0C7.2,41.3,7,41.6,6.8,41.9z
	 M67,17.3l0-0.1c0,0,0-0.1,0-0.1c0.1-0.6,0.2-1.3,1.2-1.1c1.1,0.2,1.5,0.6,1.3,1.7c-0.5,2.6-0.8,5.3-0.5,7.9
	c0.1,0.9,0.3,1.8,0.5,2.7c0.2,0.8-0.1,1.1-0.8,1.3c-1.2,0.3-1.8,0-2.3-1.4c-0.1,0.2-0.2,0.4-0.3,0.5h0c-0.2,0.3-0.4,0.7-0.7,1
	c-1.1,1.4-2.5,1.4-3.6,0.1c-1.1-1.4-1.2-3.1-0.9-4.9c0.5-2.8,2-5.1,4-7.1c0.3-0.3,0.7-0.3,1.3-0.3C66.4,17.4,66.7,17.3,67,17.3z
	 M66.7,19.8c-1.7,1-3.2,3.6-3.3,5.9c0,0.5,0,1,0.2,1.4c0.3,0.7,0.8,0.8,1.3,0.1c0.4-0.6,0.8-1.3,1-2c0.2-1.2,0.4-2.5,0.6-3.8v0l0,0
	v0l0,0v0v0l0,0v0v0l0,0v0C66.6,20.9,66.7,20.3,66.7,19.8z M56.1,33.5c3.2-1.1,4-4.8,1.8-7.2c0.1-0.4,0.3-0.7,0.5-1h0v0l0,0
	c0.3-0.7,0.6-1.4,0.8-2.2c0.3-1.9-1.1-3.1-2.8-2.5c-1.1,0.3-2.1,1-2.8,2c-1.7,2.3-2.4,4.9-2.2,7.7C51.5,33.1,53.6,34.4,56.1,33.5z
	 M53.8,28.3c0-0.3,0-0.6,0-1c0.2,0.1,0.3,0.2,0.5,0.4l0,0c0.5,0.4,0.9,0.7,1.6,0.2c0,0,0.1,0,0.2,0.1c0.6,0.5,0.8,1.1,0.6,1.8
	c-0.2,0.8-0.9,1.5-1.6,1.6c-0.8,0-1.2-0.4-1.3-1.1C53.8,29.6,53.8,29,53.8,28.3L53.8,28.3z M54.6,25.7c-0.2,0.1-0.4-0.1-0.3-0.3
	c0.2-0.6,0.7-1.5,1.1-2.2v0c0.1-0.1,0.1-0.2,0.2-0.3c0.1-0.1,0.2-0.2,0.3-0.2c0.3-0.1,0.6,0,0.6,0.3c0,0.2,0,0.3,0,0.5
	C56.2,24.4,55.5,25.2,54.6,25.7z M29.3,35.2c0.8,3-0.7,7.5-3.1,9.2c-1.2,0.9-2.5,0.8-3.5-0.2c-1.4-1.4-1.7-3.1-1.4-5.1
	c0.3-2.5,1.6-4.7,3.2-6.6c0.5-0.6,1.1-0.6,1.4,0c0.4,0.7,0.9,0.9,1.7,0.9C28.6,33.5,29.1,34.3,29.3,35.2z M26.1,34.1
	c-2.2,2.3-2.6,4.8-2.2,7.4c0,0.2,0.2,0.4,0.3,0.6c0.3,0.3,0.7,0.4,1.1,0.2c0.2-0.2,0.5-0.3,0.6-0.6c0.9-1.8,1.3-3.7,1.1-5.7
	c0-0.4-0.3-0.8-0.5-1.3C26.4,34.6,26.2,34.4,26.1,34.1z M46.4,37c2.4-1.7,3.9-6.2,3.1-9.2c-0.2-0.9-0.7-1.7-1.7-1.8
	c-0.8,0-1.3-0.3-1.7-0.9c-0.4-0.6-0.9-0.7-1.4,0c-1.6,1.9-2.8,4.1-3.2,6.6c-0.3,1.9,0,3.7,1.4,5.1C43.9,37.8,45.2,37.8,46.4,37z
	 M44.1,34.1c-0.4-2.6,0-5.1,2.2-7.4c0.1,0.3,0.2,0.5,0.4,0.7c0.2,0.4,0.5,0.8,0.5,1.2c0.2,1.9-0.1,3.9-1.1,5.7
	c-0.1,0.2-0.4,0.4-0.6,0.6c-0.4,0.2-0.8,0.2-1.1-0.2C44.3,34.6,44.2,34.4,44.1,34.1z M49.4,54.1c-1,0.3-1.5,0.4-1.7,0.2
	c-0.2-0.1-0.4-0.4-0.6-0.9c-0.1,0.2-0.3,0.3-0.4,0.5v0c-0.3,0.3-0.5,0.7-0.8,1c-0.7,0.7-1.4,1.3-2.4,0.9c-1-0.4-1.7-1.2-1.8-2.3
	c-0.2-3,0.1-6,1-9c0.4-1.1,0.8-1.3,1.7-1.1c0.6,0.2,0.8,0.5,0.7,1.3c-0.2,1.3-0.5,2.7-0.7,4c0,0.2-0.1,0.4-0.1,0.7l0,0
	c-0.2,1-0.4,2.1,0,3c0.2,0.3,0.6,0.6,0.9,0.3l0,0l0,0l0,0l0,0l0,0l0,0l0,0l0,0l0,0l0,0l0,0l0,0l0,0l0,0l0,0l0,0h0v0l0,0l0,0l0,0l0,0
	l0,0l0,0l0,0l0,0l0,0l0,0c0.3-0.2,0.6-0.5,0.8-0.7c0.6-0.6,0.8-1.3,0.8-2.2c0.2-2.4,0.5-4.7,0.8-7.1c0.2-1.4,0.7-1.5,1.8-0.9
	c0.5,0.3,0.5,0.7,0.4,1.1c-0.2,1.7-0.3,3.4-0.5,5.1c-0.1,0.6-0.1,1.1-0.2,1.7c0,0.3,0,0.7,0,1c0,0.7,0.4,0.9,1,0.6
	c1.1-0.6,1.4-0.4,1.4,0.8c0,1.4-0.1,2.8-0.1,4.1c-0.1,0.9-0.6,1.6-1.4,1.9c-0.7,0.3-1,0-1-0.8C49.1,56.4,49.3,55.3,49.4,54.1z
	 M24.4,55.2c-0.2,0.1-0.3,0.1-0.5,0.2l0-0.1v0c0-1,0.1-1.9,0-2.9c0-1.2-0.1-1.2-1.3-1.2c-0.9,0-1,0.6-1,1.3c0,0.4,0,0.8,0,1.2v0
	c0,0.7,0,1.3-0.1,2c0,0.3-0.2,0.7-0.5,0.8c-0.9,0.6-1.1,0.9-0.5,1.8c0.7,1,0.7,1.9,0.5,3.1c-0.3,2-0.3,2,1.4,2.7l0,0
	c0.8,0.3,1,0.2,1.1-0.7c0.1-1.1,0.1-2.2,0.2-3.3c0-0.3,0-0.6,0-0.8c0.1-1.4,1-2.2,2.4-2.1c0,0.1,0,0.1,0,0.2c0,0.3-0.1,0.5,0,0.8
	c0,0.3,0,0.6,0,0.9c0,0.8,0.1,1.6,0.2,2.4c0.2,1,1,1.2,2.3,0.7c0.8-0.3,0.7-0.8,0.5-1.3c0-0.1-0.1-0.2-0.1-0.3
	c-0.5-1.9-0.7-3.9-0.5-5.9c0.1-0.8,0.2-1.6,0.3-2.3l0,0v0l0,0v0l0,0v0l0,0v0l0,0v0v0l0,0v0l0,0v0l0,0v0l0,0v0l0,0v0l0,0v0v0l0,0v0
	c0.1-0.4,0.1-0.9,0.2-1.3c0.2-1.2-0.1-1.6-1.5-1.7c-0.8-0.1-0.9,0.5-0.9,1c0,0.1,0,0.2,0,0.3c-0.1,0.6-0.2,1.3-0.2,1.9
	c-0.1,0.5-0.1,0.9-0.2,1.4c0,0.2-0.2,0.6-0.4,0.7C25.4,54.8,24.9,55,24.4,55.2z M57.7,49.7c-0.4,0.4-0.8,0.8-1.3,1.1
	c-0.3,0.3-0.6,0.5-0.9,0.8c-0.5,0.5-1,0.5-1.6,0.2c-1-0.6-1.7-1.4-1.6-2.6c0.1-3,0.4-5.9,1.2-8.8c0.2-0.7,0.5-1.2,1.4-1.1
	c1.2,0.2,1.2,0.2,1,1.5c-0.2,1.3-0.5,2.7-0.7,4l0,0.2l0,0c-0.1,0.6-0.2,1.2-0.3,1.8l0,0c-0.1,0.6-0.2,1.1,0.1,1.7
	c0.1,0.3,0.5,0.5,0.8,0.3c0.2-0.1,0.4-0.2,0.6-0.4c0.5-0.4,0.9-1,0.9-1.6c0.3-2.7,0.6-5.3,1.1-8c0.2-1.2,1.1-1.5,1.9-0.7
	c0.3,0.3,0.3,0.9,0.2,1.4c-0.6,2.7-1,5.3-0.8,8c0,0.7,0.2,1.4,0.3,2c0.2,0.7,0,1.1-0.7,1.1l0,0C58.6,50.8,57.8,50.9,57.7,49.7z
	 M67.6,42.8c0.1-0.3,0.2-0.6,0.3-0.9c0,0,0.1,0,0.1,0c0,0,0,0,0,0c0,0,0,0,0,0c0,0.3,0,0.5,0,0.8v0v0v0v0v0v0v0v0v0v0v0v0v0v0v0v0v0
	v0v0v0v0v0v0v0c0,0.8,0,1.6,0,2.4c0,1.8,0.1,1.8,1.8,1.7c1,0,1.1-0.2,1-1.2c0-0.4-0.1-0.7-0.1-1.1l0,0c-0.1-1.7-0.3-3.4-0.4-5.1
	c0-0.9,0-1.8,0.1-2.8c0-0.4,0.1-0.9,0.1-1.3c0-0.6-0.1-1-0.8-1.2c-0.9-0.2-1.5-0.1-1.6,1.1c-0.7-0.8-1.4-0.7-2-0.3
	c-1.9,1.2-3.4,3-3.9,5.3c-0.4,1.7,0.8,3.3,2.5,3.3c0.1,0,0.2,0,0.3,0c0.1,0,0.2,0,0.4,0c-0.1,0.1-0.2,0.3-0.2,0.4
	c-0.1,0.2-0.2,0.4-0.3,0.5c-0.2,0.3-0.4,0.5-0.6,0.8c-0.6,0.7-1.1,1.5-1.7,2.2l0,0.1c-1.1,1.2-1.1,1.3,0.3,2.1c0,0,0,0,0,0
	c0,0,0,0,0,0c0.6,0.5,1.1,0.4,1.5-0.3c0.1-0.2,0.2-0.3,0.3-0.5l0,0c0.7-1.2,1.4-2.3,1.9-3.5C67,44.5,67.3,43.6,67.6,42.8z
	 M67.6,36.9c0.2-0.1,0.3-0.2,0.4-0.2c0,0.2,0,0.4,0,0.7c0,0.6,0,1.1-0.2,1.4c-0.6,0.8-1.4,1.5-2.3,2.1c-0.5,0.3-0.9-0.1-0.8-0.7
	c0.1-0.5,0.3-1.1,0.7-1.5c0.5-0.5,0.9-0.9,1.4-1.3l0,0l0,0l0,0C67.1,37.3,67.3,37.2,67.6,36.9L67.6,36.9L67.6,36.9z M37,46.4l0-0.1
	l0-0.1l0,0c0.1-0.6,0.2-1.3,1.2-1.1c1.1,0.2,1.5,0.6,1.3,1.7c-0.5,2.6-0.8,5.3-0.5,7.9c0.1,0.9,0.3,1.8,0.5,2.7
	c0.2,0.8-0.1,1.1-0.8,1.3c-1.2,0.3-1.8,0-2.3-1.4c-0.1,0.2-0.2,0.4-0.3,0.5c-0.2,0.3-0.4,0.7-0.7,1c-1.1,1.4-2.5,1.4-3.6,0.1
	c-1.1-1.4-1.2-3.1-0.9-4.9c0.5-2.8,2-5.1,4-7.1c0.3-0.3,0.8-0.3,1.3-0.3C36.5,46.4,36.7,46.4,37,46.4z M36.7,48.9
	c-1.7,1-3.2,3.6-3.3,5.9c0,0.5,0,1,0.2,1.4c0.3,0.7,0.8,0.8,1.3,0.1c0.4-0.6,0.8-1.3,1-2c0.3-1.3,0.5-2.7,0.7-4.1
	C36.6,49.7,36.7,49.3,36.7,48.9z M17.5,19.1l-3.8-2.7l-1.8,2.4l1.8,1.4c0.3,0.3,0.6,0.5,0.8,0.7c0.2,0.2,0.3,0.3,0.3,0.5
	c0,0.1,0,0.3-0.1,0.5L14.6,22l0.5,0.4l0.1-0.2c0.2-0.3,0.3-0.5,0.3-0.8c0-0.2-0.1-0.5-0.3-0.8c-0.2-0.3-0.5-0.6-0.9-0.9l-1.4-1.1
	l0.8-1.2l3.3,2.4L17.5,19.1z M51.3,6.5L49.4,6l-0.3,1.4L51.2,8l-0.1,0.6l-3-0.7l1.1-4.6l3,0.7L52,4.7l-2.2-0.5l-0.3,1.3l1.9,0.4
	L51.3,6.5z M37.6,74l0.8,0.2l1-4.6l-3.6-0.8l-1,4.6l0.8,0.2l0.9-3.9l2,0.5L37.6,74z M44.2,69.9l0.8,0L45,74.6l-0.8,0l0-3.3l-2.1,3.3
	l-0.8,0l0.1-4.7l0.8,0l0,3.3L44.2,69.9z M48.9,70l1.4-0.3l-0.1-0.7l-3.6,0.7l0.1,0.6l1.4-0.3l0.7,4l0.8-0.1L48.9,70z M55.1,71.2
	l-1.7,0.7l0,1.1l-0.8,0.3l0-5l0.7-0.3l3.3,3.7L55.9,72L55.1,71.2z M53.4,71.1l1.3-0.5l-1.3-1.6L53.4,71.1z M61.3,69.1l0.7-0.4
	l-2.5-4l-0.7,0.4l1,1.7l-1.8,1.1l-1-1.7l-0.7,0.4l2.5,4l0.7-0.4l-1.1-1.8l1.8-1.1L61.3,69.1z M63.1,61.5l0.6-0.6l3.3,3.4l-0.6,0.6
	L64,62.5l0.8,3.8l-0.6,0.6L61,63.5l0.6-0.6l2.3,2.4L63.1,61.5z M67.5,60.3l1.1-1.6l-0.5-0.3L67,59.9l-1.1-0.7l1.3-1.8L66.6,57
	l-1.7,2.5l3.8,2.7l1.8-2.5L70,59.2l-1.3,1.8L67.5,60.3z M56.1,12.9c-3.7-1.8-7.8-2.9-11.9-3.1c-4.1-0.2-8.2,0.4-12,1.8
	c-3.8,1.4-7.4,3.6-10.4,6.4c-3,2.8-5.4,6.2-7.1,10c1.3-4,3.6-7.6,6.6-10.6c1.5-1.5,3.1-2.8,4.9-4c1.8-1.1,3.7-2.1,5.7-2.8
	c2-0.7,4.1-1.2,6.1-1.5c2.1-0.3,4.2-0.3,6.3-0.1C48.5,9.4,52.6,10.8,56.1,12.9z M62.8,60c3-3,5.2-6.6,6.6-10.6
	c-1.7,3.8-4.1,7.2-7.1,10c-3,2.8-6.5,5-10.4,6.4c-3.8,1.4-8,2-12,1.8c-4.1-0.2-8.1-1.3-11.9-3.1c3.5,2.2,7.6,3.5,11.8,3.9
	c2.1,0.2,4.2,0.1,6.3-0.1c2.1-0.3,4.2-0.8,6.1-1.5c2-0.7,3.9-1.7,5.7-2.8C59.7,62.8,61.3,61.5,62.8,60z M77.3,54.2
	c1.3-3.2,2.2-6.6,2.6-10c-1.2,6.8-4.2,13.2-8.5,18.4c-4.3,5.2-10.1,9.3-16.4,11.6c-6.4,2.3-13.3,2.9-20,1.7
	c-6.7-1.2-13.1-4.2-18.3-8.6c2.5,2.4,5.3,4.3,8.4,5.9c3.1,1.6,6.4,2.7,9.8,3.4c3.4,0.7,6.9,0.9,10.4,0.7c3.5-0.3,6.9-1,10.2-2.2
	c3.3-1.2,6.4-2.8,9.2-4.9c2.8-2,5.4-4.4,7.5-7.2C74.2,60.4,75.9,57.4,77.3,54.2z M30.1,69.3c0.3,0.7-0.1,1.5-0.8,1.8
	c-0.7,0.3-1.5-0.1-1.8-0.8c-0.3-0.7,0.1-1.5,0.8-1.8C29.1,68.2,29.9,68.6,30.1,69.3z M72.5,55.4c0.7-0.3,1.1-1.1,0.8-1.8
	c-0.3-0.7-1.1-1.1-1.8-0.8c-0.7,0.3-1.1,1.1-0.8,1.8C71,55.3,71.7,55.6,72.5,55.4z M11.9,25.2c0.3,0.7-0.1,1.5-0.8,1.8
	c-0.7,0.3-1.5-0.1-1.8-0.8c-0.3-0.7,0.1-1.5,0.8-1.8C10.9,24.1,11.7,24.5,11.9,25.2z M57.7,9.9c0.7-0.3,1.1-1.1,0.8-1.8
	c-0.3-0.7-1.1-1.1-1.8-0.8C56,7.5,55.7,8.3,55.9,9C56.2,9.8,57,10.1,57.7,9.9z"/>
</svg>
