<?xml version="1.0" encoding="utf-8"?>
<!-- Generator: Adobe Illustrator 22.1.0, SVG Export Plug-In . SVG Version: 6.00 Build 0)  -->
<svg version="1.1" id="Слой_1" xmlns="http://www.w3.org/2000/svg" xmlns:xlink="http://www.w3.org/1999/xlink" x="0px" y="0px"
	 viewBox="0 0 53 57" style="enable-background:new 0 0 53 57;" xml:space="preserve">
<style type="text/css">
	.st0{fill:#FFFFFF;}
</style>
<path class="st0" d="M40.4,23.1v-21c0-0.6,0.2-1,0.6-1.4s0.8-0.6,1.3-0.6c0.5,0,0.9,0.2,1.3,0.6s0.6,0.9,0.6,1.4v19.2h6.9
	c0.5,0,0.9,0.2,1.2,0.6c0.4,0.4,0.5,0.8,0.5,1.4s-0.2,1-0.5,1.4c-0.4,0.4-0.8,0.6-1.2,0.6h-8.8c-0.5,0-0.9-0.2-1.3-0.6
	C40.6,24.2,40.4,23.7,40.4,23.1z M0.4,23.6V2.5c0-0.6,0.2-1,0.5-1.4c0.3-0.4,0.7-0.6,1.2-0.6h8.3c0.5,0,0.9,0.2,1.3,0.6
	c0.3,0.4,0.5,0.8,0.5,1.4c0,0.5-0.2,1-0.5,1.4s-0.8,0.6-1.3,0.6H4.1V10h5.3c0.5,0,0.9,0.2,1.3,0.6c0.3,0.4,0.5,0.8,0.5,1.4
	c0,0.5-0.2,1-0.5,1.4s-0.8,0.6-1.3,0.6H4.1v9.8c0,0.6-0.2,1-0.6,1.4c-0.4,0.4-0.8,0.6-1.3,0.6c-0.5,0-0.9-0.2-1.3-0.6
	C0.6,24.6,0.4,24.1,0.4,23.6z M13,23.2V2.5c0-0.5,0.2-1,0.5-1.4c0.3-0.4,0.8-0.6,1.3-0.6h8.3c0.5,0,0.9,0.2,1.3,0.6
	c0.3,0.4,0.5,0.8,0.5,1.4s-0.2,1-0.5,1.4c-0.3,0.4-0.8,0.6-1.3,0.6h-6.3v5.3h5.6c0.5,0,0.9,0.2,1.2,0.6c0.3,0.4,0.5,0.8,0.5,1.3
	c0,0.5-0.2,1-0.5,1.3c-0.3,0.4-0.7,0.6-1.2,0.6h-5.6v7.9h6.6c0.5,0,0.9,0.2,1.2,0.6s0.5,0.8,0.5,1.4s-0.2,1-0.5,1.4
	c-0.4,0.4-0.8,0.6-1.2,0.6h-8.5c-0.5,0-0.9-0.2-1.3-0.6C13.2,24.3,13,23.8,13,23.2z M26.7,2.5v20.8c0,0.6,0.2,1,0.5,1.4
	c0.4,0.4,0.8,0.6,1.3,0.6h8.5c0.5,0,0.9-0.2,1.2-0.6c0.4-0.4,0.5-0.8,0.5-1.4s-0.2-1-0.5-1.4s-0.8-0.6-1.2-0.6h-6.6v-7.9H36
	c0.5,0,0.9-0.2,1.2-0.6c0.3-0.4,0.5-0.8,0.5-1.3c0-0.5-0.2-0.9-0.5-1.3c-0.3-0.4-0.7-0.6-1.2-0.6h-5.6V4.4h6.3
	c0.5,0,0.9-0.2,1.3-0.6c0.3-0.4,0.5-0.8,0.5-1.4s-0.2-1-0.5-1.4c-0.4-0.4-0.8-0.6-1.3-0.6h-8.3c-0.5,0-0.9,0.2-1.3,0.6
	C26.9,1.5,26.7,1.9,26.7,2.5z M2.3,55.9h8.2c0.6,0,1.1-0.2,1.5-0.7c0.4-0.5,0.6-1,0.6-1.7s-0.2-1.2-0.6-1.7
	c-0.4-0.5-0.9-0.7-1.5-0.7H4.7v-6.3h4.8c0.6,0,1.1-0.2,1.5-0.7c0.4-0.4,0.6-1,0.6-1.6c0-0.6-0.2-1.2-0.6-1.6
	c-0.4-0.5-0.9-0.7-1.5-0.7H4.7v-4.3h5.6c0.6,0,1.1-0.2,1.5-0.7c0.4-0.5,0.6-1,0.6-1.7c0-0.7-0.2-1.2-0.6-1.7
	c-0.4-0.5-0.9-0.7-1.5-0.7H2.3c-0.6,0-1.2,0.3-1.7,0.8C0.2,32.5,0,33.1,0,33.8v19.5c0,0.7,0.2,1.3,0.7,1.8
	C1.1,55.6,1.7,55.9,2.3,55.9z M27.7,31.9l7.9,21c0.1,0.3,0.2,0.6,0.2,0.9c0,0.7-0.2,1.3-0.6,1.7c-0.4,0.5-0.9,0.7-1.6,0.7
	c-1,0-1.8-0.6-2.1-1.7l-1.2-3.4h-8L21,54.6c-0.4,1.1-1.1,1.7-2.1,1.7c-0.6,0-1.1-0.2-1.6-0.7c-0.4-0.5-0.6-1.1-0.6-1.7
	c0-0.3,0-0.6,0.2-0.9l8-21c0.3-0.7,0.8-1.1,1.4-1.1C26.9,30.8,27.4,31.2,27.7,31.9z M26.2,39.8L23.7,47h5.1L26.2,39.8z M50.9,31.2
	H39.6c-0.6,0-1.1,0.2-1.5,0.7c-0.4,0.5-0.6,1-0.6,1.7c0,0.7,0.2,1.2,0.6,1.7c0.4,0.5,0.9,0.7,1.5,0.7h3.3v17.8
	c0,0.7,0.2,1.3,0.7,1.8c0.5,0.5,1,0.8,1.7,0.8c0.6,0,1.2-0.3,1.7-0.8c0.5-0.5,0.7-1.1,0.7-1.8V35.9h3.3c0.6,0,1.1-0.2,1.5-0.7
	c0.4-0.5,0.6-1,0.6-1.7c0-0.7-0.2-1.2-0.6-1.7C52,31.4,51.5,31.2,50.9,31.2z"/>
</svg>
