<svg width="139" height="28" viewBox="0 0 139 28" fill="none" xmlns="http://www.w3.org/2000/svg">
<path fill-rule="evenodd" clip-rule="evenodd" d="M133.94 7.52045L133.939 7.52116L133.939 7.52137C133.499 8.18929 133.058 8.86025 132.552 9.47254C131.773 10.4266 130.91 11.3281 130.058 12.2189L130.058 12.2191C129.945 12.3369 129.833 12.4545 129.72 12.572C129.237 13.0882 128.744 13.0786 128.341 12.5264C128.329 12.5168 128.321 12.5079 128.313 12.499C128.31 12.4962 128.308 12.4933 128.305 12.4904C128.299 12.4844 128.293 12.4782 128.285 12.4716C127.208 11.4223 127.219 11.4146 128.477 10.542L128.528 10.5065C129.23 10.0292 129.886 9.48721 130.544 8.94351L130.544 8.9434C130.767 8.75875 130.991 8.5739 131.217 8.39134C131.345 8.28607 131.458 8.15111 131.593 7.99159C131.676 7.89319 131.767 7.78544 131.874 7.66955C131.746 7.65063 131.641 7.63958 131.549 7.62999C131.43 7.61758 131.335 7.60763 131.247 7.58626C129.787 7.24587 129.01 5.57015 129.746 4.12408C130.748 2.15043 132.395 0.925235 134.409 0.229744C135.102 -0.0152169 135.725 0.0810713 136.156 0.915398C136.503 -0.170965 137.022 -0.155096 137.801 0.267901C138.384 0.5884 138.458 0.964349 138.293 1.53019C138.178 1.91211 138.053 2.29144 137.928 2.67078L137.927 2.67111C137.661 3.47713 137.395 4.28317 137.231 5.11399C136.914 6.65102 136.678 8.1984 136.443 9.74416L136.442 9.748C136.39 10.0869 136.339 10.4257 136.286 10.7643C136.143 11.6935 136.018 11.8144 135.111 11.6357C133.613 11.341 133.57 11.2894 133.913 9.70651C134.066 8.98945 134.244 8.2704 134.42 7.55501C134.478 7.31706 134.537 7.07952 134.594 6.84259C134.57 6.82981 134.546 6.8138 134.523 6.79778L134.523 6.79765C134.499 6.78158 134.475 6.76552 134.451 6.75271C134.278 7.0058 134.109 7.2629 133.94 7.52045ZM135.717 2.15818C135.66 2.09631 135.5 2.1561 135.31 2.22727C135.282 2.2377 135.254 2.24838 135.225 2.25896C134.955 2.39892 134.704 2.52009 134.463 2.63699L134.463 2.63708C133.944 2.8883 133.466 3.11982 132.919 3.47574C132.512 3.73494 132.178 4.20459 131.963 4.63447C131.739 5.10336 132.048 5.59129 132.52 5.40302C133.401 5.06589 134.293 4.62158 135.019 4.0129C135.29 3.7948 135.42 3.26991 135.543 2.77807C135.598 2.55384 135.652 2.33648 135.717 2.15818ZM122.243 12.3077L122.243 12.3075L122.244 12.3068C122.691 12.0691 123.145 11.8278 123.616 11.5727C123.5 12.6163 124.195 12.7462 124.931 12.8835L124.936 12.8844C125.628 13.0386 125.811 12.7388 125.826 12.0539C125.838 11.4372 125.866 10.8106 125.975 10.19C126.39 7.74333 127.292 5.44257 128.429 3.19862C128.615 2.8306 128.695 2.21667 128.517 1.92581C127.953 1.01776 127.097 1.08536 126.653 2.12048C125.675 4.38929 124.796 6.70936 123.942 9.03574C123.735 9.60512 123.306 10.0657 122.746 10.274C122.533 10.3599 122.309 10.4296 122.089 10.4863C121.749 10.5828 121.494 10.3281 121.447 10.0137C121.37 9.44455 121.556 8.97853 121.761 8.46685L121.776 8.42763C121.976 7.90374 122.184 7.39251 122.395 6.87373L122.396 6.87328L122.478 6.67025C122.95 5.5181 123.436 4.36911 123.947 3.22643C124.43 2.14562 124.432 2.07744 123.404 1.66267C122.665 1.35948 122.266 1.75819 121.929 2.35119C120.55 4.74287 119.627 7.30015 118.918 9.93708C118.598 11.0849 119.065 11.9417 119.813 12.6603C120.202 13.0438 120.689 13.1345 121.242 12.8418C121.574 12.6633 121.905 12.4872 122.24 12.3091L122.242 12.3083L122.243 12.3077ZM113.266 12.5725C113.502 13.7587 113.502 13.7587 115.221 13.7078C114.852 14.7197 114.505 15.6406 114.16 16.5484C113.902 17.2707 114.116 17.584 114.836 17.5109C115.682 17.4271 116.263 16.9622 116.517 16.1426C116.895 14.9262 117.246 13.7035 117.546 12.4682C117.821 11.3369 117.628 11.1662 116.507 11.4174C115.882 11.5548 115.598 11.362 115.717 10.7024C115.763 10.397 115.823 10.0948 115.921 9.80199C116.093 9.30664 116.264 8.81109 116.435 8.31554L116.436 8.31418C116.948 6.82818 117.461 5.34219 117.996 3.86152C118.155 3.43202 118.263 3.10024 117.881 2.7459C117.013 1.9568 116.581 1.97602 116.106 3.14116C115.269 5.16884 114.521 7.23161 113.828 9.29399C113.577 10.0454 113.237 10.6514 112.597 11.0745C112.319 11.2549 112.022 11.403 111.724 11.5511C111.365 11.7256 111.064 11.4324 110.997 11.0856C110.841 10.211 111.275 9.2535 111.657 8.40915C111.747 8.21143 111.834 8.01992 111.909 7.83713C112.385 6.67198 112.899 5.51629 113.411 4.37361C113.702 3.74199 113.605 3.4019 113.074 3.09402C112.299 2.65802 111.867 2.73241 111.296 3.66779C109.798 6.09925 108.91 8.73417 108.413 11.4638C108.222 12.4776 108.683 13.3604 109.521 13.9356C110.31 14.4851 111.099 14.0707 111.839 13.6306C112.174 13.4339 112.484 13.1873 112.799 12.9362C112.952 12.8143 113.107 12.6913 113.266 12.5725ZM76.2137 13.318C76.041 13.5714 75.8717 13.8287 75.702 14.0865C75.2624 14.7545 74.8208 15.4255 74.3145 16.0378C73.5358 16.992 72.6731 17.8935 71.8208 18.7843C71.708 18.9021 71.5955 19.0198 71.4833 19.1374C71.0001 19.6535 70.5067 19.6439 70.1037 19.0917C70.0923 19.0821 70.0841 19.0732 70.0759 19.0644C70.0677 19.0555 70.0596 19.0466 70.0481 19.037C68.9712 17.9876 68.9823 17.9799 70.2398 17.1073L70.2909 17.0718C70.9925 16.5946 71.6485 16.0526 72.3065 15.5089C72.53 15.3242 72.7538 15.1393 72.9797 14.9566C73.1074 14.8514 73.2213 14.7164 73.3559 14.5569C73.4389 14.4585 73.5298 14.3507 73.6367 14.2349C73.5093 14.2159 73.4035 14.2049 73.3118 14.1953C73.193 14.1829 73.0978 14.1729 73.0098 14.1516C71.5502 13.8112 70.7727 12.1355 71.5091 10.6894C72.5113 8.71574 74.1579 7.49055 76.1718 6.79506C76.8646 6.5501 77.4884 6.64638 77.9193 7.48071C78.2655 6.39435 78.7849 6.41022 79.5635 6.83321C80.1466 7.15371 80.2206 7.52966 80.0558 8.09551C79.9411 8.47744 79.8157 8.8568 79.6903 9.23615C79.424 10.0423 79.1576 10.8484 78.9934 11.6793C78.6769 13.2163 78.4411 14.7637 78.2055 16.3095C78.1537 16.6496 78.1019 16.9897 78.0492 17.3296C77.9063 18.2588 77.7806 18.3797 76.8739 18.201C75.3757 17.9063 75.3332 17.8547 75.676 16.2718C75.8292 15.555 76.0062 14.8362 76.1824 14.1211L76.1825 14.1205L76.1827 14.1198L76.1829 14.1189L76.183 14.1186C76.2414 13.8812 76.2998 13.6443 76.3571 13.4079C76.3327 13.3951 76.3091 13.379 76.2854 13.363C76.2618 13.3469 76.2381 13.3308 76.2137 13.318ZM77.467 8.72034C77.41 8.65847 77.2501 8.71825 77.0599 8.78941C77.032 8.79985 77.0034 8.81054 76.9744 8.82112C76.7043 8.96112 76.454 9.08232 76.2125 9.19926C75.6937 9.45047 75.2156 9.68198 74.6689 10.0379C74.2618 10.2971 73.9275 10.7668 73.713 11.1966C73.4891 11.6655 73.7975 12.1534 74.2701 11.9652C75.1505 11.628 76.0431 11.1837 76.7691 10.5751C77.0396 10.357 77.1701 9.83208 77.2924 9.34024C77.3481 9.116 77.4022 8.89863 77.467 8.72034ZM18.4479 15.3092C18.68 13.6719 18.3622 12.3143 17.3809 11.1949C17.0665 10.8406 16.7289 10.5076 16.3886 10.1718C16.3076 10.0919 16.2264 10.0119 16.1454 9.9313C16.1106 9.89531 16.0744 9.85944 16.038 9.82338L16.0378 9.82314L16.0378 9.82309C15.7289 9.5169 15.4068 9.19747 15.8154 8.68086C16.2498 8.13911 16.8114 7.69709 17.4694 8.04952C18.0167 8.34755 18.5518 8.75276 18.9575 9.23676C20.7115 11.3146 21.384 13.7635 20.7904 16.6073C20.2819 19.1001 19.4479 21.4588 17.6734 23.4378C16.6912 24.5351 15.4923 25.2768 14.1059 25.6564C12.4539 26.1092 11.208 25.2286 11.0795 23.5452C10.8508 20.5155 13.241 16.056 15.973 14.5572C16.3383 14.3567 16.9262 14.4305 17.3392 14.5445C17.6139 14.6209 17.8518 14.8202 18.1126 15.0387C18.2192 15.128 18.3296 15.2206 18.4479 15.3092ZM18.324 16.1603C18.2294 16.0961 16.8186 16.69 16.2798 17.1514C14.8345 18.3979 13.9045 20.0173 13.4758 21.8409C13.4127 22.101 13.4698 22.3765 13.543 22.6421C13.656 23.0275 14.0536 23.2617 14.4422 23.1356L14.4422 23.1356C14.6979 23.0462 14.9537 22.9568 15.1472 22.7835C17.1569 21.0268 17.8868 18.6429 18.324 16.1603ZM36.2666 12.2389C38.7979 11.2835 40.7245 12.9902 40.2499 15.6839C39.838 18.0624 38.4426 19.9544 36.8092 21.6923C36.4001 22.13 35.9322 22.5259 35.4577 22.8927C34.6249 23.5443 34.3648 23.4812 33.846 22.6118L33.8445 22.609C33.73 22.403 33.6151 22.1963 33.4056 21.8164C33.335 22.0083 33.2686 22.1872 33.2057 22.3568C33.053 22.7684 32.9203 23.1262 32.7941 23.4856C32.6551 23.8879 32.5148 24.2899 32.3744 24.6919C32.0937 25.4958 31.8129 26.2997 31.5437 27.1064C31.3371 27.7309 31.066 27.9405 30.4564 27.5585L30.4062 27.5271C29.7561 27.1198 29.4227 26.911 29.3193 26.6203C29.2104 26.3145 29.3561 25.9181 29.655 25.1045L29.6732 25.0553C30.0175 24.1097 30.3496 23.1594 30.6817 22.2093L30.6818 22.2092C31.305 20.4263 31.9281 18.6436 32.6316 16.892C32.8915 16.2445 32.677 15.7993 32.4663 15.3621C32.3667 15.1554 32.268 14.9506 32.2206 14.727C32.0761 14.0172 32.2681 13.6232 32.7919 13.3372C33.5194 12.9492 33.8498 12.3822 33.9449 11.5929C33.9495 11.5541 33.9536 11.5135 33.9579 11.4719C34.002 11.0403 34.0578 10.4941 34.736 10.5457C35.9537 10.6346 36.3394 11.0311 36.258 11.9339C36.2781 12.0214 36.2753 12.0896 36.2666 12.2389ZM33.768 20.7202C35.85 20.0275 37.8843 17.6021 38.1562 15.6302C38.2367 15.0715 38.2554 14.4839 37.5595 14.2875C36.9385 14.1231 35.7215 14.5988 35.5275 15.1714C35.0739 16.5268 34.6499 17.8894 34.2071 19.3126L34.2068 19.3134C34.0631 19.7754 33.9174 20.2437 33.768 20.7202ZM10.059 20.9982C10.3628 19.4058 9.93464 18.5033 8.55752 17.88C8.75933 17.6554 8.96574 17.4383 9.17022 17.2233L9.17053 17.223L9.17055 17.223L9.17057 17.223L9.17059 17.2229L9.17061 17.2229C9.63495 16.7346 10.0893 16.2568 10.4574 15.7249C11.8106 13.8364 11.1408 11.3194 9.12174 10.7881C7.52863 10.374 5.97318 10.7126 4.59529 11.8516C4.30166 12.097 4.06397 12.4524 3.87159 12.7912C3.55109 13.3744 3.68523 14.4672 4.16952 14.5709C4.45234 14.6289 4.81234 14.4362 5.15497 14.2528L5.155 14.2528C5.25727 14.198 5.358 14.1441 5.45466 14.0979C5.55828 14.0452 5.64869 13.9587 5.73937 13.872C5.84115 13.7746 5.94327 13.6769 6.06477 13.6263C6.13337 13.5962 6.20205 13.5657 6.27084 13.5352C6.78927 13.3051 7.31335 13.0725 7.84845 12.9714C8.71069 12.8226 9.04515 13.3168 8.68717 14.1112C8.07371 15.5045 6.95082 16.4437 5.72314 17.2473C5.61031 17.3255 5.46402 17.3356 5.31888 17.3457L5.31859 17.3457L5.31831 17.3457C5.29329 17.3474 5.26831 17.3492 5.24354 17.3513C3.67079 17.5342 3.49343 17.6977 3.1278 19.2612C2.92309 20.1616 3.04403 20.2874 3.97091 20.0992C4.12548 20.0679 4.27969 20.0351 4.43384 20.0023C4.95845 19.8908 5.48227 19.7794 6.01619 19.728C7.08965 19.6167 7.68254 20.4077 7.12435 21.3463C6.54053 22.3337 5.78767 23.2801 4.93948 24.0519C3.83313 25.0364 3.10885 24.957 2.00604 24.1111C1.81023 23.9535 1.40005 23.7713 1.3291 23.8367C0.923126 24.2614 0.494676 24.722 0.284133 25.2492C0.178862 25.5128 0.464841 26.0366 0.726057 26.2652C1.63027 27.0216 2.75058 27.1145 3.90368 26.7884C5.57186 26.3258 7.05531 25.4327 8.31225 24.168C9.18884 23.2792 9.82744 22.2363 10.059 20.9982ZM67.7751 8.81407C67.7239 8.91179 67.6726 9.00951 67.7239 8.91179C67.4651 8.90038 67.2087 8.85944 66.9653 8.82058C66.4913 8.74488 66.0666 8.67708 65.7697 8.85069C63.5623 10.1739 61.6724 11.8908 60.6379 14.3385C59.9991 15.8358 59.682 17.3699 60.3642 18.871C61.02 20.3107 62.2876 20.5907 63.5918 19.5853C63.8824 19.3642 64.1444 19.112 64.4164 18.8501C64.5554 18.7163 64.697 18.58 64.8464 18.444C64.9659 19.7673 65.3906 20.1733 66.5752 20.1716C67.2632 20.1733 67.6021 19.9113 67.5905 19.1649C67.5848 18.3374 67.6113 17.4902 67.7159 16.6619C68.0108 14.255 68.842 11.9645 69.8682 9.72127C70.2775 8.82919 70.0273 8.32788 69.1029 7.93835C68.3171 7.60539 68.0701 8.15651 67.8231 8.70763C67.8072 8.74319 67.7912 8.77875 67.7751 8.81407ZM62.7238 15.6157C63.2814 13.6581 65.1721 11.5972 66.9471 11.0916C66.753 11.5701 66.5661 12.0442 66.3808 12.514L66.3806 12.5145L66.3805 12.5147C65.9447 13.6201 65.5181 14.7021 65.029 15.762C64.7605 16.3578 64.2351 16.8775 63.7286 17.3191C63.1706 17.8033 62.7312 17.6278 62.6128 16.9244C62.5482 16.5094 62.6066 16.0417 62.7238 15.6157ZM57.6404 15.0019C59.0967 17.6822 57.5667 20.7532 54.4567 21.0864C52.0374 21.353 50.4615 19.6763 50.8786 17.1063C51.2992 14.5785 52.5043 12.3925 54.5144 10.6909C55.363 9.97431 56.3337 9.54893 57.4304 9.51212C59.1402 9.4451 60.1491 10.7914 59.4269 12.4062C59.1626 13.0256 58.7313 13.5783 58.2698 14.1697C58.062 14.436 57.848 14.7102 57.6404 15.0019ZM53.5503 15.9186L53.5503 15.9186L53.5503 15.9186C53.3749 16.5079 53.2145 17.0467 53.1278 17.597C53.0189 18.2728 53.3534 18.7671 54.052 18.8953C54.7117 19.014 55.481 18.5673 55.82 17.851C56.1271 17.2095 56.0839 16.5932 55.6616 16.0639C55.6289 16.0284 55.5635 15.9574 55.5312 15.9771C54.8502 16.3323 54.5387 15.9415 54.1633 15.4705C54.052 15.3309 53.9352 15.1843 53.8014 15.048C53.7185 15.3533 53.6329 15.6412 53.5505 15.9179L53.5504 15.9182L53.5503 15.9185L53.5503 15.9186ZM54.5982 13.41C54.5052 13.5664 54.6525 13.7536 54.8275 13.7135C55.6925 13.4965 56.5521 12.9616 57.0369 12.2118C57.1236 12.0814 57.1583 11.9383 57.1733 11.763C57.2136 11.4836 56.9524 11.255 56.6769 11.3121C56.5473 11.3357 56.4243 11.3884 56.3372 11.4637C56.2673 11.5356 56.1874 11.6166 56.101 11.7042C55.5984 12.2142 54.8747 12.9484 54.5982 13.41ZM25.3449 24.2804C27.8435 23.2895 30.187 19.5897 30.0765 16.754C30.0802 15.8874 29.8538 15.0614 28.927 14.7952C28.2603 14.5921 27.8395 14.2835 27.6205 13.597C27.4213 12.9428 26.9563 12.8162 26.3395 13.2586C24.4505 14.6315 22.9042 16.2942 22.0399 18.494C21.3701 20.1765 21.255 21.8422 22.2229 23.3576C22.9415 24.482 24.0503 24.7924 25.3449 24.2804ZM23.9088 21.2332C24.0898 18.7849 25.0328 16.7143 27.4914 15.094C27.5415 15.3381 27.6027 15.5654 27.6606 15.7804L27.6606 15.7804C27.7848 16.2419 27.8938 16.6466 27.8456 17.0388C27.6178 18.8286 26.8991 20.4855 25.6689 21.8668C25.4983 22.0595 25.2524 22.165 24.9934 22.2674C24.6147 22.4096 24.2045 22.2275 24.0462 21.8586C23.9572 21.658 23.8973 21.4507 23.9088 21.2332ZM49.7573 14.5211C49.8679 17.3568 47.5244 21.0565 45.0258 22.0475C43.7312 22.5595 42.6223 22.2491 41.9038 21.1247C40.9359 19.6093 41.0509 17.9436 41.7208 16.2611C42.5851 14.0612 44.1313 12.3986 46.0204 11.0257C46.6372 10.5833 47.1022 10.7099 47.3014 11.3641C47.5204 12.0506 47.9412 12.3592 48.6079 12.5623C49.5347 12.8285 49.7449 13.6644 49.7573 14.5211ZM47.1722 12.8611C44.7137 14.4814 43.7707 16.552 43.5897 19.0003C43.5782 19.2178 43.6381 19.4251 43.7271 19.6257C43.8854 19.9946 44.2956 20.1767 44.6743 20.0345C44.9332 19.9321 45.1792 19.8266 45.3498 19.6339C46.58 18.2526 47.2987 16.5957 47.5265 14.8059C47.5717 14.4297 47.4669 14.0357 47.3464 13.582C47.2868 13.358 47.2234 13.1193 47.1722 12.8611ZM92.1156 9.23027C92.2833 9.21217 92.4473 9.19629 92.6082 9.18071C93.1256 9.13063 93.6101 9.08372 94.0773 8.97651C94.2783 8.94266 94.51 8.66845 94.6027 8.45685C94.7654 8.05168 94.9139 7.64308 95.0622 7.23546L95.0625 7.23462L95.0625 7.23452L95.0625 7.23443C95.263 6.68308 95.4629 6.1335 95.696 5.59657C95.7314 5.51639 95.7636 5.42754 95.7967 5.33646C95.9635 4.87655 96.1509 4.35974 96.8706 4.61481C98.0385 5.02212 98.2098 5.39415 97.8049 6.43873C97.6546 6.8283 97.499 7.21659 97.3431 7.60551L97.3429 7.60609L97.3428 7.60615L97.3428 7.60621C97.0756 8.27286 96.8077 8.94136 96.5645 9.62134C95.9308 11.3815 95.6349 13.1685 95.6865 14.9986C95.6893 15.081 95.6991 15.1698 95.7092 15.2608C95.7602 15.7213 95.8179 16.2416 94.9947 16.3177C93.7427 16.427 93.0394 16.0911 93.0719 15.1627C93.1075 14.4307 93.2471 13.7014 93.3867 12.9718V12.9718V12.9717V12.9716L93.3869 12.9706L93.3871 12.9697C93.4368 12.7099 93.4866 12.45 93.5316 12.19C93.5793 11.9482 93.6602 11.7145 93.7412 11.4808C93.7614 11.4223 93.7816 11.3639 93.8013 11.3054C92.5684 10.8823 91.5693 11.4247 91.2176 12.6474C91.1472 12.892 91.0774 13.1367 91.0075 13.3814C90.7282 14.3601 90.4489 15.3387 90.1363 16.3092C89.8886 17.1028 89.6652 17.1725 89.0131 16.7389L88.9821 16.718C87.604 15.791 87.5711 15.7689 88.3193 14.037C88.7538 13.0409 88.923 12.1733 88.5103 11.1506C88.1207 10.2024 88.369 9.97346 89.3271 9.60009C89.5699 9.50754 89.8599 9.21993 89.9361 8.96302C90.1278 8.3825 90.2801 7.79243 90.4324 7.20236C90.5276 6.83357 90.6227 6.46479 90.7276 6.09833C90.8987 5.50648 91.0927 4.93395 91.9155 5.1749C92.9723 5.47264 93.044 5.51759 92.7884 6.57087C92.6165 7.38822 92.3909 8.21791 92.1464 9.1171L92.1463 9.11734L92.1156 9.23027ZM105.882 3.96496L105.831 4.06267C105.587 4.0477 105.344 4.00897 105.113 3.97198C104.623 3.8937 104.181 3.82316 103.876 4.00157C101.669 5.32477 99.779 7.04169 98.7445 9.4894C98.1058 10.9867 97.7886 12.5207 98.4708 14.0219C99.1266 15.4615 100.394 15.7416 101.698 14.7362C101.989 14.5151 102.251 14.2629 102.523 14.001C102.662 13.8672 102.804 13.7309 102.953 13.5949C103.073 14.9182 103.497 15.3242 104.682 15.3224C105.37 15.3242 105.709 15.0622 105.697 14.3158C105.691 13.4883 105.718 12.641 105.823 11.8127C106.117 9.40586 106.949 7.11533 107.975 4.87214C108.384 3.98007 108.134 3.47876 107.21 3.08923C106.424 2.75627 106.177 3.30739 105.93 3.85852C105.914 3.89408 105.898 3.92963 105.882 3.96496ZM100.821 10.7505C101.378 8.79286 103.269 6.73191 105.044 6.22631C104.895 6.60078 104.75 6.97312 104.606 7.34288C104.132 8.56055 103.668 9.75034 103.126 10.8968C102.857 11.4925 102.332 12.0122 101.825 12.4538C101.267 12.938 100.828 12.7626 100.71 12.0591C100.645 11.6442 100.703 11.1764 100.821 10.7505Z" fill="#ED1E40"/>
</svg>
