<svg width="271" height="50" viewBox="0 0 271 50" fill="none" xmlns="http://www.w3.org/2000/svg">
<path d="M0 18.7267C0 13.6569 0 8.6312 0 3.56139C0 3.16463 -6.73344e-07 2.76786 0.0440846 2.37109C0.264511 0.872195 1.32256 0.0345747 2.90962 0.0345747C4.49669 0.0345747 5.46657 0.872195 5.687 2.37109C5.73108 2.81195 5.77516 3.2528 5.77516 3.69365C5.77516 7.26455 5.77516 10.8355 5.77516 14.4064C5.77516 15.6848 5.99559 15.8612 7.22998 15.8612C10.4923 15.8612 13.7546 15.8612 17.061 15.8612C18.1631 15.8612 18.4717 15.5526 18.4717 14.4504C18.4717 10.7032 18.4717 6.95596 18.4717 3.20871C18.4717 1.62165 19.0448 0.563598 20.191 0.210916C22.4394 -0.494447 24.2469 0.607682 24.2469 2.9442C24.2469 13.4365 24.2469 23.9288 24.2469 34.377C24.2469 36.2285 23.1888 37.3307 21.4695 37.3748C19.5738 37.4189 18.4717 36.3608 18.4717 34.377C18.4276 31.5114 18.4717 28.6459 18.4717 25.7363C18.4717 24.6341 18.4717 23.5761 18.4717 22.474C18.4717 21.5923 18.119 21.1955 17.2373 21.1514C13.8428 21.1514 10.4482 21.1514 7.05364 21.1514C6.12785 21.1514 5.81925 21.5482 5.81925 22.5621C5.81925 26.2653 5.81925 30.0125 5.81925 33.7157C5.81925 34.0684 5.81925 34.4211 5.77516 34.7737C5.51065 36.6694 4.4967 37.4629 2.55694 37.3748C1.01396 37.2866 0.0440846 36.1845 0.0440846 34.4651C-6.73344e-07 29.219 0 23.9729 0 18.7267Z" fill="#EEA4C8"/>
<path d="M64.8934 14.186C65.1139 14.0537 65.2902 14.0096 65.3784 13.8774C70.5363 8.93983 80.5437 10.1742 83.4092 19.0794C84.9522 23.9288 84.6436 28.69 81.6899 33.0104C79.3975 36.3168 76.0911 37.6834 72.1675 37.5952C69.7869 37.5511 67.6708 36.8017 65.8633 35.2146C65.6429 35.0383 65.3343 34.9942 65.0698 34.906C65.0257 35.1705 64.8934 35.391 64.8934 35.6555C64.8934 38.8737 64.8934 42.0478 64.8934 45.2661C64.8934 45.6187 64.8493 46.0155 64.8053 46.3682C64.5408 47.8671 63.4386 48.7488 62.0279 48.6606C60.5731 48.5724 59.6032 47.6026 59.4709 46.0596C59.4709 45.8392 59.4709 45.6187 59.4709 45.3983C59.4709 35.0824 59.4709 24.7664 59.4709 14.4505C59.4709 14.0096 59.515 13.5688 59.6032 13.1279C59.9118 11.9376 60.7935 11.2763 62.0279 11.1882C63.1741 11.1441 64.144 11.7172 64.5848 12.8634C64.6289 13.3043 64.7612 13.701 64.8934 14.186ZM71.6826 33.0104C73.8427 33.0104 75.518 32.1727 76.7964 30.4534C79.0007 27.5438 79.3093 22.3858 77.3696 19.1235C74.6804 14.5386 68.5084 14.4946 65.9074 19.1235C63.9676 22.6503 64.0558 26.3094 66.0397 29.7921C67.274 31.9082 69.1697 33.0544 71.6826 33.0104Z" fill="#EEA4C8"/>
<path d="M93.7693 14.1859C93.9897 14.0537 94.1661 14.0096 94.2542 13.9214C99.4122 8.98389 109.42 10.1742 112.285 19.1235C113.828 23.9288 113.519 28.7341 110.566 33.0544C108.273 36.3608 105.011 37.7275 101.043 37.6393C98.6628 37.5952 96.5467 36.8458 94.7392 35.2587C94.5188 35.0823 94.2102 35.0383 93.9457 34.9501C93.9016 35.2146 93.7693 35.435 93.7693 35.6995C93.7693 38.9178 93.7693 42.0919 93.7693 45.3101C93.7693 45.6628 93.7252 46.0596 93.6811 46.4123C93.4166 47.9112 92.3145 48.7929 90.9038 48.7047C89.449 48.6165 88.4791 47.6466 88.3027 46.1477C88.3027 45.9273 88.3027 45.7069 88.3027 45.4865C88.3027 35.1705 88.3027 24.8546 88.3027 14.5386C88.3027 14.0978 88.3468 13.6569 88.435 13.2161C88.7436 12.0258 89.6253 11.3645 90.8597 11.2763C92.05 11.1882 93.0199 11.8494 93.4607 12.9956C93.5048 13.3483 93.593 13.701 93.7693 14.1859ZM100.514 33.0103C102.675 33.0103 104.306 32.1727 105.628 30.4975C107.921 27.5438 108.141 22.2535 106.113 18.9912C103.468 14.6709 97.4725 14.5827 94.8714 18.9472C92.7554 22.474 92.8435 26.2212 94.8714 29.7921C96.1058 31.9082 98.0015 33.0103 100.514 33.0103Z" fill="#EEA4C8"/>
<path d="M48.4937 34.4652C48.2292 34.6415 48.0088 34.7738 47.8325 34.906C43.5562 39.3145 34.1219 38.6092 30.7715 31.4233C28.1704 25.8245 28.3468 20.2256 32.094 15.1118C35.709 10.1742 43.468 9.64518 47.7002 13.5688C48.2292 14.0978 48.5378 14.0096 48.7142 13.2602C49.155 11.4968 50.4776 11.1441 51.8442 11.3204C53.1227 11.4968 54.0044 12.5989 54.0044 14.0978C54.0044 20.8869 54.0044 27.676 54.0044 34.4652C54.0044 36.5813 52.241 37.8156 50.3012 37.1544C49.2873 36.8017 48.8905 36.0082 48.6701 35.0383C48.6701 34.9501 48.5819 34.7738 48.4937 34.4652ZM34.7832 24.4137C34.7391 26.2653 35.0918 28.161 36.194 29.8362C38.7509 33.9361 44.3938 34.0684 47.1712 30.1448C49.4636 26.9266 49.3754 21.46 46.9948 18.33C44.3056 14.715 39.1036 14.8032 36.4585 18.4181C35.18 20.1816 34.7391 22.1654 34.7832 24.4137Z" fill="#EEA4C8"/>
<path d="M125.687 29.9243C127.23 25.6922 128.685 21.6363 130.14 17.5805C130.669 16.0816 131.198 14.5827 131.771 13.1279C132.3 11.8494 133.314 11.2763 134.636 11.3645C135.65 11.4526 136.62 12.2021 136.885 13.216C137.149 14.1418 137.017 15.0235 136.664 15.9052C135.562 18.6385 134.504 21.3718 133.402 24.1051C130.404 31.6877 127.406 39.2704 124.364 46.809C124.276 47.0735 124.144 47.338 124.012 47.6025C123.262 49.1014 121.763 49.7627 120.397 49.1896C119.074 48.6606 118.457 47.1176 119.03 45.5305C119.912 43.1499 120.749 40.7693 121.852 38.521C122.733 36.7135 122.645 35.1264 121.852 33.2748C119.383 27.4996 117.134 21.6363 114.842 15.8171C114.533 15.0235 114.445 14.0977 114.533 13.3042C114.666 12.2902 115.371 11.5849 116.429 11.3645C117.531 11.144 118.501 11.4085 119.206 12.3343C119.515 12.7752 119.78 13.2601 119.956 13.7891C121.763 18.8589 123.527 23.9287 125.29 29.0426C125.467 29.3071 125.555 29.5276 125.687 29.9243Z" fill="#EEA4C8"/>
<path d="M162.486 13.6468C162.839 13.3823 163.059 13.2059 163.28 13.0296C165.66 11.0457 168.394 10.4286 171.391 11.178C173.111 11.6189 174.433 12.5887 175.447 13.9995C175.932 14.6607 176.153 14.6607 176.682 14.0435C179.194 11.2662 182.369 10.2963 185.984 11.0898C189.599 11.8834 191.538 14.4403 192.376 17.879C192.64 19.0252 192.817 20.2155 192.817 21.4058C192.861 25.638 192.861 29.8261 192.817 34.0582C192.817 35.6453 192.2 36.6593 191.097 37.056C189.114 37.7614 187.35 36.4829 187.35 34.2787C187.35 30.0465 187.394 25.8143 187.306 21.5821C187.306 20.48 187.086 19.3338 186.689 18.3198C185.984 16.4682 184.529 15.5424 182.545 15.4983C180.561 15.4543 179.106 16.3801 178.269 18.1876C177.916 18.9811 177.651 19.9069 177.651 20.7445C177.563 25.0208 177.607 29.3411 177.607 33.6174C177.607 34.0141 177.563 34.4109 177.519 34.8077C177.299 36.4829 176.241 37.3205 174.521 37.1883C173.155 37.1001 172.141 35.998 172.141 34.455C172.097 30.2669 172.141 26.0788 172.097 21.8907C172.097 21.0531 172.009 20.1714 171.832 19.3338C171.259 16.865 169.54 15.4543 167.247 15.4983C164.955 15.5424 163.147 17.0413 162.663 19.466C162.486 20.3036 162.442 21.1853 162.442 22.0671C162.398 25.9025 162.442 29.6938 162.442 33.5292C162.442 33.926 162.442 34.3227 162.398 34.7195C162.222 36.3948 161.208 37.2765 159.532 37.2324C158.078 37.1883 157.02 36.0862 157.02 34.455C157.02 28.9884 157.02 23.566 157.02 18.0994C157.02 16.6446 156.976 15.2338 157.02 13.779C157.108 11.8393 158.783 10.6931 160.635 11.3103C161.384 11.5307 161.825 12.0597 162.133 12.7651C162.222 13.0296 162.31 13.25 162.486 13.6468Z" fill="#B6BCDA"/>
<path d="M239.768 13.6468C240.12 13.3382 240.429 13.1618 240.649 12.9414C243.735 10.2522 248.629 10.164 251.582 12.7651C251.979 13.1177 252.332 13.5145 252.641 13.9113C253.302 14.7489 253.39 14.7489 254.095 13.9995C256.829 11.0898 260.179 10.2522 263.926 11.3103C267.189 12.236 268.908 14.7489 269.701 17.923C270.01 19.0693 270.142 20.3036 270.142 21.538C270.186 25.7261 270.186 29.9142 270.142 34.1023C270.142 35.6894 269.525 36.7034 268.423 37.1442C266.439 37.8937 264.676 36.6152 264.632 34.4109C264.632 30.1787 264.632 25.9906 264.632 21.7585C264.632 20.9649 264.544 20.1714 264.367 19.4219C263.75 16.9091 262.031 15.5424 259.694 15.6306C257.402 15.7188 255.638 17.2618 255.153 19.6864C255.021 20.48 254.977 21.2735 254.977 22.0671C254.977 25.9466 254.977 29.8701 254.977 33.7496C254.977 34.1464 254.977 34.5432 254.889 34.9399C254.668 36.6152 253.61 37.4528 251.935 37.3646C250.524 37.2765 249.51 36.1743 249.51 34.5873C249.51 30.3551 249.51 26.1229 249.51 21.8907C249.51 20.5241 249.334 19.1574 248.629 17.9671C246.954 15.0575 242.677 14.8812 240.914 17.7026C240.341 18.5843 239.944 19.7305 239.9 20.7445C239.768 25.0648 239.812 29.4293 239.812 33.7496C239.812 34.3227 239.812 34.8959 239.679 35.469C239.371 36.8356 238.225 37.541 236.682 37.4087C235.447 37.2765 234.521 36.3066 234.389 34.984C234.345 34.6754 234.389 34.4109 234.389 34.1023C234.389 27.6659 234.389 21.2294 234.389 14.7489C234.389 14.4403 234.389 14.1317 234.389 13.8672C234.477 12.5887 235.403 11.5748 236.593 11.3984C238.048 11.2221 239.062 11.8393 239.591 13.1618C239.547 13.1618 239.635 13.3382 239.768 13.6468Z" fill="#B6BCDA"/>
<path d="M228.658 13.2941C223.721 6.90173 214.022 10.6931 214.022 17.1736C214.022 10.6931 204.323 6.90173 199.386 13.2941C194.272 19.9069 199.297 31.5013 214.022 38.1582C228.746 31.4572 233.772 19.9069 228.658 13.2941Z" fill="#EEA4C8"/>
</svg>
