<svg width="120" height="117" viewBox="0 0 120 117" fill="none" xmlns="http://www.w3.org/2000/svg">
<path d="M24.9422 54.997C24.6806 52.3158 23.656 50.2885 21.6723 48.8934C20.8876 48.3484 20.0592 47.8688 19.2309 47.3675C18.5769 46.9533 17.7268 46.6045 18.2281 45.5146C18.7077 44.49 19.4271 43.5745 20.6042 43.8797C21.5851 44.1413 22.5879 44.5772 23.4162 45.1876C26.9912 47.8034 28.9967 51.422 29.1493 56.1524C29.3019 60.2941 28.8877 64.3487 26.8387 68.1635C25.7051 70.278 24.092 71.9129 22.0429 73.0464C19.6015 74.3979 17.2908 73.4824 16.4406 70.8665C14.9147 66.158 16.9856 58.1797 20.735 54.7573C21.2364 54.2995 22.1955 54.1905 22.8931 54.2123C23.547 54.2341 24.1792 54.6701 24.9422 54.997ZM25.0729 56.3922C24.8986 56.3268 22.8931 57.8091 22.2173 58.7464C20.408 61.2751 19.5579 64.1961 19.5797 67.2479C19.5797 67.6839 19.7759 68.0981 19.9938 68.4905C20.3208 69.0572 21.0402 69.2752 21.607 68.9264C21.9775 68.6867 22.3481 68.4469 22.5879 68.0981C25.0948 64.5449 25.3345 60.4903 25.0729 56.3922Z" fill="#ED1E40"/>
<path d="M51.9731 43.2908C55.6135 40.8057 59.3193 42.7676 59.6026 47.2146C59.8642 51.1383 58.3819 54.6698 56.4636 58.0486C55.984 58.8987 55.3955 59.7053 54.7851 60.4682C53.717 61.8197 53.281 61.8197 52.1257 60.6426C51.8641 60.3592 51.6025 60.0758 51.1229 59.5527C50.9921 60.6862 50.8831 61.5582 50.7959 62.4301C50.5997 64.501 50.3818 66.5719 50.2074 68.6428C50.1202 69.7109 49.7714 70.1469 48.6597 69.7763C46.1092 68.9261 46.131 68.9697 46.458 66.1141C46.9812 61.4274 47.3299 56.7188 48.0057 52.0539C48.2455 50.3972 47.0247 49.8304 46.5234 48.7841C46.022 47.7159 46.1746 47.0184 46.894 46.3644C47.8967 45.4707 48.2019 44.4461 48.0493 43.16C47.9621 42.4406 47.7005 41.3943 48.8994 41.1981C50.8613 40.8711 51.6243 41.3507 51.8423 42.8112C51.9077 42.942 51.9295 43.051 51.9731 43.2908ZM51.2755 57.678C54.3055 55.7815 56.5944 51.1601 56.2674 47.9339C56.1802 47.0184 55.984 46.081 54.8069 46.0374C53.7606 46.0156 52.0167 47.2364 51.9295 48.2173C51.6679 51.2909 51.4935 54.3646 51.2755 57.678Z" fill="#ED1E40"/>
<path d="M10.2718 62.8674C12.6914 63.3252 13.716 64.5895 13.8468 67.2272C13.9558 69.2763 13.3454 71.1728 12.2991 72.9167C10.7949 75.4017 8.78945 77.3854 6.32619 78.7587C4.62588 79.7179 2.81659 80.0013 1.09448 79.1511C0.593111 78.8895 -0.060852 78.1702 0.00454431 77.7124C0.135337 76.7968 0.636716 75.9031 1.11629 75.0747C1.20348 74.944 1.92284 75.0747 2.29341 75.2491C4.3643 76.1647 5.54143 76.0121 6.91476 74.0284C7.9611 72.4807 8.78944 70.6932 9.33441 68.9057C9.85758 67.2054 8.61506 66.1809 6.95836 66.7694C5.89022 67.14 4.88747 67.6632 3.86293 68.1427C2.46781 68.7967 2.22803 68.6441 2.20623 67.14C2.18443 64.5241 2.40242 64.1972 4.82208 63.3034C5.08366 63.2162 5.36705 63.1508 5.54144 62.9546C7.17634 61.2107 8.59326 59.2924 9.02924 56.851C9.29082 55.4559 8.57146 54.8019 7.26353 55.3687C6.34798 55.7828 5.51963 56.4586 4.69128 57.0908C4.3643 57.3306 4.21171 57.8101 3.90653 58.0717C3.31796 58.5513 2.664 59.2924 2.05363 59.3142C1.24708 59.336 0.614918 57.6575 0.898302 56.6112C1.07269 56.0008 1.31247 55.3469 1.68305 54.8455C3.42695 52.513 5.75942 51.3795 8.44067 51.4231C11.8413 51.4885 13.8686 55.2161 12.4516 58.7257C11.9067 60.1426 11.0347 61.4505 10.2718 62.8674Z" fill="#ED1E40"/>
<path d="M115.516 30.7135C114.884 32.392 114.339 34.1359 113.554 35.749C112.573 37.7981 111.396 39.7818 110.263 41.7437C109.696 42.7464 108.911 42.9208 108.061 42.2015C108.018 42.1797 107.996 42.1579 107.952 42.1361C105.816 40.8717 105.859 40.8717 107.582 38.9317C108.824 37.5583 109.892 36.0324 111.026 34.5501C111.287 34.2013 111.462 33.7435 111.789 33.155C111.309 33.1986 111.026 33.264 110.764 33.264C108.323 33.2858 106.448 30.9315 107.058 28.3593C107.887 24.8497 110.023 22.2774 112.944 20.4027C113.947 19.7487 114.971 19.6615 115.974 20.8169C116.105 18.964 116.933 18.7896 118.328 19.1602C119.375 19.4436 119.636 20.0103 119.593 20.9695C119.484 22.9968 119.2 25.024 119.288 27.0513C119.397 30.1686 119.702 33.264 119.963 36.3594C120.094 37.8853 119.941 38.1251 118.437 38.1905C115.952 38.2995 115.865 38.2341 115.8 35.5964C115.756 34.0051 115.778 32.392 115.778 30.8007C115.691 30.7789 115.604 30.7353 115.516 30.7135ZM115.734 22.9532C115.604 22.866 115.32 23.084 114.993 23.3019C113.816 24.3265 112.879 24.9804 111.811 26.114C111.266 26.6807 110.917 27.5527 110.742 28.3157C110.568 29.144 111.244 29.798 111.92 29.3184C113.184 28.4464 114.426 27.4001 115.342 26.1576C115.843 25.5036 115.625 23.9341 115.734 22.9532Z" fill="#ED1E40"/>
<path d="M100.497 25.9393C100.453 26.1137 100.497 25.9393 100.54 25.7649C100.737 24.7404 100.846 23.6287 102.306 23.8684C103.919 24.13 104.508 24.8276 104.203 26.3971C103.44 30.3427 103.004 34.2882 103.462 38.212C103.614 39.5635 103.898 40.9151 104.224 42.223C104.53 43.4001 104.094 43.9451 103.004 44.2067C101.129 44.6645 100.301 44.1849 99.6031 42.1358C99.0582 42.9424 98.6222 43.7271 98.0554 44.4247C96.3769 46.5174 94.2624 46.5609 92.6711 44.5337C91.0144 42.4192 90.9272 39.8687 91.3632 37.2529C92.0608 32.9803 94.3932 29.5361 97.3797 26.5933C97.99 26.0047 99.2762 26.1791 100.497 25.9393ZM100.105 29.6887C97.4887 31.171 95.287 35.1602 95.1562 38.4736C95.1344 39.193 95.2216 39.9559 95.4832 40.5881C95.941 41.6562 96.7039 41.7652 97.4015 40.7843C98.0336 39.8905 98.6658 38.866 98.862 37.8196C99.3852 35.1602 99.6903 32.4789 100.105 29.6887Z" fill="#ED1E40"/>
<path d="M86.8722 39.4551C90.2074 43.139 88.9649 48.5887 84.1691 50.3108C80.4416 51.6624 77.3025 49.6133 76.9755 45.3843C76.6704 41.2207 77.7385 37.297 80.2672 33.831C81.3353 32.3704 82.7086 31.3241 84.4307 30.8445C87.112 30.0816 89.2264 31.8255 88.7033 34.6593C88.4417 36.2288 87.5698 37.7112 86.8722 39.4551ZM80.8121 41.0028C80.7685 42.6159 80.6159 43.9674 80.7249 45.2971C80.8121 46.4089 81.5315 47.0628 82.6868 46.9974C83.7768 46.932 84.8231 45.9293 85.0847 44.665C85.3245 43.5314 85.0193 42.5723 84.1473 41.8965C84.082 41.8529 83.9511 41.7657 83.9075 41.8093C82.6868 42.8775 81.9675 41.7221 80.8121 41.0028ZM81.4443 38.1035C81.3571 38.3869 81.6623 38.6267 81.9239 38.4959C83.21 37.8201 84.3653 36.643 84.8449 35.2697C84.9321 35.0299 84.9321 34.7901 84.8885 34.5067C84.8449 34.049 84.3435 33.7874 83.9294 33.9836C83.7332 34.0708 83.5588 34.2015 83.4498 34.3541C82.883 35.3133 81.7495 37.1226 81.4443 38.1035Z" fill="#ED1E40"/>
<path d="M43.9065 52.818C45.1709 57.265 42.882 64.0226 39.307 66.5513C37.4541 67.8592 35.5794 67.7938 34.0099 66.2897C31.8954 64.2624 31.4376 61.5812 31.8518 58.6601C32.375 54.8453 34.1843 51.6191 36.6475 48.7199C37.4541 47.7825 38.2388 47.8043 38.8056 48.7635C39.416 49.7662 40.2007 50.0932 41.3343 50.1586C42.9038 50.224 43.5795 51.4447 43.9065 52.818ZM39.1762 51.1831C35.9064 54.6927 35.2088 58.3331 35.8628 62.2787C35.9282 62.6275 36.1026 62.9327 36.3206 63.2161C36.7129 63.7392 37.4323 63.87 37.9773 63.4994C38.3478 63.2379 38.6966 62.9763 38.8928 62.6057C40.3097 59.9462 40.8111 57.047 40.4841 54.126C40.3751 53.1886 39.7212 52.3385 39.1762 51.1831Z" fill="#ED1E40"/>
<path d="M74.2073 41.7223C75.4716 46.1693 73.1828 52.9269 69.6078 55.4556C67.7549 56.7635 65.8802 56.6981 64.3107 55.194C62.1962 53.1667 61.7384 50.4854 62.1526 47.5644C62.6758 43.7496 64.4851 40.5234 66.9483 37.6242C67.7549 36.6868 68.5396 36.7086 69.1064 37.6678C69.7168 38.6705 70.5015 38.9975 71.6351 39.0629C73.2046 39.1283 73.8585 40.3708 74.2073 41.7223ZM69.477 40.0874C66.2072 43.597 65.5096 47.2374 66.1636 51.183C66.229 51.5318 66.4034 51.837 66.6213 52.1203C67.0137 52.6435 67.7331 52.7743 68.278 52.4037C68.6486 52.1421 68.9974 51.8806 69.1936 51.51C70.6105 48.8505 71.1119 45.9513 70.7849 43.0303C70.6759 42.1147 70.0219 41.2646 69.477 40.0874Z" fill="#ED1E40"/>
<path d="M74.0774 81.2204C71.3744 81.9616 71.3744 81.9616 70.5461 80.1741C69.9139 80.937 69.3689 81.7436 68.6932 82.3975C67.6904 83.3785 66.6005 84.3376 65.14 83.7709C63.5922 83.1823 62.5241 81.9616 62.4369 80.2831C62.1753 75.7707 62.5677 71.2584 64.0064 66.8332C64.5514 65.1329 65.2054 64.8495 66.6005 65.2419C67.5596 65.5253 67.843 66.0267 67.625 67.1384C67.2544 69.1439 66.8839 71.1712 66.5787 73.1985C66.3171 74.877 65.6631 77.0568 66.3825 78.6917C66.6223 79.2149 67.2108 79.5637 67.7122 79.1495C68.1264 78.8007 68.5406 78.452 68.9112 78.0596C69.7613 77.144 70.0665 76.0541 70.1755 74.768C70.4807 71.2366 70.873 67.6834 71.418 64.152C71.7232 62.1247 72.3989 61.9285 74.0774 62.844C74.8186 63.2582 74.775 63.825 74.6878 64.5661C74.3172 67.9668 74.0121 71.3674 73.6851 74.768C73.6415 75.2693 73.6633 75.7707 73.7069 76.2721C73.7723 77.362 74.2954 77.5582 75.2328 77.1004C76.9113 76.2721 77.2819 76.4683 77.2819 78.3648C77.2819 80.4356 77.1947 82.5065 77.0639 84.5774C76.9767 85.9725 76.2355 86.9317 74.9276 87.3895C73.8159 87.7818 73.3581 87.3677 73.4889 86.1251C73.6851 84.5556 73.8813 82.9643 74.0774 81.2204Z" fill="#ED1E40"/>
<path d="M35.7764 83.0092C36.8663 82.6168 37.8691 82.3116 38.7846 81.8539C39.0898 81.7231 39.3514 81.1999 39.4168 80.8293C39.6566 79.1726 39.7656 77.5159 40.049 75.881C40.2015 75.0309 40.049 73.7229 41.5313 73.8755C43.5368 74.0717 43.9509 74.5949 43.7111 76.4042C43.4714 78.2353 43.1662 80.0664 42.97 81.9193C42.643 84.9493 42.861 87.8921 43.6458 90.7696C43.8637 91.5543 44.5831 92.6007 43.0572 93.1238C41.1171 93.7778 39.8746 93.5162 39.5694 92.0339C39.2642 90.4426 39.2642 88.7859 39.1552 87.151C39.1334 86.6496 39.1988 86.1482 39.2424 85.6469C37.1279 85.4507 35.7546 86.6932 35.6674 88.7641C35.5802 90.835 35.5148 92.9058 35.3622 94.9767C35.275 96.3283 34.948 96.5245 33.7491 96.0885C31.1551 95.1293 31.0897 95.1293 31.6128 92.0775C31.918 90.3336 31.8526 88.8949 30.8063 87.4344C29.8253 86.0828 30.1305 85.6251 31.5038 84.6659C31.8526 84.4261 32.2014 83.8594 32.2232 83.4234C32.354 81.8103 32.3104 80.1972 32.3758 78.5841C32.4194 77.5813 32.5066 76.6004 33.9017 76.6658C35.6892 76.7312 35.82 76.7748 35.82 78.5405C35.8636 79.9574 35.82 81.4179 35.7764 83.0092Z" fill="#ED1E40"/>
<path d="M86.5454 74.6156C85.4119 75.6402 84.3438 76.5775 83.2756 77.5367C82.5127 78.2124 81.7061 78.256 80.9431 77.7983C79.4826 76.9481 78.4145 75.771 78.4799 73.8309C78.5889 69.3839 79.0685 64.9806 80.3328 60.6644C80.638 59.5963 81.1175 58.8115 82.4037 59.0077C84.1912 59.2693 84.213 59.3783 83.8642 61.2748C83.4936 63.2803 83.1666 65.2858 82.8614 67.2912C82.7089 68.3158 82.5563 69.3185 82.4255 70.3431C82.2947 71.2586 82.1639 72.087 82.5127 72.9807C82.7089 73.4603 83.2102 73.7655 83.7116 73.4821C84.0386 73.3077 84.3655 73.1115 84.6707 72.8935C85.4773 72.3486 85.9787 71.4548 86.0876 70.4739C86.5454 66.4629 87.0468 62.4519 87.7226 58.4846C88.0277 56.6753 89.3575 56.2393 90.6 57.46C90.9924 57.8524 91.1014 58.8551 90.9488 59.5091C90.0114 63.4983 89.4665 67.4874 89.7498 71.5202C89.8152 72.5448 90.0114 73.5475 90.2294 74.5284C90.4692 75.6184 90.2948 76.1633 89.1395 76.1851C87.9187 76.2505 86.7634 76.3159 86.5454 74.6156Z" fill="#ED1E40"/>
<path d="M101.849 62.8226C101.217 64.5012 100.672 66.2451 99.887 67.8582C98.906 69.9073 97.7289 71.8909 96.5954 73.8528C96.0286 74.8556 95.2438 75.03 94.3937 74.3106C94.3501 74.2888 94.3283 74.267 94.2847 74.2452C92.1484 72.9809 92.192 72.9809 93.9141 71.0408C95.1566 69.6675 96.2248 68.1416 97.3583 66.6592C97.6199 66.3105 97.7943 65.8527 98.1213 65.2641C97.6417 65.3077 97.3583 65.3731 97.0967 65.3731C94.6553 65.3949 92.7806 63.0406 93.3909 60.4684C94.2193 56.9588 96.3556 54.3865 99.2766 52.5118C100.279 51.8579 101.304 51.7707 102.307 52.926C102.437 51.0731 103.266 50.8987 104.661 51.2693C105.707 51.5527 105.969 52.1195 105.925 53.0786C105.816 55.1059 105.533 57.1332 105.62 59.1605C105.729 62.2777 106.034 65.3731 106.296 68.4685C106.427 69.9944 106.274 70.2342 104.77 70.2996C102.285 70.4086 102.198 70.3432 102.132 67.7056C102.089 66.1143 102.11 64.5012 102.11 62.9098C102.023 62.888 101.936 62.8444 101.849 62.8226ZM102.089 55.0623C101.958 54.9751 101.674 55.1931 101.347 55.4111C100.17 56.4356 99.233 57.0896 98.1649 58.2231C97.6199 58.7899 97.2711 59.6618 97.0967 60.4248C96.9223 61.2531 97.5981 61.9071 98.2739 61.4275C99.5382 60.5556 100.781 59.5092 101.696 58.2667C102.198 57.6128 101.98 56.0432 102.089 55.0623Z" fill="#ED1E40"/>
<path d="M55.5052 69.559C55.4616 69.7333 55.5052 69.559 55.5488 69.3846C55.745 68.36 55.854 67.2483 57.3145 67.4881C58.9276 67.7497 59.5162 68.4472 59.211 70.0167C58.448 73.9623 58.0121 77.9079 58.4698 81.8317C58.6224 83.1832 58.9058 84.5347 59.2328 85.8426C59.538 87.0198 59.102 87.5647 58.0121 87.8263C56.1374 88.2841 55.309 87.8045 54.6114 85.7554C54.0665 86.562 53.6305 87.3467 53.0637 88.0443C51.3852 90.137 49.2707 90.1806 47.6794 88.1533C46.0227 86.0388 45.9355 83.4884 46.3715 80.8725C47.0691 76.5999 49.4015 73.1557 52.388 70.2129C52.9983 69.6243 54.2845 69.7769 55.5052 69.559ZM55.091 73.2865C52.4752 74.7688 50.2735 78.758 50.1427 82.0714C50.1209 82.7908 50.2081 83.5538 50.4697 84.1859C50.9275 85.2541 51.6904 85.3631 52.388 84.3821C53.0201 83.4884 53.6523 82.4638 53.8485 81.4175C54.3935 78.7798 54.6986 76.0768 55.091 73.2865Z" fill="#ED1E40"/>
<path d="M20.4737 24.5452L26.1849 28.6433L25.4656 29.6243L20.5608 26.0929L19.2965 27.8368L21.4328 29.5153C22.0868 30.0603 22.5663 30.518 22.8497 30.9104C23.1331 31.3028 23.2857 31.6952 23.2857 32.0657C23.2857 32.4363 23.1331 32.8287 22.8279 33.2429L22.6535 33.5045L21.8688 32.9377L21.9778 32.7633C22.1304 32.5235 22.174 32.2837 22.1086 32.0657C22.065 31.8478 21.9124 31.608 21.6726 31.3246C21.4328 31.063 21.0622 30.7142 20.5391 30.3L17.8142 28.1856L20.4737 24.5452Z" fill="#2C2F47"/>
<path d="M28.9965 21.1444L26.9475 23.1717L28.4734 24.7194L30.8712 22.3434L31.547 23.0409L28.2772 26.2671L23.3289 21.2752L26.5769 18.0708L27.2744 18.7684L24.8984 21.1008L26.2717 22.4742L28.3208 20.4469L28.9965 21.1444Z" fill="#2C2F47"/>
<path d="M33.9462 12.4468L37.979 18.2016L36.9763 18.8992L35.3849 16.6321C35.0362 17.0463 34.622 17.4169 34.1642 17.7221C33.4884 18.2016 32.8563 18.4196 32.2895 18.3542C31.7228 18.2888 31.2214 17.9619 30.7854 17.3515L29.4993 15.5204L30.502 14.8228L31.7881 16.6539C32.0497 17.0245 32.3113 17.2207 32.5947 17.2643C32.8781 17.3079 33.2051 17.1771 33.5974 16.8937C34.0552 16.5667 34.4694 16.1962 34.8182 15.782L32.9435 13.1007L33.9462 12.4468Z" fill="#2C2F47"/>
<path d="M43.0791 12.0538L40.485 13.2963L41.4223 15.2364L44.4742 13.7759L44.8884 14.6478L40.7466 16.6315L37.7166 10.2881L41.8365 8.32617L42.2725 9.21992L39.2643 10.6586L40.0926 12.4025L42.6867 11.16L43.0791 12.0538Z" fill="#2C2F47"/>
<path d="M49.9454 6.64707L46.8499 7.56261L47.3295 9.19752L48.7028 8.78334C49.2042 8.63075 49.662 8.58715 50.0761 8.65255C50.4903 8.71795 50.8391 8.87054 51.1225 9.13213C51.4059 9.39371 51.602 9.72069 51.7328 10.1349C51.929 10.767 51.8636 11.3338 51.5367 11.8352C51.2315 12.3365 50.7083 12.7071 49.9671 12.9469L47.3949 13.7099L45.3894 6.97405L49.662 5.70972L49.9454 6.64707ZM47.6129 10.1349L48.2886 12.4237L49.662 12.0096C50.0543 11.9006 50.3377 11.7044 50.4903 11.421C50.6429 11.1376 50.6647 10.8324 50.5775 10.4619C50.4685 10.1131 50.2941 9.89508 50.0107 9.76429C49.7274 9.6335 49.4004 9.6117 49.0298 9.7207L47.6129 10.1349Z" fill="#2C2F47"/>
<path d="M60.583 11.0288L59.384 11.1596L59.0352 8.06419L55.918 8.43477L56.2668 11.5302L55.0461 11.661L54.2395 4.68539L55.4602 4.55459L55.7872 7.45382L58.9044 7.08325L58.5775 4.18401L59.7764 4.05322L60.583 11.0288Z" fill="#2C2F47"/>
<path d="M69.5209 8.02128C69.4773 8.71884 69.3248 9.30741 69.0414 9.80879C68.7798 10.3102 68.4092 10.6807 67.9514 10.9423C67.4937 11.1821 66.9705 11.2911 66.4037 11.2475C65.837 11.2039 65.3356 11.0295 64.9214 10.7243C64.4854 10.4191 64.1802 10.005 63.9623 9.46C63.7443 8.93683 63.6789 8.32647 63.7225 7.65071L63.7443 7.25833C63.7879 6.58257 63.9405 5.9722 64.2238 5.47083C64.5072 4.96946 64.8778 4.57708 65.3356 4.33729C65.7934 4.09751 66.3165 3.98851 66.8833 4.03211C67.4501 4.07571 67.9514 4.2501 68.3656 4.53348C68.7798 4.83866 69.1068 5.25284 69.303 5.77601C69.4991 6.29918 69.5863 6.90955 69.5427 7.60711L69.5209 8.02128ZM68.322 7.56351C68.3656 6.77875 68.2566 6.19019 67.995 5.75421C67.7334 5.31824 67.3193 5.07845 66.7961 5.05665C66.2729 5.01305 65.8369 5.20924 65.51 5.60162C65.183 5.994 64.9868 6.56077 64.9432 7.32373L64.9214 7.7379C64.8778 8.50086 64.9868 9.11122 65.2484 9.5472C65.51 9.98317 65.9241 10.223 66.4473 10.2666C66.9923 10.3102 67.4065 10.1358 67.7334 9.74338C68.0604 9.35101 68.2348 8.76245 68.2784 7.97769L68.322 7.56351Z" fill="#2C2F47"/>
<path d="M76.8885 9.7214L74.0764 9.06744L73.575 11.1819L76.8667 11.9667L76.6487 12.9258L72.1799 11.8795L73.793 5.03467L78.24 6.08101L78.022 7.04015L74.774 6.27719L74.338 8.17369L77.15 8.82765L76.8885 9.7214Z" fill="#2C2F47"/>
<path d="M57.6405 111.259L56.4633 110.997L57.7712 105.112L54.763 104.436L53.4551 110.344L52.278 110.082L53.8039 103.215L59.1882 104.414L57.6405 111.259Z" fill="#2C2F47"/>
<path d="M66.3377 104.785L67.5585 104.806L67.4713 111.826L66.2505 111.804L66.3159 106.79L63.1769 111.76L61.9562 111.738L62.0434 104.719L63.2641 104.741L63.1987 109.755L66.3377 104.785Z" fill="#2C2F47"/>
<path d="M75.5154 104.567L73.3574 104.96L74.4473 110.911L73.2484 111.129L72.1584 105.177L70.0222 105.57L69.8478 104.611L75.3193 103.586L75.5154 104.567Z" fill="#2C2F47"/>
<path d="M82.7093 106.725L80.1589 107.706L80.2025 109.428L79.0254 109.886L79.0035 102.387L80.0281 101.995L85.02 107.597L83.8211 108.055L82.7093 106.725ZM80.1371 106.66L82.0336 105.941L80.0499 103.586L80.1371 106.66Z" fill="#2C2F47"/>
<path d="M92.9983 102.998L91.9737 103.652L90.317 101.015L87.6576 102.693L89.3143 105.331L88.2897 105.985L84.5621 100.034L85.5867 99.3798L87.1344 101.865L89.7938 100.186L88.2461 97.7013L89.2707 97.0474L92.9983 102.998Z" fill="#2C2F47"/>
<path d="M94.6112 92.272L95.4831 91.4219L100.366 96.4574L99.4941 97.3075L96.0063 93.7107L97.2706 99.4438L96.3987 100.294L91.5157 95.2585L92.3877 94.4083L95.8755 98.0051L94.6112 92.272Z" fill="#2C2F47"/>
<path d="M102.895 88.0215L101.238 90.3758L103.004 91.6183L104.944 88.8499L105.751 89.4167L103.113 93.1878L97.358 89.1551L99.9739 85.4275L100.78 85.9943L98.8622 88.7409L100.453 89.8526L102.11 87.4984L102.895 88.0215Z" fill="#2C2F47"/>
<path d="M84.1477 19.3996C78.5236 16.6966 72.4635 15.0835 66.3163 14.7347C60.1908 14.3859 53.9999 15.2796 48.2451 17.3941C42.4902 19.4868 37.1713 22.7566 32.7026 26.9856C28.2338 31.1927 24.6152 36.3372 22.043 42.0267C24.0267 36.0975 27.4273 30.626 31.8742 26.1354C34.0759 23.8684 36.5827 21.9065 39.2422 20.1844C41.9016 18.4841 44.7791 17.0889 47.7437 15.9772C50.7301 14.9091 53.8256 14.1461 56.9646 13.7319C60.1036 13.3396 63.2862 13.2524 66.4253 13.5575C72.6815 14.1461 78.8288 16.1516 84.1477 19.3996Z" fill="#37B34A"/>
<path d="M104.05 74.1143C102.066 80.0435 98.6655 85.515 94.2186 90.0056C92.0169 92.2726 89.51 94.2563 86.8506 95.9566C84.1911 97.6569 81.3137 99.052 78.3491 100.164C75.3626 101.232 72.2672 101.995 69.1282 102.409C65.9892 102.801 62.8066 102.889 59.6675 102.583C53.3895 101.995 47.2422 99.9894 41.9233 96.7196C47.5474 99.4226 53.6075 101.036 59.7547 101.385C65.8802 101.733 72.071 100.84 77.8259 98.7251C83.5808 96.6324 88.8997 93.3626 93.3684 89.1554C97.8808 84.9264 101.499 79.8037 104.05 74.1143Z" fill="#37B34A"/>
<path d="M101.194 15.1922C93.3032 8.56542 83.7336 4.09667 73.7061 2.28738C63.6787 0.45628 53.2153 1.35003 43.6674 4.85963C34.1196 8.32563 25.5308 14.3639 19.013 22.2114C12.4952 30.0372 8.04824 39.6287 6.26074 49.7651C6.84931 44.6424 8.22263 39.6069 10.1845 34.8111C12.19 30.0372 14.8495 25.5249 18.0975 21.4485C21.3237 17.3721 25.1385 13.7535 29.3674 10.7017C33.5964 7.67167 38.2613 5.20841 43.1443 3.42091C48.049 1.65521 53.1935 0.543471 58.3816 0.151094C63.5697 -0.219485 68.8232 0.0856972 73.9241 1.13204C79.025 2.15658 83.9733 3.92228 88.5729 6.27655C93.1724 8.67441 97.4668 11.639 101.194 15.1922Z" fill="#37B34A"/>
<path d="M119.833 66.375C119.244 71.4977 117.871 76.5332 115.909 81.329C113.903 86.1029 111.244 90.6152 107.996 94.6916C104.77 98.768 100.955 102.387 96.7258 105.438C92.4969 108.49 87.832 110.932 82.949 112.719C78.0443 114.485 72.8998 115.597 67.7117 115.989C62.5236 116.36 57.2701 116.054 52.1692 115.008C47.0683 113.984 42.12 112.218 37.5204 109.864C32.9209 107.466 28.6483 104.479 24.8989 100.948C32.7683 107.553 42.3379 112.022 52.3654 113.831C62.3928 115.662 72.8562 114.768 82.4041 111.259C91.9519 107.793 100.562 101.754 107.058 93.9069C113.576 86.1029 118.045 76.5114 119.833 66.375Z" fill="#37B34A"/>
<path d="M45.1491 103.957C45.5415 105.025 44.9966 106.224 43.9066 106.616C42.8385 107.009 41.6395 106.464 41.2472 105.374C40.8548 104.306 41.3998 103.107 42.4897 102.714C43.5796 102.322 44.7786 102.867 45.1491 103.957Z" fill="#3CB44A"/>
<path d="M109.935 80.3706C110.328 81.4387 109.783 82.6376 108.693 83.03C107.625 83.4224 106.426 82.8774 106.033 81.7875C105.641 80.7194 106.186 79.5204 107.276 79.128C108.344 78.7357 109.543 79.3024 109.935 80.3706Z" fill="#3CB44A"/>
<path d="M17.9236 37.7753C18.3159 38.8435 17.771 40.0424 16.681 40.4348C15.6129 40.8272 14.414 40.2822 14.0216 39.1923C13.6292 38.1023 14.1742 36.9252 15.2641 36.5328C16.3322 36.1404 17.5312 36.6854 17.9236 37.7753Z" fill="#3CB44A"/>
<path d="M87.7878 12.1197C88.1802 13.1879 87.6352 14.3868 86.5453 14.7792C85.4772 15.1716 84.2782 14.6266 83.8858 13.5367C83.4935 12.4685 84.0384 11.2696 85.1284 10.8772C86.1965 10.5066 87.3954 11.0516 87.7878 12.1197Z" fill="#3CB44A"/>
</svg>
