<svg width="689" height="12" viewBox="0 0 689 12" fill="none" xmlns="http://www.w3.org/2000/svg">
<path fill-rule="evenodd" clip-rule="evenodd" d="M11.6586 8C10.8349 10.3304 8.61244 12 6 12C2.68629 12 0 9.31371 0 6C0 2.68629 2.68629 0 6 0C8.61244 0 10.8349 1.66962 11.6586 4H227.341C228.165 1.66962 230.388 0 233 0C235.612 0 237.835 1.66962 238.659 4H452.341C453.165 1.66962 455.388 0 458 0C460.612 0 462.835 1.66962 463.659 4H677.341C678.165 1.66962 680.388 0 683 0C686.314 0 689 2.68629 689 6C689 9.31371 686.314 12 683 12C680.388 12 678.165 10.3304 677.341 8H463.659C462.835 10.3304 460.612 12 458 12C455.388 12 453.165 10.3304 452.341 8H238.659C237.835 10.3304 235.612 12 233 12C230.388 12 228.165 10.3304 227.341 8H11.6586Z" fill="#2C3047" fill-opacity="0.2"/>
<mask id="mask0" mask-type="alpha" maskUnits="userSpaceOnUse" x="0" y="0" width="689" height="12">
<path fill-rule="evenodd" clip-rule="evenodd" d="M11.6586 8C10.8349 10.3304 8.61244 12 6 12C2.68629 12 0 9.31371 0 6C0 2.68629 2.68629 0 6 0C8.61244 0 10.8349 1.66962 11.6586 4H227.341C228.165 1.66962 230.388 0 233 0C235.612 0 237.835 1.66962 238.659 4H452.341C453.165 1.66962 455.388 0 458 0C460.612 0 462.835 1.66962 463.659 4H677.341C678.165 1.66962 680.388 0 683 0C686.314 0 689 2.68629 689 6C689 9.31371 686.314 12 683 12C680.388 12 678.165 10.3304 677.341 8H463.659C462.835 10.3304 460.612 12 458 12C455.388 12 453.165 10.3304 452.341 8H238.659C237.835 10.3304 235.612 12 233 12C230.388 12 228.165 10.3304 227.341 8H11.6586Z" fill="#0D8C45"/>
</mask>
<g mask="url(#mask0)">
<rect x="-6" y="-11" width="261" height="34" fill="#0D8C45"/>
</g>
</svg>
