<?xml version="1.0" encoding="utf-8"?>
<!-- Generator: Adobe Illustrator 22.1.0, SVG Export Plug-In . SVG Version: 6.00 Build 0)  -->
<svg version="1.1" id="&#x421;&#x43B;&#x43E;&#x439;_1" xmlns="http://www.w3.org/2000/svg" xmlns:xlink="http://www.w3.org/1999/xlink" x="0px" y="0px" viewBox="0 0 23 21" xml:space="preserve">

<path  fill="#eea4c8" class="st0" d="M22.2,4c-1-1.9-2.9-3.2-5-3.3c-2.3-0.2-4.4,1-5.8,3.2C10.1,1.6,8,0.4,5.7,0.6c-2.1,0.2-4,1.5-5,3.3
	c-1.1,2.2-1,4.8,0.4,7.3c1.7,3.1,5.1,6.1,10.1,8.7c0.1,0,0.2,0.1,0.2,0.1s0.2,0,0.2-0.1c5-2.6,8.4-5.5,10.1-8.7
	C23.2,8.7,23.4,6.1,22.2,4z M21,10.8c-1.6,2.9-4.8,5.7-9.5,8.2c-4.6-2.5-7.9-5.3-9.5-8.2C0.8,8.6,0.7,6.3,1.6,4.4
	c0.8-1.6,2.4-2.7,4.2-2.8c0.1,0,0.3,0,0.4,0c1.7,0,3.3,1,4.5,2.7c0.4,0.6,1.3,0.6,1.7,0c1.2-1.9,2.9-2.9,4.9-2.7
	c1.7,0.1,3.3,1.2,4.2,2.8C22.3,6.3,22.2,8.6,21,10.8z"/>
</svg>
