<svg width="138" height="127" viewBox="0 0 138 127" fill="none" xmlns="http://www.w3.org/2000/svg">
<path d="M0 18.7267C0 13.6569 0 8.6312 0 3.56139C0 3.16463 -6.73344e-07 2.76786 0.0440846 2.37109C0.264511 0.872195 1.32256 0.0345747 2.90962 0.0345747C4.49669 0.0345747 5.46657 0.872195 5.687 2.37109C5.73108 2.81195 5.77516 3.2528 5.77516 3.69365C5.77516 7.26455 5.77516 10.8355 5.77516 14.4064C5.77516 15.6848 5.99559 15.8612 7.22998 15.8612C10.4923 15.8612 13.7546 15.8612 17.061 15.8612C18.1631 15.8612 18.4717 15.5526 18.4717 14.4504C18.4717 10.7032 18.4717 6.95596 18.4717 3.20871C18.4717 1.62165 19.0448 0.563598 20.191 0.210916C22.4394 -0.494447 24.2469 0.607682 24.2469 2.9442C24.2469 13.4365 24.2469 23.9288 24.2469 34.377C24.2469 36.2285 23.1888 37.3307 21.4695 37.3748C19.5738 37.4189 18.4717 36.3608 18.4717 34.377C18.4276 31.5114 18.4717 28.6459 18.4717 25.7363C18.4717 24.6341 18.4717 23.5761 18.4717 22.474C18.4717 21.5923 18.119 21.1955 17.2373 21.1514C13.8428 21.1514 10.4482 21.1514 7.05364 21.1514C6.12785 21.1514 5.81925 21.5482 5.81925 22.5621C5.81925 26.2653 5.81925 30.0125 5.81925 33.7157C5.81925 34.0684 5.81925 34.4211 5.77516 34.7737C5.51065 36.6694 4.4967 37.4629 2.55694 37.3748C1.01396 37.2866 0.0440846 36.1845 0.0440846 34.4651C-6.73344e-07 29.219 0 23.9729 0 18.7267Z" fill="#EEA4C8"/>
<path d="M64.8934 14.186C65.1139 14.0537 65.2902 14.0096 65.3784 13.8774C70.5363 8.93983 80.5437 10.1742 83.4092 19.0794C84.9522 23.9288 84.6436 28.69 81.6899 33.0104C79.3975 36.3168 76.0911 37.6834 72.1675 37.5952C69.7869 37.5511 67.6708 36.8017 65.8633 35.2146C65.6429 35.0383 65.3343 34.9942 65.0698 34.906C65.0257 35.1705 64.8934 35.391 64.8934 35.6555C64.8934 38.8737 64.8934 42.0478 64.8934 45.2661C64.8934 45.6187 64.8493 46.0155 64.8053 46.3682C64.5408 47.8671 63.4386 48.7488 62.0279 48.6606C60.5731 48.5724 59.6032 47.6026 59.4709 46.0596C59.4709 45.8392 59.4709 45.6187 59.4709 45.3983C59.4709 35.0824 59.4709 24.7664 59.4709 14.4505C59.4709 14.0096 59.515 13.5688 59.6032 13.1279C59.9118 11.9376 60.7935 11.2763 62.0279 11.1882C63.1741 11.1441 64.144 11.7172 64.5848 12.8634C64.6289 13.3043 64.7612 13.701 64.8934 14.186ZM71.6826 33.0104C73.8427 33.0104 75.518 32.1727 76.7964 30.4534C79.0007 27.5438 79.3093 22.3858 77.3696 19.1235C74.6804 14.5386 68.5084 14.4946 65.9074 19.1235C63.9676 22.6503 64.0558 26.3094 66.0397 29.7921C67.274 31.9082 69.1697 33.0544 71.6826 33.0104Z" fill="#EEA4C8"/>
<path d="M93.7693 14.1859C93.9897 14.0537 94.1661 14.0096 94.2542 13.9214C99.4122 8.98389 109.42 10.1742 112.285 19.1235C113.828 23.9288 113.519 28.7341 110.566 33.0544C108.273 36.3608 105.011 37.7275 101.043 37.6393C98.6628 37.5952 96.5467 36.8458 94.7392 35.2587C94.5188 35.0823 94.2102 35.0383 93.9457 34.9501C93.9016 35.2146 93.7693 35.435 93.7693 35.6995C93.7693 38.9178 93.7693 42.0919 93.7693 45.3101C93.7693 45.6628 93.7252 46.0596 93.6811 46.4123C93.4166 47.9112 92.3145 48.7929 90.9038 48.7047C89.449 48.6165 88.4791 47.6466 88.3027 46.1477C88.3027 45.9273 88.3027 45.7069 88.3027 45.4865C88.3027 35.1705 88.3027 24.8546 88.3027 14.5386C88.3027 14.0978 88.3468 13.6569 88.435 13.2161C88.7436 12.0258 89.6253 11.3645 90.8597 11.2763C92.05 11.1882 93.0199 11.8494 93.4607 12.9956C93.5048 13.3483 93.593 13.701 93.7693 14.1859ZM100.514 33.0103C102.675 33.0103 104.306 32.1727 105.628 30.4975C107.921 27.5438 108.141 22.2535 106.113 18.9912C103.468 14.6709 97.4725 14.5827 94.8714 18.9472C92.7554 22.474 92.8435 26.2212 94.8714 29.7921C96.1058 31.9082 98.0015 33.0103 100.514 33.0103Z" fill="#EEA4C8"/>
<path d="M48.4937 34.4652C48.2292 34.6415 48.0088 34.7738 47.8325 34.906C43.5562 39.3145 34.1219 38.6092 30.7715 31.4233C28.1704 25.8245 28.3468 20.2256 32.094 15.1118C35.709 10.1742 43.468 9.64518 47.7002 13.5688C48.2292 14.0978 48.5378 14.0096 48.7142 13.2602C49.155 11.4968 50.4776 11.1441 51.8442 11.3204C53.1227 11.4968 54.0044 12.5989 54.0044 14.0978C54.0044 20.8869 54.0044 27.676 54.0044 34.4652C54.0044 36.5813 52.241 37.8156 50.3012 37.1544C49.2873 36.8017 48.8905 36.0082 48.6701 35.0383C48.6701 34.9501 48.5819 34.7738 48.4937 34.4652ZM34.7832 24.4137C34.7391 26.2653 35.0918 28.161 36.194 29.8362C38.7509 33.9361 44.3938 34.0684 47.1712 30.1448C49.4636 26.9266 49.3754 21.46 46.9948 18.33C44.3056 14.715 39.1036 14.8032 36.4585 18.4181C35.18 20.1816 34.7391 22.1654 34.7832 24.4137Z" fill="#EEA4C8"/>
<path d="M125.687 29.9243C127.23 25.6922 128.685 21.6363 130.14 17.5805C130.669 16.0816 131.198 14.5827 131.771 13.1279C132.3 11.8494 133.314 11.2763 134.636 11.3645C135.65 11.4526 136.62 12.2021 136.885 13.216C137.149 14.1418 137.017 15.0235 136.664 15.9052C135.562 18.6385 134.504 21.3718 133.402 24.1051C130.404 31.6877 127.406 39.2704 124.364 46.809C124.276 47.0735 124.144 47.338 124.012 47.6025C123.262 49.1014 121.763 49.7627 120.397 49.1896C119.074 48.6606 118.457 47.1176 119.03 45.5305C119.912 43.1499 120.749 40.7693 121.852 38.521C122.733 36.7135 122.645 35.1264 121.852 33.2748C119.383 27.4996 117.134 21.6363 114.842 15.8171C114.533 15.0235 114.445 14.0977 114.533 13.3042C114.666 12.2902 115.371 11.5849 116.429 11.3645C117.531 11.144 118.501 11.4085 119.206 12.3343C119.515 12.7752 119.78 13.2601 119.956 13.7891C121.763 18.8589 123.527 23.9287 125.29 29.0426C125.467 29.3071 125.555 29.5276 125.687 29.9243Z" fill="#EEA4C8"/>
<path d="M17.4578 61.7979C17.8105 61.5334 18.031 61.357 18.2514 61.1807C20.632 59.1969 23.3653 58.5797 26.3631 59.3291C28.0824 59.77 29.4049 60.7399 30.4189 62.1506C30.9038 62.8119 31.1243 62.8119 31.6533 62.1947C34.1661 59.4173 37.3403 58.4474 40.9553 59.2409C44.5703 60.0345 46.51 62.5914 47.3476 66.0301C47.6121 67.1763 47.7885 68.3666 47.7885 69.5569C47.8326 73.7891 47.8326 77.9772 47.7885 82.2094C47.7885 83.7964 47.1713 84.8104 46.0692 85.2071C44.0853 85.9125 42.3219 84.634 42.3219 82.4298C42.3219 78.1976 42.366 73.9654 42.2778 69.7332C42.2778 68.6311 42.0574 67.4849 41.6606 66.4709C40.9553 64.6194 39.5005 63.6936 37.5166 63.6495C35.5328 63.6054 34.078 64.5312 33.2404 66.3387C32.8877 67.1322 32.6232 68.058 32.6232 68.8956C32.535 73.1719 32.5791 77.4922 32.5791 81.7685C32.5791 82.1653 32.535 82.562 32.4909 82.9588C32.2705 84.6341 31.2124 85.4717 29.4931 85.3394C28.1265 85.2512 27.1125 84.1491 27.1125 82.6061C27.0684 78.418 27.1125 74.2299 27.0684 70.0418C27.0684 69.2042 26.9803 68.3225 26.8039 67.4849C26.2308 65.0161 24.5115 63.6054 22.219 63.6495C19.9266 63.6936 18.1191 65.1925 17.6342 67.6171C17.4578 68.4548 17.4138 69.3365 17.4138 70.2182C17.3697 74.0536 17.4138 77.8449 17.4138 81.6803C17.4138 82.0771 17.4138 82.4739 17.3697 82.8706C17.1933 84.5459 16.1794 85.4276 14.5041 85.3835C13.0493 85.3394 11.9913 84.2373 11.9913 82.6061C11.9913 77.1396 11.9913 71.7171 11.9913 66.2505C11.9913 64.7957 11.9472 63.385 11.9913 61.9302C12.0794 59.9904 13.7547 58.8442 15.6063 59.4614C16.3557 59.6818 16.7966 60.2108 17.1052 60.9162C17.1933 61.1807 17.2815 61.4011 17.4578 61.7979Z" fill="#B6BCDA"/>
<path d="M94.7393 61.7979C95.092 61.4893 95.4006 61.313 95.621 61.0925C98.707 58.4033 103.6 58.3152 106.554 60.9162C106.951 61.2689 107.304 61.6656 107.612 62.0624C108.273 62.9 108.362 62.9 109.067 62.1506C111.8 59.241 115.151 58.4033 118.898 59.4614C122.16 60.3872 123.88 62.9 124.673 66.0742C124.982 67.2204 125.114 68.4548 125.114 69.6892C125.158 73.8773 125.158 78.0653 125.114 82.2534C125.114 83.8405 124.497 84.8545 123.395 85.2953C121.411 86.0448 119.647 84.7663 119.603 82.562C119.603 78.3299 119.603 74.1418 119.603 69.9096C119.603 69.116 119.515 68.3225 119.339 67.5731C118.722 65.0602 117.002 63.6936 114.666 63.7817C112.373 63.8699 110.61 65.4129 110.125 67.8376C109.993 68.6311 109.949 69.4246 109.949 70.2182C109.949 74.0977 109.949 78.0213 109.949 81.9008C109.949 82.2975 109.949 82.6943 109.861 83.0911C109.64 84.7663 108.582 85.6039 106.907 85.5158C105.496 85.4276 104.482 84.3255 104.482 82.7384C104.482 78.5062 104.482 74.274 104.482 70.0418C104.482 68.6752 104.306 67.3085 103.6 66.1182C101.925 63.2086 97.6489 63.0323 95.8855 65.8537C95.3124 66.7354 94.9156 67.8817 94.8716 68.8956C94.7393 73.216 94.7834 77.5804 94.7834 81.9008C94.7834 82.4739 94.7834 83.047 94.6511 83.6201C94.3425 84.9867 93.1963 85.6921 91.6533 85.5598C90.4189 85.4276 89.4932 84.4577 89.3609 83.1352C89.3168 82.8266 89.3609 82.562 89.3609 82.2534C89.3609 75.817 89.3609 69.3806 89.3609 62.9C89.3609 62.5914 89.3609 62.2828 89.3609 62.0183C89.4491 60.7398 90.3749 59.7259 91.5652 59.5496C93.02 59.3732 94.0339 59.9904 94.563 61.313C94.5189 61.313 94.607 61.4893 94.7393 61.7979Z" fill="#B6BCDA"/>
<path d="M83.6299 61.4452C78.6923 55.0529 68.9936 58.8442 68.9936 65.3247C68.9936 58.8442 59.2948 55.0529 54.3573 61.4452C49.2434 68.058 54.2691 79.6524 68.9936 86.3093C83.718 79.6083 88.7438 68.058 83.6299 61.4452Z" fill="#EEA4C8"/>
<path d="M21.0286 101.563C21.6018 102.268 21.8663 103.282 21.8663 104.605C21.8663 105.883 21.5577 106.897 20.9846 107.646C20.4115 108.396 19.6179 108.749 18.604 108.749C17.59 108.749 16.7965 108.396 16.2234 107.646C15.6503 106.897 15.3857 105.883 15.3857 104.605C15.3857 103.767 15.518 103.018 15.7825 102.4C16.047 101.783 16.4438 101.298 16.9287 100.946C17.4137 100.593 17.9868 100.461 18.648 100.461C19.662 100.505 20.4555 100.857 21.0286 101.563ZM16.8846 102.092C16.4879 102.665 16.2674 103.502 16.2674 104.649C16.2674 105.751 16.4879 106.588 16.8846 107.162C17.2814 107.735 17.8545 108.043 18.604 108.043C19.3534 108.043 19.9265 107.735 20.3233 107.162C20.7201 106.588 20.9405 105.751 20.9405 104.605C20.9405 103.502 20.7201 102.665 20.3233 102.092C19.9265 101.519 19.3534 101.21 18.604 101.21C17.8986 101.254 17.3255 101.519 16.8846 102.092Z" fill="#9A88B6"/>
<path d="M28.1705 100.681C28.5232 100.813 28.8318 101.034 29.1845 101.298L28.7436 101.872C28.4791 101.651 28.2146 101.519 27.9501 101.387C27.6856 101.254 27.377 101.254 27.0243 101.254C26.3189 101.254 25.7017 101.563 25.305 102.136C24.8641 102.709 24.6437 103.591 24.6437 104.693C24.6437 105.795 24.8641 106.633 25.2609 107.206C25.7018 107.779 26.2749 108.043 26.9802 108.043C27.3329 108.043 27.6415 107.999 27.906 107.867C28.1705 107.735 28.4791 107.603 28.7436 107.382L29.1404 107.955C28.4791 108.528 27.7738 108.793 26.9361 108.793C26.2749 108.793 25.7017 108.617 25.2168 108.308C24.7319 107.999 24.3351 107.514 24.0706 106.897C23.8061 106.28 23.6738 105.531 23.6738 104.693C23.6738 103.855 23.8061 103.106 24.0706 102.489C24.3351 101.872 24.7319 101.343 25.2168 101.034C25.7017 100.725 26.2749 100.505 26.9361 100.505C27.4652 100.505 27.8178 100.549 28.1705 100.681Z" fill="#9A88B6"/>
<path d="M36.0619 101.563C36.635 102.268 36.8995 103.282 36.8995 104.605C36.8995 105.883 36.5909 106.897 36.0178 107.647C35.4447 108.396 34.6511 108.749 33.6372 108.749C32.6232 108.749 31.8297 108.396 31.2566 107.647C30.6835 106.897 30.4189 105.883 30.4189 104.605C30.4189 103.767 30.5512 103.018 30.8157 102.4C31.0802 101.783 31.477 101.298 31.9619 100.946C32.4469 100.593 33.02 100.461 33.6812 100.461C34.6952 100.505 35.4887 100.857 36.0619 101.563ZM31.9178 102.092C31.5211 102.665 31.3006 103.503 31.3006 104.649C31.3006 105.751 31.5211 106.589 31.9178 107.162C32.3146 107.735 32.8877 108.043 33.6372 108.043C34.3866 108.043 34.9597 107.735 35.3565 107.162C35.7533 106.589 35.9737 105.751 35.9737 104.605C35.9737 103.503 35.7533 102.665 35.3565 102.092C34.9597 101.519 34.3866 101.21 33.6372 101.21C32.9318 101.254 32.3587 101.519 31.9178 102.092Z" fill="#9A88B6"/>
<path d="M44.4377 102.092C44.9227 102.753 45.1872 103.635 45.1872 104.781C45.1872 106.103 44.9227 107.073 44.3496 107.779C43.7765 108.484 43.027 108.793 42.013 108.793C40.9991 108.793 40.2055 108.396 39.6324 107.646C39.0593 106.897 38.7507 105.751 38.7507 104.252C38.7507 103.106 38.8389 102.136 38.9712 101.386C39.1034 100.637 39.412 100.064 39.8088 99.5788C40.2055 99.0939 40.7787 98.7412 41.5281 98.4326C42.1012 98.2122 42.5421 98.0358 42.8947 97.8595C43.2474 97.6831 43.556 97.5068 43.9087 97.2864L44.3055 97.9477C43.7324 98.3444 42.9388 98.7412 41.9249 99.0939C41.3959 99.2702 40.9991 99.4906 40.6905 99.7551C40.3819 100.02 40.1615 100.372 39.941 100.857C39.7647 101.342 39.6324 102.003 39.5443 102.841C39.8088 102.312 40.2055 101.915 40.6464 101.607C41.0873 101.298 41.6604 101.122 42.2776 101.122C43.2474 101.122 43.9528 101.474 44.4377 102.092ZM44.3055 104.825C44.3055 103.811 44.1291 103.062 43.7765 102.577C43.4238 102.092 42.9388 101.827 42.2776 101.827C41.7044 101.827 41.2195 102.003 40.7787 102.312C40.3378 102.621 39.9851 103.106 39.7206 103.679V104.472C39.7206 105.618 39.8969 106.5 40.2937 107.073C40.6905 107.69 41.2636 107.999 42.0571 107.999C43.556 108.043 44.3055 106.985 44.3055 104.825Z" fill="#9A88B6"/>
<path d="M52.7259 101.563C53.299 102.268 53.5635 103.282 53.5635 104.605C53.5635 105.883 53.2549 106.897 52.6818 107.646C52.1087 108.396 51.3152 108.749 50.3012 108.749C49.2873 108.749 48.4937 108.396 47.9206 107.646C47.3475 106.897 47.083 105.883 47.083 104.605C47.083 103.767 47.2153 103.018 47.4798 102.4C47.7443 101.783 48.1411 101.298 48.626 100.946C49.1109 100.593 49.684 100.461 50.3453 100.461C51.3593 100.505 52.1528 100.857 52.7259 101.563ZM48.626 102.092C48.2292 102.665 48.0088 103.502 48.0088 104.649C48.0088 105.751 48.2292 106.588 48.626 107.162C49.0228 107.735 49.5959 108.043 50.3453 108.043C51.0948 108.043 51.6679 107.735 52.0646 107.162C52.4614 106.588 52.6818 105.751 52.6818 104.605C52.6818 103.502 52.4614 102.665 52.0646 102.092C51.6679 101.519 51.0948 101.21 50.3453 101.21C49.5959 101.254 49.0228 101.519 48.626 102.092Z" fill="#9A88B6"/>
<path d="M61.4987 105.002H56.3848C56.4289 106.06 56.6934 106.809 57.0901 107.294C57.4869 107.779 58.06 108.043 58.7654 108.043C59.1621 108.043 59.5148 107.999 59.8234 107.867C60.132 107.735 60.4847 107.559 60.8374 107.25L61.2341 107.823C60.8374 108.132 60.4406 108.396 60.0438 108.572C59.6471 108.749 59.2062 108.837 58.7213 108.837C57.7073 108.837 56.9138 108.484 56.3407 107.735C55.7676 107.029 55.459 106.016 55.459 104.737C55.459 103.899 55.5912 103.15 55.8117 102.533C56.0762 101.916 56.4289 101.387 56.8697 101.034C57.3546 100.681 57.8837 100.505 58.5009 100.505C59.4707 100.505 60.2202 100.858 60.7492 101.519C61.2782 102.224 61.4987 103.15 61.4987 104.34C61.5427 104.561 61.5427 104.781 61.4987 105.002ZM60.7051 104.076C60.7051 103.194 60.5288 102.489 60.1761 101.96C59.8234 101.431 59.2944 101.21 58.589 101.21C57.9718 101.21 57.4428 101.475 57.046 101.96C56.6493 102.445 56.4289 103.238 56.3848 104.296H60.7051V104.076Z" fill="#9A88B6"/>
<path d="M72.6966 108.616V101.386H68.9053V108.616H68.0676V100.637H73.5342V108.616H72.6966Z" fill="#9A88B6"/>
<path d="M82.2189 108.616H81.3813V103.679C81.3813 103.017 81.4254 102.356 81.4695 101.651L77.6341 108.616H76.6201V100.637H77.4577V105.354C77.4577 105.883 77.4136 106.632 77.3696 107.602L81.205 100.681H82.2189V108.616Z" fill="#9A88B6"/>
<path d="M90.0661 100.637L89.9779 101.386H87.421V108.572H86.5833V101.386H83.9382V100.637H90.0661Z" fill="#9A88B6"/>
<path d="M96.0616 107.735C96.1497 107.911 96.3261 108.043 96.5465 108.131L96.3702 108.749C96.0175 108.66 95.753 108.528 95.5766 108.352C95.4003 108.131 95.268 107.823 95.224 107.426C94.6949 108.308 93.9014 108.749 92.8434 108.749C92.0939 108.749 91.5208 108.528 91.124 108.087C90.6832 107.646 90.5068 107.073 90.5068 106.368C90.5068 105.53 90.7714 104.913 91.3445 104.472C91.9176 104.031 92.667 103.811 93.681 103.811H95.1358V103.017C95.1358 102.356 95.0035 101.915 94.739 101.607C94.4745 101.298 93.9896 101.166 93.3724 101.166C92.7993 101.166 92.0939 101.298 91.3004 101.607L91.08 100.945C91.9617 100.593 92.7552 100.416 93.5046 100.416C95.1799 100.416 96.0175 101.254 96.0175 102.929V106.765C95.8852 107.294 95.9293 107.558 96.0616 107.735ZM95.0476 106.676V104.472H93.7251C92.9315 104.472 92.3584 104.649 91.9176 104.957C91.5208 105.266 91.3004 105.751 91.3004 106.368C91.3004 106.897 91.4326 107.338 91.7412 107.646C92.0057 107.955 92.4025 108.087 92.9315 108.087C93.8573 108.087 94.5627 107.602 95.0476 106.676Z" fill="#9A88B6"/>
<path d="M103.688 108.616V104.869H99.853V108.616H99.0154V100.637H99.853V104.12H103.688V100.637H104.526V108.616H103.688Z" fill="#9A88B6"/>
<path d="M113.211 108.616H112.373V103.679C112.373 103.017 112.417 102.356 112.461 101.651L108.626 108.616H107.612V100.637H108.45V105.354C108.45 105.883 108.406 106.632 108.362 107.602L112.197 100.681H113.211V108.616Z" fill="#9A88B6"/>
<path d="M121.763 105.002H116.649C116.694 106.06 116.958 106.809 117.355 107.294C117.752 107.779 118.325 108.043 119.03 108.043C119.427 108.043 119.779 107.999 120.088 107.867C120.397 107.735 120.749 107.559 121.102 107.25L121.499 107.823C121.102 108.132 120.705 108.396 120.308 108.572C119.912 108.749 119.471 108.837 118.986 108.837C117.972 108.837 117.178 108.484 116.605 107.735C116.032 107.029 115.724 106.016 115.724 104.737C115.724 103.899 115.856 103.15 116.076 102.533C116.341 101.916 116.694 101.387 117.134 101.034C117.619 100.681 118.148 100.505 118.766 100.505C119.735 100.505 120.485 100.858 121.014 101.519C121.543 102.224 121.763 103.15 121.763 104.34C121.763 104.561 121.763 104.781 121.763 105.002ZM120.926 104.076C120.926 103.194 120.749 102.489 120.397 101.96C120.044 101.431 119.515 101.21 118.81 101.21C118.192 101.21 117.663 101.475 117.267 101.96C116.87 102.445 116.649 103.238 116.605 104.296H120.926V104.076Z" fill="#9A88B6"/>
<path d="M19.2212 123.12V126.074H18.5599L18.3835 123.87H12.917L12.7406 126.074H12.0793V123.12H12.5643C12.8288 122.944 13.0492 122.724 13.1815 122.503C13.3137 122.283 13.446 121.886 13.5782 121.357C13.7105 120.828 13.7987 120.034 13.8428 118.976L14.0632 115.934H18.5158V123.164H19.2212V123.12ZM17.6341 116.64H14.8126L14.6363 118.844C14.5922 119.858 14.504 120.607 14.3718 121.181C14.2836 121.754 14.1073 122.15 13.975 122.415C13.7987 122.679 13.5782 122.944 13.3137 123.12H17.59V116.64H17.6341Z" fill="#9A88B6"/>
<path d="M26.8919 115.89V123.87H26.0102V116.64H23.0565L22.836 119.594C22.7479 120.784 22.6597 121.621 22.5715 122.15C22.4833 122.68 22.307 123.076 22.0866 123.341C21.8662 123.605 21.5135 123.826 21.0285 124.002L20.8081 123.297C21.1167 123.164 21.3812 122.988 21.5135 122.812C21.6457 122.635 21.778 122.283 21.8221 121.842C21.9102 121.401 21.9543 120.608 22.0425 119.549L22.3511 115.934H26.8919V115.89Z" fill="#9A88B6"/>
<path d="M34.8272 115.89V123.87H33.9896V120.563H31.9176L30.1542 123.87H29.1843L31.08 120.387C30.551 120.211 30.1542 119.946 29.9338 119.594C29.6693 119.241 29.537 118.8 29.537 118.271C29.537 117.522 29.8015 116.948 30.2865 116.508C30.7714 116.067 31.4768 115.89 32.4025 115.89H34.8272ZM33.9896 119.858V116.596H32.4025C31.7854 116.596 31.3004 116.728 30.9477 116.993C30.5951 117.257 30.4187 117.654 30.4187 118.227C30.4187 119.329 31.0359 119.858 32.2703 119.858H33.9896Z" fill="#9A88B6"/>
<path d="M47.083 117.345C47.5679 118.006 47.8324 118.888 47.8324 120.034C47.8324 121.357 47.5679 122.327 46.9948 123.032C46.4217 123.737 45.6723 124.046 44.6583 124.046C43.6443 124.046 42.8508 123.649 42.2777 122.9C41.7046 122.15 41.396 121.004 41.396 119.505C41.396 118.359 41.4842 117.389 41.6164 116.64C41.7487 115.89 42.0573 115.317 42.454 114.832C42.8508 114.347 43.4239 113.995 44.1734 113.686C44.7465 113.466 45.1873 113.289 45.54 113.113C45.8927 112.937 46.2013 112.76 46.554 112.54L46.9507 113.201C46.3776 113.598 45.5841 113.995 44.5701 114.347C44.0411 114.524 43.6443 114.744 43.3358 115.009C43.0272 115.273 42.8067 115.626 42.5863 116.111C42.41 116.596 42.2777 117.257 42.1895 118.095C42.454 117.566 42.8508 117.169 43.2917 116.86C43.7325 116.552 44.3056 116.375 44.9228 116.375C45.8927 116.375 46.5981 116.684 47.083 117.345ZM46.9067 120.078C46.9067 119.064 46.7303 118.315 46.3776 117.83C46.0249 117.345 45.54 117.081 44.8787 117.081C44.3056 117.081 43.8207 117.257 43.3798 117.566C42.939 117.874 42.5863 118.359 42.3218 118.932V119.726C42.3218 120.872 42.4981 121.754 42.8949 122.327C43.2917 122.944 43.8648 123.253 44.6583 123.253C46.1572 123.297 46.9067 122.194 46.9067 120.078Z" fill="#9A88B6"/>
<path d="M55.7677 120.211H50.6538C50.6979 121.269 50.9624 122.018 51.3592 122.503C51.7559 122.988 52.3291 123.253 53.0344 123.253C53.4312 123.253 53.7839 123.208 54.0925 123.076C54.4011 122.944 54.7537 122.768 55.1064 122.459L55.5032 123.032C55.1064 123.341 54.7097 123.605 54.3129 123.782C53.9161 123.958 53.4753 124.046 52.9903 124.046C51.9764 124.046 51.1828 123.693 50.6097 122.944C50.0366 122.239 49.728 121.225 49.728 119.946C49.728 119.109 49.8603 118.359 50.0807 117.742C50.3452 117.125 50.6979 116.596 51.1388 116.243C51.6237 115.89 52.1527 115.714 52.7699 115.714C53.7398 115.714 54.4892 116.067 55.0183 116.728C55.5473 117.433 55.7677 118.359 55.7677 119.549C55.7677 119.814 55.7677 120.034 55.7677 120.211ZM54.9301 119.285C54.9301 118.403 54.7537 117.698 54.4011 117.169C54.0484 116.64 53.5194 116.419 52.814 116.419C52.1968 116.419 51.6678 116.684 51.271 117.169C50.8742 117.654 50.6538 118.447 50.6097 119.505H54.9301V119.285Z" fill="#9A88B6"/>
<path d="M63.4826 116.816C63.9675 117.521 64.1879 118.535 64.1879 119.858C64.1879 121.136 63.9234 122.15 63.4385 122.9C62.9536 123.649 62.2041 124.046 61.2783 124.046C60.8375 124.046 60.3966 123.958 60.0439 123.738C59.6912 123.561 59.3386 123.253 59.1181 122.944V126.868L58.2805 127V115.89H59.03L59.1181 117.037C59.3827 116.64 59.7353 116.287 60.1321 116.067C60.5289 115.846 60.9697 115.714 61.4547 115.714C62.2923 115.714 62.9976 116.067 63.4826 116.816ZM62.689 122.415C63.0417 121.842 63.2622 120.96 63.2622 119.858C63.2622 117.61 62.6009 116.463 61.2342 116.463C60.7934 116.463 60.3966 116.596 60.0439 116.816C59.6912 117.081 59.3826 117.389 59.0741 117.83V122.062C59.6031 122.856 60.2644 123.297 61.102 123.297C61.8073 123.297 62.3364 122.988 62.689 122.415Z" fill="#9A88B6"/>
<path d="M72.1676 120.211H67.0537C67.0978 121.269 67.3623 122.018 67.7591 122.503C68.1558 122.988 68.729 123.253 69.4343 123.253C69.8311 123.253 70.1838 123.209 70.4924 123.076C70.801 122.944 71.1536 122.768 71.5063 122.459L71.9031 123.032C71.5063 123.341 71.1096 123.605 70.7128 123.782C70.316 123.958 69.8752 124.046 69.3902 124.046C68.3763 124.046 67.5827 123.694 67.0096 122.944C66.4365 122.239 66.1279 121.225 66.1279 119.946C66.1279 119.109 66.2602 118.359 66.4806 117.742C66.7451 117.125 67.0978 116.596 67.5387 116.243C68.0236 115.891 68.5526 115.714 69.1698 115.714C70.1397 115.714 70.8891 116.067 71.4182 116.728C71.9472 117.434 72.1676 118.359 72.1676 119.55C72.1676 119.814 72.1676 120.035 72.1676 120.211ZM71.3741 119.285C71.3741 118.403 71.1977 117.698 70.845 117.169C70.4924 116.64 69.9633 116.42 69.258 116.42C68.6408 116.42 68.1118 116.684 67.715 117.169C67.3182 117.654 67.0978 118.448 67.0537 119.506H71.3741V119.285Z" fill="#9A88B6"/>
<path d="M81.7338 123.87H80.8962L80.4994 119.241C80.4553 118.491 80.4113 117.698 80.3672 116.816L78.207 122.9H77.4135L75.3415 116.816C75.3415 117.698 75.2974 118.491 75.2533 119.241L74.9006 123.87H74.063L74.7243 115.89H75.8264L77.8543 121.974L79.9704 115.89H81.0725L81.7338 123.87Z" fill="#9A88B6"/>
<path d="M89.7135 120.211H84.5996C84.6437 121.269 84.9082 122.018 85.305 122.503C85.7018 122.988 86.2749 123.253 86.9802 123.253C87.377 123.253 87.7297 123.208 88.0383 123.076C88.3469 122.944 88.6996 122.768 89.0522 122.459L89.449 123.032C89.0522 123.341 88.6555 123.605 88.2587 123.782C87.8619 123.958 87.4211 124.046 86.9361 124.046C85.9222 124.046 85.1286 123.693 84.5555 122.944C83.9824 122.239 83.6738 121.225 83.6738 119.946C83.6738 119.109 83.8061 118.359 84.0265 117.742C84.291 117.125 84.6437 116.596 85.0846 116.243C85.5695 115.89 86.0985 115.714 86.7157 115.714C87.6856 115.714 88.435 116.067 88.9641 116.728C89.4931 117.433 89.7135 118.359 89.7135 119.549C89.7576 119.814 89.7135 120.034 89.7135 120.211ZM88.92 119.285C88.92 118.403 88.7436 117.698 88.391 117.169C88.0383 116.64 87.5092 116.419 86.8039 116.419C86.1867 116.419 85.6577 116.684 85.2609 117.169C84.8641 117.654 84.6437 118.447 84.5996 119.505H88.92V119.285Z" fill="#9A88B6"/>
<path d="M96.8552 123.87V120.123H93.0197V123.87H92.1821V115.89H93.0197V119.373H96.8552V115.89H97.6928V123.87H96.8552Z" fill="#9A88B6"/>
<path d="M105.496 123.87V120.123H101.661V123.87H100.823V115.89H101.661V119.373H105.496V115.89H106.334V123.87H105.496Z" fill="#9A88B6"/>
<path d="M114.578 121.181C114.578 122.062 114.313 122.768 113.784 123.209C113.255 123.649 112.55 123.87 111.668 123.87H109.464V115.89H110.301V118.58H111.492C113.564 118.58 114.578 119.417 114.578 121.181ZM113.123 122.68C113.475 122.371 113.652 121.886 113.652 121.181C113.652 120.563 113.475 120.078 113.167 119.77C112.858 119.461 112.285 119.285 111.536 119.285H110.301V123.12H111.58C112.241 123.12 112.77 122.988 113.123 122.68ZM115.944 115.89H116.782V123.87H115.944V115.89Z" fill="#9A88B6"/>
<path d="M122.248 119.594L124.938 123.87H123.924L121.719 120.167L119.515 123.87H118.545L121.234 119.638L118.898 115.89H119.912L121.807 119.065L123.703 115.89H124.673L122.248 119.594Z" fill="#9A88B6"/>
</svg>
