<svg width="100" height="23" viewBox="0 0 100 23" fill="none" xmlns="http://www.w3.org/2000/svg">
<path fill-rule="evenodd" clip-rule="evenodd" d="M78.0704 0.979353L84.9391 19.1371C85.0318 19.4018 85.0715 19.6665 85.0715 19.9312C85.0715 20.5267 84.8862 21.0296 84.5156 21.4399C84.1451 21.8502 83.6951 22.0619 83.1525 22.0619C82.2525 22.0619 81.6305 21.5723 81.2997 20.5929L80.2409 17.6416H73.3457L72.3266 20.5929C71.9958 21.5723 71.3738 22.0619 70.4738 22.0619C69.9444 22.0619 69.4812 21.8502 69.1107 21.4399C68.7401 21.0296 68.5548 20.5267 68.5548 19.9312C68.5548 19.6665 68.5945 19.4018 68.6872 19.1371L75.5691 0.979353C75.8073 0.330862 76.2308 0 76.8131 0C77.4087 0 77.819 0.330862 78.0704 0.979353ZM76.8131 7.83483L74.603 14.0815H79.0101L76.8131 7.83483ZM34.6873 20.0053V1.84754C34.6873 1.35786 34.8461 0.947591 35.1638 0.603493C35.4814 0.259396 35.852 0.0873474 36.3019 0.0873474C36.7387 0.0873474 37.1225 0.259396 37.4401 0.603493C37.7577 0.947591 37.9165 1.3711 37.9165 1.84754V18.4304H43.8985C44.3088 18.4304 44.6661 18.5892 44.9705 18.9201C45.2749 19.2509 45.4337 19.648 45.4337 20.1112C45.4337 20.5744 45.2749 20.9714 44.9705 21.3023C44.6661 21.6331 44.3088 21.792 43.8985 21.792H36.3019C35.8652 21.792 35.4814 21.6199 35.1638 21.2758C34.8461 20.9185 34.6873 20.495 34.6873 20.0053ZM0 20.376V2.15209C0 1.66241 0.145579 1.25214 0.423504 0.934512C0.714664 0.603649 1.05876 0.444835 1.4955 0.444835H8.64214C9.07888 0.444835 9.44944 0.603649 9.75384 0.934512C10.045 1.26537 10.1906 1.66241 10.1906 2.15209C10.1906 2.6153 10.045 3.01233 9.75384 3.32996C9.46268 3.64759 9.09211 3.8064 8.64214 3.8064H3.21599V8.5973H7.8216C8.25834 8.5973 8.62891 8.75611 8.9333 9.08697C9.22446 9.41784 9.37004 9.81487 9.37004 10.3045C9.37004 10.7678 9.22446 11.1648 8.9333 11.4824C8.64214 11.8001 8.27157 11.9589 7.8216 11.9589H3.21599V20.4025C3.21599 20.8922 3.05717 21.3024 2.73954 21.6465C2.42192 21.9906 2.05135 22.1627 1.60138 22.1627C1.16464 22.1627 0.780837 21.9906 0.463208 21.6465C0.158814 21.276 0 20.8657 0 20.376ZM10.9712 20.0981V2.12562C10.9712 1.66241 11.1168 1.26537 11.4079 0.934512C11.6991 0.603649 12.0697 0.444835 12.4932 0.444835H19.6398C20.0633 0.444835 20.4207 0.603649 20.725 0.934512C21.0162 1.26537 21.1618 1.66241 21.1618 2.12562C21.1618 2.58883 21.0162 2.98586 20.725 3.31672C20.4339 3.64759 20.0633 3.8064 19.6398 3.8064H14.1872V8.37231H19.0046C19.4148 8.37231 19.7589 8.53112 20.0501 8.84875C20.3412 9.16638 20.4736 9.55018 20.4736 9.98692C20.4736 10.4369 20.328 10.8207 20.0501 11.1251C19.7589 11.4427 19.4148 11.6015 19.0046 11.6015H14.1872V18.4305H19.8913C20.3015 18.4305 20.6589 18.5894 20.9633 18.9202C21.2677 19.2511 21.4265 19.6481 21.4265 20.1113C21.4265 20.5745 21.2677 20.9716 20.9633 21.3024C20.6589 21.6333 20.3015 21.7921 19.8913 21.7921H12.4932C12.0697 21.7921 11.7123 21.6333 11.4079 21.3024C11.1168 20.9716 10.9712 20.5745 10.9712 20.0981ZM22.8298 2.12562V20.0981C22.8298 20.5745 22.9753 20.9716 23.2665 21.3024C23.5709 21.6333 23.9282 21.7921 24.3517 21.7921H31.7498C32.1601 21.7921 32.5174 21.6333 32.8218 21.3024C33.1262 20.9716 33.285 20.5745 33.285 20.1113C33.285 19.6481 33.1262 19.2511 32.8218 18.9202C32.5174 18.5894 32.1601 18.4305 31.7498 18.4305H26.0458V11.6015H30.8631C31.2734 11.6015 31.6175 11.4427 31.9086 11.1251C32.1866 10.8207 32.3321 10.4369 32.3321 9.98692C32.3321 9.55018 32.1998 9.16638 31.9086 8.84875C31.6175 8.53112 31.2734 8.37231 30.8631 8.37231H26.0458V3.8064H31.4984C31.9219 3.8064 32.2924 3.64759 32.5836 3.31672C32.8748 2.98586 33.0203 2.58883 33.0203 2.12562C33.0203 1.66241 32.8748 1.26537 32.5836 0.934512C32.2792 0.603649 31.9219 0.444835 31.4984 0.444835H24.3517C23.9282 0.444835 23.5577 0.603649 23.2665 0.934512C22.9753 1.26537 22.8298 1.66241 22.8298 2.12562ZM56.1538 21.7045H63.2475C63.7636 21.7045 64.2004 21.506 64.5445 21.0957C64.9018 20.6987 65.0871 20.2222 65.0871 19.6531C65.0871 19.084 64.9018 18.6076 64.5445 18.2106C64.1871 17.8135 63.7504 17.615 63.2342 17.615H58.1654V12.1227H62.3475C62.8372 12.1227 63.274 11.9242 63.6313 11.5404C63.9886 11.1566 64.1739 10.6801 64.1739 10.1375C64.1739 9.59489 63.9886 9.11845 63.6313 8.72141C63.274 8.32438 62.8504 8.12586 62.3475 8.12586H58.1654V4.43343H62.996C63.5122 4.43343 63.9489 4.23491 64.3062 3.83788C64.6636 3.44084 64.8489 2.9644 64.8489 2.39532C64.8489 1.82623 64.6636 1.34979 64.3062 0.952752C63.9489 0.555716 63.5122 0.357199 62.996 0.357199H56.1538C55.5979 0.357199 55.1215 0.582185 54.7245 1.01892C54.3274 1.45566 54.1289 1.98505 54.1289 2.59384V19.4678C54.1289 20.0766 54.3274 20.606 54.7245 21.0427C55.1215 21.4927 55.5979 21.7045 56.1538 21.7045ZM98.1472 0.370214H88.3933C87.8772 0.370214 87.4404 0.568732 87.0699 0.965767C86.7125 1.3628 86.5273 1.83924 86.5273 2.40833C86.5273 2.97741 86.7125 3.45386 87.0699 3.85089C87.4272 4.24793 87.8639 4.44645 88.3801 4.44645H91.2387V19.8382C91.2387 20.447 91.4373 20.9764 91.8343 21.4131C92.2313 21.8498 92.7078 22.0748 93.2636 22.0748C93.8195 22.0748 94.2959 21.8498 94.693 21.4131C95.09 20.9764 95.2885 20.447 95.2885 19.8382V4.44645H98.1472C98.6633 4.44645 99.1001 4.24793 99.4574 3.85089C99.8147 3.45386 100 2.97741 100 2.40833C100 1.83924 99.8147 1.3628 99.4574 0.965767C99.1001 0.568732 98.6633 0.370214 98.1472 0.370214Z" fill="#0D8C45"/>
</svg>
