<svg width="138" height="87" viewBox="0 0 138 87" fill="none" xmlns="http://www.w3.org/2000/svg">
<path d="M0 18.7267C0 13.6569 0 8.6312 0 3.56139C0 3.16463 -6.73344e-07 2.76786 0.0440846 2.37109C0.264511 0.872195 1.32256 0.0345747 2.90962 0.0345747C4.49669 0.0345747 5.46657 0.872195 5.687 2.37109C5.73108 2.81195 5.77516 3.2528 5.77516 3.69365C5.77516 7.26455 5.77516 10.8355 5.77516 14.4064C5.77516 15.6848 5.99559 15.8612 7.22998 15.8612C10.4923 15.8612 13.7546 15.8612 17.061 15.8612C18.1631 15.8612 18.4717 15.5526 18.4717 14.4504C18.4717 10.7032 18.4717 6.95596 18.4717 3.20871C18.4717 1.62165 19.0448 0.563598 20.191 0.210916C22.4394 -0.494447 24.2469 0.607682 24.2469 2.9442C24.2469 13.4365 24.2469 23.9288 24.2469 34.377C24.2469 36.2285 23.1888 37.3307 21.4695 37.3748C19.5738 37.4189 18.4717 36.3608 18.4717 34.377C18.4276 31.5114 18.4717 28.6459 18.4717 25.7363C18.4717 24.6341 18.4717 23.5761 18.4717 22.474C18.4717 21.5923 18.119 21.1955 17.2373 21.1514C13.8428 21.1514 10.4482 21.1514 7.05364 21.1514C6.12785 21.1514 5.81925 21.5482 5.81925 22.5621C5.81925 26.2653 5.81925 30.0125 5.81925 33.7157C5.81925 34.0684 5.81925 34.4211 5.77516 34.7737C5.51065 36.6694 4.4967 37.4629 2.55694 37.3748C1.01396 37.2866 0.0440846 36.1845 0.0440846 34.4651C-6.73344e-07 29.219 0 23.9729 0 18.7267Z" fill="#EEA4C8"/>
<path d="M64.8934 14.186C65.1139 14.0537 65.2902 14.0096 65.3784 13.8774C70.5363 8.93983 80.5437 10.1742 83.4092 19.0794C84.9522 23.9288 84.6436 28.69 81.6899 33.0104C79.3975 36.3168 76.0911 37.6834 72.1675 37.5952C69.7869 37.5511 67.6708 36.8017 65.8633 35.2146C65.6429 35.0383 65.3343 34.9942 65.0698 34.906C65.0257 35.1705 64.8934 35.391 64.8934 35.6555C64.8934 38.8737 64.8934 42.0478 64.8934 45.2661C64.8934 45.6187 64.8493 46.0155 64.8053 46.3682C64.5408 47.8671 63.4386 48.7488 62.0279 48.6606C60.5731 48.5724 59.6032 47.6026 59.4709 46.0596C59.4709 45.8392 59.4709 45.6187 59.4709 45.3983C59.4709 35.0824 59.4709 24.7664 59.4709 14.4505C59.4709 14.0096 59.515 13.5688 59.6032 13.1279C59.9118 11.9376 60.7935 11.2763 62.0279 11.1882C63.1741 11.1441 64.144 11.7172 64.5848 12.8634C64.6289 13.3043 64.7612 13.701 64.8934 14.186ZM71.6826 33.0104C73.8427 33.0104 75.518 32.1727 76.7964 30.4534C79.0007 27.5438 79.3093 22.3858 77.3696 19.1235C74.6804 14.5386 68.5084 14.4946 65.9074 19.1235C63.9676 22.6503 64.0558 26.3094 66.0397 29.7921C67.274 31.9082 69.1697 33.0544 71.6826 33.0104Z" fill="#EEA4C8"/>
<path d="M93.7693 14.1859C93.9897 14.0537 94.1661 14.0096 94.2542 13.9214C99.4122 8.98389 109.42 10.1742 112.285 19.1235C113.828 23.9288 113.519 28.7341 110.566 33.0544C108.273 36.3608 105.011 37.7275 101.043 37.6393C98.6628 37.5952 96.5467 36.8458 94.7392 35.2587C94.5188 35.0823 94.2102 35.0383 93.9457 34.9501C93.9016 35.2146 93.7693 35.435 93.7693 35.6995C93.7693 38.9178 93.7693 42.0919 93.7693 45.3101C93.7693 45.6628 93.7252 46.0596 93.6811 46.4123C93.4166 47.9112 92.3145 48.7929 90.9038 48.7047C89.449 48.6165 88.4791 47.6466 88.3027 46.1477C88.3027 45.9273 88.3027 45.7069 88.3027 45.4865C88.3027 35.1705 88.3027 24.8546 88.3027 14.5386C88.3027 14.0978 88.3468 13.6569 88.435 13.2161C88.7436 12.0258 89.6253 11.3645 90.8597 11.2763C92.05 11.1882 93.0199 11.8494 93.4607 12.9956C93.5048 13.3483 93.593 13.701 93.7693 14.1859ZM100.514 33.0103C102.675 33.0103 104.306 32.1727 105.628 30.4975C107.921 27.5438 108.141 22.2535 106.113 18.9912C103.468 14.6709 97.4725 14.5827 94.8714 18.9472C92.7554 22.474 92.8435 26.2212 94.8714 29.7921C96.1058 31.9082 98.0015 33.0103 100.514 33.0103Z" fill="#EEA4C8"/>
<path d="M48.4937 34.4652C48.2292 34.6415 48.0088 34.7738 47.8325 34.906C43.5562 39.3145 34.1219 38.6092 30.7715 31.4233C28.1704 25.8245 28.3468 20.2256 32.094 15.1118C35.709 10.1742 43.468 9.64518 47.7002 13.5688C48.2292 14.0978 48.5378 14.0096 48.7142 13.2602C49.155 11.4968 50.4776 11.1441 51.8442 11.3204C53.1227 11.4968 54.0044 12.5989 54.0044 14.0978C54.0044 20.8869 54.0044 27.676 54.0044 34.4652C54.0044 36.5813 52.241 37.8156 50.3012 37.1544C49.2873 36.8017 48.8905 36.0082 48.6701 35.0383C48.6701 34.9501 48.5819 34.7738 48.4937 34.4652ZM34.7832 24.4137C34.7391 26.2653 35.0918 28.161 36.194 29.8362C38.7509 33.9361 44.3938 34.0684 47.1712 30.1448C49.4636 26.9266 49.3754 21.46 46.9948 18.33C44.3056 14.715 39.1036 14.8032 36.4585 18.4181C35.18 20.1816 34.7391 22.1654 34.7832 24.4137Z" fill="#EEA4C8"/>
<path d="M125.687 29.9243C127.23 25.6922 128.685 21.6363 130.14 17.5805C130.669 16.0816 131.198 14.5827 131.771 13.1279C132.3 11.8494 133.314 11.2763 134.636 11.3645C135.65 11.4526 136.62 12.2021 136.885 13.216C137.149 14.1418 137.017 15.0235 136.664 15.9052C135.562 18.6385 134.504 21.3718 133.402 24.1051C130.404 31.6877 127.406 39.2704 124.364 46.809C124.276 47.0735 124.144 47.338 124.012 47.6025C123.262 49.1014 121.763 49.7627 120.397 49.1896C119.074 48.6606 118.457 47.1176 119.03 45.5305C119.912 43.1499 120.749 40.7693 121.852 38.521C122.733 36.7135 122.645 35.1264 121.852 33.2748C119.383 27.4996 117.134 21.6363 114.842 15.8171C114.533 15.0235 114.445 14.0977 114.533 13.3042C114.666 12.2902 115.371 11.5849 116.429 11.3645C117.531 11.144 118.501 11.4085 119.206 12.3343C119.515 12.7752 119.78 13.2601 119.956 13.7891C121.763 18.8589 123.527 23.9287 125.29 29.0426C125.467 29.3071 125.555 29.5276 125.687 29.9243Z" fill="#EEA4C8"/>
<path d="M17.4578 61.7979C17.8105 61.5334 18.031 61.357 18.2514 61.1807C20.632 59.1969 23.3653 58.5797 26.3631 59.3291C28.0824 59.77 29.4049 60.7399 30.4189 62.1506C30.9038 62.8119 31.1243 62.8119 31.6533 62.1947C34.1661 59.4173 37.3403 58.4474 40.9553 59.2409C44.5703 60.0345 46.51 62.5914 47.3476 66.0301C47.6121 67.1763 47.7885 68.3666 47.7885 69.5569C47.8326 73.7891 47.8326 77.9772 47.7885 82.2094C47.7885 83.7964 47.1713 84.8104 46.0692 85.2071C44.0853 85.9125 42.3219 84.634 42.3219 82.4298C42.3219 78.1976 42.366 73.9654 42.2778 69.7332C42.2778 68.6311 42.0574 67.4849 41.6606 66.4709C40.9553 64.6194 39.5005 63.6936 37.5166 63.6495C35.5328 63.6054 34.078 64.5312 33.2404 66.3387C32.8877 67.1322 32.6232 68.058 32.6232 68.8956C32.535 73.1719 32.5791 77.4922 32.5791 81.7685C32.5791 82.1653 32.535 82.562 32.4909 82.9588C32.2705 84.6341 31.2124 85.4717 29.4931 85.3394C28.1265 85.2512 27.1125 84.1491 27.1125 82.6061C27.0684 78.418 27.1125 74.2299 27.0684 70.0418C27.0684 69.2042 26.9803 68.3225 26.8039 67.4849C26.2308 65.0161 24.5115 63.6054 22.219 63.6495C19.9266 63.6936 18.1191 65.1925 17.6342 67.6171C17.4578 68.4548 17.4138 69.3365 17.4138 70.2182C17.3697 74.0536 17.4138 77.8449 17.4138 81.6803C17.4138 82.0771 17.4138 82.4739 17.3697 82.8706C17.1933 84.5459 16.1794 85.4276 14.5041 85.3835C13.0493 85.3394 11.9913 84.2373 11.9913 82.6061C11.9913 77.1396 11.9913 71.7171 11.9913 66.2505C11.9913 64.7957 11.9472 63.385 11.9913 61.9302C12.0794 59.9904 13.7547 58.8442 15.6063 59.4614C16.3557 59.6818 16.7966 60.2108 17.1052 60.9162C17.1933 61.1807 17.2815 61.4011 17.4578 61.7979Z" fill="#B6BCDA"/>
<path d="M94.7393 61.7979C95.092 61.4893 95.4006 61.313 95.621 61.0925C98.707 58.4033 103.6 58.3152 106.554 60.9162C106.951 61.2689 107.304 61.6656 107.612 62.0624C108.273 62.9 108.362 62.9 109.067 62.1506C111.8 59.241 115.151 58.4033 118.898 59.4614C122.16 60.3872 123.88 62.9 124.673 66.0742C124.982 67.2204 125.114 68.4548 125.114 69.6892C125.158 73.8773 125.158 78.0653 125.114 82.2534C125.114 83.8405 124.497 84.8545 123.395 85.2953C121.411 86.0448 119.647 84.7663 119.603 82.562C119.603 78.3299 119.603 74.1418 119.603 69.9096C119.603 69.116 119.515 68.3225 119.339 67.5731C118.722 65.0602 117.002 63.6936 114.666 63.7817C112.373 63.8699 110.61 65.4129 110.125 67.8376C109.993 68.6311 109.949 69.4246 109.949 70.2182C109.949 74.0977 109.949 78.0213 109.949 81.9008C109.949 82.2975 109.949 82.6943 109.861 83.0911C109.64 84.7663 108.582 85.6039 106.907 85.5158C105.496 85.4276 104.482 84.3255 104.482 82.7384C104.482 78.5062 104.482 74.274 104.482 70.0418C104.482 68.6752 104.306 67.3085 103.6 66.1182C101.925 63.2086 97.6489 63.0323 95.8855 65.8537C95.3124 66.7354 94.9156 67.8817 94.8716 68.8956C94.7393 73.216 94.7834 77.5804 94.7834 81.9008C94.7834 82.4739 94.7834 83.047 94.6511 83.6201C94.3425 84.9867 93.1963 85.6921 91.6533 85.5598C90.4189 85.4276 89.4932 84.4577 89.3609 83.1352C89.3168 82.8266 89.3609 82.562 89.3609 82.2534C89.3609 75.817 89.3609 69.3806 89.3609 62.9C89.3609 62.5914 89.3609 62.2828 89.3609 62.0183C89.4491 60.7398 90.3749 59.7259 91.5652 59.5496C93.02 59.3732 94.0339 59.9904 94.563 61.313C94.5189 61.313 94.607 61.4893 94.7393 61.7979Z" fill="#B6BCDA"/>
<path d="M83.6299 61.4452C78.6923 55.0529 68.9936 58.8442 68.9936 65.3247C68.9936 58.8442 59.2948 55.0529 54.3573 61.4452C49.2434 68.058 54.2691 79.6524 68.9936 86.3093C83.718 79.6083 88.7438 68.058 83.6299 61.4452Z" fill="#EEA4C8"/>
</svg>
