<?xml version="1.0" encoding="utf-8"?>
<!-- Generator: Adobe Illustrator 22.1.0, SVG Export Plug-In . SVG Version: 6.00 Build 0)  -->
<svg version="1.1" id="Слой_1" xmlns="http://www.w3.org/2000/svg" xmlns:xlink="http://www.w3.org/1999/xlink" x="0px" y="0px"
	 viewBox="0 0 133 43" style="enable-background:new 0 0 133 43;" xml:space="preserve">
<style type="text/css">
	.st0{fill:#FFFFFF;}
</style>
<path class="st0" d="M133,38.3c0,0,0-0.1-0.1-0.1c-0.1-0.1-0.1-0.1-0.2-0.2c-0.1,0-0.2-0.1-0.3-0.1v0c-0.3,0-0.6-0.1-0.9-0.1
	c-0.3,0-0.6-0.1-0.9-0.1c-3.2-0.5-6.5-0.7-9.7-0.8c-2.7-0.1-5.4,0-8.1,0.2c-2.6,0.2-5.3,0.5-7.9,1c-1.5,0.3-3.1,0.6-4.6,1
	c-0.8,0.2-1.6,0.4-2.4,0.5c-0.5,0.1-1,0.2-1.6,0.3c-0.5,0.1-1,0.1-1.6,0.1c-0.2,0-0.4-0.1-0.6-0.2c-0.2-0.1-0.3-0.3-0.4-0.5
	c-0.3-0.8-0.8-1.4-1.4-1.9c-0.7-0.4-1.5-0.7-2.3-0.6c-0.2,0-0.3,0-0.5,0c-0.3,0-0.7,0.1-1,0.1c-2,0.5-3.9,1.2-5.7,2.2
	c-0.2-3.9,0.5-7.9,1.4-11.7c0.2-1,0.5-2.1,0.7-3.1c0.1-0.5,0.3-1,0.4-1.5c0.1-0.2,0.1-0.5,0.2-0.7c0.1-0.2,0.1-0.5,0.2-0.7
	c0-0.1,0-0.1,0-0.2c-0.1-0.2-0.3-0.3-0.5-0.3c-0.3-0.1-0.7-0.2-1,0.1c-0.1,0.1-0.2,0.3-0.3,0.5c-0.5,1.1-0.8,2.3-1.3,3.5
	c-0.6,1.5-1.4,2.8-2.3,4.2c-1,1.6-1.9,3.2-3.1,4.6c-1.1,1.3-2.5,2.5-4.1,3.2c-0.1,0-0.2,0.1-0.3,0.1c-0.1,0-0.1,0-0.2,0.1
	c-0.1,0-0.1-0.2-0.1-0.3c0.1-0.3,0.1-0.7,0.1-1c0-0.1,0-0.1,0-0.2c0,0,0.1-0.1,0.1-0.1c0.1,0,0.1,0,0.2,0c1.6,0,2.8-1.3,3.4-2.7
	c0.2-0.6,0.5-1.5-0.3-1.8c-1.6-0.6-3.2,0.3-4.2,1.5c-0.2,0.2-0.4,0.5-0.5,0.7c-0.1,0.1-0.1,0.2-0.2,0.4c0,0.1-0.1,0.3-0.2,0.4
	c-0.8,0.4-1.7,0.8-2,1c-0.1,0-0.2,0.1-0.3,0.1c0,0-0.1,0-0.1-0.1c0,0,0-0.1,0-0.1c-0.3-1.5-1.9-3.1-3.5-3.1c-0.6,0-1.1,0.2-1.5,0.6
	c0,0-0.1,0.1-0.2,0.1c0-0.1-0.1-0.1-0.1-0.2c0.5-3.9,1.2-7.8,2.1-11.7c0.1-0.6,0-0.9-0.6-1.1c-0.2-0.1-0.4-0.1-0.6-0.1
	c-0.3,0-0.4,0.3-0.4,0.5c-0.1,0.4-0.2,0.7-0.3,1.1c-0.2,0.7-0.5,1.4-0.8,2.2c-0.5,1.4-1.1,2.8-1.8,4.2c-0.2,0.4-0.4,0.9-0.6,1.3
	c-0.9,1.9-1.7,4-2.8,5.8c0,0-0.1,0.1-0.1,0.1c0,0,0,0-0.1-0.1c0,0,0-0.1,0-0.1c0.1-0.8,0.3-1.6,0.4-2.5c0-0.3,0.2-0.7,0-1
	c-0.1-0.1-0.2-0.3-0.3-0.3c-0.1-0.1-0.3-0.1-0.4-0.1c-0.2,0-0.3,0-0.5,0.1c-0.1,0.1-0.3,0.2-0.4,0.3c-0.1,0.1-0.2,0.3-0.3,0.4
	c0,0,0,0.1-0.1,0.1c0,0-0.1,0-0.1,0c-0.1,0-0.1,0-0.2,0C55,31,54.5,30.9,54,30.8c-1.2,0-1.9,0.4-2.6,1.5c-0.5,0.8-0.8,1.7-0.9,2.6
	c-1,0.8-2.1,1.6-3.1,2.3c-0.3,0.2-0.5,0.3-0.8,0.4c-0.1,0-0.2,0-0.2,0c-0.4-0.1-0.4-0.9-0.5-1.2c0-0.5,0-1,0-1.5
	c0-0.5,0.1-1.1,0.1-1.6c0.1-1,0.2-2.1,0.4-3.1c0.1-0.5,0.1-1.1,0.2-1.6c0.1-0.8,0.3-1.6,0.5-2.4c0.2-0.9,0.4-1.9,0.6-2.9
	c0.1-0.4,0.2-0.9,0.4-1.3c0.1-0.5,0.4-1.1,0.5-1.6c0.1-0.3,0.1-0.6,0.1-0.9c-0.1-0.3-0.5-0.6-0.8-0.5c-0.5,0.2-0.7,1.1-0.9,1.5
	c-0.5,1.6-1,3.2-1.4,4.9c-0.2,0.9-0.4,1.8-0.6,2.7c-0.2,1.1-0.4,2.2-0.5,3.3c-0.2,0.9-0.3,1.9-0.3,2.8c-0.1,1,0,2,0.2,2.9
	c0.2,1,1,1.8,2,1.8c0.4,0,0.8-0.1,1.2-0.3c0.8-0.5,2-1.5,3-2.4c0.1,0.4,0.4,0.7,0.7,1c0.3,0.3,0.7,0.4,1.1,0.4
	c0.2,0,0.5-0.1,0.7-0.2c0.2-0.1,0.4-0.3,0.6-0.5c0.9-1.1,1.7-2.2,2.5-3.4c0.1,0.3,0.1,0.6,0.1,0.9c0.1,0.6,0.5,1.3,1.2,1.3
	c1.1,0,1.8-1.7,2.2-2.5c0.3-0.7,1.8-4,1.8-4.2c-0.2,1.5-0.5,3-0.6,4.5c-0.2,1.5-0.2,3-0.2,4.5c0,0.2,0.1,0.3,0.2,0.5
	c0.4,0.3,0.8,0.4,1.3,0.4c0.2,0,0.3,0,0.5,0c0.3,0,0.3-0.3,0.3-0.6c0-0.5,0-1,0-1.5c0-0.5,0.1-0.9,0.2-1.5c0.1-0.9,1.3-2.8,2.4-2.8
	c0.8,0,1.5,1.1,1.6,1.9c0.1,0.3,0.1,0.7,0.1,1c0.1,0.7,0,0.7-0.5,1.1c-0.7,0.5-1.3,1.1-1.9,1.8c-0.5,0.6-1.1,1.4-1.2,2.2
	c-0.2,1,0.7,1.7,1.6,1.7c1.3,0,2.4-1.5,2.9-2.6c0.3-0.8,0.5-1.7,0.5-2.5c0-0.2,0-0.6,0-0.9c0-0.1,0-0.1,0.1-0.2s0.1-0.1,0.1-0.2
	c0.2-0.1,0.4-0.2,0.6-0.3c0.4-0.2,0.8-0.4,1.1-0.6c-0.1,0.3-0.1,0.6-0.2,0.9c-0.1,1.3,1,2.4,2.3,2.4c0.1,0,0.3,0,0.4,0
	c0.4,0,0.8-0.3,1.1-0.4c0.4-0.2,0.7-0.4,1.1-0.7c1.3-0.9,2.3-2.1,3.2-3.5c1-1.4,2.8-4.6,2.9-4.7c-0.6,3.1-0.7,6.4-0.3,9.6
	c0,0.4,0.1,0.7,0.3,1.1c0.1,0.2,0.2,0.3,0.3,0.4c0.1,0.1,0.3,0.2,0.5,0.2c0.1,0,0.2,0,0.3,0c0.1,0,0.2-0.1,0.3-0.2
	c0.1,0,0.2-0.1,0.3-0.1c1.4-0.7,2.9-1.3,4.4-1.7c0.5-0.2,1.1-0.3,1.7-0.4c0.6-0.1,1.2-0.2,1.7-0.1c0.5,0,1,0.2,1.5,0.5
	c0.5,0.3,0.8,0.8,1,1.3c0.1,0.5,0.4,0.9,0.8,1.2c0.4,0.3,0.8,0.5,1.3,0.5c0.3,0,0.7,0,1,0c0.9-0.1,1.8-0.2,2.7-0.4
	c1.1-0.2,2.1-0.4,3.2-0.7c1.6-0.3,3.1-0.6,4.7-0.9c2.7-0.4,5.4-0.8,8.1-1c1.5-0.1,3.1-0.2,4.6-0.3c1.8,0,3.6,0,5.3,0.1
	c2.3,0.1,4.6,0.3,6.9,0.6c0.2,0,0.4,0.1,0.6,0.1c0.1,0,0.2,0,0.4,0.1h0.1c0,0,0,0,0.1,0c0,0,0,0,0-0.1C133,38.4,133,38.4,133,38.3
	C133,38.3,133,38.3,133,38.3L133,38.3z M72.7,34.5c0.1-0.5,0.7-1.5,0.8-1.6c0.4-0.6,1-1.1,1.6-1.4c0.1,0,0.2-0.1,0.3-0.1
	c0.3,0,0,0.7,0,0.8c-0.5,1.1-1.3,2-2.4,2.4c0,0-0.1,0-0.2,0C72.7,34.7,72.7,34.6,72.7,34.5z M55,32.3c-0.7,0.9-1.3,1.9-2,2.8
	c-0.1,0-0.1,0-0.2-0.1c0.1-0.6,0.4-1.3,0.7-1.9c0.2-0.3,0.4-0.6,0.6-0.9c0.2-0.2,0.4-0.3,0.6-0.3h0.1c0,0,0.1,0,0.1,0
	c0,0,0.1,0.1,0.1,0.1c0,0,0,0.1,0,0.1C55,32.2,55,32.2,55,32.3L55,32.3z M66.9,37.9c-0.2,1-0.8,1.9-1.6,2.7
	c-0.5,0.6-0.3-0.6-0.2-0.8c0.4-1,1.1-1.8,1.8-2.6c0,0,0.1,0,0.1,0C67,37.5,67,37.7,66.9,37.9L66.9,37.9z M71.9,28l4.5-16.6h0.8
	L74.4,28h5.3c0.7-1.2,1.5-2.4,2-3.7c0.2-0.5,0.3-0.9,0.5-1.4c0.2-0.7,0.5-1.4,0.8-2.1c0.1-0.3,0.3-0.5,0.5-0.7
	c0.3-0.3,0.6-0.4,1-0.4c0.3,0,0.6,0.1,0.8,0.2l0,0c0.2,0.1,0.8,0.3,1,0.9c0,0.2,0.1,0.3,0,0.5c0,0.2-0.1,0.4-0.1,0.6
	c0,0.1,0,0.1-0.1,0.2c0,0.2-0.1,0.3-0.1,0.5l-0.4,1.8c-0.2,1-0.5,2-0.7,3.1c0,0.2-0.1,0.4-0.1,0.6h0.9l7.4-27.6h-6.9l-4.9,18.3h-0.6
	l2.4-18.3H72.6L65.2,28L71.9,28L71.9,28z M59.7,28c0.1-0.2,0.2-0.4,0.2-0.6c0.1-0.2,0.2-0.4,0.3-0.6c0.6-1.5,1.2-2.8,1.7-4.2h-2.5
	l1.6-6.1h5.7l1.4-5.3h-5.7l1.5-5.5h5.7L71,0.5H57.9L50.5,28L59.7,28L59.7,28z M49,28l1.4-5.3h-1.7c0,0,0,0.1,0,0.1
	c-0.1,0.2-0.1,0.5-0.2,0.7c-0.1,0.5-0.2,1-0.3,1.4c-0.1,0.5-0.2,1-0.3,1.4c-0.1,0.3-0.1,0.5-0.2,0.8c-0.1,0.3-0.1,0.6-0.2,0.9L49,28
	L49,28z M11.9,13.3l-1.4,5.1c-0.3,1.1-0.6,1.9-0.8,2.3c-0.1,0.2-0.3,0.3-0.4,0.4c-0.2,0.1-0.4,0.2-0.6,0.2c-0.1,0-0.2,0-0.3,0
	s-0.2-0.1-0.3-0.2c-0.1-0.2-0.2-0.4-0.2-0.6c0-0.3,0-0.6,0.1-0.9l2.9-10.8c0.1-0.3,0.2-0.6,0.4-0.9c0.1-0.2,0.3-0.4,0.5-0.6
	C12,7.1,12.3,7,12.5,7c0.1,0,0.2,0,0.3,0c0.1,0,0.2,0.1,0.2,0.1c0.1,0.1,0.1,0.1,0.2,0.2c0,0.1,0.1,0.2,0,0.3c0,0.4-0.1,1.3-0.5,2.6
	h7.5c0.8-3.1,0.9-5.7,0.1-7.5C19.5,0.9,17.5,0,14.4,0c-2,0-3.8,0.4-5.3,1.3C7.7,2.1,6.4,3.1,5.5,4.5C4.6,5.6,3.9,7,3.5,8.4L0.4,20
	c-0.4,1.3-0.5,2.8-0.3,4.2c0.1,1.2,0.6,2.3,1.5,3.1c0.8,0.8,1.9,1.2,3.4,1.2c1.5,0,2.8-0.7,4-2.2c1.2-1.5,2.2-3.7,3-6.5h0.6L10.3,28
	h5.2l4-14.7L11.9,13.3L11.9,13.3z M44.2,27.8c0.2-0.9,0.4-1.8,0.6-2.8c0.2-0.8,0.4-1.6,0.6-2.3h-0.6l1.6-6.1H52l1.4-5.3h-5.7
	l1.5-5.5h5.7l1.4-5.3H43.2L35.8,28h8.3C44.1,28,44.2,27.9,44.2,27.8L44.2,27.8z M36.8,13.8c0.9-1.2,1.5-2.5,1.9-3.9L39,8.9
	c0.4-1.3,0.4-2.6,0.1-3.9c-0.3-1.3-1-2.4-2.1-3.2c-1.1-0.9-2.6-1.3-4.5-1.3h-8.2L17,28h7.5l2.6-9.7h0.7c0.2,0,0.5,0,0.7,0L27.6,28
	h6.7l-0.2-11.6C35.1,15.7,36.1,14.9,36.8,13.8L36.8,13.8z M31.9,7.5l-1,3.7c-0.1,0.5-0.3,0.9-0.6,1.3c-0.1,0.2-0.3,0.3-0.5,0.3
	S29.4,13,29.2,13h-0.7l1.9-7.2h0.7c0.4,0,0.7,0.2,0.8,0.5C32.1,6.7,32.1,7.1,31.9,7.5L31.9,7.5z"/>
</svg>
