<?xml version="1.0" encoding="utf-8"?>
<!-- Generator: Adobe Illustrator 22.1.0, SVG Export Plug-In . SVG Version: 6.00 Build 0)  -->
<svg version="1.1" id="Слой_1" xmlns="http://www.w3.org/2000/svg" xmlns:xlink="http://www.w3.org/1999/xlink" x="0px" y="0px"
	 viewBox="0 0 393 185.8" style="enable-background:new 0 0 393 185.8;" xml:space="preserve">
<style type="text/css">
	.st0{fill:#2C3047;}
	.st1{fill:#F37321;}
	.st2{fill:#108341;}
</style>
<path id="GL_m_w" class="st0" d="M6.9,154.3c2.1,0.1,4.1-0.8,5.4-2.4l-2.3-2.1c-0.7,0.9-1.8,1.5-3,1.5c-2,0-3.6-1.6-3.6-3.6
	c0-2,1.6-3.6,3.6-3.6c1.2,0,2.3,0.5,3,1.5l2.3-2.1c-1.3-1.6-3.3-2.5-5.4-2.4c-4,0-6.9,2.7-6.9,6.6S2.9,154.3,6.9,154.3z M19.6,145.2
	c-1.2,0-2.4,0.4-3.3,1.2c0.2-1.6,1.1-2.4,3.2-2.8l4.1-0.8l-0.5-2.9l-4.7,0.9c-3.7,0.7-5.3,3.2-5.3,7c0,4.4,2.4,6.4,5.6,6.4
	c3.2,0,5.5-1.9,5.5-4.7C24.2,147,22.5,145.2,19.6,145.2z M18.7,151.7c-1.1,0-2-0.8-2-1.9c0-0.1,0-0.1,0-0.2c-0.1-1,0.7-1.9,1.7-2
	c0.1,0,0.2,0,0.3,0c1-0.1,1.9,0.7,2,1.7c0,0.1,0,0.2,0,0.3c0.1,1.1-0.7,2-1.8,2.1C18.9,151.7,18.8,151.7,18.7,151.7z M29.6,144.2
	c-1.5,0-3,0.4-4.3,1.1l1.2,2.3c0.8-0.6,1.7-0.8,2.6-0.8c1.3,0,2,0.6,2.1,1.5h-1.9c-3,0-4.3,1.1-4.3,2.9c0,1.7,1.3,3,3.6,3
	c1.2,0.1,2.3-0.4,2.9-1.4v1.3h3.2v-5.4C34.6,145.6,32.8,144.2,29.6,144.2z M29.5,152.1c-0.6,0.1-1.2-0.3-1.3-0.9c0,0,0-0.1,0-0.1
	c0-0.6,0.4-1,1.5-1h1.5v0.9C31,151.7,30.3,152.1,29.5,152.1L29.5,152.1z M37.9,144.3l-0.1,4.1c-0.1,1.7-0.2,2.9-1.4,2.9
	c-0.1,0-0.3,0-0.4,0l-0.1,2.8c0.5,0.1,1.1,0.2,1.7,0.2c2.5,0,3.2-2.3,3.3-5.8l0.1-1.5h2.5v7h3.4v-9.8L37.9,144.3L37.9,144.3z
	 M53.1,144.2c-1.5,0-3,0.4-4.3,1.1l1.2,2.3c0.8-0.6,1.7-0.8,2.6-0.8c1.4,0,2,0.6,2.1,1.5h-1.9c-3,0-4.3,1.1-4.3,2.9
	c0,1.7,1.3,3,3.6,3c1.2,0.1,2.3-0.4,2.9-1.4v1.3h3.2v-5.4C58.1,145.6,56.3,144.2,53.1,144.2L53.1,144.2z M53,152.1
	c-0.6,0.1-1.2-0.3-1.3-0.9c0,0,0-0.1,0-0.1c0-0.6,0.4-1,1.5-1h1.5v0.9C54.4,151.7,53.7,152.1,53,152.1L53,152.1z M60.2,154.1h3.4
	v-3.4h3.5v3.4h3.4v-9.8h-3.4v3.6h-3.5v-3.6h-3.4V154.1L60.2,154.1z M77.8,154.2c2.2,0,3.9-1,4.6-2.7l-2.6-1.4
	c-0.3,0.8-1.1,1.3-2,1.3c-1.3-0.1-2.2-1.3-2.1-2.5c0.1-1.1,1-2,2.1-2.1c0.9,0,1.6,0.5,2,1.3l2.6-1.4c-0.7-1.7-2.4-2.7-4.6-2.7
	c-3.3,0-5.6,2.1-5.6,5C72.2,152.2,74.6,154.2,77.8,154.2L77.8,154.2z M83.9,154.1h3.2l4.1-5.1v5.1h3.4v-9.8h-3.2l-4.1,5.1v-5.1h-3.4
	L83.9,154.1L83.9,154.1z M103.1,144.2c-1.1-0.1-2.1,0.3-2.9,1.1v-1h-3.3v13.3h3.4v-4.4c0.7,0.7,1.7,1.1,2.7,1
	c2.8-0.1,4.9-2.5,4.8-5.3C107.7,146.4,105.7,144.3,103.1,144.2L103.1,144.2z M102.4,151.5c-1.3,0.2-2.4-0.8-2.6-2
	c-0.2-1.3,0.8-2.4,2-2.6c1.3-0.2,2.4,0.8,2.6,2c0,0.1,0,0.2,0,0.3c0.1,1.1-0.7,2.2-1.8,2.3C102.5,151.5,102.4,151.5,102.4,151.5
	L102.4,151.5z M114.4,154.2c3.2,0,5.5-2.1,5.5-5.1c0-2.9-2.3-5-5.5-5c-3.2,0-5.5,2.1-5.5,5C108.9,152.1,111.2,154.2,114.4,154.2
	L114.4,154.2z M114.4,151.5c-1.2,0-2.1-0.9-2.1-2.1c0-0.1,0-0.2,0-0.2c0.1-1.1,1.2-1.9,2.3-1.8c1.1,0.1,1.9,1.2,1.8,2.3
	C116.3,150.8,115.5,151.5,114.4,151.5L114.4,151.5z M129.5,149c0.8-0.4,1.4-1.2,1.4-2.1c0-1.6-1.5-2.5-4-2.5h-5.2v9.8h5.5
	c2.7,0,4.1-1.1,4.1-2.8C131.2,150.2,130.5,149.2,129.5,149L129.5,149z M124.7,146.5h1.9c0.8,0,1.2,0.3,1.2,0.8s-0.4,0.9-1.2,0.9
	h-1.9V146.5L124.7,146.5z M126.8,151.9h-2.1v-1.8h2.2c0.8,0,1.2,0.3,1.2,0.9S127.6,151.9,126.8,151.9L126.8,151.9z M136.9,144.2
	c-1.5,0-3,0.4-4.3,1.1l1.2,2.3c0.8-0.6,1.7-0.8,2.7-0.8c1.3,0,2,0.6,2.1,1.5h-1.9c-3,0-4.3,1.1-4.3,2.9c0,1.7,1.3,3,3.6,3
	c1.2,0.1,2.3-0.4,2.9-1.4v1.3h3.2v-5.4C141.9,145.6,140.1,144.2,136.9,144.2L136.9,144.2z M136.8,152.1c-0.6,0.1-1.1-0.3-1.3-0.9
	c0,0,0-0.1,0-0.1c0-0.6,0.4-1,1.5-1h1.5v0.8C138.3,151.7,137.6,152.1,136.8,152.1L136.8,152.1z M144.1,154.1h3.4v-3.4h3.5v3.4h3.4
	v-9.8H151v3.6h-3.5v-3.6h-3.4V154.1L144.1,154.1z M156.8,154.1h3.4v-3.4h3.5v3.4h3.4v-9.8h-3.4v3.6h-3.5v-3.6h-3.4V154.1
	L156.8,154.1z M174.3,154.3c3.2,0,5.5-2.1,5.5-5.1c0-2.9-2.3-5-5.5-5c-3.2,0-5.5,2.1-5.5,5C168.8,152.1,171.1,154.2,174.3,154.3
	L174.3,154.3z M174.3,151.5c-1.2,0-2.1-0.9-2.1-2.1c0-0.1,0-0.2,0-0.2c0.1-1.1,1.2-1.9,2.3-1.8c1.1,0.1,1.9,1.2,1.8,2.3
	C176.2,150.8,175.4,151.5,174.3,151.5L174.3,151.5z M191.4,149.2c0.1-2.7-2-5-4.7-5.1c-0.2,0-0.3,0-0.5,0c-2.8-0.2-5.2,1.9-5.4,4.7
	c0,0.1,0,0.2,0,0.3c0,2.9,2.3,5.1,5.7,5.1c1.6,0.1,3.1-0.5,4.2-1.6l-1.8-1.9c-0.6,0.6-1.4,0.9-2.3,0.8c-1.1,0.1-2.1-0.5-2.4-1.6h7.1
	C191.4,149.8,191.4,149.5,191.4,149.2L191.4,149.2z M186.2,146.6c1,0,1.9,0.7,2,1.7h-4C184.3,147.3,185.2,146.6,186.2,146.6
	L186.2,146.6z M198.6,144.3v9.8h3.4v-7h3.3v7h3.4v-9.8L198.6,144.3L198.6,144.3z M211.1,154.1h3.2l4.1-5.1v5.1h3.4v-9.8h-3.2
	l-4.1,5.1v-5.1h-3.4L211.1,154.1L211.1,154.1z M232.9,144.3h-9.7v2.7h3.2v7h3.4v-7h3.1V144.3L232.9,144.3z M238.3,144.2
	c-1.5,0-3,0.4-4.3,1.1l1.2,2.3c0.8-0.6,1.7-0.8,2.7-0.8c1.3,0,2,0.6,2.1,1.5h-1.9c-3,0-4.3,1.1-4.3,2.9c0,1.7,1.3,3,3.6,3
	c1.2,0.1,2.3-0.4,2.9-1.4v1.3h3.2v-5.4C243.3,145.6,241.4,144.2,238.3,144.2L238.3,144.2z M238.1,152.1c-0.6,0.1-1.2-0.3-1.3-0.9
	c0,0,0-0.1,0-0.1c0-0.6,0.4-1,1.5-1h1.5v0.8C239.6,151.7,238.9,152.1,238.1,152.1L238.1,152.1z M245.4,154.1h3.4v-3.4h3.5v3.4h3.4
	v-9.8h-3.4v3.6h-3.5v-3.6h-3.4V154.1L245.4,154.1z M258.1,154.1h3.2l4.1-5.1v5.1h3.4v-9.8h-3.2l-4.1,5.1v-5.1h-3.4L258.1,154.1
	L258.1,154.1z M281,149.2c0.1-2.7-2-5-4.7-5.1c-0.2,0-0.3,0-0.5,0c-2.8-0.2-5.2,1.9-5.4,4.7c0,0.1,0,0.2,0,0.3
	c0,2.9,2.3,5.1,5.7,5.1c1.6,0.1,3.1-0.5,4.2-1.6l-1.8-1.9c-0.6,0.6-1.4,0.9-2.3,0.8c-1.1,0.1-2.1-0.5-2.4-1.6h7.1
	C281,149.8,281,149.5,281,149.2L281,149.2z M275.8,146.6c1,0,1.9,0.7,2,1.7h-4C274,147.3,274.8,146.6,275.8,146.6L275.8,146.6z
	 M287.1,150h18v-2h-18V150z M70.4,172.3h-9.7v2.7h3.2v7h3.4v-7h3.1V172.3z M79.7,177c0.8-0.4,1.4-1.2,1.4-2.1c0-1.6-1.5-2.5-4-2.5
	h-5.2v9.8h5.5c2.7,0,4.1-1.1,4.1-2.8C81.4,178.2,80.7,177.2,79.7,177L79.7,177z M74.9,174.5h1.9c0.8,0,1.2,0.3,1.2,0.8
	s-0.4,0.9-1.2,0.9h-1.9V174.5z M77,179.9h-2.1v-1.8H77c0.8,0,1.2,0.3,1.2,0.9S77.8,179.9,77,179.9L77,179.9z M88,182.2
	c3.2,0,5.5-2.1,5.5-5.1c0-2.9-2.3-5-5.5-5c-3.2,0-5.5,2.1-5.5,5C82.5,180.1,84.8,182.2,88,182.2L88,182.2z M88,179.5
	c-1.2,0-2.1-0.9-2.1-2.1c0-0.1,0-0.2,0-0.2c0.1-1.1,1.2-1.9,2.3-1.8c1.1,0.1,1.9,1.2,1.8,2.3C89.9,178.8,89,179.5,88,179.5L88,179.5
	z M100.3,171.4c2.3,0,3.4-1,3.4-3h-2.3c0.1,0.6-0.3,1.2-0.9,1.3c-0.1,0-0.2,0-0.3,0c-0.6,0.1-1.1-0.4-1.2-1c0-0.1,0-0.2,0-0.3h-2.2
	C96.9,170.4,98,171.4,100.3,171.4z M95.2,182.1h3.2l4.1-5.1v5.1h3.4v-9.8h-3.2l-4.1,5.1v-5.1h-3.4L95.2,182.1L95.2,182.1z
	 M113.5,172.3v9.8h3.4v-7h3.3v7h3.4v-9.8H113.5L113.5,172.3z M133.2,172.3l-2.4,6l-2.4-6h-3.5l4.2,9.9c-0.2,0.5-0.8,0.9-1.3,0.8
	c-0.6,0-1.1-0.2-1.5-0.6l-1.2,2.4c0.8,0.6,1.8,0.9,2.8,0.9c1.9,0,3.4-0.7,4.4-3.3l4.2-10.2L133.2,172.3L133.2,172.3z M146.5,172.3
	h-9.7v2.7h3.2v7h3.4v-7h3.1L146.5,172.3L146.5,172.3z M153.6,175.4h-2.3v-3h-3.4v9.8h5.3c2.8,0,4.4-1.3,4.4-3.5
	C157.6,176.6,156.2,175.4,153.6,175.4z M152.8,179.7l-1.6,0v-2.3h1.6c0.6-0.1,1.2,0.3,1.3,0.8c0,0.1,0,0.2,0,0.3
	c0,0.6-0.4,1.1-1,1.2C153,179.8,152.9,179.8,152.8,179.7z M171.3,182.1h4l-3.5-5.1l3.3-4.7h-3.6l-2.4,3.6h-1.2v-3.6h-3.4v9.8h3.4
	v-3.5h1.2L171.3,182.1z M189,172.3l-2.4,6l-2.4-6h-3.5l4.2,9.9c-0.2,0.5-0.8,0.9-1.3,0.8c-0.6,0-1.1-0.2-1.5-0.6l-1.2,2.4
	c0.8,0.6,1.8,0.9,2.8,0.9c1.9,0,3.4-0.7,4.4-3.3l4.2-10.2L189,172.3L189,172.3z M198.1,182.2c2.2,0,3.9-1,4.6-2.7l-2.7-1.4
	c-0.4,1.1-1.7,1.6-2.8,1.2c-0.9-0.4-1.4-1.2-1.3-2.2c-0.1-1.2,0.7-2.2,1.9-2.3c0.1,0,0.2,0,0.2,0c0.9,0,1.6,0.5,1.9,1.3l2.7-1.4
	c-0.7-1.7-2.4-2.7-4.6-2.7c-3.3,0-5.6,2.1-5.6,5C192.5,180.2,194.8,182.2,198.1,182.2L198.1,182.2z M204.2,172.3v9.8h3.4v-7h3.3v7
	h3.4v-9.8H204.2L204.2,172.3z M226.6,177.2c0.1-2.7-2-5-4.7-5.1c-0.2,0-0.3,0-0.5,0c-2.8-0.2-5.2,1.9-5.4,4.7c0,0.1,0,0.2,0,0.3
	c0,2.9,2.3,5.1,5.7,5.1c1.6,0.1,3.1-0.5,4.2-1.6l-1.8-1.9c-0.6,0.6-1.4,0.9-2.3,0.8c-1.1,0.1-2.1-0.5-2.4-1.6h7.1
	C226.6,177.8,226.6,177.5,226.6,177.2L226.6,177.2z M221.4,174.6c1,0,1.9,0.7,2,1.7h-4C219.5,175.3,220.4,174.6,221.4,174.6
	L221.4,174.6z M238.3,182.1l-3.7-5l3.6-4.8h-3.6l-1.8,2.5l-1.7-2.5h-3.9l3.6,4.9l-3.7,4.9h3.7l1.9-2.6l1.7,2.6L238.3,182.1
	L238.3,182.1z M246.1,172.3l-2.4,6l-2.4-6h-3.5l4.2,9.9c-0.2,0.5-0.8,0.9-1.3,0.8c-0.6,0-1.1-0.2-1.5-0.6l-1.2,2.4
	c0.8,0.6,1.8,0.9,2.8,0.9c1.9,0,3.4-0.7,4.4-3.3l4.2-10.2L246.1,172.3L246.1,172.3z"/>
<path class="st1" d="M53.2,36.6h-6.6l-3.9,14.2c-0.9,3.2-1.7,5.3-2.4,6.4c-0.7,1.1-1.7,1.7-3,1.7c-0.8,0-1.4-0.2-1.7-0.6
	c-0.3-0.4-0.5-0.9-0.5-1.6c0-0.7,0.1-1.6,0.4-2.6L43.8,24c0.3-0.9,0.6-1.8,1.1-2.5c0.5-0.7,1-1.3,1.6-1.7c0.6-0.4,1.2-0.6,1.9-0.6
	c1.3,0,1.9,0.6,2,1.9c0.1,1.3-0.3,3.7-1.4,7.3h21.3c2.4-8.8,2.5-15.8,0.2-20.9c-2.3-5.2-7.9-7.8-16.7-7.8C48-0.4,43,0.8,38.6,3.2
	c-4.3,2.4-7.8,5.3-10.4,8.8c-2.6,3.5-4.4,7.2-5.5,10.9l-8.9,32.3c-1.2,4.1-1.5,8-1,11.5c0.5,3.5,1.9,6.4,4.1,8.5
	c2.3,2.2,5.5,3.2,9.7,3.2c4.3,0,8.1-2.1,11.4-6.2c3.3-4.1,6.2-10.2,8.6-18h1.6l-6.4,23.3h14.8l11.3-40.9H53.2L53.2,36.6z"/>
<path class="st1" d="M117.7,38.1c2.6-3.5,4.5-7.2,5.5-10.9l0.8-2.9c1-3.6,1.1-7.3,0.3-10.8c-0.8-3.6-2.8-6.6-5.9-8.9
	C115.4,2.1,111,1,105.5,1H82.2L61.1,77.5h21.3l7.5-27h2c0.7,0,1.4,0,2,0l-2.6,27.1h19.1l-0.6-32.2C113,43.3,115.6,40.9,117.7,38.1z
	 M99.4,15.7h2c1.3,0,2,0.4,2.4,1.3c0.3,0.9,0.3,2-0.1,3.5l-2.8,10.4c-0.4,1.5-1,2.7-1.8,3.5c-0.8,0.8-1.8,1.3-3.2,1.3h-2L99.4,15.7z
	"/>
<path class="st1" d="M144.9,45.8h16.2l4.1-14.8h-16.2l4.2-15.3h16.2L173.4,1h-16.2h-13.8h-7.6l-21.1,76.6h7.6h13.8h16.2l4.1-14.8
	h-16.2L144.9,45.8z"/>
<path class="st1" d="M186.7,45.8h16.2L207,31h-16.2l4.2-15.3h16.2L215.3,1h-16.2h-13.8h-7.6l-21.1,76.6h7.6H178h16.2l4.1-14.8h-16.2
	L186.7,45.8z"/>
<path class="st1" d="M258.7,1l-14,50.8h-1.8L249.8,1h-30.2l-21.1,76.6h19.2l12.7-46.3h2.2l-7.9,46.3h32.4L278.3,1H258.7z"/>
<path class="st2" d="M393,106.1c0-0.1-0.1-0.2-0.2-0.3c-0.2-0.2-0.4-0.4-0.7-0.5c-0.3-0.1-0.5-0.1-0.8-0.1v0
	c-0.9-0.1-1.7-0.2-2.6-0.3c-0.9-0.1-1.8-0.3-2.7-0.4c-9.2-1.3-18.4-2-27.7-2.3c-7.7-0.2-15.4-0.1-23,0.5c-7.6,0.5-15.1,1.5-22.5,2.8
	c-4.4,0.8-8.8,1.7-13.2,2.6c-2.3,0.5-4.6,1-6.9,1.5c-1.5,0.3-3,0.6-4.4,0.8c-1.5,0.2-3,0.3-4.4,0.1c-1.4,0-2.4-0.7-2.9-2.1
	c-0.9-2.4-2.3-4.1-4.1-5.3c-1.8-1.2-4.1-1.8-6.7-1.8c-0.4,0-0.9,0.1-1.3,0.1c-0.9,0-1.9,0.2-2.9,0.3c-5.7,1.3-11.1,3.3-16.4,6
	c-0.6-11,1.5-21.8,4-32.5c0.7-2.9,1.4-5.8,2.1-8.6c0.3-1.4,0.7-2.8,1.1-4.3c0.2-0.7,0.3-1.3,0.5-2c0.1-0.6,0.4-1.3,0.5-2
	c0-0.2,0-0.3,0-0.5c-0.2-0.6-0.9-0.7-1.3-0.9c-0.9-0.3-2.1-0.6-2.9,0.1c-0.4,0.3-0.6,0.8-0.9,1.3c-1.5,3.2-2.4,6.5-3.7,9.7
	c-1.7,4.1-4.1,7.9-6.4,11.6c-2.8,4.4-5.5,8.8-8.9,12.8c-3.2,3.7-7.1,7-11.7,8.8c-0.3,0.1-0.6,0.3-0.9,0.4c-0.2,0.1-0.3,0.1-0.5,0.1
	c-0.4,0-0.4-0.4-0.3-0.7c0.1-0.9,0.3-1.9,0.3-2.9c0-0.3,0.2-0.6,0.5-0.7c0.2,0,0.4,0,0.6,0c4.5,0,8.1-3.6,9.8-7.6
	c0.6-1.6,1.3-4.1-0.8-4.9c-4.4-1.7-9.1,0.8-12,4.2c-0.5,0.6-1,1.3-1.4,2c-0.2,0.3-0.4,0.7-0.6,1c-0.1,0.2-0.3,1-0.5,1.1
	c-2.2,1-4.7,2.2-5.8,2.9c-0.3,0.1-0.5,0.3-0.7,0.3c-0.1,0-0.3-0.1-0.4-0.6c-0.7-4.2-5.4-8.5-9.9-8.5c-1.4,0-2.9,0.6-4.4,1.7
	c-0.1,0.1-0.4,0.3-0.5,0.3c-0.1-0.3-0.2-0.5-0.2-0.6c1.6-10.9,3.5-21.7,6-32.5c0.4-1.6-0.1-2.6-1.6-3.1c-0.8-0.3-1.3-0.3-1.6-0.3
	c-0.8,0-1,0.8-1.2,1.5c-0.3,1-0.6,2-0.9,3.1c-0.7,2-1.4,4-2.2,6c-1.6,4-3.3,7.9-5,11.8c-0.6,1.3-1.1,2.5-1.6,3.8
	c-2.4,5.4-4.7,11-8,16c0,0.1-0.3,0.1-0.4,0.3c-0.1-0.1-0.2-0.3-0.2-0.5c0.3-2.3,0.7-4.5,1.1-6.9c0.1-0.9,0.5-2,0-2.8
	c-0.4-0.8-1.2-1.2-2.2-1.2c-0.8,0-1.7,0.3-2.4,1.1c-0.3,0.3-0.7,0.7-0.9,1.1c-0.2,0.3-0.4,0.5-0.6,0.5c-0.1,0-0.3,0-0.5-0.1
	c-1.4-0.5-2.6-0.9-4.1-1.2c-3.5,0-5.4,1.1-7.3,4.2c-1.5,2.3-2.5,4.7-2.7,7.3c-2.9,2.2-5.8,4.4-9,6.3c-0.8,0.5-1.6,0.9-2.4,1.2
	c-0.2,0.1-0.5,0.1-0.7,0.1c-1.1-0.3-1.2-2.5-1.3-3.5c-0.1-1.4,0-2.8,0.1-4.2c0.1-1.5,0.2-2.9,0.3-4.4c0.3-2.9,0.6-5.8,1-8.7
	c0.2-1.5,0.4-3,0.6-4.4c0.3-2.3,0.9-4.4,1.4-6.6c0.5-2.6,1.2-5.4,1.7-8c0.4-1.2,0.6-2.4,1-3.7c0.4-1.4,1-3,1.5-4.5
	c0.2-0.8,0.5-1.7,0.2-2.5c-0.3-0.9-1.3-1.8-2.2-1.5c-1.4,0.4-2.1,2.9-2.5,4.2c-1.6,4.4-2.8,8.9-3.9,13.5c-0.6,2.5-1.2,5-1.6,7.6
	c-0.6,3-1,6.1-1.6,9.1c-0.4,2.6-0.7,5.2-0.8,7.8c-0.1,2.6,0,5.5,0.6,8.1c0.7,2.7,2.8,4.9,5.7,4.9c0.9,0,2.2-0.3,3.3-0.9
	c2.4-1.3,5.8-4.1,8.7-6.6c0.6,2.2,2.8,3.9,5.1,3.9c1.3,0,2.7-0.6,3.7-1.8c2.7-3.1,4.9-6.2,7-9.6c0.3,0.9,0.2,1.8,0.2,2.6
	c0.2,1.7,1.6,3.5,3.3,3.5c3.2,0,5.2-4.7,6.3-7c0.9-1.9,5.2-11.2,5.3-11.6c-0.7,4.2-1.4,8.4-1.8,12.6c-0.5,4.2-0.5,8.4-0.6,12.6
	c0.1,0.5,0.5,1.2,0.7,1.3c0.9,0.6,1.9,1.1,3.6,1.1c0.3,0,0.8,0,1.3-0.1c1-0.1,0.8-0.9,0.9-1.6c0-1.3,0-2.8,0.1-4.2
	c0.1-1.3,0.2-2.6,0.4-4.1c0.4-2.6,3.7-7.8,6.8-7.8c2.4,0,4.2,3.1,4.6,5.1c0.3,0.8,0.3,1.9,0.4,2.8c0.3,1.9,0.1,2-1.4,3.2
	c-2,1.4-3.8,3-5.3,4.9c-1.4,1.7-3.1,4-3.4,6.2c-0.5,2.8,2,4.7,4.6,4.7c3.6,0,6.9-4.2,8.2-7.2c0.8-2.2,1.3-4,1.4-7.1
	c0-0.6,0.1-1.7,0.1-2.4c0-0.4,0.2-0.8,0.6-1c0.4-0.3,1-0.6,1.6-0.9c1.1-0.5,2.2-1.1,3.3-1.6c-0.3,0.9-0.4,1.7-0.5,2.6
	c-0.4,3.6,3,6.7,6.5,6.7c0.3,0,0.7-0.1,1.1-0.1c1.1,0,2.3-0.7,3.2-1.2c1.1-0.5,2.1-1.1,3.1-1.8c3.8-2.5,6.5-5.9,9.1-9.6
	c2.8-4,8.1-12.9,8.1-13.1c-1.7,8.7-2,17.7-0.7,26.5c0.1,1,0.3,2,0.8,2.9c0.5,0.9,1.3,1.7,2.2,1.9c0.6,0.1,1.3,0,1.6-0.5
	c0.3-0.1,0.5-0.2,0.8-0.3c4.1-1.9,8.3-3.6,12.6-4.8c1.6-0.5,3.2-0.9,4.7-1.2c1.6-0.3,3.3-0.4,5-0.3c1.6,0.1,3.1,0.6,4.3,1.3
	c1.2,0.7,2.1,1.9,2.8,3.6c0.9,2.8,2.9,4.4,5.9,4.7c1,0.1,1.9,0.1,2.9,0c2.6-0.3,5.1-0.6,7.6-1.1c3-0.6,6-1.2,9.1-1.8
	c4.4-0.9,8.9-1.8,13.3-2.6c7.6-1.2,15.3-2.2,23-2.8c4.4-0.4,8.8-0.6,13.2-0.7c5-0.1,10.1,0,15.2,0.2c6.6,0.3,13.2,0.8,19.8,1.5
	c0.6,0.1,1.2,0.2,1.7,0.2c0.3,0.1,0.7,0.1,1,0.2c0.1,0,0.2,0,0.3,0c0.1,0,0.2-0.1,0.2-0.2C393,106.3,393,106.2,393,106.1z
	 M221.1,95.5c0.2-1.3,1.9-4.1,2.2-4.5c1.2-1.7,2.8-3,4.7-3.8c0.4-0.1,0.6-0.3,0.7-0.3c0.9,0,0.1,2,0,2.4c-1.3,3.2-3.9,5.4-6.9,6.8
	c-0.1,0-0.3,0.1-0.5,0.1C221.1,96.1,221,95.8,221.1,95.5z M170.3,89.3c-1.9,2.6-3.8,5.3-5.8,7.9c-0.1,0-0.3-0.1-0.4-0.3
	c0.2-1.8,1.1-3.6,2-5.3c0.6-0.9,1.2-1.8,1.8-2.5c0.4-0.5,1-0.8,1.6-0.9h0.3C170.4,88.2,170.6,88.8,170.3,89.3z M204.4,105.1
	c-0.7,2.9-2.4,5.3-4.5,7.4c-1.5,1.6-0.9-1.6-0.6-2.3c1.2-2.8,3.1-5,5.2-7.2c0.1,0,0.2,0.1,0.2,0.1
	C204.7,103.8,204.6,104.5,204.4,105.1z"/>
</svg>
