<svg width="226" height="130" viewBox="0 0 226 130" fill="none" xmlns="http://www.w3.org/2000/svg">
<g clip-path="url(#clip0)">
<path d="M134.691 3.76923H142.765V17.8462H140.261V5.58974H137.221V17.8462H134.691V3.76923Z" fill="#2D3046"/>
<path d="M145.6 16.8718C144.986 16.1026 144.654 14.9488 144.654 13.4359V8.15388C144.654 6.6667 144.961 5.53849 145.6 4.76926C146.213 4.00003 147.26 3.61542 148.716 3.61542C150.147 3.61542 151.195 4.00003 151.808 4.76926C152.421 5.53849 152.753 6.6667 152.753 8.15388V13.4359C152.753 14.9231 152.447 16.077 151.808 16.8718C151.169 17.6667 150.147 18.0513 148.716 18.0513C147.26 18.0513 146.238 17.6411 145.6 16.8718ZM149.866 15.6154C150.071 15.2564 150.173 14.7436 150.173 14.0513V7.56414C150.173 6.87183 150.071 6.35901 149.892 6.02567C149.713 5.6667 149.33 5.51285 148.742 5.51285C148.154 5.51285 147.771 5.69234 147.592 6.05132C147.388 6.41029 147.286 6.92311 147.286 7.58978V14.077C147.286 14.7693 147.388 15.2821 147.592 15.6411C147.797 16 148.18 16.1795 148.742 16.1795C149.279 16.1539 149.662 15.9744 149.866 15.6154Z" fill="#2D3046"/>
<path d="M159.984 11.7179C159.268 11.8462 158.63 11.8974 158.119 11.8974C156.995 11.8974 156.075 11.6154 155.411 11.0256C154.721 10.4615 154.389 9.61538 154.389 8.53846V3.76923H156.944V8.5641C156.944 9.15384 157.071 9.58974 157.327 9.87179C157.582 10.1538 158.042 10.282 158.757 10.282C159.141 10.282 159.575 10.2308 160.009 10.1538V3.76923H162.564V17.8462H160.009V11.7179H159.984Z" fill="#2D3046"/>
<path d="M164.531 18.5385C164.684 18.5385 164.888 18.5641 165.144 18.5641C165.808 18.5641 166.294 18.4615 166.575 18.2308C166.856 18.0256 167.009 17.6667 167.009 17.1538C167.009 16.9487 166.983 16.6667 166.932 16.359L163.969 3.76923H166.345L167.546 9.66666L168.184 13.7692L168.695 9.66666L169.743 3.76923H172.144L169.436 16.6154C169.206 17.6667 168.976 18.4359 168.746 18.9231C168.516 19.4102 168.133 19.7692 167.622 20C167.111 20.2308 166.319 20.3333 165.297 20.3333C164.965 20.3333 164.735 20.3333 164.556 20.3077V18.5385H164.531Z" fill="#2D3046"/>
<path d="M173.397 3.76923H176.871C178.2 3.76923 179.222 4.05128 179.911 4.58974C180.627 5.1282 180.959 6.07692 180.959 7.38461C180.959 8.23077 180.78 8.92307 180.448 9.38461C180.09 9.87179 179.605 10.1538 178.941 10.2564C180.55 10.5641 181.368 11.7179 181.368 13.7436C181.368 15.1026 181.036 16.1282 180.371 16.8205C179.707 17.5128 178.736 17.8462 177.433 17.8462H173.371V3.76923H173.397ZM176.846 9.53846C177.587 9.53846 178.097 9.38461 178.353 9.05128C178.634 8.71794 178.762 8.17948 178.762 7.43589C178.762 6.71794 178.583 6.23076 178.225 5.97435C177.868 5.71794 177.28 5.58974 176.462 5.58974H175.951V9.5641H176.846V9.53846ZM176.948 16.0513C177.689 16.0513 178.225 15.8718 178.506 15.5128C178.787 15.1538 178.941 14.5641 178.941 13.7436C178.941 12.8974 178.787 12.282 178.455 11.8974C178.149 11.5128 177.612 11.3077 176.846 11.3077H175.951V16.0513H176.948Z" fill="#2D3046"/>
<path d="M183.744 16.8205C183.131 16 182.824 14.8462 182.824 13.359V8.33337C182.824 6.7949 183.131 5.61542 183.718 4.82055C184.306 4.02567 185.353 3.61542 186.81 3.61542C188.189 3.61542 189.16 3.97439 189.748 4.6667C190.335 5.35901 190.616 6.35901 190.616 7.6667V8.84619H188.164V7.64106C188.164 7.15388 188.138 6.74362 188.087 6.46157C188.036 6.17952 187.934 5.94875 187.729 5.76926C187.551 5.58978 187.244 5.48721 186.835 5.48721C186.427 5.48721 186.12 5.58978 185.89 5.76926C185.686 5.94875 185.558 6.20516 185.481 6.53849C185.43 6.84619 185.379 7.28208 185.379 7.76926V13.8718C185.379 14.6667 185.481 15.2564 185.686 15.5898C185.89 15.9488 186.273 16.1282 186.81 16.1282C187.193 16.1282 187.5 16.0257 187.678 15.8462C187.857 15.6667 187.985 15.4103 188.036 15.1026C188.087 14.7949 188.113 14.3846 188.113 13.8718V12.6154H190.565V13.7436C190.565 15.1026 190.284 16.1539 189.722 16.8975C189.16 17.6411 188.164 18.0257 186.784 18.0257C185.379 18.0513 184.332 17.6411 183.744 16.8205Z" fill="#2D3046"/>
<path d="M193.809 5.66666H191.586V3.76923H198.561V5.66666H196.389V17.8462H193.834V5.66666H193.809Z" fill="#2D3046"/>
<path d="M199.84 3.76923H203.315C204.643 3.76923 205.665 4.05128 206.355 4.58974C207.07 5.1282 207.402 6.07692 207.402 7.38461C207.402 8.23077 207.223 8.92307 206.891 9.38461C206.534 9.87179 206.048 10.1538 205.384 10.2564C206.994 10.5641 207.811 11.7179 207.811 13.7436C207.811 15.1026 207.479 16.1282 206.815 16.8205C206.15 17.5128 205.18 17.8462 203.877 17.8462H199.814V3.76923H199.84ZM203.263 9.53846C204.004 9.53846 204.515 9.38461 204.771 9.05128C205.052 8.71794 205.18 8.17948 205.18 7.43589C205.18 6.71794 205.001 6.23076 204.643 5.97435C204.285 5.71794 203.698 5.58974 202.88 5.58974H202.369V9.5641H203.263V9.53846ZM203.366 16.0513C204.107 16.0513 204.643 15.8718 204.924 15.5128C205.205 15.1538 205.358 14.5641 205.358 13.7436C205.358 12.8974 205.205 12.282 204.873 11.8974C204.566 11.5128 204.03 11.3077 203.263 11.3077H202.369V16.0513H203.366Z" fill="#2D3046"/>
<path d="M209.343 18.5385C209.497 18.5385 209.701 18.5641 209.956 18.5641C210.621 18.5641 211.106 18.4615 211.387 18.2308C211.668 18.0256 211.821 17.6667 211.821 17.1538C211.821 16.9487 211.796 16.6667 211.745 16.359L208.781 3.76923H211.157L212.358 9.66666L212.997 13.7692L213.508 9.66666L214.555 3.76923H216.957L214.249 16.6154C214.019 17.6667 213.789 18.4359 213.559 18.9231C213.329 19.4102 212.946 19.7692 212.435 20C211.924 20.2308 211.132 20.3333 210.11 20.3333C209.778 20.3333 209.548 20.3333 209.369 20.3077V18.5385H209.343Z" fill="#2D3046"/>
<path d="M218.234 3.76927H220.329V12.6411L224.162 3.76927H225.873V17.8462H223.753V8.82055L219.921 17.8462H218.234V3.76927ZM220.406 2.00004C219.972 1.5385 219.767 0.923113 219.767 0.128241H221.096C221.096 0.564138 221.198 0.897472 221.377 1.1026C221.556 1.30773 221.837 1.41029 222.245 1.41029C222.654 1.41029 222.961 1.30773 223.14 1.07696C223.319 0.871831 223.395 0.538497 223.395 0.1026H224.749C224.749 0.897472 224.545 1.51286 224.111 1.97439C223.676 2.43593 223.063 2.64106 222.245 2.64106C221.428 2.6667 220.815 2.43593 220.406 2.00004Z" fill="#2D3046"/>
<path d="M135.355 36.1795C134.768 35.4872 134.486 34.4872 134.486 33.1795V32.4616H136.965V33.2052C136.965 33.6924 136.99 34.1026 137.041 34.3847C137.092 34.6667 137.195 34.8975 137.399 35.077C137.578 35.2565 137.884 35.359 138.319 35.359C138.728 35.359 139.034 35.2565 139.239 35.077C139.443 34.8975 139.571 34.6411 139.622 34.3077C139.673 34 139.698 33.5641 139.698 33.0513V30.6924H137.297V29.2565H139.698V26.9488C139.698 26.1539 139.596 25.5642 139.392 25.2308C139.187 24.8718 138.83 24.6924 138.293 24.6924C137.91 24.6924 137.603 24.7949 137.399 24.9744C137.195 25.1539 137.067 25.4103 137.016 25.718C136.965 26.0257 136.939 26.4359 136.939 26.9231V27.718H134.461V27.0513C134.461 25.6924 134.742 24.6411 135.33 23.8975C135.892 23.1539 136.888 22.7949 138.293 22.7949C139.749 22.7949 140.797 23.2052 141.385 24C141.972 24.8206 142.279 25.9744 142.279 27.4872V32.4872C142.279 34.0513 141.972 35.2052 141.385 36.0257C140.797 36.8206 139.749 37.2308 138.293 37.2308C136.914 37.2308 135.943 36.8718 135.355 36.1795Z" fill="#2D3046"/>
<path d="M145.574 24.9743H143.352V23.0769H150.326V24.9743H148.155V37.1538H145.6V24.9743H145.574Z" fill="#2D3046"/>
<path d="M152.318 36.1796C151.705 35.4103 151.373 34.2565 151.373 32.7437V27.4616C151.373 25.9744 151.68 24.8462 152.318 24.077C152.932 23.3078 153.979 22.9232 155.435 22.9232C156.866 22.9232 157.913 23.3078 158.527 24.077C159.14 24.8462 159.472 25.9744 159.472 27.4616V32.7437C159.472 34.2309 159.165 35.3847 158.527 36.1796C157.888 36.9744 156.866 37.3591 155.435 37.3591C153.979 37.3591 152.932 36.9488 152.318 36.1796ZM156.585 34.9232C156.789 34.5642 156.892 34.0514 156.892 33.3591V26.8719C156.892 26.1796 156.789 25.6667 156.61 25.3334C156.432 24.9744 156.048 24.8206 155.461 24.8206C154.873 24.8206 154.49 25.0001 154.311 25.3591C154.107 25.718 154.005 26.2309 154.005 26.8975V33.3847C154.005 34.077 154.107 34.5898 154.311 34.9488C154.516 35.3078 154.899 35.4873 155.461 35.4873C155.997 35.4616 156.381 35.2821 156.585 34.9232Z" fill="#2D3046"/>
<path d="M162.768 24.9743H160.545V23.0769H167.52V24.9743H165.348V37.1538H162.793V24.9743H162.768Z" fill="#2D3046"/>
<path d="M173.193 23.0769H175.85L177.843 32.8205L179.912 23.0769H182.492L182.748 37.1538H180.832L180.627 27.359L178.635 37.1538H177.102L175.083 27.3333L174.905 37.1538H172.963L173.193 23.0769Z" fill="#2D3046"/>
<path d="M184.842 23.0769H186.937V31.9487L190.769 23.0769H192.481V37.1538H190.36V28.1282L186.528 37.1538H184.842V23.0769Z" fill="#2D3046"/>
<path d="M194.653 23.0769H198.766C201.167 23.0769 202.343 24.4102 202.343 27.0769C202.343 29.6154 201.091 30.8974 198.587 30.8974H197.182V37.1538H194.627V23.0769H194.653ZM198.178 29.1026C198.868 29.1026 199.328 28.9487 199.583 28.6667C199.813 28.359 199.941 27.8461 199.941 27.0769C199.941 26.5128 199.89 26.1025 199.813 25.7949C199.737 25.4872 199.558 25.282 199.328 25.1282C199.072 24.9743 198.689 24.8974 198.178 24.8974H197.182V29.1026H198.178Z" fill="#2D3046"/>
<path d="M134.742 42.3847H137.297V48.2565H140.158V42.3847H142.713V56.4616H140.158V50.1026H137.297V56.4616H134.742V42.3847Z" fill="#2D3046"/>
<path d="M146.929 42.3847H149.663L152.473 56.4616H150.097L149.535 53.2052H147.083L146.521 56.4616H144.119L146.929 42.3847ZM149.28 51.5898L148.335 45.6924L147.389 51.5898H149.28Z" fill="#2D3046"/>
<path d="M158.094 42.3847H161.568C162.897 42.3847 163.919 42.6668 164.609 43.2052C165.324 43.7437 165.656 44.6924 165.656 46.0001C165.656 46.8462 165.477 47.5385 165.145 48.0001C164.788 48.4873 164.302 48.7693 163.638 48.8719C165.247 49.1796 166.065 50.3334 166.065 52.3591C166.065 53.718 165.733 54.7437 165.069 55.436C164.404 56.1283 163.433 56.4616 162.13 56.4616H158.068V42.3847H158.094ZM161.517 48.1539C162.258 48.1539 162.769 48.0001 163.025 47.6667C163.306 47.3334 163.433 46.795 163.433 46.0514C163.433 45.3334 163.255 44.8462 162.897 44.5898C162.539 44.3334 161.952 44.2052 161.134 44.2052H160.623V48.1796H161.517V48.1539ZM161.62 54.6667C162.36 54.6667 162.897 54.4873 163.178 54.1283C163.459 53.7693 163.612 53.1796 163.612 52.3591C163.612 51.5129 163.459 50.8975 163.127 50.5129C162.82 50.1283 162.284 49.9232 161.517 49.9232H160.623V54.6667H161.62Z" fill="#2D3046"/>
<path d="M167.775 42.3847H170.33V48.2821H170.841L173.115 42.3847H175.67L173.013 49.0514L175.874 56.4616H173.294L170.841 49.9744H170.33V56.4616H167.775V42.3847Z" fill="#2D3046"/>
<path d="M176.947 57.1539C177.1 57.1539 177.304 57.1796 177.56 57.1796C178.224 57.1796 178.71 57.077 178.991 56.8462C179.272 56.6411 179.425 56.2821 179.425 55.7693C179.425 55.5642 179.399 55.2821 179.348 54.9744L176.385 42.3847H178.761L179.962 48.2821L180.6 52.3847L181.111 48.2821L182.159 42.3847H184.56L181.852 55.2309C181.622 56.2821 181.392 57.0514 181.162 57.5385C180.932 58.0257 180.549 58.3847 180.038 58.6155C179.527 58.8462 178.735 58.9488 177.713 58.9488C177.381 58.9488 177.151 58.9488 176.972 58.9232V57.1539H176.947Z" fill="#2D3046"/>
<path d="M186.502 55.4359C185.889 54.6154 185.582 53.4615 185.582 51.9744V46.9487C185.582 45.4103 185.889 44.2308 186.476 43.4359C187.064 42.641 188.111 42.2308 189.568 42.2308C190.947 42.2308 191.918 42.5897 192.506 43.2821C193.093 43.9744 193.374 44.9744 193.374 46.2821V47.4615H190.922V46.2564C190.922 45.7692 190.896 45.359 190.845 45.0769C190.794 44.7949 190.692 44.5641 190.487 44.3846C190.308 44.2051 190.002 44.1026 189.593 44.1026C189.184 44.1026 188.878 44.2051 188.648 44.3846C188.443 44.5641 188.316 44.8205 188.239 45.1539C188.188 45.4615 188.137 45.8974 188.137 46.3846V52.4872C188.137 53.2821 188.239 53.8718 188.443 54.2051C188.648 54.5641 189.031 54.7436 189.568 54.7436C189.951 54.7436 190.257 54.641 190.436 54.4615C190.615 54.2821 190.743 54.0256 190.794 53.718C190.845 53.4103 190.871 53 190.871 52.4872V51.2308H193.323V52.359C193.323 53.718 193.042 54.7692 192.48 55.5128C191.918 56.2564 190.922 56.641 189.542 56.641C188.137 56.6667 187.115 56.2564 186.502 55.4359Z" fill="#2D3046"/>
<path d="M194.934 54.077H197.207V56.4616H194.934V54.077Z" fill="#2D3046"/>
<path d="M133.823 88.718H134.385C134.845 88.3846 135.177 88.0257 135.432 87.6154C135.688 87.2052 135.918 86.4359 136.096 85.3077C136.301 84.1795 136.48 82.4616 136.633 80.2052L136.939 75.6411H142.228V88.718H143.378V92.1282H142.305L142.177 89.718H134.947L134.819 92.1282H133.771V88.718H133.823ZM140.899 88.718V76.6411H138.089L137.834 80.4872C137.706 82.6923 137.527 84.359 137.323 85.4616C137.118 86.5641 136.914 87.3077 136.684 87.6667C136.454 88.0513 136.122 88.3846 135.713 88.718H140.899Z" fill="#2D3046"/>
<path d="M145.575 88.7436C145.039 88.0001 144.758 86.9231 144.758 85.5385V79.6924C144.758 78.3334 145.039 77.2821 145.601 76.5642C146.163 75.8462 147.083 75.4872 148.386 75.4872C149.663 75.4872 150.583 75.8462 151.145 76.5898C151.707 77.3078 151.988 78.359 151.988 79.718V85.5642C151.988 86.9488 151.707 88.0001 151.17 88.7436C150.634 89.4872 149.714 89.8718 148.411 89.8718C147.057 89.8718 146.137 89.5129 145.575 88.7436ZM150.149 88.077C150.481 87.5642 150.634 86.8462 150.634 85.8718V79.4872C150.634 78.5129 150.481 77.7949 150.149 77.3078C149.842 76.8206 149.229 76.5898 148.386 76.5898C147.517 76.5898 146.904 76.8206 146.597 77.3078C146.265 77.7949 146.112 78.5129 146.112 79.5129V85.8975C146.112 86.8718 146.265 87.6154 146.597 88.1283C146.929 88.6154 147.517 88.8718 148.386 88.8718C149.229 88.8206 149.816 88.5642 150.149 88.077Z" fill="#2D3046"/>
<path d="M154.644 88.718C154.107 87.9487 153.852 86.8718 153.852 85.4872V79.8974C153.852 78.4872 154.107 77.4103 154.644 76.641C155.18 75.8718 156.1 75.5128 157.403 75.5128C158.604 75.5128 159.447 75.8462 159.958 76.5385C160.469 77.2308 160.724 78.2051 160.724 79.5128V80.359H159.472V79.5385C159.472 78.8718 159.421 78.3077 159.319 77.8974C159.217 77.4872 159.012 77.1538 158.706 76.9231C158.399 76.6923 157.965 76.5641 157.403 76.5641C156.79 76.5641 156.33 76.6923 155.998 76.9487C155.665 77.2051 155.461 77.5641 155.333 78C155.206 78.4359 155.155 79.0256 155.155 79.7179V85.718C155.155 86.7949 155.308 87.5898 155.64 88.1026C155.972 88.5898 156.56 88.8462 157.377 88.8462C158.195 88.8462 158.757 88.5898 159.012 88.1026C159.293 87.5898 159.421 86.8205 159.421 85.7949V84.8718H160.673V85.718C160.673 87.0513 160.417 88.1026 159.932 88.8205C159.447 89.5385 158.578 89.9231 157.352 89.9231C156.074 89.8718 155.155 89.4872 154.644 88.718Z" fill="#2D3046"/>
<path d="M164.507 76.6666H161.85V75.641H168.39V76.6666H165.81V89.7179H164.481V76.6666H164.507Z" fill="#2D3046"/>
<path d="M172.145 75.641H173.525L176.514 89.7179H175.211L174.521 85.9487H171.174L170.459 89.7179H169.182L172.145 75.641ZM174.342 84.9743L172.861 77.3846L171.379 84.9743H174.342Z" fill="#2D3046"/>
<path d="M178.199 75.641H181.214C182.44 75.641 183.309 75.9487 183.846 76.5641C184.382 77.1795 184.638 78.0256 184.638 79.1538C184.638 79.923 184.51 80.5641 184.229 81.1282C183.948 81.6666 183.488 82 182.849 82.1282C183.616 82.3333 184.152 82.7692 184.484 83.3846C184.816 84.0256 184.97 84.7692 184.97 85.641C184.97 86.8974 184.714 87.8974 184.229 88.6154C183.743 89.3333 182.875 89.6923 181.648 89.6923H178.174V75.641H178.199ZM181.418 81.6923C182.159 81.6923 182.696 81.4871 183.002 81.0513C183.309 80.6154 183.462 79.9743 183.462 79.1538C183.462 78.5641 183.386 78.0769 183.232 77.7179C183.079 77.3589 182.798 77.1025 182.415 76.923C182.032 76.7436 181.495 76.6666 180.78 76.6666H179.528V81.7179H181.418V81.6923ZM181.393 88.7179C181.981 88.7179 182.466 88.6154 182.798 88.3846C183.13 88.1795 183.36 87.8461 183.488 87.4102C183.616 86.9743 183.692 86.3846 183.692 85.641C183.692 83.6923 182.951 82.7179 181.444 82.7179H179.528V88.7179H181.393Z" fill="#2D3046"/>
<path d="M186.887 75.641H188.215V82.1025H189.212L192.073 75.641H193.402L190.361 82.4102L193.887 89.7179H192.558L189.237 82.8205H188.241V89.7179H186.912V75.641H186.887Z" fill="#2D3046"/>
<path d="M197.464 75.641H198.843L201.832 89.7179H200.529L199.84 85.9487H196.493L195.777 89.7179H194.5L197.464 75.641ZM199.661 84.9743L198.179 77.3846L196.697 84.9743H199.661Z" fill="#2D3046"/>
<path d="M135.406 108.282C134.895 107.692 134.64 106.846 134.64 105.744V105.385H135.866C135.866 105.59 135.866 105.718 135.891 105.795C135.891 106.564 136.045 107.128 136.351 107.538C136.658 107.923 137.118 108.128 137.782 108.128C138.472 108.128 138.983 107.897 139.315 107.436C139.647 106.974 139.826 106.231 139.826 105.179C139.826 103.231 139.034 102.231 137.424 102.179C137.373 102.179 137.118 102.154 136.683 102.154V101.154H137.399C138.267 101.128 138.906 100.872 139.264 100.41C139.622 99.9487 139.826 99.2308 139.826 98.282C139.826 97.5128 139.673 96.8974 139.341 96.4615C139.034 96.0256 138.523 95.7949 137.833 95.7949C137.143 95.7949 136.607 95.9744 136.275 96.359C135.917 96.7436 135.738 97.3333 135.738 98.1538V98.4872H134.486V98.1538C134.486 97.0769 134.767 96.2308 135.304 95.641C135.84 95.0513 136.683 94.7436 137.808 94.7436C138.881 94.7436 139.698 95.0769 140.286 95.7179C140.848 96.359 141.154 97.2051 141.154 98.282C141.154 99.2308 140.976 99.9743 140.592 100.538C140.235 101.103 139.724 101.462 139.111 101.59C139.698 101.744 140.158 102.128 140.567 102.692C140.95 103.282 141.154 104.077 141.154 105.103C141.154 106.359 140.873 107.359 140.337 108.051C139.8 108.769 138.957 109.103 137.808 109.103C136.709 109.179 135.917 108.897 135.406 108.282Z" fill="#2D3046"/>
<path d="M141.922 108.026H142.484C142.944 107.692 143.276 107.333 143.532 106.923C143.787 106.513 144.017 105.744 144.196 104.616C144.4 103.487 144.579 101.769 144.732 99.513L145.039 94.9489H150.327V108.026H151.477V111.436H150.43L150.302 109.026H143.072L142.944 111.436H141.896V108.026H141.922ZM148.999 108.026V95.9489H146.189L145.933 99.795C145.805 102 145.627 103.667 145.422 104.769C145.218 105.872 145.013 106.616 144.783 106.974C144.553 107.359 144.221 107.692 143.813 108.026H148.999Z" fill="#2D3046"/>
<path d="M153.673 108.051C153.137 107.308 152.855 106.231 152.855 104.846V99C152.855 97.6411 153.136 96.5898 153.699 95.8718C154.261 95.1539 155.18 94.7949 156.483 94.7949C157.761 94.7949 158.68 95.1539 159.243 95.8975C159.805 96.6154 160.086 97.6667 160.086 99.0257V104.872C160.086 106.256 159.805 107.308 159.268 108.051C158.732 108.795 157.812 109.18 156.509 109.18C155.155 109.18 154.235 108.821 153.673 108.051ZM158.246 107.385C158.578 106.872 158.732 106.154 158.732 105.18V98.7949C158.732 97.8206 158.578 97.1026 158.246 96.6154C157.94 96.1282 157.326 95.8975 156.483 95.8975C155.615 95.8975 155.002 96.1282 154.695 96.6154C154.363 97.1026 154.21 97.8206 154.21 98.8206V105.205C154.21 106.18 154.363 106.923 154.695 107.436C155.027 107.923 155.615 108.18 156.483 108.18C157.326 108.128 157.914 107.872 158.246 107.385Z" fill="#2D3046"/>
<path d="M162.232 94.9489H165.579C166.78 94.9489 167.623 95.2822 168.134 95.9232C168.645 96.5642 168.901 97.4873 168.901 98.6924C168.901 99.7694 168.645 100.667 168.083 101.359C167.547 102.051 166.703 102.385 165.579 102.385H163.51V109.051H162.232V94.9489ZM165.247 101.359C166.116 101.359 166.729 101.154 167.087 100.769C167.444 100.359 167.623 99.6668 167.623 98.6668C167.623 97.9489 167.547 97.3848 167.419 97.0001C167.291 96.6155 167.036 96.3335 166.703 96.1796C166.371 96.0258 165.886 95.9489 165.247 95.9489H163.561V101.385H165.247V101.359Z" fill="#2D3046"/>
<path d="M171.122 108.051C170.586 107.308 170.305 106.231 170.305 104.846V99C170.305 97.6411 170.586 96.5898 171.148 95.8718C171.71 95.1539 172.63 94.7949 173.933 94.7949C175.21 94.7949 176.13 95.1539 176.692 95.8975C177.254 96.6154 177.535 97.6667 177.535 99.0257V104.872C177.535 106.256 177.254 107.308 176.717 108.051C176.181 108.795 175.261 109.18 173.958 109.18C172.604 109.18 171.684 108.821 171.122 108.051ZM175.695 107.385C176.027 106.872 176.181 106.154 176.181 105.18V98.7949C176.181 97.8206 176.027 97.1026 175.695 96.6154C175.389 96.1282 174.776 95.8975 173.933 95.8975C173.064 95.8975 172.451 96.1282 172.144 96.6154C171.812 97.1026 171.659 97.8206 171.659 98.8206V105.205C171.659 106.18 171.812 106.923 172.144 107.436C172.476 107.923 173.064 108.18 173.933 108.18C174.776 108.128 175.363 107.872 175.695 107.385Z" fill="#2D3046"/>
<path d="M179.682 94.9489H182.696C183.923 94.9489 184.791 95.2565 185.328 95.8719C185.864 96.4873 186.12 97.3335 186.12 98.4617C186.12 99.2309 185.992 99.8719 185.711 100.436C185.43 100.975 184.97 101.308 184.332 101.436C185.098 101.641 185.635 102.077 185.967 102.692C186.299 103.333 186.452 104.077 186.452 104.949C186.452 106.205 186.197 107.205 185.711 107.923C185.226 108.641 184.357 109 183.131 109H179.656V94.9489H179.682ZM182.901 101C183.642 101 184.178 100.795 184.485 100.359C184.791 99.9232 184.945 99.2822 184.945 98.4617C184.945 97.8719 184.868 97.3848 184.715 97.0258C184.561 96.6668 184.28 96.4104 183.897 96.2309C183.514 96.0514 182.978 95.9745 182.262 95.9745H181.01V101.026H182.901V101ZM182.901 108.026C183.488 108.026 183.974 107.923 184.306 107.692C184.638 107.487 184.868 107.154 184.996 106.718C185.124 106.282 185.2 105.692 185.2 104.949C185.2 103 184.459 102.026 182.952 102.026H181.036V108.026H182.901Z" fill="#2D3046"/>
<path d="M188.905 108.051C188.369 107.308 188.088 106.231 188.088 104.846V99C188.088 97.6411 188.369 96.5898 188.931 95.8718C189.493 95.1539 190.413 94.7949 191.716 94.7949C192.993 94.7949 193.913 95.1539 194.475 95.8975C195.037 96.6154 195.318 97.6667 195.318 99.0257V104.872C195.318 106.256 195.037 107.308 194.5 108.051C193.964 108.795 193.044 109.18 191.741 109.18C190.387 109.18 189.467 108.821 188.905 108.051ZM193.479 107.385C193.811 106.872 193.964 106.154 193.964 105.18V98.7949C193.964 97.8206 193.811 97.1026 193.479 96.6154C193.172 96.1282 192.559 95.8975 191.716 95.8975C190.847 95.8975 190.234 96.1282 189.927 96.6154C189.595 97.1026 189.442 97.8206 189.442 98.8206V105.205C189.442 106.18 189.595 106.923 189.927 107.436C190.259 107.923 190.847 108.18 191.716 108.18C192.559 108.128 193.146 107.872 193.479 107.385Z" fill="#2D3046"/>
<path d="M197.463 94.9489H202.419V95.9745H198.766V109.026H197.438V94.9489H197.463Z" fill="#2D3046"/>
<path d="M204.489 108.051C203.953 107.308 203.672 106.231 203.672 104.846V99C203.672 97.6411 203.953 96.5898 204.515 95.8718C205.077 95.1539 205.997 94.7949 207.3 94.7949C208.577 94.7949 209.497 95.1539 210.059 95.8975C210.621 96.6154 210.902 97.6667 210.902 99.0257V104.872C210.902 106.256 210.621 107.308 210.085 108.051C209.548 108.795 208.628 109.18 207.325 109.18C205.971 109.18 205.051 108.821 204.489 108.051ZM209.063 107.385C209.395 106.872 209.548 106.154 209.548 105.18V98.7949C209.548 97.8206 209.395 97.1026 209.063 96.6154C208.756 96.1282 208.143 95.8975 207.3 95.8975C206.431 95.8975 205.818 96.1282 205.511 96.6154C205.179 97.1026 205.026 97.8206 205.026 98.8206V105.205C205.026 106.18 205.179 106.923 205.511 107.436C205.843 107.923 206.431 108.18 207.3 108.18C208.143 108.128 208.73 107.872 209.063 107.385Z" fill="#2D3046"/>
<path d="M134.869 114.256H142.048V128.333H140.72V115.256H136.172V128.333H134.869V114.256Z" fill="#2D3046"/>
<path d="M144.451 114.256H145.626V125.41L150.174 114.256H151.196V128.333H150.021V117.128L145.499 128.333H144.451V114.256Z" fill="#2D3046"/>
<path d="M155.36 115.282H152.703V114.256H159.243V115.282H156.663V128.333H155.335V115.282H155.36Z" fill="#2D3046"/>
<path d="M162.999 114.256H164.378L167.368 128.333H166.065L165.375 124.564H162.028L161.313 128.333H160.035L162.999 114.256ZM165.196 123.59L163.714 116L162.232 123.59H165.196Z" fill="#2D3046"/>
<path d="M169.053 114.256H170.381V120.487H174.801V114.256H176.13V128.333H174.801V121.487H170.381V128.333H169.053V114.256Z" fill="#2D3046"/>
<path d="M178.557 114.256H179.732V125.41L184.279 114.256H185.301V128.333H184.126V117.128L179.604 128.333H178.557V114.256Z" fill="#2D3046"/>
<path d="M189.672 121.949C189.007 121.692 188.496 121.205 188.164 120.539C187.832 119.872 187.653 119.051 187.653 118.077C187.653 116.923 187.96 116 188.573 115.308C189.186 114.615 190.183 114.256 191.562 114.256H194.551V128.333H193.223V122.308H191.46L190.847 122.282L188.343 128.333H186.861L189.672 121.949ZM193.197 121.308V115.231H191.613C190.719 115.231 190.055 115.462 189.621 115.897C189.186 116.333 188.956 117.051 188.956 118.051C188.956 119.154 189.161 119.974 189.595 120.513C190.004 121.051 190.719 121.308 191.69 121.308H193.197Z" fill="#2D3046"/>
<path d="M196.773 126.41H198.102V128.333H196.773V126.41Z" fill="#2D3046"/>
<path d="M122.325 3.71796H0V130H122.325V3.71796Z" fill="#0D8C45"/>
<path d="M17.832 58.718V23.4103C17.832 22.4616 18.1131 21.6667 18.6496 21.0513C19.2116 20.4103 19.8759 20.1026 20.719 20.1026H34.5151C35.3582 20.1026 36.0735 20.4103 36.6611 21.0513C37.2232 21.6923 37.5042 22.4616 37.5042 23.4103C37.5042 24.3077 37.2232 25.077 36.6611 25.6923C36.0991 26.3077 35.3837 26.6154 34.5151 26.6154H24.0403V35.8975H32.9311C33.7742 35.8975 34.4895 36.2052 35.0771 36.8462C35.6392 37.4872 35.9202 38.2564 35.9202 39.2052C35.9202 40.1026 35.6392 40.8718 35.0771 41.4872C34.5151 42.1026 33.7997 42.4103 32.9311 42.4103H24.0403V58.718C24.0403 59.6667 23.7337 60.4616 23.1205 61.1282C22.5074 61.7949 21.792 62.1282 20.9234 62.1282C20.0803 62.1282 19.3394 61.7949 18.7262 61.1282C18.1386 60.4616 17.832 59.6667 17.832 58.718Z" fill="white"/>
<path d="M39.0117 58.1795V23.359C39.0117 22.4616 39.2928 21.6923 39.8548 21.0513C40.4169 20.4103 41.1322 20.1026 41.9498 20.1026H55.7458C56.5634 20.1026 57.2532 20.4103 57.8408 21.0513C58.4028 21.6923 58.6839 22.4616 58.6839 23.359C58.6839 24.2564 58.4028 25.0257 57.8408 25.6667C57.2787 26.3077 56.5634 26.6154 55.7458 26.6154H45.2199V35.4616H54.5195C55.3115 35.4616 55.9758 35.7693 56.5378 36.3846C57.0999 37 57.3554 37.7436 57.3554 38.5898C57.3554 39.4616 57.0743 40.2052 56.5378 40.7949C55.9758 41.4103 55.3115 41.718 54.5195 41.718H45.2199V54.9487H56.2312C57.0232 54.9487 57.713 55.2564 58.3007 55.8975C58.8883 56.5385 59.1948 57.3077 59.1948 58.2052C59.1948 59.1026 58.8883 59.8718 58.3007 60.5128C57.713 61.1539 57.0232 61.4616 56.2312 61.4616H41.9498C41.1322 61.4616 40.4424 61.1539 39.8548 60.5128C39.2928 59.8462 39.0117 59.1026 39.0117 58.1795Z" fill="white"/>
<path d="M61.9023 58.1795V23.359C61.9023 22.4616 62.1834 21.6923 62.7454 21.0513C63.3075 20.4103 64.0228 20.1026 64.8404 20.1026H78.6364C79.454 20.1026 80.1438 20.4103 80.7314 21.0513C81.2934 21.6923 81.5745 22.4616 81.5745 23.359C81.5745 24.2564 81.2934 25.0257 80.7314 25.6667C80.1693 26.3077 79.454 26.6154 78.6364 26.6154H68.1106V35.4616H77.4101C78.2021 35.4616 78.8664 35.7693 79.4284 36.3846C79.9905 37 80.246 37.7436 80.246 38.5898C80.246 39.4616 79.9649 40.2052 79.4284 40.7949C78.8664 41.4103 78.2021 41.718 77.4101 41.718H68.1106V54.9487H79.1219C79.9138 54.9487 80.6036 55.2564 81.1913 55.8975C81.7789 56.5385 82.0854 57.3077 82.0854 58.2052C82.0854 59.1026 81.7789 59.8718 81.1913 60.5128C80.6036 61.1539 79.9138 61.4616 79.1219 61.4616H64.8404C64.0228 61.4616 63.333 61.1539 62.7454 60.5128C62.1834 59.8462 61.9023 59.1026 61.9023 58.1795Z" fill="white"/>
<path d="M84.793 58V22.8205C84.793 21.8718 85.0995 21.0769 85.7127 20.4103C86.3259 19.7436 87.0412 19.4103 87.9099 19.4103C88.753 19.4103 89.4939 19.7436 90.107 20.4103C90.7202 21.0769 91.0267 21.8975 91.0267 22.8205V54.9487H102.575C103.367 54.9487 104.056 55.2564 104.644 55.8974C105.232 56.5385 105.538 57.3077 105.538 58.2051C105.538 59.1026 105.232 59.8718 104.644 60.5128C104.056 61.1539 103.367 61.4615 102.575 61.4615H87.9099C87.0668 61.4615 86.3259 61.1282 85.7127 60.4616C85.0995 59.7692 84.793 58.9487 84.793 58Z" fill="white"/>
<path d="M34.8215 112.846H21.1276C20.0546 112.846 19.1349 112.436 18.3684 111.564C17.602 110.718 17.2188 109.692 17.2188 108.513V75.8206C17.2188 74.6412 17.602 73.6155 18.3684 72.7694C19.1349 71.9232 20.0546 71.4873 21.1276 71.4873H34.3361C35.3325 71.4873 36.1756 71.8719 36.8654 72.6412C37.5552 73.4104 37.9128 74.3335 37.9128 75.436C37.9128 76.5386 37.5552 77.4617 36.8654 78.2309C36.1756 79.0001 35.3325 79.3847 34.3361 79.3847H25.011V86.5386H33.0842C34.055 86.5386 34.8726 86.9232 35.5624 87.6924C36.2522 88.4617 36.6099 89.3847 36.6099 90.436C36.6099 91.4873 36.2522 92.4104 35.5624 93.154C34.8726 93.8976 34.0295 94.2822 33.0842 94.2822H25.011V104.923H34.7959C35.7923 104.923 36.6354 105.308 37.3252 106.077C38.015 106.846 38.3727 107.769 38.3727 108.872C38.3727 109.974 38.015 110.898 37.3252 111.667C36.661 112.462 35.8179 112.846 34.8215 112.846Z" fill="white"/>
<path d="M63.4356 72.6924L76.6952 107.872C76.874 108.385 76.9507 108.898 76.9507 109.41C76.9507 110.564 76.593 111.539 75.8776 112.333C75.1623 113.128 74.2936 113.539 73.2462 113.539C71.5089 113.539 70.3081 112.59 69.6694 110.692L67.6255 104.974H54.3149L52.3477 110.692C51.709 112.59 50.5082 113.539 48.7709 113.539C47.749 113.539 46.8548 113.128 46.1394 112.333C45.4241 111.539 45.0664 110.564 45.0664 109.41C45.0664 108.898 45.1431 108.385 45.3219 107.872L58.5814 72.6924C59.0413 71.436 59.8589 70.795 60.983 70.795C62.1582 70.795 62.9502 71.436 63.4356 72.6924ZM61.0085 85.9745L56.742 98.077H65.2495L61.0085 85.9745Z" fill="white"/>
<path d="M83.364 71.5129H102.193C103.189 71.5129 104.033 71.8975 104.722 72.6667C105.412 73.436 105.77 74.359 105.77 75.4616C105.77 76.5642 105.412 77.4872 104.722 78.2565C104.033 79.0257 103.189 79.4103 102.193 79.4103H96.6747V109.231C96.6747 110.41 96.2914 111.436 95.525 112.282C94.7586 113.128 93.8388 113.564 92.7658 113.564C91.6928 113.564 90.773 113.128 90.0066 112.282C89.2401 111.436 88.8569 110.41 88.8569 109.231V79.4103H83.3385C82.3421 79.4103 81.499 79.0257 80.8092 78.2565C80.1194 77.4872 79.7617 76.5642 79.7617 75.4616C79.7617 74.359 80.1194 73.436 80.8092 72.6667C81.5245 71.8975 82.3676 71.5129 83.364 71.5129Z" fill="white"/>
</g>
<defs>
<clipPath id="clip0">
<rect width="226" height="130" fill="white"/>
</clipPath>
</defs>
</svg>
