<svg xmlns="http://www.w3.org/2000/svg" width="392.971" height="185.75" viewBox="0 0 392.971 185.75">
  <defs>
    <style>
      .cls-1 {
        fill: #fff;
        fill-rule: evenodd;
      }
    </style>
  </defs>
  <path id="GL_m_w" class="cls-1" d="M1337.18,196.388a0.74,0.74,0,0,0-.18-0.293,1.676,1.676,0,0,0-.67-0.5,2.224,2.224,0,0,0-.8-0.147v-0.058q-1.29-.177-2.58-0.294c-0.9-.117-1.79-0.253-2.69-0.41a264.759,264.759,0,0,0-27.8-2.286,228.033,228.033,0,0,0-23.1.468,199.228,199.228,0,0,0-22.57,2.814q-6.63,1.232-13.2,2.638-3.45.763-6.92,1.466c-1.48.313-2.97,0.577-4.45,0.792a20.066,20.066,0,0,1-4.46.146,2.944,2.944,0,0,1-2.93-2.052,10.7,10.7,0,0,0-4.13-5.246,12.674,12.674,0,0,0-6.72-1.788q-0.645.059-1.35,0.117a20.143,20.143,0,0,0-2.93.351,69.343,69.343,0,0,0-16.4,6.032c-0.57-10.9,1.46-21.752,4-32.321,0.69-2.878,1.41-5.748,2.13-8.617l1.08-4.259c0.17-.674.36-1.347,0.51-2.025a12.464,12.464,0,0,0,.46-1.985,1.664,1.664,0,0,0-.03-0.5,1.883,1.883,0,0,0-1.36-.9c-0.94-.315-2.11-0.605-2.92.149a4.061,4.061,0,0,0-.84,1.285c-1.51,3.118-2.41,6.471-3.73,9.661a79.742,79.742,0,0,1-6.46,11.544,101.9,101.9,0,0,1-8.92,12.757,31.643,31.643,0,0,1-11.68,8.82c-0.33.134-.65,0.264-0.97,0.416a0.993,0.993,0,0,1-.48.14c-0.39-.021-0.39-0.425-0.36-0.712a23.219,23.219,0,0,0,.31-2.866,0.674,0.674,0,0,1,.53-0.682,2.507,2.507,0,0,1,.62-0.049c4.49-.034,8.15-3.62,9.8-7.522,0.67-1.586,1.3-4.123-.81-4.914-4.46-1.673-9.12.779-11.98,4.175a17.986,17.986,0,0,0-1.45,1.986q-0.315.507-.6,1.034a4.252,4.252,0,0,1-.53,1.067c-2.17,1-4.75,2.245-5.8,2.877a1.937,1.937,0,0,1-.75.238,0.56,0.56,0,0,1-.42-0.6c-0.74-4.178-5.44-8.475-9.89-8.475a7.461,7.461,0,0,0-4.38,1.67c-0.13.12-.39,0.239-0.52,0.359a2.07,2.07,0,0,1-.18-0.6c1.54-10.863,3.55-21.6,6.03-32.348,0.41-1.552-.07-2.627-1.58-3.1a6.618,6.618,0,0,0-1.64-.358c-0.78,0-1.03.833-1.21,1.441-0.32,1.016-.63,2.031-0.97,3.039-0.68,2.016-1.42,4.01-2.2,5.989-1.57,3.963-3.29,7.86-5.03,11.75-0.55,1.24-1.08,2.49-1.64,3.729-2.44,5.4-4.73,11-8.03,15.949a1.021,1.021,0,0,1-.38.239,0.534,0.534,0,0,1-.19-0.477c0.36-2.268.73-4.536,1.11-6.923,0.1-.955.46-2.03,0.06-2.746a2.2,2.2,0,0,0-2.16-1.194,3.3,3.3,0,0,0-2.39,1.075c-0.28.358-.68,0.716-0.96,1.074a0.7,0.7,0,0,1-.65.478,0.86,0.86,0,0,1-.47-0.12,25.669,25.669,0,0,0-4.07-1.194c-3.49,0-5.4,1.075-7.3,4.178a15.288,15.288,0,0,0-2.67,7.26,104.574,104.574,0,0,1-8.98,6.229,14.609,14.609,0,0,1-2.4,1.183,1.184,1.184,0,0,1-.7.081c-1.11-.287-1.22-2.555-1.28-3.431a32.855,32.855,0,0,1,.09-4.209c0.07-1.457.17-2.912,0.29-4.365,0.24-2.907.59-5.806,1.03-8.689,0.23-1.487.4-2.957,0.61-4.444,0.37-2.268.96-4.416,1.44-6.565,0.52-2.626,1.18-5.371,1.7-8,0.37-1.194.62-2.387,1-3.7,0.4-1.432,1.05-2.983,1.46-4.535a4.55,4.55,0,0,0,.2-2.474,2.077,2.077,0,0,0-2.27-1.494c-1.44.438-2.07,2.923-2.5,4.174-1.54,4.434-2.8,8.878-3.91,13.44-0.6,2.5-1.16,5.017-1.66,7.543-0.59,3.023-1.05,6.063-1.57,9.1a59.6,59.6,0,0,0-.81,7.77,29.477,29.477,0,0,0,.64,8.059,6.02,6.02,0,0,0,5.75,4.855,7.8,7.8,0,0,0,3.35-.955,56.872,56.872,0,0,0,8.71-6.627,5.616,5.616,0,0,0,5.15,3.881,4.759,4.759,0,0,0,3.68-1.79,77.26,77.26,0,0,0,7.04-9.549,10.52,10.52,0,0,1,.2,2.626c0.18,1.671,1.54,3.462,3.34,3.462,3.16,0,5.22-4.644,6.34-6.97,0.93-1.949,5.19-11.187,5.28-11.533-0.7,4.167-1.38,8.34-1.84,12.54-0.45,4.174-.52,8.341-0.64,12.527a2.412,2.412,0,0,0,.7,1.314,5.975,5.975,0,0,0,3.6,1.074,5.618,5.618,0,0,0,1.34-.12c0.97-.119.82-0.954,0.89-1.551,0.02-1.314.05-2.746,0.09-4.178,0.14-1.313.16-2.626,0.44-4.058,0.4-2.627,3.72-7.759,6.85-7.759,2.4,0,4.22,3.1,4.6,5.132a21.743,21.743,0,0,1,.43,2.746c0.27,1.921.13,2.03-1.45,3.123a25.64,25.64,0,0,0-5.3,4.861c-1.4,1.715-3.06,3.963-3.43,6.159-0.46,2.745,2.05,4.717,4.65,4.717,3.6,0,6.94-4.178,8.22-7.163a18.928,18.928,0,0,0,1.36-7.042c0.03-.651.08-1.716,0.11-2.4a1.293,1.293,0,0,1,.58-1.013,13.147,13.147,0,0,1,1.58-.887c1.12-.528,2.2-1.075,3.28-1.628a15.939,15.939,0,0,0-.5,2.583c-0.39,3.581,3,6.684,6.48,6.684,0.36,0,.73-0.119,1.09-0.119a8.388,8.388,0,0,0,3.25-1.174,25.284,25.284,0,0,0,3.11-1.8,36.538,36.538,0,0,0,9.15-9.561c2.83-3.973,8.11-12.8,8.15-13.014a79.44,79.44,0,0,0-.76,26.462,9.079,9.079,0,0,0,.76,2.911,3.352,3.352,0,0,0,2.26,1.86,1.635,1.635,0,0,0,1.6-.534c0.26-.094.52-0.2,0.78-0.312a79.64,79.64,0,0,1,12.66-4.807c1.57-.468,3.16-0.859,4.78-1.172a20.993,20.993,0,0,1,4.96-.352,9.379,9.379,0,0,1,4.28,1.29,6.851,6.851,0,0,1,2.75,3.576,6.472,6.472,0,0,0,5.92,4.748,14.746,14.746,0,0,0,2.94.059q3.87-.41,7.62-1.114,4.575-.879,9.09-1.817,6.675-1.407,13.37-2.58,11.49-1.817,23.1-2.755,6.57-.585,13.19-0.7,7.62-.117,15.25.176,9.96,0.41,19.87,1.524,0.885,0.119,1.71.234a9.351,9.351,0,0,0,1.05.176h0.35a0.253,0.253,0,0,0,.24-0.234A0.449,0.449,0,0,0,1337.18,196.388Zm-172.33-10.516a18.35,18.35,0,0,1,2.21-4.536,11.4,11.4,0,0,1,4.68-3.823,5.015,5.015,0,0,1,.75-0.239c0.86,0,.12,2.006-0.02,2.349a12.852,12.852,0,0,1-6.97,6.741,0.728,0.728,0,0,1-.47.082C1164.85,186.4,1164.8,186.183,1164.85,185.872Zm-50.86-6.211c-1.97,2.626-3.81,5.252-5.78,7.878a0.77,0.77,0,0,1-.45-0.239,14.879,14.879,0,0,1,2.01-5.252,14.551,14.551,0,0,1,1.83-2.507,3.057,3.057,0,0,1,1.66-.954h0.24A0.649,0.649,0,0,1,1113.99,179.661Zm34.2,15.756a15.566,15.566,0,0,1-4.53,7.4c-1.53,1.531-.91-1.569-0.6-2.308a22.833,22.833,0,0,1,5.23-7.122,0.342,0.342,0,0,1,.22.119A10.585,10.585,0,0,1,1148.19,195.417Zm14.18-27.472,12.78-46.1h2.19l-7.85,46.1h15.24a70.429,70.429,0,0,0,5.66-10.219c0.52-1.257.97-2.534,1.45-3.885a56.24,56.24,0,0,1,2.33-5.9,6.458,6.458,0,0,1,1.37-1.989,4.212,4.212,0,0,1,2.94-1.118,7.546,7.546,0,0,1,2.38.452l0.1,0.033a3.87,3.87,0,0,1,2.78,2.442,3.743,3.743,0,0,1,.12,1.358,9.1,9.1,0,0,1-.36,1.78c-0.05.182-.11,0.364-0.15,0.546q-0.165.727-.36,1.449l-1.24,4.886c-0.69,2.7-1.42,5.618-2.13,8.587-0.12.52-.25,1.046-0.37,1.576h2.7l21.15-76.291h-19.62l-14.06,50.68h-1.75l6.92-50.68h-30.26l-21.15,76.292h19.19Zm-34.88,0c0.23-.511.45-1.022,0.68-1.534,0.24-.555.48-1.109,0.73-1.661,1.81-4.055,3.43-7.724,4.93-11.518h-7.18l4.68-16.893h16.23l4.08-14.714h-16.23l4.23-15.258h16.23l4.08-14.714h-37.61l-21.15,76.292h26.3Zm-30.69,0,4.08-14.713h-4.83c-0.02.077-.04,0.158-0.06,0.235-0.16.632-.33,1.285-0.53,1.945-0.26,1.3-.55,2.639-0.84,3.934-0.29,1.326-.58,2.651-0.84,3.948-0.16.742-.33,1.441-0.5,2.143-0.19.823-.39,1.663-0.57,2.508h4.09ZM990.9,127.183l-3.929,14.169a24.738,24.738,0,0,1-2.426,6.376,3.442,3.442,0,0,1-2.99,1.689,2.085,2.085,0,0,1-1.7-.6,2.672,2.672,0,0,1-.533-1.635,8.6,8.6,0,0,1,.381-2.561l8.311-29.972a9.345,9.345,0,0,1,1.079-2.507,5.609,5.609,0,0,1,1.565-1.689,3.256,3.256,0,0,1,1.865-.6,1.793,1.793,0,0,1,2.008,1.852q0.144,1.856-1.367,7.3h21.378q3.63-13.079.2-20.872t-16.7-7.793a31.286,31.286,0,0,0-25.632,12.37,32.907,32.907,0,0,0-5.474,10.844l-8.916,32.152a28.423,28.423,0,0,0-1,11.5,13.777,13.777,0,0,0,4.167,8.5q3.438,3.216,9.689,3.215,6.468,0,11.481-6.213t8.6-17.982h1.645l-6.437,23.214h14.8l11.31-40.762H990.9Zm92.224,40.146c0.48-2.463,1.05-5.034,1.68-7.641,0.55-2.246,1.11-4.387,1.7-6.456h-1.85l4.69-16.893h16.22l4.08-14.714h-16.22l4.23-15.258h16.23l4.08-14.714h-37.61l-21.16,76.292h23.82C1083.05,167.74,1083.08,167.534,1083.12,167.329Zm-21.04-38.674a32.254,32.254,0,0,0,5.53-10.844l0.82-2.943a21.711,21.711,0,0,0,.3-10.79,15.084,15.084,0,0,0-5.87-8.882q-4.665-3.541-12.99-3.542h-23.36l-21.15,76.292h21.38l7.46-26.92h1.98c0.69,0,1.36-.018,2.03-0.05l-2.59,26.97h19.19l-0.58-32.075A30.67,30.67,0,0,0,1062.08,128.655Zm-14-17.493-2.88,10.354a8.354,8.354,0,0,1-1.8,3.542,4.093,4.093,0,0,1-3.14,1.254h-1.98l5.53-19.945h1.98a2.269,2.269,0,0,1,2.38,1.307A5.647,5.647,0,0,1,1048.08,111.162ZM951.149,244.68a6.667,6.667,0,0,0,5.419-2.376l-2.268-2.053a3.729,3.729,0,0,1-2.971,1.477,3.6,3.6,0,0,1,0-7.2A3.729,3.729,0,0,1,954.3,236l2.268-2.053a6.667,6.667,0,0,0-5.419-2.376c-4,0-6.932,2.718-6.932,6.554S947.152,244.68,951.149,244.68Zm12.671-9.146a4.643,4.643,0,0,0-3.259,1.224c0.2-1.6,1.081-2.4,3.169-2.773l4.106-.774-0.468-2.863-4.736.9c-3.709.7-5.329,3.205-5.329,7.023,0,4.447,2.376,6.409,5.635,6.409,3.151,0,5.492-1.854,5.492-4.663C968.43,237.3,966.7,235.534,963.82,235.534Zm-0.864,6.554a1.948,1.948,0,0,1-2.016-2.053,1.881,1.881,0,0,1,2.016-2.016,1.857,1.857,0,0,1,1.981,2A1.933,1.933,0,0,1,962.956,242.088Zm10.908-7.581a8.206,8.206,0,0,0-4.3,1.135l1.153,2.322a4.546,4.546,0,0,1,2.647-.846c1.35,0,2.016.558,2.07,1.549h-1.944c-3.025,0-4.34,1.116-4.34,2.917,0,1.692,1.3,3.006,3.637,3.006a2.956,2.956,0,0,0,2.881-1.422v1.26h3.187v-5.419C978.851,235.912,977.033,234.507,973.864,234.507Zm-0.126,7.923a1.084,1.084,0,0,1-1.279-.99c0-.595.4-0.991,1.5-0.991h1.476V241.3A1.685,1.685,0,0,1,973.738,242.43Zm8.369-7.76-0.144,4.069c-0.072,1.674-.2,2.935-1.387,2.935a4.176,4.176,0,0,1-.432-0.036L980,244.428a7.755,7.755,0,0,0,1.657.234c2.538,0,3.169-2.268,3.313-5.779l0.072-1.5h2.466v7.04h3.421V234.67h-8.822Zm15.193-.163a8.206,8.206,0,0,0-4.3,1.135l1.153,2.322a4.545,4.545,0,0,1,2.646-.846c1.351,0,2.017.558,2.071,1.549h-1.945c-3.024,0-4.339,1.116-4.339,2.917,0,1.692,1.3,3.006,3.637,3.006a2.956,2.956,0,0,0,2.881-1.422v1.26h3.19v-5.419C1002.29,235.912,1000.47,234.507,997.3,234.507Zm-0.126,7.923a1.084,1.084,0,0,1-1.279-.99c0-.595.4-0.991,1.5-0.991h1.476V241.3A1.685,1.685,0,0,1,997.174,242.43Zm7.256,2h3.4v-3.421h3.51v3.421h3.42V234.67h-3.42v3.619h-3.51V234.67h-3.4v9.758Zm17.62,0.162c2.21,0,3.91-.99,4.57-2.682l-2.64-1.351a2.126,2.126,0,0,1-1.95,1.315,2.333,2.333,0,0,1,0-4.646,2.126,2.126,0,0,1,1.95,1.315l2.64-1.351c-0.66-1.692-2.36-2.683-4.57-2.683-3.28,0-5.6,2.089-5.6,5.024C1016.45,242.5,1018.77,244.59,1022.05,244.59Zm6.08-.162h3.17l4.05-5.131v5.131h3.42V234.67h-3.15l-4.08,5.113V234.67h-3.41v9.758Zm19.17-9.921a3.534,3.534,0,0,0-2.88,1.135V234.67h-3.26v13.251h3.43v-4.357a3.615,3.615,0,0,0,2.71,1.026A5.048,5.048,0,0,0,1047.3,234.507Zm-0.72,7.365a2.34,2.34,0,1,1,2.06-2.323A2.077,2.077,0,0,1,1046.58,241.872Zm12.05,2.718c3.22,0,5.51-2.106,5.51-5.059,0-2.935-2.29-5.024-5.51-5.024-3.19,0-5.51,2.089-5.51,5.024C1053.12,242.484,1055.44,244.59,1058.63,244.59Zm0-2.718a2.085,2.085,0,0,1-2.06-2.341A2.072,2.072,0,1,1,1058.63,241.872Zm15.06-2.557a2.287,2.287,0,0,0,1.39-2.107c0-1.62-1.48-2.538-4.02-2.538h-5.24v9.758h5.5c2.73,0,4.05-1.1,4.05-2.808A2.26,2.26,0,0,0,1073.69,239.315Zm-4.81-2.449h1.88c0.79,0,1.19.27,1.19,0.846s-0.4.883-1.19,0.883h-1.88v-1.729Zm2.13,5.348h-2.13v-1.8h2.17c0.81,0,1.2.306,1.2,0.9S1071.84,242.214,1071.01,242.214Zm10.15-7.707a8.176,8.176,0,0,0-4.3,1.135l1.15,2.322a4.558,4.558,0,0,1,2.65-.846c1.35,0,2.01.558,2.07,1.549h-1.95c-3.02,0-4.34,1.116-4.34,2.917,0,1.692,1.3,3.006,3.64,3.006a2.952,2.952,0,0,0,2.88-1.422v1.26h3.19v-5.419C1086.15,235.912,1084.33,234.507,1081.16,234.507Zm-0.13,7.923a1.076,1.076,0,0,1-1.27-.99c0-.595.39-0.991,1.49-0.991h1.48V241.3A1.691,1.691,0,0,1,1081.03,242.43Zm7.26,2h3.4v-3.421h3.51v3.421h3.42V234.67h-3.42v3.619h-3.51V234.67h-3.4v9.758Zm12.72,0h3.41v-3.421h3.51v3.421h3.42V234.67h-3.42v3.619h-3.51V234.67h-3.41v9.758Zm17.54,0.162c3.22,0,5.51-2.106,5.51-5.059,0-2.935-2.29-5.024-5.51-5.024-3.19,0-5.51,2.089-5.51,5.024C1113.04,242.484,1115.36,244.59,1118.55,244.59Zm0-2.718a2.085,2.085,0,0,1-2.06-2.341A2.072,2.072,0,1,1,1118.55,241.872Zm17.08-2.305a4.888,4.888,0,0,0-5.22-5.06,5.038,5.038,0,0,0-5.37,5.024c0,2.917,2.25,5.059,5.73,5.059a5.3,5.3,0,0,0,4.16-1.584l-1.8-1.873a3.136,3.136,0,0,1-2.25.847,2.261,2.261,0,0,1-2.4-1.567h7.1C1135.59,240.143,1135.63,239.819,1135.63,239.567Zm-5.2-2.629a1.931,1.931,0,0,1,2,1.675h-4A1.938,1.938,0,0,1,1130.43,236.938Zm12.41-2.268v9.758h3.41v-7.04h3.27v7.04h3.41V234.67h-10.09Zm12.5,9.758h3.17l4.05-5.131v5.131h3.42V234.67h-3.15l-4.09,5.113V234.67h-3.4v9.758Zm21.74-9.758h-9.68v2.718h3.15v7.04h3.4v-7.04h3.13V234.67Zm5.4-.163a8.176,8.176,0,0,0-4.3,1.135l1.15,2.322a4.558,4.558,0,0,1,2.65-.846c1.35,0,2.01.558,2.07,1.549h-1.95c-3.02,0-4.34,1.116-4.34,2.917,0,1.692,1.3,3.006,3.64,3.006a2.952,2.952,0,0,0,2.88-1.422v1.26h3.19v-5.419C1187.47,235.912,1185.65,234.507,1182.48,234.507Zm-0.12,7.923a1.085,1.085,0,0,1-1.28-.99c0-.595.39-0.991,1.49-0.991h1.48V241.3A1.687,1.687,0,0,1,1182.36,242.43Zm7.25,2h3.4v-3.421h3.51v3.421h3.42V234.67h-3.42v3.619h-3.51V234.67h-3.4v9.758Zm12.72,0h3.17l4.05-5.131v5.131h3.43V234.67h-3.16l-4.08,5.113V234.67h-3.41v9.758Zm22.92-4.861a4.888,4.888,0,0,0-5.22-5.06,5.038,5.038,0,0,0-5.37,5.024c0,2.917,2.25,5.059,5.73,5.059a5.3,5.3,0,0,0,4.16-1.584l-1.8-1.873a3.136,3.136,0,0,1-2.25.847,2.261,2.261,0,0,1-2.4-1.567h7.1C1225.22,240.143,1225.25,239.819,1225.25,239.567Zm-5.2-2.629a1.931,1.931,0,0,1,2,1.675h-4A1.945,1.945,0,0,1,1220.05,236.938Zm11.26,3.367h18.01v-2.034h-18.01v2.034ZM1014.6,262.67h-9.69v2.718h3.15v7.04h3.41v-7.04h3.13V262.67Zm9.29,4.645a2.277,2.277,0,0,0,1.38-2.107c0-1.62-1.47-2.538-4.01-2.538h-5.24v9.758h5.49c2.74,0,4.05-1.1,4.05-2.808A2.263,2.263,0,0,0,1023.89,267.315Zm-4.81-2.449h1.87c0.79,0,1.19.27,1.19,0.846s-0.4.883-1.19,0.883h-1.87v-1.729Zm2.12,5.348h-2.12v-1.8h2.16c0.81,0,1.21.306,1.21,0.9S1022.03,270.214,1021.2,270.214Zm10.98,2.376c3.23,0,5.51-2.106,5.51-5.059,0-2.935-2.28-5.024-5.51-5.024-3.18,0-5.51,2.089-5.51,5.024C1026.67,270.484,1029,272.59,1032.18,272.59Zm0-2.718a2.083,2.083,0,0,1-2.05-2.341A2.072,2.072,0,1,1,1032.18,269.872Zm12.3-8.139c2.32,0,3.42-.954,3.42-2.971h-2.25a1.1,1.1,0,0,1-1.19,1.261,1.069,1.069,0,0,1-1.15-1.261h-2.22C1041.11,260.779,1042.17,261.733,1044.48,261.733Zm-5.1,10.695h3.17l4.05-5.131v5.131h3.42V262.67h-3.15l-4.09,5.113V262.67h-3.4v9.758Zm18.36-9.758v9.758h3.4v-7.04h3.28v7.04h3.4V262.67h-10.08Zm19.64,0-2.41,5.959-2.4-5.959h-3.51l4.18,9.884a1.323,1.323,0,0,1-1.33.829,2.306,2.306,0,0,1-1.51-.576l-1.19,2.394a4.757,4.757,0,0,0,2.82.883c1.93,0,3.37-.739,4.4-3.259l4.21-10.155h-3.26Zm13.29,0h-9.69v2.718h3.15v7.04h3.4v-7.04h3.14V262.67Zm7.14,3.024h-2.32V262.67h-3.4v9.758h5.29c2.77,0.018,4.43-1.3,4.43-3.457C1101.81,266.9,1100.4,265.712,1097.81,265.694Zm-0.77,4.394-1.55-.018v-2.287h1.55a1.081,1.081,0,0,1,1.29,1.134A1.1,1.1,0,0,1,1097.04,270.088Zm18.48,2.34h4.04l-3.5-5.077,3.28-4.681h-3.62l-2.39,3.6h-1.23v-3.6h-3.42v9.758h3.42v-3.475h1.15Zm17.73-9.758-2.41,5.959-2.39-5.959h-3.52l4.18,9.884a1.315,1.315,0,0,1-1.33.829,2.306,2.306,0,0,1-1.51-.576l-1.19,2.394a4.766,4.766,0,0,0,2.83.883c1.92,0,3.36-.739,4.39-3.259l4.21-10.155h-3.26Zm9.09,9.92c2.22,0,3.91-.99,4.58-2.682l-2.65-1.351a2.12,2.12,0,0,1-4.07-1.026,2.1,2.1,0,0,1,2.12-2.305,2.116,2.116,0,0,1,1.95,1.315l2.65-1.351c-0.67-1.692-2.36-2.683-4.58-2.683-3.28,0-5.6,2.089-5.6,5.024C1136.74,270.5,1139.06,272.59,1142.34,272.59Zm6.08-9.92v9.758h3.41v-7.04h3.27v7.04h3.41V262.67h-10.09Zm22.38,4.9a4.888,4.888,0,0,0-5.22-5.06,5.038,5.038,0,0,0-5.37,5.024c0,2.917,2.25,5.059,5.73,5.059a5.3,5.3,0,0,0,4.16-1.584l-1.8-1.873a3.136,3.136,0,0,1-2.25.847,2.261,2.261,0,0,1-2.4-1.567h7.1C1170.77,268.143,1170.8,267.819,1170.8,267.567Zm-5.2-2.629a1.931,1.931,0,0,1,2,1.675h-4A1.945,1.945,0,0,1,1165.6,264.938Zm16.9,7.49-3.73-5,3.61-4.753h-3.62l-1.8,2.466-1.73-2.466h-3.86l3.6,4.879-3.7,4.879h3.7l1.88-2.556,1.74,2.556h3.91Zm7.85-9.758-2.41,5.959-2.4-5.959h-3.51l4.18,9.884a1.328,1.328,0,0,1-1.34.829,2.326,2.326,0,0,1-1.51-.576l-1.19,2.394a4.766,4.766,0,0,0,2.83.883c1.93,0,3.37-.739,4.39-3.259l4.22-10.155h-3.26Z" transform="translate(-944.219 -90.344)"/>
</svg>
