<svg width="236" height="73" viewBox="0 0 236 73" fill="none" xmlns="http://www.w3.org/2000/svg">
<path d="M25.1973 22.9483H21.1271L18.6904 31.7581C18.1548 33.7129 17.646 35.025 17.1908 35.7212C16.7356 36.4174 16.1197 36.7655 15.3432 36.7655C14.8344 36.7655 14.4863 36.6317 14.2988 36.3907C14.0846 36.1497 13.9775 35.8016 13.9775 35.3731C13.9507 34.9447 14.0311 34.4091 14.2185 33.7665L19.3598 15.1025C19.5205 14.5134 19.7347 14.0047 20.0292 13.5494C20.3238 13.0942 20.6451 12.7461 20.9932 12.5051C21.3681 12.2641 21.743 12.1302 22.1446 12.1302C22.9212 12.1302 23.3229 12.5051 23.3764 13.2817C23.43 14.0582 23.1622 15.5577 22.5195 17.8338H35.7476C37.2472 12.398 37.2739 8.06004 35.8815 4.84673C34.4623 1.60665 31.008 0 25.5454 0C21.984 0 18.851 0.722997 16.1465 2.19576C13.4687 3.66852 11.2998 5.4894 9.66632 7.68515C8.03289 9.88091 6.90823 12.1302 6.26557 14.4331L0.749407 34.4627C0.0264133 37.0333 -0.161042 39.4165 0.13351 41.6123C0.428063 43.808 1.28495 45.5754 2.70416 46.9142C4.12337 48.2531 6.13168 48.9226 8.70232 48.9226C11.3801 48.9226 13.7365 47.6372 15.7984 45.0666C17.8602 42.4959 19.6543 38.7471 21.1271 33.8736H22.1446L18.1548 48.3334H27.3127L34.3017 22.9483H25.1973Z" fill="#F37321"/>
<path d="M65.2029 23.8588C66.8364 21.663 67.9878 19.4137 68.6305 17.1108L69.1392 15.2899C69.7551 13.0406 69.8354 10.7913 69.3267 8.56878C68.8179 6.34625 67.6129 4.49859 65.6849 3.02583C63.757 1.55307 61.0792 0.830078 57.6517 0.830078H43.1918L30.0976 48.3334H43.3257L47.9582 31.5707H49.19C49.6184 31.5707 50.0469 31.5707 50.4485 31.5439L48.8419 48.3334H60.7043L60.3562 28.3574C62.2842 27.0721 63.8908 25.5725 65.2029 23.8588ZM53.876 9.98799H55.1078C55.8844 9.98799 56.3664 10.2558 56.5806 10.7913C56.7948 11.3269 56.768 12.0499 56.527 12.9603L54.7597 19.4137C54.4919 20.3509 54.117 21.1007 53.635 21.6094C53.1531 22.1182 52.5104 22.386 51.6803 22.386H50.4485L53.876 9.98799Z" fill="#F37321"/>
<path d="M82.0727 28.6519H92.1143L94.6314 19.4672H84.5898L87.214 9.98799H97.2556L99.7727 0.830078H89.7311H81.1891H76.503L63.4088 48.3334H68.0949H76.6369H86.6785L89.1956 39.1487H79.154L82.0727 28.6519Z" fill="#F37321"/>
<path d="M108.047 28.6519H118.089L120.632 19.4672H110.591L113.188 9.98799H123.23L125.774 0.830078H115.732H107.163H102.477L89.383 48.3334H94.0691H102.638H112.679L115.197 39.1487H105.155L108.047 28.6519Z" fill="#F37321"/>
<path d="M152.712 0.830078L144.009 32.374H142.911L147.196 0.830078H128.478L115.384 48.3334H127.273L135.173 19.6279H136.538L131.665 48.3334H151.748L164.842 0.830078H152.712Z" fill="#F37321"/>
<path d="M235.99 66.0334C235.963 65.953 235.936 65.8995 235.883 65.8459C235.749 65.712 235.615 65.6049 235.454 65.5246C235.294 65.471 235.133 65.4443 234.972 65.4443V65.4175C234.437 65.3371 233.901 65.2836 233.366 65.23C232.803 65.1497 232.241 65.0694 231.706 64.9623C226.002 64.1857 220.272 63.7037 214.514 63.543C209.748 63.4092 204.982 63.4895 200.215 63.8376C195.529 64.1589 190.87 64.748 186.237 65.5781C183.506 66.0869 180.775 66.6492 178.07 67.2116C176.651 67.5329 175.205 67.8275 173.786 68.122C172.875 68.3095 171.938 68.4701 171.028 68.604C170.117 68.7379 169.18 68.7647 168.27 68.6843C167.386 68.6843 166.797 68.2559 166.449 67.399C165.86 65.9263 165.003 64.8551 163.878 64.1322C162.753 63.4092 161.361 63.0343 159.728 63.0075C159.46 63.0343 159.192 63.061 158.897 63.0878C158.308 63.1146 157.719 63.1949 157.077 63.3021C153.542 64.1054 150.168 65.3639 146.928 67.0509C146.58 60.2494 147.838 53.5015 149.391 46.9142C149.82 45.1201 150.275 43.326 150.704 41.5587C150.918 40.675 151.159 39.7914 151.373 38.9077C151.48 38.4793 151.587 38.0776 151.694 37.6492C151.775 37.2475 151.935 36.8459 151.989 36.4174C151.989 36.3103 151.989 36.2032 151.962 36.0961C151.855 35.748 151.427 35.6409 151.132 35.5338C150.543 35.3463 149.82 35.1589 149.338 35.6141C149.097 35.8283 148.963 36.1229 148.802 36.4174C147.865 38.3722 147.303 40.434 146.499 42.4424C145.455 44.9862 143.956 47.3159 142.51 49.6187C140.796 52.35 139.109 55.1081 136.993 57.5717C135.012 59.8745 132.602 61.9096 129.763 63.0611C129.549 63.1414 129.362 63.2217 129.174 63.3288C129.067 63.3824 128.987 63.4092 128.88 63.4092C128.639 63.4092 128.639 63.1414 128.666 62.9539C128.719 62.3648 128.88 61.7757 128.853 61.1599C128.88 60.9456 128.96 60.785 129.174 60.7314C129.308 60.7046 129.442 60.7046 129.549 60.7046C132.334 60.6779 134.583 58.4553 135.601 56.0186C136.003 55.0278 136.404 53.4479 135.092 52.9659C132.334 51.9216 129.442 53.4479 127.675 55.5633C127.354 55.965 127.059 56.3667 126.791 56.7951C126.657 57.0093 126.523 57.2236 126.416 57.4378C126.363 57.5449 126.202 58.0537 126.095 58.1072C124.756 58.7231 123.149 59.4996 122.507 59.9013C122.346 59.9816 122.185 60.062 122.052 60.062C121.971 60.062 121.837 59.9816 121.784 59.6871C121.329 57.0897 118.41 54.4119 115.652 54.4119C114.768 54.4119 113.831 54.7868 112.947 55.4562C112.867 55.5366 112.706 55.6169 112.626 55.6705C112.572 55.5098 112.519 55.3759 112.519 55.2956C113.483 48.5209 114.715 41.8532 116.241 35.1589C116.482 34.1949 116.187 33.5254 115.25 33.2309C114.741 33.0702 114.447 33.0167 114.233 33.0167C113.751 33.0167 113.59 33.5254 113.483 33.9271C113.295 34.5698 113.081 35.1856 112.894 35.8283C112.465 37.0868 112.01 38.3186 111.528 39.5504C110.564 42.0139 109.493 44.4507 108.422 46.8606C108.074 47.6372 107.752 48.4137 107.404 49.1903C105.905 52.5375 104.486 56.0453 102.45 59.1248C102.45 59.2051 102.29 59.2051 102.209 59.2854C102.156 59.2051 102.076 59.1248 102.102 58.9909C102.317 57.5717 102.558 56.1792 102.799 54.6797C102.852 54.0906 103.093 53.4211 102.825 52.9659C102.584 52.4571 102.076 52.2162 101.486 52.2162C100.978 52.2162 100.415 52.4304 100.014 52.8856C99.853 53.0998 99.5852 53.3408 99.4246 53.555C99.3175 53.7693 99.1568 53.8496 99.0229 53.8496C98.9426 53.8496 98.8622 53.8496 98.7283 53.7692C97.8715 53.4747 97.0949 53.1801 96.2113 53.0195C94.0691 53.0195 92.8641 53.6889 91.6859 55.6169C90.7486 57.0629 90.1595 58.5356 90.0256 60.1423C88.2316 61.508 86.4107 62.8468 84.4559 64.025C83.9739 64.3196 83.4919 64.5606 82.9832 64.7748C82.8493 64.8284 82.6886 64.8551 82.5547 64.8284C81.8585 64.6409 81.805 63.2485 81.7514 62.6862C81.6978 61.8025 81.7782 60.9456 81.8049 60.062C81.8585 59.1515 81.9121 58.2411 81.9924 57.3307C82.1531 55.5098 82.3673 53.7157 82.6351 51.9216C82.7689 50.9844 82.876 50.0739 83.0099 49.1635C83.2241 47.7443 83.599 46.4054 83.8936 45.0666C84.2149 43.4331 84.6166 41.7194 84.9379 40.0859C85.1789 39.3362 85.3128 38.5864 85.5538 37.7831C85.7948 36.8994 86.1965 35.9354 86.4642 34.9714C86.5981 34.4894 86.7588 33.9271 86.5981 33.4183C86.4375 32.8828 85.7948 32.2937 85.2057 32.4811C84.322 32.7489 83.9204 34.302 83.6526 35.0785C82.6886 37.8366 81.9121 40.5947 81.2426 43.4599C80.8677 45.013 80.5196 46.5929 80.2251 48.146C79.8502 50.0204 79.5824 51.9216 79.2611 53.8228C78.9933 55.4295 78.8059 57.0361 78.7523 58.6695C78.6988 60.303 78.7523 62.0971 79.154 63.6769C79.5824 65.3639 80.8945 66.7028 82.7154 66.7028C83.3045 66.7028 84.081 66.4886 84.7773 66.1137C86.25 65.3372 88.3654 63.5698 90.1595 61.99C90.5612 63.3288 91.9269 64.3999 93.3461 64.3999C94.1762 64.3999 95.0331 64.025 95.6222 63.2753C97.3091 61.3473 98.648 59.4193 99.9869 57.3307C100.148 57.9198 100.094 58.4553 100.121 58.9641C100.228 60.0084 101.085 61.1063 102.183 61.1063C104.137 61.1063 105.423 58.2143 106.092 56.7683C106.681 55.5633 109.305 49.8062 109.359 49.592C108.931 52.1894 108.502 54.7868 108.234 57.411C107.94 60.0084 107.913 62.6058 107.833 65.2033C107.886 65.4978 108.127 65.953 108.261 66.0334C108.823 66.4082 109.439 66.7028 110.484 66.7028C110.698 66.7028 110.992 66.7028 111.314 66.6225C111.93 66.5421 111.823 66.0334 111.876 65.6585C111.903 64.8284 111.903 63.9447 111.93 63.0611C112.01 62.231 112.037 61.4276 112.197 60.544C112.438 58.9105 114.5 55.724 116.428 55.724C117.928 55.724 119.052 57.652 119.267 58.9105C119.427 59.4193 119.427 60.0888 119.534 60.6243C119.695 61.8293 119.615 61.8828 118.651 62.5791C117.419 63.4359 116.321 64.4535 115.384 65.6049C114.527 66.676 113.483 68.0685 113.269 69.4341C112.974 71.1479 114.527 72.3796 116.134 72.3796C118.356 72.3796 120.418 69.7822 121.221 67.9078C121.73 66.5689 121.998 65.4443 122.078 63.5163C122.105 63.1146 122.132 62.4452 122.132 62.0167C122.132 61.7489 122.266 61.5347 122.48 61.3741C122.748 61.2134 123.123 60.9724 123.444 60.8117C124.14 60.4904 124.81 60.1423 125.479 59.7942C125.318 60.3297 125.211 60.8653 125.158 61.4008C124.917 63.6234 127.005 65.5514 129.174 65.5514C129.389 65.5514 129.63 65.471 129.844 65.471C130.513 65.471 131.263 65.0158 131.852 64.748C132.522 64.4267 133.164 64.0518 133.78 63.6234C136.11 62.0435 137.824 59.9549 139.43 57.6788C141.171 55.2152 144.438 49.6991 144.464 49.5652C143.393 54.9742 143.233 60.5707 144.009 66.0334C144.089 66.6492 144.197 67.2919 144.491 67.8542C144.786 68.4166 145.268 68.8986 145.884 69.0057C146.232 69.0592 146.66 68.9789 146.874 68.6843C147.035 68.6308 147.196 68.5504 147.356 68.4969C149.873 67.2919 152.498 66.2744 155.202 65.4978C156.166 65.2033 157.157 64.9623 158.148 64.7748C159.138 64.5874 160.183 64.507 161.227 64.5606C162.245 64.6409 163.128 64.9087 163.878 65.3639C164.628 65.8191 165.19 66.5689 165.592 67.5865C166.181 69.3538 167.386 70.3446 169.26 70.532C169.876 70.6123 170.465 70.6123 171.081 70.5588C172.688 70.3981 174.241 70.1571 175.794 69.8626C177.668 69.4877 179.543 69.1128 181.417 68.7379C184.175 68.1488 186.934 67.6132 189.692 67.1312C194.431 66.3815 199.198 65.7924 203.991 65.4175C206.695 65.1765 209.427 65.0158 212.158 64.989C215.291 64.9355 218.451 64.989 221.584 65.0961C225.707 65.2568 229.804 65.5781 233.875 66.0334C234.249 66.0869 234.598 66.1405 234.919 66.1672C235.133 66.2208 235.347 66.2476 235.562 66.2744C235.642 66.2744 235.695 66.2744 235.776 66.2744C235.856 66.2744 235.91 66.2208 235.91 66.1405C235.99 66.1672 236.017 66.1137 235.99 66.0334ZM129.335 59.4729C129.469 58.6963 130.513 56.929 130.701 56.6612C131.45 55.6169 132.441 54.7868 133.593 54.278C133.834 54.1977 133.968 54.1174 134.048 54.1174C134.583 54.1174 134.128 55.3759 134.048 55.5901C133.245 57.5449 131.638 58.9641 129.737 59.7942C129.656 59.821 129.549 59.8745 129.442 59.8478C129.335 59.821 129.308 59.6871 129.335 59.4729ZM97.8447 55.6169C96.6397 57.2503 95.4883 58.8838 94.2565 60.5172C94.1762 60.5172 94.0423 60.4369 93.9887 60.3565C94.0958 59.2319 94.6849 58.134 95.2205 57.0897C95.5954 56.5006 95.9435 55.965 96.3452 55.5366C96.6129 55.242 96.9878 55.0278 97.3627 54.9475H97.5234C97.925 54.9475 98.0321 55.3224 97.8447 55.6169ZM119.026 65.4175C118.597 67.2116 117.553 68.6843 116.214 70.0232C115.277 70.9872 115.652 69.0592 115.839 68.5772C116.562 66.8099 117.767 65.4978 119.079 64.1322C119.16 64.1322 119.213 64.2125 119.213 64.2125C119.186 64.6141 119.133 65.0426 119.026 65.4175Z" fill="#108341"/>
</svg>
