<svg width="100" height="93" viewBox="0 0 100 93" fill="none" xmlns="http://www.w3.org/2000/svg">
<path d="M0 13.6641C0 9.96489 0 6.29783 0 2.5986C0 2.3091 -4.91738e-07 2.0196 0.0321728 1.73009C0.193039 0.636406 0.965199 0.0252278 2.12344 0.0252278C3.28168 0.0252278 3.98949 0.636406 4.15036 1.73009C4.18253 2.05176 4.2147 2.37343 4.2147 2.69511C4.2147 5.30065 4.2147 7.90619 4.2147 10.5117C4.2147 11.4446 4.37557 11.5733 5.27642 11.5733C7.65725 11.5733 10.0381 11.5733 12.4511 11.5733C13.2554 11.5733 13.4806 11.3481 13.4806 10.5439C13.4806 7.80969 13.4806 5.07548 13.4806 2.34127C13.4806 1.18325 13.8989 0.411235 14.7354 0.153897C16.3762 -0.360778 17.6953 0.443401 17.6953 2.14826C17.6953 9.80406 17.6953 17.4599 17.6953 25.0835C17.6953 26.4345 16.9232 27.2387 15.6684 27.2709C14.285 27.303 13.4806 26.531 13.4806 25.0835C13.4484 22.9926 13.4806 20.9017 13.4806 18.7787C13.4806 17.9745 13.4806 17.2025 13.4806 16.3983C13.4806 15.755 13.2232 15.4655 12.5798 15.4333C10.1024 15.4333 7.62508 15.4333 5.14773 15.4333C4.47209 15.4333 4.24688 15.7228 4.24688 16.4627C4.24688 19.1647 4.24688 21.8989 4.24688 24.601C4.24688 24.8583 4.24688 25.1156 4.2147 25.373C4.02166 26.7562 3.28168 27.3352 1.86605 27.2709C0.739987 27.2065 0.0321728 26.4023 0.0321728 25.1478C-4.91738e-07 21.3199 0 17.492 0 13.6641Z" fill="white"/>
<path d="M47.359 10.3509C47.5199 10.2544 47.6486 10.2222 47.713 10.1257C51.4772 6.52298 58.7806 7.42367 60.8718 13.9214C61.9979 17.4598 61.7727 20.9339 59.6171 24.0863C57.9441 26.4988 55.5311 27.496 52.6676 27.4317C50.9303 27.3995 49.386 26.8527 48.0669 25.6946C47.906 25.566 47.6808 25.5338 47.4877 25.4695C47.4556 25.6625 47.359 25.8233 47.359 26.0163C47.359 28.3645 47.359 30.6806 47.359 33.0288C47.359 33.2861 47.3269 33.5756 47.2947 33.8329C47.1017 34.9266 46.2973 35.57 45.2678 35.5056C44.2061 35.4413 43.4982 34.7336 43.4017 33.6078C43.4017 33.4469 43.4017 33.2861 43.4017 33.1253C43.4017 25.5981 43.4017 18.071 43.4017 10.5439C43.4017 10.2222 43.4339 9.90054 43.4982 9.57887C43.7235 8.71036 44.3669 8.22785 45.2678 8.16351C46.1043 8.13135 46.8121 8.54952 47.1338 9.38586C47.166 9.70754 47.2625 9.99704 47.359 10.3509ZM52.3137 24.0863C53.8902 24.0863 55.1128 23.4751 56.0458 22.2206C57.6545 20.0975 57.8797 16.334 56.4641 13.9536C54.5015 10.6082 49.9973 10.5761 48.099 13.9536C46.6834 16.527 46.7477 19.1969 48.1955 21.7381C49.0964 23.2821 50.4799 24.1184 52.3137 24.0863Z" fill="white"/>
<path d="M68.4327 10.3509C68.5936 10.2544 68.7222 10.2222 68.7866 10.1579C72.5509 6.55516 79.8542 7.42368 81.9455 13.9536C83.0716 17.4598 82.8463 20.9661 80.6907 24.1185C79.0177 26.531 76.6369 27.5282 73.7413 27.4638C72.0039 27.4317 70.4596 26.8848 69.1405 25.7268C68.9796 25.5982 68.7544 25.566 68.5614 25.5016C68.5292 25.6947 68.4327 25.8555 68.4327 26.0485C68.4327 28.3967 68.4327 30.7127 68.4327 33.0609C68.4327 33.3183 68.4005 33.6078 68.3683 33.8651C68.1753 34.9588 67.371 35.6021 66.3414 35.5378C65.2797 35.4735 64.5719 34.7658 64.4432 33.6721C64.4432 33.5113 64.4432 33.3504 64.4432 33.1896C64.4432 25.6625 64.4432 18.1354 64.4432 10.6082C64.4432 10.2866 64.4754 9.96489 64.5397 9.64321C64.7649 8.7747 65.4084 8.29219 66.3092 8.22786C67.1779 8.16352 67.8857 8.64603 68.2075 9.48238C68.2396 9.73972 68.304 9.99705 68.4327 10.3509ZM73.3552 24.0863C74.9317 24.0863 76.1221 23.4751 77.0873 22.2528C78.7603 20.0976 78.9212 16.2375 77.4412 13.8571C75.5108 10.7047 71.1352 10.6404 69.237 13.825C67.6927 16.3983 67.757 19.1325 69.237 21.7381C70.1379 23.2821 71.5213 24.0863 73.3552 24.0863Z" fill="white"/>
<path d="M35.3907 25.1478C35.1977 25.2765 35.0368 25.373 34.9081 25.4695C31.7873 28.6862 24.9022 28.1715 22.457 22.9283C20.5588 18.843 20.6875 14.7578 23.4222 11.0264C26.0604 7.42367 31.7229 7.03767 34.8116 9.90055C35.1977 10.2866 35.4229 10.2222 35.5516 9.67537C35.8733 8.38869 36.8385 8.13135 37.8359 8.26002C38.7689 8.38869 39.4124 9.19287 39.4124 10.2866C39.4124 15.2403 39.4124 20.194 39.4124 25.1478C39.4124 26.6918 38.1254 27.5925 36.7098 27.11C35.9698 26.8527 35.6802 26.2737 35.5194 25.566C35.5194 25.5016 35.455 25.373 35.3907 25.1478ZM25.3848 17.8137C25.3526 19.1647 25.61 20.5479 26.4143 21.7702C28.2804 24.7618 32.3986 24.8583 34.4255 21.9954C36.0985 19.6472 36.0342 15.6585 34.2968 13.3746C32.3342 10.7369 28.5378 10.8012 26.6074 13.4389C25.6743 14.7256 25.3526 16.1731 25.3848 17.8137Z" fill="white"/>
<path d="M91.7261 21.8346C92.8522 18.7465 93.9139 15.7872 94.9756 12.8278C95.3617 11.7341 95.7478 10.6404 96.166 9.5789C96.5521 8.64605 97.2921 8.22788 98.2573 8.29221C98.9973 8.35655 99.7051 8.90339 99.8981 9.64323C100.091 10.3187 99.9946 10.9621 99.7373 11.6054C98.9329 13.5998 98.1608 15.5942 97.3564 17.5885C95.1686 23.1213 92.9809 28.654 90.7609 34.1546C90.6965 34.3476 90.6 34.5406 90.5035 34.7337C89.9566 35.8273 88.8627 36.3098 87.8653 35.8917C86.9001 35.5057 86.4497 34.3798 86.8679 33.2218C87.5114 31.4848 88.1227 29.7477 88.927 28.1072C89.5705 26.7883 89.5061 25.6303 88.927 24.2793C87.1253 20.0654 85.4845 15.7872 83.8115 11.5411C83.5862 10.9621 83.5219 10.2866 83.5862 9.70757C83.6828 8.96772 84.1975 8.45305 84.9697 8.29221C85.774 8.13138 86.4818 8.32438 86.9966 8.99989C87.2218 9.32156 87.4149 9.6754 87.5436 10.0614C88.8627 13.7606 90.1496 17.4599 91.4365 21.1913C91.5652 21.3843 91.6296 21.5451 91.7261 21.8346Z" fill="white"/>
<path d="M12.7405 45.0917C12.9979 44.8987 13.1588 44.77 13.3196 44.6413C15.057 43.1938 17.0517 42.7435 19.2395 43.2903C20.4943 43.612 21.4595 44.3196 22.1995 45.349C22.5534 45.8315 22.7142 45.8315 23.1003 45.3812C24.9342 43.3546 27.2507 42.647 29.8889 43.226C32.5271 43.805 33.9427 45.6707 34.554 48.1797C34.747 49.0161 34.8757 49.8846 34.8757 50.7531C34.9079 53.8411 34.9079 56.897 34.8757 59.9851C34.8757 61.1431 34.4253 61.8829 33.621 62.1724C32.1732 62.6871 30.8863 61.7543 30.8863 60.1459C30.8863 57.0579 30.9184 53.9698 30.8541 50.8818C30.8541 50.0776 30.6932 49.2412 30.4037 48.5014C29.8889 47.1504 28.8272 46.4748 27.3794 46.4427C25.9316 46.4105 24.8698 47.086 24.2585 48.4049C24.0012 48.9839 23.8081 49.6594 23.8081 50.2706C23.7438 53.3908 23.7759 56.5432 23.7759 59.6634C23.7759 59.9529 23.7438 60.2424 23.7116 60.5319C23.5507 61.7543 22.7786 62.3654 21.5238 62.2689C20.5264 62.2046 19.7865 61.4004 19.7865 60.2746C19.7543 57.2187 19.7865 54.1628 19.7543 51.1069C19.7543 50.4957 19.6899 49.8524 19.5612 49.2412C19.143 47.4399 17.8882 46.4105 16.2152 46.4427C14.5422 46.4748 13.2231 47.5685 12.8692 49.3377C12.7405 49.9489 12.7083 50.5922 12.7083 51.2356C12.6762 54.0341 12.7083 56.8005 12.7083 59.5991C12.7083 59.8886 12.7083 60.1781 12.6762 60.4676C12.5475 61.6899 11.8075 62.3333 10.5849 62.3011C9.52317 62.2689 8.75101 61.4648 8.75101 60.2746C8.75101 56.2858 8.75101 52.3293 8.75101 48.3405C8.75101 47.279 8.71883 46.2497 8.75101 45.1882C8.81535 43.7728 10.0379 42.9365 11.3892 43.3868C11.9362 43.5476 12.2579 43.9336 12.4831 44.4483C12.5475 44.6413 12.6118 44.8022 12.7405 45.0917Z" fill="white"/>
<path d="M69.1405 45.0916C69.3979 44.8664 69.6231 44.7377 69.7839 44.5769C72.0361 42.6147 75.6073 42.5504 77.7629 44.4482C78.0525 44.7056 78.3099 44.9951 78.5351 45.2846C79.0177 45.8958 79.082 45.8958 79.5968 45.3489C81.5915 43.2259 84.0367 42.6147 86.7715 43.3867C89.1523 44.0622 90.407 45.8958 90.9862 48.2118C91.2114 49.0481 91.3079 49.9488 91.3079 50.8495C91.3401 53.9054 91.3401 56.9613 91.3079 60.0172C91.3079 61.1752 90.8575 61.915 90.0531 62.2367C88.6053 62.7835 87.3184 61.8507 87.2862 60.2423C87.2862 57.1543 87.2862 54.0984 87.2862 51.0103C87.2862 50.4313 87.2219 49.8523 87.0932 49.3055C86.6428 47.4719 85.388 46.4748 83.6828 46.5391C82.0098 46.6034 80.7229 47.7293 80.369 49.4985C80.2724 50.0775 80.2403 50.6565 80.2403 51.2355C80.2403 54.0662 80.2403 56.9291 80.2403 59.7598C80.2403 60.0493 80.2403 60.3388 80.1759 60.6283C80.0151 61.8507 79.2429 62.4619 78.0203 62.3975C76.9908 62.3332 76.2508 61.529 76.2508 60.371C76.2508 57.2829 76.2508 54.1949 76.2508 51.1068C76.2508 50.1097 76.1221 49.1125 75.6073 48.244C74.3847 46.1209 71.2639 45.9923 69.977 48.051C69.5587 48.6943 69.2692 49.5307 69.237 50.2705C69.1405 53.4229 69.1726 56.6074 69.1726 59.7598C69.1726 60.178 69.1727 60.5962 69.0761 61.0143C68.8509 62.0115 68.0144 62.5262 66.8883 62.4297C65.9875 62.3332 65.3119 61.6255 65.2153 60.6605C65.1832 60.4353 65.2153 60.2423 65.2153 60.0172C65.2153 55.3207 65.2153 50.6243 65.2153 45.8958C65.2153 45.6706 65.2153 45.4454 65.2153 45.2524C65.2797 44.3196 65.9553 43.5797 66.824 43.451C67.8857 43.3224 68.6257 43.7727 69.0118 44.7377C68.9796 44.7377 69.044 44.8664 69.1405 45.0916Z" fill="white"/>
<path d="M61.0326 44.8342C57.4292 40.17 50.3511 42.9364 50.3511 47.665C50.3511 42.9364 43.273 40.17 39.6696 44.8342C35.9375 49.6593 39.6052 58.1193 50.3511 62.9765C61.097 58.0871 64.7648 49.6593 61.0326 44.8342Z" fill="white"/>
<path d="M15.3467 74.1066C15.7649 74.6213 15.958 75.3612 15.958 76.3262C15.958 77.259 15.7327 77.9989 15.3145 78.5457C14.8962 79.0926 14.3171 79.3499 13.5771 79.3499C12.8371 79.3499 12.258 79.0926 11.8398 78.5457C11.4215 77.9989 11.2285 77.259 11.2285 76.3262C11.2285 75.715 11.325 75.1682 11.518 74.7178C11.7111 74.2675 12.0006 73.9136 12.3545 73.6563C12.7085 73.399 13.1267 73.3025 13.6093 73.3025C14.3493 73.3346 14.9284 73.592 15.3467 74.1066ZM12.3224 74.4927C12.0328 74.9108 11.8719 75.522 11.8719 76.3583C11.8719 77.1625 12.0328 77.7737 12.3224 78.1919C12.6119 78.6101 13.0302 78.8352 13.5771 78.8352C14.1241 78.8352 14.5423 78.6101 14.8319 78.1919C15.1215 77.7737 15.2823 77.1625 15.2823 76.3262C15.2823 75.522 15.1215 74.9108 14.8319 74.4927C14.5423 74.0745 14.1241 73.8493 13.5771 73.8493C13.0624 73.8815 12.6441 74.0745 12.3224 74.4927Z" fill="white"/>
<path d="M20.5587 73.4633C20.8161 73.5598 21.0413 73.7206 21.2987 73.9136L20.977 74.3318C20.7839 74.171 20.5909 74.0745 20.3978 73.978C20.2048 73.8815 19.9796 73.8815 19.7222 73.8815C19.2074 73.8815 18.757 74.1066 18.4674 74.5248C18.1457 74.943 17.9848 75.5863 17.9848 76.3905C17.9848 77.1947 18.1457 77.8059 18.4353 78.2241C18.757 78.6422 19.1753 78.8352 19.69 78.8352C19.9474 78.8352 20.1726 78.8031 20.3657 78.7066C20.5587 78.6101 20.7839 78.5136 20.977 78.3527L21.2665 78.7709C20.7839 79.1891 20.2691 79.3821 19.6579 79.3821C19.1753 79.3821 18.757 79.2534 18.4031 79.0282C18.0492 78.8031 17.7596 78.4492 17.5666 77.9989C17.3735 77.5485 17.277 77.0017 17.277 76.3905C17.277 75.7793 17.3735 75.2325 17.5666 74.7822C17.7596 74.3318 18.0492 73.9458 18.4031 73.7206C18.757 73.4955 19.1753 73.3346 19.6579 73.3346C20.0439 73.3346 20.3013 73.3668 20.5587 73.4633Z" fill="white"/>
<path d="M26.3178 74.1066C26.736 74.6213 26.929 75.3612 26.929 76.3262C26.929 77.259 26.7038 77.9989 26.2856 78.5457C25.8673 79.0926 25.2882 79.3499 24.5482 79.3499C23.8082 79.3499 23.2291 79.0926 22.8109 78.5457C22.3926 77.9989 22.1996 77.259 22.1996 76.3262C22.1996 75.715 22.2961 75.1682 22.4891 74.7178C22.6822 74.2675 22.9717 73.9136 23.3256 73.6563C23.6795 73.399 24.0978 73.3025 24.5804 73.3025C25.3204 73.3346 25.8995 73.592 26.3178 74.1066ZM23.2935 74.4927C23.0039 74.9108 22.843 75.522 22.843 76.3583C22.843 77.1625 23.0039 77.7737 23.2935 78.1919C23.583 78.6101 24.0013 78.8352 24.5482 78.8352C25.0952 78.8352 25.5134 78.6101 25.803 78.1919C26.0925 77.7737 26.2534 77.1625 26.2534 76.3262C26.2534 75.522 26.0925 74.9108 25.803 74.4927C25.5134 74.0745 25.0952 73.8493 24.5482 73.8493C24.0334 73.8815 23.6152 74.0745 23.2935 74.4927Z" fill="white"/>
<path d="M32.4308 74.4922C32.7847 74.9747 32.9777 75.6181 32.9777 76.4544C32.9777 77.4194 32.7847 78.1271 32.3664 78.6418C31.9482 79.1565 31.4012 79.3816 30.6612 79.3816C29.9212 79.3816 29.3421 79.0921 28.9239 78.5453C28.5056 77.9985 28.2804 77.1621 28.2804 76.0684C28.2804 75.2321 28.3447 74.5244 28.4413 73.9776C28.5378 73.4307 28.763 73.0125 29.0526 72.6587C29.3421 72.3049 29.7604 72.0475 30.3073 71.8223C30.7256 71.6615 31.0473 71.5328 31.3047 71.4042C31.5621 71.2755 31.7873 71.1468 32.0447 70.986L32.3342 71.4685C31.916 71.758 31.3369 72.0475 30.5969 72.3049C30.2108 72.4335 29.9212 72.5944 29.696 72.7874C29.4708 72.9804 29.31 73.2377 29.1491 73.5915C29.0204 73.9454 28.9239 74.4279 28.8595 75.0391C29.0526 74.6531 29.3421 74.3636 29.6639 74.1384C29.9856 73.9132 30.4038 73.7845 30.8543 73.7845C31.5621 73.7845 32.0769 74.0419 32.4308 74.4922ZM32.3342 76.4866C32.3342 75.7467 32.2055 75.1999 31.9482 74.8461C31.6908 74.4922 31.3369 74.2992 30.8543 74.2992C30.436 74.2992 30.0821 74.4279 29.7604 74.6531C29.4386 74.8782 29.1813 75.2321 28.9882 75.6503V76.2293C28.9882 77.0656 29.1169 77.7089 29.4065 78.1271C29.696 78.5775 30.1143 78.8026 30.6934 78.8026C31.7873 78.8348 32.3342 78.0628 32.3342 76.4866Z" fill="white"/>
<path d="M38.4792 74.1066C38.8974 74.6213 39.0905 75.3612 39.0905 76.3262C39.0905 77.259 38.8653 77.9989 38.447 78.5457C38.0288 79.0926 37.4496 79.3499 36.7096 79.3499C35.9697 79.3499 35.3905 79.0926 34.9723 78.5457C34.554 77.9989 34.361 77.259 34.361 76.3262C34.361 75.715 34.4575 75.1682 34.6506 74.7178C34.8436 74.2675 35.1332 73.9136 35.4871 73.6563C35.841 73.399 36.2592 73.3025 36.7418 73.3025C37.4818 73.3346 38.0609 73.592 38.4792 74.1066ZM35.4871 74.4927C35.1975 74.9108 35.0366 75.522 35.0366 76.3583C35.0366 77.1625 35.1975 77.7737 35.4871 78.1919C35.7766 78.6101 36.1949 78.8352 36.7418 78.8352C37.2888 78.8352 37.707 78.6101 37.9966 78.1919C38.2861 77.7737 38.447 77.1625 38.447 76.3262C38.447 75.522 38.2861 74.9108 37.9966 74.4927C37.707 74.0745 37.2888 73.8493 36.7418 73.8493C36.1949 73.8815 35.7766 74.0745 35.4871 74.4927Z" fill="white"/>
<path d="M44.8819 76.6157H41.1497C41.1819 77.3877 41.375 77.9345 41.6645 78.2884C41.9541 78.6422 42.3723 78.8352 42.8871 78.8352C43.1767 78.8352 43.4341 78.8031 43.6593 78.7066C43.8845 78.6101 44.1419 78.4814 44.3993 78.2562L44.6888 78.6744C44.3993 78.8996 44.1097 79.0926 43.8201 79.2212C43.5306 79.3499 43.2088 79.4142 42.8549 79.4142C42.115 79.4142 41.5358 79.1569 41.1176 78.6101C40.6993 78.0954 40.4741 77.3555 40.4741 76.4227C40.4741 75.8115 40.5706 75.2647 40.7315 74.8143C40.9245 74.364 41.1819 73.978 41.5037 73.7206C41.8576 73.4633 42.2436 73.3346 42.6941 73.3346C43.4019 73.3346 43.9488 73.592 44.3349 74.0745C44.721 74.5891 44.8819 75.2647 44.8819 76.1332C44.914 76.294 44.914 76.4549 44.8819 76.6157ZM44.3027 75.9402C44.3027 75.2968 44.174 74.7822 43.9167 74.3961C43.6593 74.0101 43.2732 73.8493 42.7584 73.8493C42.308 73.8493 41.9219 74.0423 41.6324 74.3961C41.3428 74.75 41.1819 75.329 41.1497 76.101H44.3027V75.9402Z" fill="white"/>
<path d="M53.0538 79.2534V73.978H50.2869V79.2534H49.6756V73.4311H53.6651V79.2534H53.0538Z" fill="white"/>
<path d="M60.0032 79.2534H59.3919V75.6507C59.3919 75.1682 59.424 74.6857 59.4562 74.171L56.6571 79.2534H55.9172V73.4311H56.5285V76.873C56.5285 77.259 56.4963 77.8059 56.4641 78.5136L59.2632 73.4633H60.0032V79.2534Z" fill="white"/>
<path d="M65.7301 73.4311L65.6658 73.978H63.7997V79.2212H63.1884V73.978H61.258V73.4311H65.7301Z" fill="white"/>
<path d="M70.1057 78.6101C70.1701 78.7387 70.2988 78.8352 70.4596 78.8996L70.3309 79.3499C70.0735 79.2856 69.8805 79.1891 69.7518 79.0604C69.6231 78.8996 69.5266 78.6744 69.4944 78.3849C69.1084 79.0282 68.5292 79.3499 67.7571 79.3499C67.2101 79.3499 66.7919 79.1891 66.5023 78.8674C66.1806 78.5457 66.0519 78.1275 66.0519 77.6129C66.0519 77.0017 66.2449 76.5514 66.6632 76.2297C67.0814 75.908 67.6284 75.7472 68.3684 75.7472H69.4301V75.1682C69.4301 74.6857 69.3336 74.364 69.1405 74.1388C68.9475 73.9136 68.5936 73.8171 68.1431 73.8171C67.7249 73.8171 67.2101 73.9136 66.631 74.1388L66.4701 73.6563C67.1136 73.399 67.6927 73.2703 68.2397 73.2703C69.4623 73.2703 70.0735 73.8815 70.0735 75.1038V77.9024C69.977 78.2884 70.0092 78.4814 70.1057 78.6101ZM69.3657 77.838V76.2297H68.4005C67.8214 76.2297 67.4032 76.3584 67.0814 76.5835C66.7919 76.8087 66.631 77.1625 66.631 77.6129C66.631 77.9989 66.7275 78.3206 66.9527 78.5457C67.1458 78.7709 67.4353 78.8674 67.8214 78.8674C68.4971 78.8674 69.0118 78.5136 69.3657 77.838Z" fill="white"/>
<path d="M75.6718 79.2534V76.5192H72.8727V79.2534H72.2614V73.4311H72.8727V75.9724H75.6718V73.4311H76.2831V79.2534H75.6718Z" fill="white"/>
<path d="M82.621 79.2534H82.0097V75.6507C82.0097 75.1682 82.0419 74.6857 82.0741 74.171L79.275 79.2534H78.535V73.4311H79.1463V76.873C79.1463 77.259 79.1141 77.8059 79.0819 78.5136L81.881 73.4633H82.621V79.2534Z" fill="white"/>
<path d="M88.8628 76.6157H85.1307C85.1629 77.3877 85.356 77.9345 85.6455 78.2884C85.9351 78.6422 86.3533 78.8352 86.8681 78.8352C87.1577 78.8352 87.415 78.8031 87.6403 78.7066C87.8655 78.6101 88.1229 78.4814 88.3802 78.2562L88.6698 78.6744C88.3802 78.8996 88.0907 79.0926 87.8011 79.2212C87.5116 79.3499 87.1898 79.4142 86.8359 79.4142C86.0959 79.4142 85.5168 79.1569 85.0986 78.6101C84.6803 78.0954 84.4551 77.3555 84.4551 76.4227C84.4551 75.8115 84.5516 75.2647 84.7125 74.8143C84.9055 74.364 85.1629 73.978 85.4846 73.7206C85.8386 73.4633 86.2246 73.3346 86.6751 73.3346C87.3829 73.3346 87.9298 73.592 88.3159 74.0745C88.702 74.5891 88.8628 75.2647 88.8628 76.1332C88.8628 76.294 88.8628 76.4549 88.8628 76.6157ZM88.2515 75.9402C88.2515 75.2968 88.1229 74.7822 87.8655 74.3961C87.6081 74.0101 87.222 73.8493 86.7072 73.8493C86.2568 73.8493 85.8707 74.0423 85.5812 74.3961C85.2916 74.75 85.1307 75.329 85.0986 76.101H88.2515V75.9402Z" fill="white"/>
<path d="M14.0276 89.8359V91.9911H13.545L13.4163 90.3827H9.42681L9.29812 91.9911H8.81552V89.8359H9.16942C9.36246 89.7072 9.52333 89.5464 9.61985 89.3856C9.71637 89.2247 9.81289 88.9352 9.90941 88.5492C10.0059 88.1632 10.0703 87.5842 10.1025 86.8122L10.2633 84.5926H13.5128V89.8681H14.0276V89.8359ZM12.8694 85.1073H10.8103L10.6816 86.7157C10.6494 87.4555 10.585 88.0024 10.4885 88.4205C10.4242 88.8387 10.2955 89.1282 10.199 89.3212C10.0703 89.5142 9.90941 89.7072 9.71637 89.8359H12.8372V85.1073H12.8694Z" fill="white"/>
<path d="M19.6259 84.5605V90.3827H18.9824V85.1073H16.8268L16.666 87.2625C16.6016 88.131 16.5373 88.7422 16.4729 89.1282C16.4086 89.5142 16.2799 89.8037 16.119 89.9967C15.9581 90.1897 15.7008 90.3506 15.3468 90.4792L15.186 89.9646C15.4112 89.8681 15.6042 89.7394 15.7008 89.6107C15.7973 89.4821 15.8938 89.2247 15.926 88.903C15.9903 88.5814 16.0225 88.0024 16.0868 87.2304L16.312 84.5926H19.6259V84.5605Z" fill="white"/>
<path d="M25.4168 84.5605V90.3827H24.8055V87.9702H23.2934L22.0064 90.3827H21.2986L22.6821 87.8415C22.296 87.7129 22.0064 87.5199 21.8456 87.2625C21.6525 87.0052 21.556 86.6835 21.556 86.2975C21.556 85.7507 21.7491 85.3325 22.103 85.0108C22.4569 84.6891 22.9716 84.5605 23.6473 84.5605H25.4168ZM24.8055 87.4555V85.0751H23.6473C23.1969 85.0751 22.8429 85.1717 22.5856 85.3647C22.3282 85.5577 22.1995 85.8472 22.1995 86.2653C22.1995 87.0695 22.6499 87.4555 23.5508 87.4555H24.8055Z" fill="white"/>
<path d="M34.3611 85.622C34.715 86.1046 34.908 86.7479 34.908 87.5842C34.908 88.5493 34.715 89.2569 34.2967 89.7716C33.8785 90.2863 33.3315 90.5115 32.5915 90.5115C31.8516 90.5115 31.2724 90.222 30.8542 89.6751C30.4359 89.1283 30.2107 88.2919 30.2107 87.1982C30.2107 86.3619 30.2751 85.6542 30.3716 85.1074C30.4681 84.5605 30.6933 84.1424 30.9829 83.7885C31.2724 83.4347 31.6907 83.1773 32.2376 82.9522C32.6559 82.7913 32.9776 82.6627 33.235 82.534C33.4924 82.4053 33.7176 82.2767 33.975 82.1158L34.2646 82.5983C33.8463 82.8878 33.2672 83.1773 32.5272 83.4347C32.1411 83.5633 31.8516 83.7242 31.6264 83.9172C31.4011 84.1102 31.2403 84.3675 31.0794 84.7214C30.9507 85.0752 30.8542 85.5577 30.7898 86.1689C30.9829 85.7829 31.2724 85.4934 31.5942 85.2682C31.9159 85.043 32.3342 84.9144 32.7846 84.9144C33.4924 84.9144 34.0072 85.1395 34.3611 85.622ZM34.2324 87.6164C34.2324 86.8766 34.1037 86.3297 33.8463 85.9759C33.5889 85.622 33.235 85.429 32.7524 85.429C32.3342 85.429 31.9803 85.5577 31.6585 85.7829C31.3368 86.0081 31.0794 86.3619 30.8864 86.7801V87.3591C30.8864 88.1954 31.0151 88.8388 31.3046 89.2569C31.5942 89.7073 32.0124 89.9324 32.5915 89.9324C33.6854 89.9646 34.2324 89.1604 34.2324 87.6164Z" fill="white"/>
<path d="M40.6991 87.713H36.967C36.9991 88.485 37.1922 89.0318 37.4817 89.3857C37.7713 89.7395 38.1895 89.9325 38.7043 89.9325C38.9939 89.9325 39.2513 89.9003 39.4765 89.8038C39.7017 89.7073 39.9591 89.5787 40.2165 89.3535L40.506 89.7717C40.2165 89.9968 39.9269 90.1898 39.6373 90.3185C39.3478 90.4472 39.026 90.5115 38.6721 90.5115C37.9322 90.5115 37.353 90.2542 36.9348 89.7073C36.5165 89.1927 36.2913 88.4528 36.2913 87.52C36.2913 86.9088 36.3878 86.362 36.5487 85.9116C36.7417 85.4613 36.9991 85.0753 37.3209 84.8179C37.6748 84.5606 38.0608 84.4319 38.5113 84.4319C39.2191 84.4319 39.766 84.6893 40.1521 85.1718C40.5382 85.6864 40.6991 86.362 40.6991 87.2305C40.6991 87.4235 40.6991 87.5843 40.6991 87.713ZM40.0878 87.0375C40.0878 86.3941 39.9591 85.8794 39.7017 85.4934C39.4443 85.1074 39.0582 84.9466 38.5435 84.9466C38.093 84.9466 37.7069 85.1396 37.4174 85.4934C37.1278 85.8473 36.967 86.4263 36.9348 87.1983H40.0878V87.0375Z" fill="white"/>
<path d="M46.3298 85.2361C46.6837 85.7508 46.8446 86.4906 46.8446 87.4556C46.8446 88.3885 46.6515 89.1283 46.2976 89.6752C45.9437 90.222 45.3968 90.5115 44.7211 90.5115C44.3994 90.5115 44.0777 90.4472 43.8203 90.2864C43.5629 90.1577 43.3055 89.9325 43.1446 89.7073V92.5702L42.5333 92.6667V84.5606H43.0803L43.1446 85.3969C43.3377 85.1074 43.5951 84.8501 43.8846 84.6893C44.1742 84.5284 44.4959 84.4319 44.8498 84.4319C45.4611 84.4319 45.9759 84.6893 46.3298 85.2361ZM45.7507 89.3213C46.0081 88.9032 46.1689 88.2598 46.1689 87.4556C46.1689 85.8151 45.6863 84.9788 44.689 84.9788C44.3672 84.9788 44.0777 85.0753 43.8203 85.2361C43.5629 85.4291 43.3377 85.6543 43.1125 85.9759V89.064C43.4985 89.643 43.9811 89.9647 44.5924 89.9647C45.1072 89.9647 45.4933 89.7395 45.7507 89.3213Z" fill="white"/>
<path d="M52.6677 87.713H48.9356C48.9678 88.485 49.1608 89.0318 49.4504 89.3857C49.7399 89.7395 50.1582 89.9325 50.673 89.9325C50.9625 89.9325 51.2199 89.9003 51.4451 89.8038C51.6703 89.7073 51.9277 89.5787 52.1851 89.3535L52.4747 89.7717C52.1851 89.9968 51.8956 90.1898 51.606 90.3185C51.3164 90.4472 50.9947 90.5115 50.6408 90.5115C49.9008 90.5115 49.3217 90.2542 48.9034 89.7073C48.4852 89.1927 48.26 88.4528 48.26 87.52C48.26 86.9088 48.3565 86.362 48.5174 85.9116C48.7104 85.4613 48.9678 85.0753 49.2895 84.8179C49.6434 84.5606 50.0295 84.4319 50.4799 84.4319C51.1877 84.4319 51.7347 84.6893 52.1208 85.1718C52.5069 85.6864 52.6677 86.362 52.6677 87.2305C52.6677 87.4235 52.6677 87.5843 52.6677 87.713ZM52.0886 87.0375C52.0886 86.3941 51.9599 85.8794 51.7025 85.4934C51.4451 85.1074 51.0591 84.9466 50.5443 84.9466C50.0939 84.9466 49.7078 85.1396 49.4182 85.4934C49.1287 85.8473 48.9678 86.4263 48.9356 87.1983H52.0886V87.0375Z" fill="white"/>
<path d="M59.6493 90.3827H59.038L58.7485 87.0052C58.7163 86.4583 58.6841 85.8793 58.652 85.236L57.0755 89.6751H56.4963L54.9842 85.236C54.9842 85.8793 54.952 86.4583 54.9198 87.0052L54.6625 90.3827H54.0512L54.5338 84.5605H55.3381L56.8181 88.9995L58.3624 84.5605H59.1667L59.6493 90.3827Z" fill="white"/>
<path d="M65.4725 87.713H61.7404C61.7726 88.485 61.9656 89.0318 62.2552 89.3857C62.5447 89.7395 62.963 89.9325 63.4778 89.9325C63.7673 89.9325 64.0247 89.9003 64.2499 89.8038C64.4751 89.7073 64.7325 89.5787 64.9899 89.3535L65.2795 89.7717C64.9899 89.9968 64.7004 90.1898 64.4108 90.3185C64.1212 90.4472 63.7995 90.5115 63.4456 90.5115C62.7056 90.5115 62.1265 90.2542 61.7082 89.7073C61.29 89.1927 61.0648 88.4528 61.0648 87.52C61.0648 86.9088 61.1613 86.362 61.3222 85.9116C61.5152 85.4613 61.7726 85.0753 62.0943 84.8179C62.4482 84.5606 62.8343 84.4319 63.2847 84.4319C63.9925 84.4319 64.5395 84.6893 64.9256 85.1718C65.3116 85.6864 65.4725 86.362 65.4725 87.2305C65.5047 87.4235 65.4725 87.5843 65.4725 87.713ZM64.8934 87.0375C64.8934 86.3941 64.7647 85.8794 64.5073 85.4934C64.2499 85.1074 63.8638 84.9466 63.3491 84.9466C62.8986 84.9466 62.5126 85.1396 62.223 85.4934C61.9334 85.8473 61.7726 86.4263 61.7404 87.1983H64.8934V87.0375Z" fill="white"/>
<path d="M70.6849 90.3827V87.6485H67.8858V90.3827H67.2745V84.5605H67.8858V87.1017H70.6849V84.5605H71.2962V90.3827H70.6849Z" fill="white"/>
<path d="M76.9908 90.3827V87.6485H74.1917V90.3827H73.5804V84.5605H74.1917V87.1017H76.9908V84.5605H77.6021V90.3827H76.9908Z" fill="white"/>
<path d="M83.6184 88.4205C83.6184 89.0639 83.4254 89.5786 83.0393 89.9002C82.6532 90.2219 82.1384 90.3827 81.4949 90.3827H79.8863V84.5605H80.4976V86.5227H81.3663C82.8784 86.5227 83.6184 87.1339 83.6184 88.4205ZM82.5567 89.5142C82.8141 89.2891 82.9427 88.9352 82.9427 88.4205C82.9427 87.9702 82.8141 87.6164 82.5889 87.3912C82.3636 87.166 81.9454 87.0374 81.3984 87.0374H80.4976V89.8359H81.4306C81.9132 89.8359 82.2993 89.7394 82.5567 89.5142ZM84.6158 84.5605H85.2271V90.3827H84.6158V84.5605Z" fill="white"/>
<path d="M89.2166 87.2625L91.1792 90.3827H90.4392L88.8306 87.6807L87.2219 90.3827H86.5141L88.4767 87.2947L86.7715 84.5605H87.5115L88.8949 86.8765L90.2784 84.5605H90.9862L89.2166 87.2625Z" fill="white"/>
</svg>
