<?xml version="1.0" encoding="utf-8"?>
<!-- Generator: Adobe Illustrator 22.1.0, SVG Export Plug-In . SVG Version: 6.00 Build 0)  -->
<svg version="1.1" id="Слой_1" xmlns="http://www.w3.org/2000/svg" xmlns:xlink="http://www.w3.org/1999/xlink" x="0px" y="0px"
	 viewBox="0 0 140 26" style="enable-background:new 0 0 140 26;" xml:space="preserve">
<style type="text/css">
	.st0{fill:#FFFFFF;}
</style>
<path class="st0" d="M0,1.8v7.8c0,2.7,0,5.4,0,8.1c0,0.9,0.5,1.5,1.3,1.5c1,0,1.5-0.4,1.7-1.3c0-0.2,0-0.4,0-0.5v-5.7
	c0-0.5,0.2-0.7,0.6-0.7h5.2c0.5,0,0.6,0.2,0.6,0.7v1.7c0,0.5,0,1,0,1.5c0,1,0,2,0,3c0,1,0.6,1.6,1.5,1.5c0.9,0,1.4-0.6,1.4-1.5V1.5
	c0-1.2-0.9-1.8-2.1-1.4C9.8,0.3,9.5,0.8,9.5,1.7v5.8c0,0.6-0.2,0.7-0.7,0.7H3.7C3.1,8.2,3,8.1,3,7.4V1.9c0-0.2,0-0.5,0-0.7
	C2.8,0.4,2.3,0,1.5,0C0.7,0,0.1,0.4,0,1.2C0,1.4,0,1.6,0,1.8z M33.5,7.3c0,0-0.1,0-0.1,0.1c0,0,0-0.1,0-0.1
	c-0.1-0.2-0.1-0.4-0.1-0.5C33,6,32.5,5.7,32,5.8c-0.6,0-1.1,0.4-1.2,1c0,0.2-0.1,0.5-0.1,0.7v15.9v0.3c0.1,0.8,0.6,1.3,1.3,1.3
	c0.7,0,1.3-0.4,1.4-1.2c0-0.2,0-0.4,0-0.6v-5c0-0.1,0-0.2,0-0.2l0,0v0l0,0l0,0c0-0.1,0-0.1,0-0.2c0,0,0.1,0,0.1,0v0l0,0
	c0.1,0,0.2,0.1,0.3,0.1c0.9,0.8,2,1.2,3.2,1.2c2,0,3.7-0.7,4.9-2.4c1.5-2.2,1.7-4.7,0.9-7.2c-1.5-4.6-6.6-5.2-9.3-2.7
	C33.6,7.2,33.6,7.2,33.5,7.3z M39.6,15.7C38.9,16.6,38,17,36.9,17c-1.3,0-2.3-0.6-2.9-1.7c-1-1.8-1.1-3.7-0.1-5.5
	c1.3-2.4,4.5-2.4,5.9,0C40.9,11.5,40.7,14.2,39.6,15.7z M48.3,7.3c0.1,0,0.1-0.1,0.1-0.1c0,0,0.1,0,0.1-0.1c2.7-2.5,7.8-1.9,9.3,2.7
	c0.8,2.5,0.6,5-0.9,7.2c-1.2,1.7-2.9,2.4-4.9,2.4c-1.2,0-2.3-0.4-3.2-1.2c-0.1-0.1-0.2-0.1-0.3-0.1h0l0,0h0l0,0l0,0c0,0-0.1,0-0.1,0
	c0,0.1,0,0.1,0,0.2c0,0.1,0,0.1,0,0.2v5c0,0.2,0,0.4,0,0.6c-0.1,0.8-0.7,1.2-1.4,1.2c-0.7,0-1.2-0.5-1.3-1.3v-0.3V7.5
	c0-0.2,0-0.5,0.1-0.7c0.2-0.6,0.6-1,1.2-1c0.6,0,1.1,0.3,1.3,0.9C48.2,6.9,48.2,7.1,48.3,7.3z M51.8,17c1.1,0,2-0.4,2.6-1.3
	c1.2-1.5,1.3-4.2,0.2-5.9c-1.4-2.2-4.5-2.3-5.8,0c-1.1,1.8-1,3.7,0,5.6C49.5,16.4,50.5,17,51.8,17z M24.8,17.8L24.8,17.8L24.8,17.8
	c0,0,0.1-0.1,0.1-0.1c0,0.1,0,0.1,0.1,0.2c0,0.1,0,0.1,0,0.1c0.1,0.5,0.3,0.9,0.8,1.1c1,0.3,1.9-0.3,1.9-1.4V7.3
	c0-0.8-0.5-1.3-1.1-1.4c-0.7-0.1-1.4,0.1-1.6,1C25,7.2,24.8,7.3,24.6,7c-2.2-2-6.2-1.7-8,0.8c-1.9,2.6-2,5.5-0.7,8.4
	c1.7,3.7,6.6,4.1,8.8,1.8C24.7,17.9,24.8,17.9,24.8,17.8z M18.6,15.4c-0.6-0.9-0.7-1.8-0.7-2.8c0-1.2,0.2-2.2,0.9-3.1
	c1.4-1.9,4-1.9,5.4,0c1.2,1.6,1.3,4.4,0.1,6.1C22.9,17.5,20,17.5,18.6,15.4z M64.7,15.4c0.8-2.2,1.5-4.3,2.3-6.4
	c0.3-0.8,0.5-1.5,0.8-2.3c0.3-0.7,0.8-1,1.5-0.9c0.5,0,1,0.4,1.2,1c0.1,0.5,0.1,0.9-0.1,1.4c-0.3,0.7-0.6,1.4-0.8,2.1l0,0
	c-0.3,0.7-0.6,1.4-0.8,2.1l0,0c-1.5,3.9-3.1,7.8-4.7,11.7c0,0.1-0.1,0.3-0.2,0.4v0l0,0v0h0c-0.4,0.8-1.2,1.1-1.9,0.8
	c-0.7-0.3-1-1.1-0.7-1.9c0.1-0.2,0.1-0.3,0.2-0.5v0l0,0c0.4-1.1,0.8-2.1,1.3-3.2c0.5-0.9,0.4-1.7,0-2.7c-1-2.4-2-4.8-2.9-7.2l0,0v0
	l0,0c-0.2-0.6-0.5-1.2-0.7-1.7C59,7.7,59,7.3,59,6.9c0.1-0.5,0.4-0.9,1-1c0.6-0.1,1.1,0,1.4,0.5c0.2,0.2,0.3,0.5,0.4,0.7
	c0.9,2.6,1.8,5.2,2.7,7.9C64.6,15.1,64.7,15.2,64.7,15.4z M84.1,6.7C84,6.8,83.9,6.9,83.7,7c-0.1-0.2-0.1-0.3-0.2-0.5
	c-0.2-0.4-0.4-0.6-0.8-0.7c-1-0.3-1.8,0.3-1.9,1.3c0,0.5,0,1,0,1.5v0v0c0,0.2,0,0.5,0,0.7v8.4c0,0.8,0.5,1.4,1.3,1.4
	c0.9,0,1.4-0.4,1.5-1.3c0-0.2,0-0.4,0-0.6c0-0.7,0-1.3,0-2v0c0-1.3,0-2.6,0-3.9c0-0.5,0-0.9,0.1-1.3C84,8.8,85,8,86.2,8
	c1.2,0,2.1,0.7,2.4,2c0.1,0.4,0.1,0.9,0.1,1.3c0,1.1,0,2.2,0,3.2c0,1.1,0,2.2,0,3.2c0,0.8,0.5,1.4,1.2,1.4c0.9,0.1,1.4-0.4,1.5-1.2
	l0,0c0-0.2,0-0.4,0-0.6c0-0.5,0-1.1,0-1.6v0v0c0-1.7,0-3.3,0-5c0-0.4,0.1-0.9,0.3-1.3C92.3,8.4,93,8,94,8c1,0,1.8,0.5,2.1,1.5
	c0.2,0.5,0.3,1.1,0.3,1.7c0,1.6,0,3.3,0,4.9v0c0,0.5,0,1.1,0,1.6c0,1.1,0.9,1.8,1.9,1.4c0.6-0.2,0.9-0.7,0.9-1.5c0-2.2,0-4.3,0-6.5
	c0-0.6-0.1-1.2-0.2-1.8c-0.4-1.8-1.4-3.1-3.3-3.5c-1.9-0.4-3.5,0.1-4.8,1.5c-0.3,0.3-0.4,0.3-0.6,0c-0.5-0.7-1.2-1.2-2.1-1.5
	C86.7,5.4,85.3,5.7,84.1,6.7z M123.5,7c0.1-0.1,0.2-0.1,0.2-0.2v0c0.1-0.1,0.2-0.1,0.2-0.2c1.6-1.4,4.1-1.4,5.6-0.1
	c0.2,0.2,0.4,0.4,0.5,0.6c0.3,0.4,0.4,0.4,0.7,0c1.4-1.5,3.1-1.9,5.1-1.4c1.7,0.5,2.6,1.8,3,3.4c0.2,0.6,0.2,1.2,0.2,1.9
	c0,2.2,0,4.3,0,6.5c0,0.8-0.3,1.3-0.9,1.6c-1,0.4-1.9-0.3-2-1.4v-6.5c0-0.4,0-0.8-0.1-1.2c-0.3-1.3-1.2-2-2.4-2
	c-1.2,0-2.1,0.8-2.3,2.1c-0.1,0.4-0.1,0.8-0.1,1.2v6c0,0.2,0,0.4,0,0.6c-0.1,0.9-0.7,1.3-1.5,1.2c-0.7,0-1.2-0.6-1.2-1.4v-6.5
	c0-0.7-0.1-1.4-0.5-2c-0.9-1.5-3.1-1.6-4-0.1c-0.3,0.5-0.5,1-0.5,1.6c-0.1,1.8-0.1,3.6,0,5.4v0v0c0,0.4,0,0.9,0,1.3
	c0,0.3,0,0.6-0.1,0.9c-0.2,0.7-0.7,1.1-1.5,1c-0.6-0.1-1.1-0.6-1.2-1.2c0-0.1,0-0.2,0-0.3v0c0-0.1,0-0.1,0-0.2v-10V7.1
	c0-0.7,0.5-1.2,1.1-1.3c0.8-0.1,1.3,0.2,1.5,0.9C123.4,6.8,123.4,6.8,123.5,7L123.5,7C123.5,7,123.5,7,123.5,7z M110.2,8.8
	c0-3.3,5-5.3,7.5-2c2.6,3.4,0,9.4-7.5,12.8c-7.6-3.4-10.2-9.4-7.5-12.8C105.3,3.6,110.2,5.5,110.2,8.8z"/>
</svg>
