<svg width="46" height="48" viewBox="0 0 46 48" fill="none" xmlns="http://www.w3.org/2000/svg">
<path d="M46 0H0V48H46V0Z" fill="#0D8C45"/>
<path fill-rule="evenodd" clip-rule="evenodd" d="M31.8868 20.5225V7.34125C31.8868 6.98578 32.0021 6.68795 32.2327 6.43816C32.4632 6.18837 32.7322 6.06348 33.0589 6.06348C33.3759 6.06348 33.6545 6.18837 33.8851 6.43816C34.1157 6.68795 34.231 6.99539 34.231 7.34125V19.3793H38.5735C38.8713 19.3793 39.1307 19.4946 39.3517 19.7347C39.5727 19.9749 39.688 20.2631 39.688 20.5994C39.688 20.9357 39.5727 21.2239 39.3517 21.4641C39.1307 21.7042 38.8713 21.8195 38.5735 21.8195H33.0589C32.7418 21.8195 32.4632 21.6946 32.2327 21.4448C32.0021 21.1854 31.8868 20.878 31.8868 20.5225ZM6.70593 20.7916V7.56223C6.70593 7.20676 6.81161 6.90893 7.01337 6.67835C7.22473 6.43817 7.47452 6.32288 7.79156 6.32288H12.9795C13.2966 6.32288 13.5656 6.43817 13.7866 6.67835C13.9979 6.91854 14.1036 7.20676 14.1036 7.56223C14.1036 7.89849 13.9979 8.18671 13.7866 8.41728C13.5752 8.64786 13.3062 8.76315 12.9795 8.76315H9.04052V12.241H12.3839C12.7009 12.241 12.9699 12.3563 13.1909 12.5965C13.4023 12.8367 13.5079 13.1249 13.5079 13.4804C13.5079 13.8166 13.4023 14.1048 13.1909 14.3354C12.9795 14.566 12.7105 14.6813 12.3839 14.6813H9.04052V20.8108C9.04052 21.1662 8.92523 21.4641 8.69465 21.7139C8.46408 21.9637 8.19507 22.0885 7.86842 22.0885C7.55138 22.0885 7.27277 21.9637 7.04219 21.7139C6.82122 21.4449 6.70593 21.147 6.70593 20.7916ZM14.6704 20.5898V7.54302C14.6704 7.20676 14.7761 6.91854 14.9875 6.67835C15.1988 6.43817 15.4678 6.32288 15.7753 6.32288H20.9632C21.2707 6.32288 21.5301 6.43817 21.751 6.67835C21.9624 6.91854 22.0681 7.20676 22.0681 7.54302C22.0681 7.87927 21.9624 8.16749 21.751 8.40768C21.5397 8.64786 21.2707 8.76315 20.9632 8.76315H17.005V12.0777H20.5021C20.7999 12.0777 21.0497 12.193 21.2611 12.4236C21.4724 12.6541 21.5685 12.9327 21.5685 13.2498C21.5685 13.5764 21.4628 13.855 21.2611 14.076C21.0497 14.3066 20.7999 14.4219 20.5021 14.4219H17.005V19.3793H21.1458C21.4436 19.3793 21.703 19.4946 21.924 19.7347C22.1449 19.9749 22.2602 20.2632 22.2602 20.5994C22.2602 20.9357 22.1449 21.2239 21.924 21.4641C21.703 21.7043 21.4436 21.8195 21.1458 21.8195H15.7753C15.4678 21.8195 15.2084 21.7043 14.9875 21.4641C14.7761 21.2239 14.6704 20.9357 14.6704 20.5898ZM23.2786 7.54302V20.5898C23.2786 20.9357 23.3843 21.2239 23.5957 21.4641C23.8166 21.7043 24.076 21.8195 24.3835 21.8195H29.754C30.0518 21.8195 30.3112 21.7043 30.5322 21.4641C30.7531 21.2239 30.8684 20.9357 30.8684 20.5994C30.8684 20.2632 30.7531 19.9749 30.5322 19.7347C30.3112 19.4946 30.0518 19.3793 29.754 19.3793H25.6132V14.4219H29.1103C29.4081 14.4219 29.6579 14.3066 29.8693 14.076C30.071 13.855 30.1767 13.5764 30.1767 13.2498C30.1767 12.9327 30.0806 12.6541 29.8693 12.4236C29.6579 12.193 29.4081 12.0777 29.1103 12.0777H25.6132V8.76315H29.5714C29.8789 8.76315 30.1479 8.64786 30.3592 8.40768C30.5706 8.16749 30.6763 7.87927 30.6763 7.54302C30.6763 7.20676 30.5706 6.91854 30.3592 6.67835C30.1383 6.43817 29.8789 6.32288 29.5714 6.32288H24.3835C24.076 6.32288 23.807 6.43817 23.5957 6.67835C23.3843 6.91854 23.2786 7.20676 23.2786 7.54302ZM7.94527 41.0727H13.0948C13.4695 41.0727 13.7865 40.9286 14.0363 40.6307C14.2957 40.3425 14.4302 39.9967 14.4302 39.5835C14.4302 39.1704 14.2957 38.8246 14.0363 38.5363C13.7769 38.2481 13.4599 38.104 13.0852 38.104H9.40558V34.117H12.4415C12.797 34.117 13.114 33.9728 13.3734 33.6942C13.6328 33.4156 13.7673 33.0698 13.7673 32.6759C13.7673 32.282 13.6328 31.9361 13.3734 31.6479C13.114 31.3596 12.8066 31.2155 12.4415 31.2155H9.40558V28.5351H12.9123C13.287 28.5351 13.604 28.391 13.8634 28.1028C14.1228 27.8145 14.2573 27.4687 14.2573 27.0556C14.2573 26.6424 14.1228 26.2966 13.8634 26.0083C13.604 25.7201 13.287 25.576 12.9123 25.576H7.94527C7.54176 25.576 7.19589 25.7393 6.90767 26.0564C6.61945 26.3734 6.47534 26.7577 6.47534 27.1997V39.449C6.47534 39.891 6.61945 40.2753 6.90767 40.5923C7.19589 40.919 7.54176 41.0727 7.94527 41.0727ZM23.855 26.0276L28.8413 39.2088C28.9085 39.401 28.9373 39.5931 28.9373 39.7853C28.9373 40.2176 28.8028 40.5827 28.5338 40.8805C28.2648 41.1783 27.9382 41.3321 27.5443 41.3321C26.891 41.3321 26.4394 40.9766 26.1992 40.2657L25.4306 38.1232H20.4252L19.6855 40.2657C19.4453 40.9766 18.9937 41.3321 18.3404 41.3321C17.9561 41.3321 17.6199 41.1783 17.3509 40.8805C17.0819 40.5827 16.9474 40.2176 16.9474 39.7853C16.9474 39.5931 16.9762 39.401 17.0434 39.2088L22.0393 26.0276C22.2122 25.5568 22.5196 25.3166 22.9423 25.3166C23.3747 25.3166 23.6725 25.5568 23.855 26.0276ZM22.9423 31.0042L21.3379 35.5388H24.5372L22.9423 31.0042ZM38.4294 25.5856H31.3488C30.9741 25.5856 30.657 25.7297 30.388 26.018C30.1286 26.3062 29.9941 26.652 29.9941 27.0652C29.9941 27.4783 30.1286 27.8241 30.388 28.1124C30.6474 28.4006 30.9645 28.5447 31.3392 28.5447H33.4144V39.718C33.4144 40.16 33.5585 40.5443 33.8467 40.8613C34.1349 41.1784 34.4808 41.3417 34.8843 41.3417C35.2878 41.3417 35.6337 41.1784 35.9219 40.8613C36.2101 40.5443 36.3542 40.16 36.3542 39.718V28.5447H38.4294C38.8041 28.5447 39.1211 28.4006 39.3805 28.1124C39.6399 27.8241 39.7744 27.4783 39.7744 27.0652C39.7744 26.652 39.6399 26.3062 39.3805 26.018C39.1211 25.7297 38.8041 25.5856 38.4294 25.5856Z" fill="white"/>
</svg>
