<svg width="20" height="20" viewBox="0 0 20 20" fill="none" xmlns="http://www.w3.org/2000/svg">
<path opacity="0.9" fill-rule="evenodd" clip-rule="evenodd" d="M2.3 5.3C3.9 2.4 7 0.5 10.5 0.5C15.7 0.5 20 4.8 20 10C20 15.2 15.8 19.5 10.5 19.5C6.1 19.5 2.4 16.5 1.3 12.5H3.4C4.5 15.4 7.2 17.5 10.5 17.5C14.6 17.5 18 14.1 18 10C18 5.9 14.6 2.5 10.5 2.5C7.5 2.5 5 4.2 3.7 6.7L6.5 9.5H0V3L2.3 5.3ZM14.808 8.432C14.808 10.304 13.404 11.252 11.16 11.252H9.48V11.924H12.072V12.92H9.48V14H7.524V12.92H6.36V11.924H7.524V5.6H11.16C13.404 5.6 14.808 6.548 14.808 8.432ZM11.148 9.728C12.228 9.728 12.84 9.272 12.84 8.444C12.84 7.628 12.228 7.184 11.148 7.184H9.48V9.728H11.148Z" fill="#C4C4C4"/>
</svg>
