<svg width="17" height="20" viewBox="0 0 17 20" fill="none" xmlns="http://www.w3.org/2000/svg">
<path fill-rule="evenodd" clip-rule="evenodd" d="M11.5334 0.0683239C12.1746 0.194259 11.1328 3.07359 9.57366 4.35167C15.4506 6.71272 24.0333 21.148 6.89314 19.9268C-5.49435 19.0443 1.60632 6.8812 6.65813 4.45831C4.96485 3.38749 3.88255 0.929492 4.51292 0.253603C4.95045 -0.215528 5.58096 0.0550679 6.27521 0.353025C6.81116 0.583038 7.38509 0.829356 7.93758 0.764261C8.25232 0.718738 8.68548 0.598287 9.15186 0.468602C10.0104 0.229874 10.9814 -0.0401468 11.5334 0.0683239ZM12.808 11.432C12.808 13.304 11.404 14.252 9.16 14.252H7.48V14.924H10.072V15.92H7.48V17H5.524V15.92H4.36V14.924H5.524V8.6H9.16C11.404 8.6 12.808 9.548 12.808 11.432ZM9.148 12.728C10.228 12.728 10.84 12.272 10.84 11.444C10.84 10.628 10.228 10.184 9.148 10.184H7.48V12.728H9.148Z" fill="#C4C4C4"/>
</svg>
