<svg width="12" height="408" viewBox="0 0 12 408" fill="none" xmlns="http://www.w3.org/2000/svg">
<path fill-rule="evenodd" clip-rule="evenodd" d="M4.00002 11.6586C1.66962 10.8349 0 8.61244 0 6C0 2.68629 2.68629 0 6 0C9.31371 0 12 2.68629 12 6C12 8.61244 10.3304 10.8349 8 11.6586L7.99999 132.341C10.3304 133.165 12 135.388 12 138C12 140.612 10.3304 142.835 7.99999 143.659L7.99999 264.341C10.3304 265.165 12 267.388 12 270C12 272.612 10.3304 274.835 7.99999 275.659L7.99998 396.341C10.3304 397.165 12 399.388 12 402C12 405.314 9.31371 408 6 408C2.68629 408 0 405.314 0 402C0 399.388 1.66962 397.165 4 396.341L4.00001 275.659C1.66962 274.835 0 272.612 0 270C0 267.388 1.66962 265.165 4.00001 264.341L4.00001 143.659C1.66962 142.835 0 140.612 0 138C0 135.388 1.66962 133.165 4.00001 132.341L4.00002 11.6586Z" fill="#E5E5E5"/>
<mask id="mask0" mask-type="alpha" maskUnits="userSpaceOnUse" x="0" y="0" width="12" height="408">
<path fill-rule="evenodd" clip-rule="evenodd" d="M4.00002 11.6586C1.66962 10.8349 0 8.61244 0 6C0 2.68629 2.68629 0 6 0C9.31371 0 12 2.68629 12 6C12 8.61244 10.3304 10.8349 8 11.6586L7.99999 132.341C10.3304 133.165 12 135.388 12 138C12 140.612 10.3304 142.835 7.99999 143.659L7.99999 264.341C10.3304 265.165 12 267.388 12 270C12 272.612 10.3304 274.835 7.99999 275.659L7.99998 396.341C10.3304 397.165 12 399.388 12 402C12 405.314 9.31371 408 6 408C2.68629 408 0 405.314 0 402C0 399.388 1.66962 397.165 4 396.341L4.00001 275.659C1.66962 274.835 0 272.612 0 270C0 267.388 1.66962 265.165 4.00001 264.341L4.00001 143.659C1.66962 142.835 0 140.612 0 138C0 135.388 1.66962 133.165 4.00001 132.341L4.00002 11.6586Z" fill="#0D8C45"/>
</mask>
<g mask="url(#mask0)">
<rect x="23" y="-6" width="261" height="34" transform="rotate(90 23 -6)" fill="#0D8C45"/>
</g>
</svg>
